<svg version="1.1" xmlns="http://www.w3.org/2000/svg" xmlns:xlink="http://www.w3.org/1999/xlink" x="0px" y="0px"  viewBox="0 0 50 50" enable-background="new 0 0 50 50" xml:space="preserve"><g><defs><rect id="SVGID_1_" width="50" height="50"/></defs><clipPath id="SVGID_2_"><use xlink:href="#SVGID_1_"  overflow="visible"/></clipPath><g id="Far_Crest_1_" clip-path="url(#SVGID_2_)"><g><path fill="#2864BC" d="M29.2,35.6c0,0-0.1,0-0.2-0.1c-0.1-0.1-0.3-0.2-0.4-0.4c-0.2-0.3-0.6-0.8-1-1.1c-0.4-0.4-0.9-0.6-1.3-0.8 c-0.1-0.1-0.2-0.1-0.3-0.1c-0.1-0.1-0.1-0.1-0.2-0.2c-0.1-0.1-0.1-0.3-0.1-0.3s0.1-0.1,0.3-0.1c0.1,0,0.2,0,0.3,0 c0.1,0,0.2,0.1,0.3,0.1c0.4,0.2,1,0.5,1.5,0.9c0.5,0.4,0.9,0.9,1.1,1.3C29.4,35.2,29.2,35.6,29.2,35.6z"/></g><g><path fill="none" d="M24.1,38.2"/></g><path fill="none" stroke="#2864BC" stroke-width="0.6819" stroke-miterlimit="20" d="M27.7,33.8c1.7,0.5,2.7,1.4,3.3,3.7 c1.1-1.8,0.5-5.1-4.1-10.1c-2.5-2.7-4-4-3.7-8.9"/></g><path id="Body_2_" clip-path="url(#SVGID_2_)" fill="#E6EFFC" stroke="#9CBDDB" stroke-width="0.6818" d="M9.2,51 c0.2-1.4,0.3-2.9,0.5-4.3l2.1-7.1l9.9-0.3l2.6,2.2c-0.5,1.1-0.7,3.3-0.9,5.9c-0.1,1.1-0.1,2.2-0.1,3.4"/><g id="Head_1_" clip-path="url(#SVGID_2_)"><g id="face_2_"><g><path fill="#E6EFFC" d="M9.9,46c0.6-4.8,0.9-9.3-1-19.7c-1.6-8.6,6-16.3,14.8-16.9c8.7-0.6,16.8,6,16.9,14.8 c0.1,8.8-3.6,10.6-8.5,12.4"/><g><path fill="#9CBDDB" d="M9.4,46.7c0,0,0.2-1.4,0.4-3.7c0.2-2.4,0.2-5.8-0.2-9.8c-0.2-2-0.5-4.2-1-6.5c-0.5-2.3-0.3-5,0.7-7.4 c1-2.4,2.7-4.7,4.8-6.4c2.1-1.7,4.7-2.9,7.5-3.5c2.7-0.5,5.6-0.4,8.2,0.5c2.6,0.8,5,2.3,6.8,4.2c1.8,1.9,3.1,4.1,3.8,6.4 c0.7,2.3,0.6,4.6,0.4,6.7c-0.2,2.1-0.8,4-1.8,5.4c-1,1.4-2.3,2.2-3.4,2.8c-1.1,0.5-2,0.8-2.6,1c-0.6,0.2-0.9,0.3-0.9,0.3 s0.3-0.1,0.9-0.4c0.6-0.3,1.4-0.6,2.5-1.2c1-0.6,2.2-1.4,3.1-2.8c0.9-1.3,1.4-3.1,1.6-5.1c0.2-2,0.2-4.2-0.4-6.4 c-0.6-2.2-1.9-4.4-3.6-6.1c-1.8-1.8-4-3.2-6.5-4c-2.5-0.8-5.3-1-7.9-0.4c-2.6,0.5-5.1,1.7-7.2,3.3c-2.1,1.6-3.7,3.8-4.6,6.1 c-0.9,2.3-1.1,4.8-0.6,7.1c0.4,2.3,0.8,4.5,1,6.6c0.5,4.1,0.4,7.5,0.2,9.9c-0.2,2.4-0.4,3.7-0.4,3.7L9.4,46.7z"/></g></g><g><path fill="#E6EFFC" d="M39.2,30.4C39,33.3,40.7,34,40.7,35c-0.1,4.2-8.9,8.3-19.8,6"/><g><path fill="#9CBDDB" d="M39.8,30.9c0,0,0,0.1-0.1,0.2c0,0.1,0,0.1,0,0.3c0,0.1,0.1,0.3,0.1,0.5c0.1,0.3,0.2,0.8,0.4,1.2 c0.1,0.5,0.4,1,0.5,1.7c0,0.2,0,0.4,0,0.6c0,0.2,0,0.3-0.1,0.5c-0.1,0.4-0.2,0.7-0.4,1.1c-0.4,0.7-0.9,1.3-1.5,1.8 c-1.3,1-2.9,1.8-4.5,2.3c-1.6,0.5-3.3,0.8-4.9,0.9c-1.6,0.1-3.1,0.1-4.3-0.1c-0.6-0.1-1.2-0.2-1.7-0.3 c-0.5-0.1-0.9-0.2-1.3-0.3c-0.7-0.2-1.1-0.4-1.1-0.4s0.4,0,1.2,0.1c0.7,0.1,1.8,0.2,3,0.2c2.5,0.1,5.8,0.1,9-0.9 c1.6-0.5,3.1-1.2,4.3-2.1c0.6-0.5,1.1-1,1.4-1.6c0.1-0.3,0.3-0.6,0.3-0.9c0-0.1,0-0.3,0.1-0.5c0-0.1,0-0.3,0-0.4 c-0.1-0.6-0.3-1.1-0.5-1.6c-0.2-0.5-0.3-0.9-0.4-1.3c0-0.2-0.1-0.3-0.1-0.5c0-0.2,0-0.4,0-0.5c0-0.2,0.1-0.3,0.1-0.3L39.8,30.9 z"/></g></g></g><g id="right_eye_2_"><g><path fill="none" d="M40.9,18.8"/></g><g><path fill="none" d="M39.1,21.2"/></g><g><defs><path id="SVGID_3_" d="M37.4,18.5c-1.8-0.1-3.1,2.7-3.4,7c-0.3,4.2,1.2,7.9,3,8c0.1,0,0.2,0,0.4,0c0.4-0.4,0.7-0.8,1-1.2 c0.2-0.3,0.4-0.7,0.6-1.1c0.2-0.4,0.3-0.8,0.5-1.2C39.7,29,39.9,28,40,27c0.1-1,0.1-2.1,0.1-3.1c0-1.1-0.2-2.2-0.5-3.3 c-0.1-0.3-0.2-0.6-0.3-0.8C38.8,19,38.1,18.5,37.4,18.5z"/></defs><clipPath id="SVGID_4_"><use xlink:href="#SVGID_3_"  overflow="visible"/></clipPath><path clip-path="url(#SVGID_4_)" fill="#FFFFFF" d="M40.8,25.9c-0.3,4.2-2,7.6-3.8,7.5c-1.8-0.1-3.3-3.7-3-8 c0.3-4.2,1.5-7.1,3.4-7C39.2,18.6,41.1,21.7,40.8,25.9z"/><g clip-path="url(#SVGID_4_)"><g><defs><path id="SVGID_5_" d="M38.5,26.6c0,3.4-1.3,6.1-3,6.1c-1.7-0.1-3-2.9-3-6.3c0-3.4,1.3-6.1,3-6.1 C37.2,20.3,38.5,23.1,38.5,26.6z"/></defs><clipPath id="SVGID_6_"><use xlink:href="#SVGID_5_"  overflow="visible"/></clipPath>  <linearGradient id="SVGID_7_" gradientUnits="userSpaceOnUse" x1="76.4579" y1="119.4262" x2="77.0105" y2="108.1889" gradientTransform="matrix(0.9988 -4.790000e-002 4.790000e-002 0.9988 -46.5484 -84.1679)"><stop  offset="0" style="stop-color:#F6DF58"/><stop  offset="0.7" style="stop-color:#FF8D38"/></linearGradient><path clip-path="url(#SVGID_6_)" fill="url(#SVGID_7_)" d="M38.5,26.6c0,3.4-1.3,6.1-3,6.1c-1.7-0.1-3-2.9-3-6.3 c0-3.4,1.3-6.1,3-6.1C37.2,20.3,38.5,23.1,38.5,26.6z"/><polygon clip-path="url(#SVGID_6_)" fill="#F9E98C" points="35.3,27.7 39.1,25.3 38.9,27.9 						"/><polygon clip-path="url(#SVGID_6_)" fill="#FCF1BD" points="35.6,27.8 39.2,27.4 38.8,29.6 						"/></g><path d="M37.5,26.9c0,2.6-1,4.7-2.2,4.7c-1.2,0-2.3-2.2-2.3-4.8c0-2.6,1-4.7,2.2-4.7C36.5,22.1,37.5,24.3,37.5,26.9z"/><path fill="#FFFFFF" d="M35.2,26.2c-0.7-0.2-1-1.4-0.6-2.6c0.4-1.2,1.2-2,2-1.8c0.7,0.2,1,1.4,0.6,2.6 C36.7,25.6,35.9,26.5,35.2,26.2z"/><path fill="#FFFFFF" d="M35.2,29c-0.3-0.2-0.4-0.6-0.1-1.1c0.2-0.4,0.6-0.6,0.9-0.5s0.4,0.6,0.1,1.1 C35.9,28.9,35.5,29.1,35.2,29z"/></g></g><g><path d="M36.2,33.1c0,0-0.1-0.1-0.2-0.2c-0.1-0.1-0.3-0.3-0.6-0.5c-0.4-0.5-1-1.3-1.4-2.3c-0.8-2.1-0.9-5.3-0.1-8.2 c0.2-0.7,0.5-1.4,0.9-2.1c0.4-0.6,0.8-1.3,1.7-1.6l0.2-0.1l0.3,0c0.2,0,0.4,0,0.6,0.1c0.4,0.1,0.7,0.3,0.9,0.6 c0.5,0.5,0.8,1,1.1,1.6c0.5,1.1,0.7,2,0.8,2.6c0.1,0.6,0.2,1,0.2,1L40,24c0,0,0-0.4-0.1-1c-0.1-0.6-0.3-1.5-0.7-2.5 c-0.2-0.5-0.5-1-0.9-1.4c-0.4-0.4-0.9-0.6-1.5-0.4c-0.5,0.2-0.9,0.7-1.3,1.3c-0.3,0.6-0.6,1.3-0.8,2c-0.4,1.4-0.6,2.8-0.5,4.2 c0,1.3,0.2,2.6,0.6,3.6c0.3,1,0.7,1.8,1,2.4c0.2,0.3,0.3,0.5,0.4,0.6C36.2,33,36.2,33.1,36.2,33.1z"/></g></g><g id="left_eye_1_"><g><path d="M17.2,24.2c0,0-4.8-0.6-4.8-0.9c0.1-0.3,4.5,0,4.5,0L17.2,24.2z"/><path d="M17.3,22.4c0,0-3.8-2.4-3.6-2.7c0.2-0.3,4,1.8,4,1.8L17.3,22.4z"/><path d="M18.4,20.6c0,0-2.1-3.6-1.8-3.8c0.3-0.2,2.6,3.2,2.6,3.2L18.4,20.6z"/></g>  <ellipse transform="matrix(0.9978 -6.637052e-002 6.637052e-002 0.9978 -1.7506 1.5969)" fill="#FFFFFF" cx="23.2" cy="27.1" rx="6.2" ry="8.6"/><g><defs><path id="SVGID_8_" d="M29.4,26.7c-0.3-4.8-3.5-8.4-7-8.2c-0.5,0-1,0.2-1.5,0.3c-0.2,0-0.3,0.1-0.5,0.1 c-3.3,0.9-5.1,5.3-3.9,9.9c1.2,4.6,4.8,7.7,8.2,6.8c1.5-0.4,2.7-1.5,3.5-3.1C29.1,31,29.5,28.9,29.4,26.7z"/></defs><clipPath id="SVGID_9_"><use xlink:href="#SVGID_8_"  overflow="visible"/></clipPath><g clip-path="url(#SVGID_9_)"><defs><path id="SVGID_10_" d="M28.4,27.2c0,3.9-2.3,7.1-5,7.1c-2.8,0-5-3.2-4.9-7.1c0-3.9,2.3-7.1,5-7.1 C26.2,20.1,28.4,23.3,28.4,27.2z"/></defs><clipPath id="SVGID_11_"><use xlink:href="#SVGID_10_"  overflow="visible"/></clipPath>  <linearGradient id="SVGID_12_" gradientUnits="userSpaceOnUse" x1="121.5335" y1="387.097" x2="124.3585" y2="373.8499" gradientTransform="matrix(0.9759 -0.2182 0.2182 0.9759 -179.5979 -317.503)"><stop  offset="0" style="stop-color:#F6DF58"/><stop  offset="0.7" style="stop-color:#FF8D38"/></linearGradient><path clip-path="url(#SVGID_11_)" fill="url(#SVGID_12_)" d="M28.4,27.2c0,3.9-2.3,7.1-5,7.1c-2.8,0-5-3.2-4.9-7.1 c0-3.9,2.3-7.1,5-7.1C26.2,20.1,28.4,23.3,28.4,27.2z"/><polygon clip-path="url(#SVGID_11_)" fill="#FCF1BD" points="17.3,29.1 25.3,27.7 18.6,31.7 					"/><polygon clip-path="url(#SVGID_11_)" fill="#F9E98C" points="17.4,26.7 25.4,27.8 17.5,29.5 					"/></g><path clip-path="url(#SVGID_9_)" d="M27.2,27.3c0,3-1.7,5.5-3.7,5.5c-2,0-3.6-2.5-3.5-5.5c0-3,1.7-5.5,3.7-5.5 C25.7,21.8,27.3,24.3,27.2,27.3z"/><path clip-path="url(#SVGID_9_)" fill="#FFFFFF" d="M23.2,21.1c1.1,0.2,1.7,1.7,1.2,3.3c-0.5,1.6-1.7,2.7-2.8,2.4 c-1.1-0.2-1.7-1.7-1.2-3.3C20.8,21.9,22,20.8,23.2,21.1z"/><path clip-path="url(#SVGID_9_)" fill="#FFFFFF" d="M25.6,27.1c0.4,0.1,0.5,0.5,0.4,1c-0.2,0.5-0.6,0.8-0.9,0.7 c-0.4-0.1-0.5-0.5-0.4-1C24.8,27.3,25.3,27,25.6,27.1z"/></g><g><path d="M16.8,24.2c0,0-0.1-0.1-0.2-0.3c-0.2-0.2-0.1-0.5,0-0.9c0.2-0.7,0.7-1.8,1.7-2.8c0.9-1,2.3-1.9,4-2 c0.8-0.1,1.8,0.1,2.6,0.5c0.8,0.4,1.6,0.9,2.2,1.5c1.2,1.3,2,2.9,2.4,4.5c0.4,1.6,0.4,3.1,0.2,4.4c-0.3,1.3-0.7,2.3-1.1,2.9 c-0.4,0.6-0.7,1-0.7,1s0.2-0.4,0.4-1.1c0.2-0.7,0.5-1.7,0.5-2.9c0.1-1.2,0.1-2.7-0.3-4.1c-0.4-1.5-1.1-3-2.2-4.1 c-1.1-1.2-2.6-1.9-4.1-1.7c-1.4,0.1-2.7,0.9-3.5,1.8c-0.8,0.9-1.3,1.8-1.5,2.4c-0.1,0.3-0.2,0.6-0.2,0.8c0,0.2,0,0.3,0,0.3 L16.8,24.2z"/></g></g><g id="fluff_1_"><path fill="#E6EFFC" d="M39.6,33.1c0.5,0.4,1.5,1.6,1.5,1.7c0.1,0.3-0.4,0.3-0.5,0.3c-0.1,0,0.2,0.7,0.3,1.1 c0.1,0.4,0.2,0.8,0,0.8c-0.2,0-0.2-0.2-0.3-0.3c-0.1-0.2-0.1,0.2-0.2,0.5c-0.1,0.2-0.3,0.8-0.4,0.6c-0.1-0.2,0.2-1.2-0.3-1.7 C39.2,35.5,39.6,33.1,39.6,33.1z"/><g><path fill="#9CBDDB" d="M40.1,34.7c0,0,0.1,0,0.2,0.1c0.1,0,0.3,0,0.5-0.1c0,0,0.1,0,0.1-0.1c0,0,0.1-0.1,0,0c0,0,0,0.1,0,0.1 l0,0c0,0,0,0,0,0c0,0,0,0,0,0c0,0-0.1,0-0.1-0.1c-0.2-0.1-0.6-0.3-0.8-0.6c-0.1-0.2-0.2-0.3-0.3-0.5c-0.1-0.2-0.1-0.3-0.2-0.4 c-0.1-0.3-0.2-0.6-0.2-0.8c-0.1-0.5-0.2-0.8-0.2-0.8l0.7-0.1c0,0,0,0.3,0.1,0.7c0.1,0.2,0.1,0.5,0.2,0.8 c0.1,0.3,0.2,0.6,0.3,0.8c0.1,0.2,0.3,0.4,0.6,0.5c0.1,0,0.1,0.1,0.2,0.2c0,0,0.1,0.1,0.1,0.2c0,0,0,0,0,0.1l0,0 c0,0.1,0,0.1,0,0.2C41.2,35,41.1,35,41.1,35c-0.1,0-0.1,0-0.2,0.1c-0.3,0-0.5,0-0.6-0.1C40.1,34.8,40.1,34.7,40.1,34.7z"/></g><g><path fill="#9CBDDB" d="M40.8,34.8c0.2,0.5,0.4,1,0.5,1.6c0,0.2,0,0.3-0.1,0.5c0,0.1-0.1,0.2-0.2,0.2l0,0l0,0l0,0l-0.1,0l0,0 l0,0c0,0-0.2,0-0.2,0c0,0,0,0,0,0c0-0.1-0.1-0.1-0.1-0.1c-0.1-0.3-0.2-0.5-0.3-0.8l0,0l0.3-0.1c0,0.3,0,0.5-0.1,0.8 c0,0.1-0.1,0.3-0.1,0.4c-0.1,0.1-0.2,0.3-0.4,0.4c0,0-0.1,0.1-0.3-0.1c-0.1-0.1,0-0.2,0-0.2l0.1-0.2c0.1-0.1,0.1-0.2,0.1-0.4 c0-0.3,0-0.5-0.1-0.8c0.2,0.2,0.3,0.5,0.3,0.8c0,0.1,0,0.3,0,0.4l0,0.2c0,0,0,0.1,0,0c-0.1-0.1-0.1,0-0.1-0.1 c0.1,0,0.2-0.3,0.3-0.5c0-0.3,0.1-0.5,0.1-0.8l0.1-0.6l0.3,0.5l0,0c0.1,0.3,0.2,0.5,0.3,0.7c0,0,0,0,0,0c0,0,0,0,0,0 c0,0-0.1,0-0.2,0l0,0l0,0c0,0,0.1,0-0.1,0l0,0l0,0l0,0l0,0c0,0,0-0.1,0-0.1c0-0.1,0-0.2,0-0.3c-0.1-0.5-0.3-1-0.5-1.4L40.8,34.8 z"/></g></g><g id="Muzzle_1_"><path fill="#E6EFFC" d="M31.9,33.6c2.4-0.7,5.3-0.2,5.7,0c1.8,0.6-0.7,5.6-4.6,6c-1.9,0.2-3.1-0.2-4.2-2.1L31.9,33.6z"/><g><path fill="#9CBDDB" d="M31.9,33.6c0,0,0.1,0,0.2-0.1c0.1-0.1,0.3-0.1,0.6-0.2c0.5-0.2,1.3-0.3,2.3-0.3c0.5,0,1,0,1.5,0.1 c0.3,0,0.5,0.1,0.8,0.1c0.2,0,0.2,0,0.5,0.2c0.1,0.1,0.2,0.1,0.4,0.3c0.3,0.4,0.3,0.7,0.3,1.1c0,0.3-0.1,0.7-0.2,1 c-0.2,0.6-0.6,1.2-1,1.7c-0.4,0.5-0.9,1-1.4,1.4c-0.5,0.4-1.1,0.7-1.7,0.9c-0.3,0.1-0.6,0.2-0.9,0.2C33.2,40,32.9,40,32.7,40 c-0.6,0-1.1,0-1.6-0.1c-1-0.3-1.6-1-1.9-1.4c-0.3-0.5-0.5-0.8-0.5-0.8l0.6-0.3c0,0,0.1,0.3,0.4,0.7c0.3,0.4,0.8,1,1.6,1.2 c0.4,0.1,0.9,0.1,1.4,0.1c0.3,0,0.5,0,0.8-0.1c0.3,0,0.5-0.1,0.8-0.2c0.5-0.2,1-0.5,1.5-0.8c0.5-0.3,0.9-0.8,1.3-1.2 c0.4-0.5,0.7-1,0.9-1.5c0.1-0.3,0.2-0.5,0.2-0.8c0-0.2,0-0.5-0.1-0.6c0,0-0.2-0.1-0.3-0.2c0,0-0.2-0.1-0.3-0.1 c-0.3,0-0.5-0.1-0.8-0.1c-0.5-0.1-1-0.1-1.5-0.1c-0.9,0-1.7-0.1-2.2,0C32.3,33.6,31.9,33.6,31.9,33.6z"/></g><g><path fill="#9CBDDB" d="M30.3,37.2c0,0-0.2,0.1-0.5,0.1c-0.3,0.1-0.6,0.2-1,0.3c-0.3,0.2-0.6,0.4-0.8,0.6 c-0.2,0.2-0.4,0.3-0.4,0.3s0-0.2,0.1-0.5c0.1-0.3,0.4-0.7,0.8-0.9c0.2-0.1,0.4-0.2,0.6-0.2c0.2,0,0.4,0,0.6,0 C30.2,37.1,30.3,37.2,30.3,37.2z"/></g><g><path fill="#9CBDDB" d="M32,34.3c0,0,0.2,0,0.4,0.1c0.1,0,0.2,0.1,0.4,0.2c0.1,0,0.1,0.1,0.2,0.2c0.1,0.1,0.1,0.1,0.2,0.3 c0,0.1,0.1,0.2,0,0.3c0,0.1-0.1,0.2-0.1,0.3c-0.1,0.2-0.3,0.3-0.4,0.3c-0.2,0.1-0.4,0.1-0.4,0.1c0,0,0.1-0.1,0.3-0.2 c0.1-0.1,0.2-0.4,0.2-0.7c-0.1-0.3-0.2-0.5-0.4-0.6C32.1,34.4,32,34.3,32,34.3z"/></g></g></g><g id="Crest" clip-path="url(#SVGID_2_)"><path fill="#3DA9FF" d="M5.2,51.8c2-1,3.5-2,3.5-4.5c0-2.5-2.2-29.9-2.2-29.9l0.3-5.2c-3.3,0.3-6.7,8.4-5.4,15.5 c0.9-1.6,1.4-1.8,1.4-1.8c-0.4,3.6-0.6,9.4,1.6,14.5C6.1,44.6,6.1,50.2,5.2,51.8z"/><path fill="#94D4FF" d="M6.5,16.4c-2.2,2.6-2.4,5.4-2.4,6.9c0.3-0.6,0.8-1,1.3-1.1c-2.8,12.3,4,17.5,1.9,28.7 c2.9-2.4,3.9-5.7,3.5-9.5c1.2,0.2,2.1,0.2,2.1,0.2c-2.5-3.1-3.5-6.8-3.2-9.8c0,0,1.6,0.7,2.9,0.9c-2.4-3.7-2.8-5.5-3.1-8.9 L6.5,16.4z"/><g><g><path fill="#2864BC" d="M9.7,22.8c0,0.2,0,0.5,0,0.6c0,0.2,0,0.4,0,0.6c0,0.4,0.1,0.9,0.1,1.3c0.1,0.9,0.3,1.7,0.6,2.5 c0.5,1.6,1.2,3.3,2.3,4.6l0,0l0.5,0.7l-0.8-0.1c-0.5-0.1-1-0.2-1.4-0.3c-0.5-0.2-0.9-0.4-1.3-0.7c-0.8-0.6-1.4-1.4-1.8-2.2 c0.3,0.4,0.6,0.7,1,1c0.4,0.3,0.7,0.5,1.1,0.7c0.8,0.4,1.7,0.6,2.6,0.8L12.2,33l0,0c-1.2-1.4-1.9-3.1-2.4-4.8 c-0.3-0.9-0.5-1.7-0.6-2.6c-0.1-0.4-0.1-0.9-0.1-1.4c0-0.2,0-0.5,0-0.7c0-0.2,0-0.4,0-0.7L9.7,22.8z"/></g><g><path fill="#2864BC" d="M9.9,31.6c-0.1,0.5-0.1,0.9-0.1,1.3c0,0.4,0,0.9,0.1,1.3c0.1,0.9,0.3,1.7,0.6,2.6 c0.6,1.7,1.5,3.2,2.6,4.6l0.4,0.5l-0.6,0.1c-0.6,0.1-1.2,0.1-1.7-0.1c-0.6-0.2-1.1-0.4-1.5-0.8c-0.5-0.3-0.8-0.8-1.1-1.2 c-0.3-0.4-0.6-0.9-0.8-1.4c0.6,0.9,1.3,1.7,2.2,2.2c0.4,0.3,0.9,0.4,1.4,0.5c0.5,0.1,1,0.1,1.5,0.1l-0.2,0.6 c-1.2-1.4-2.2-3-2.8-4.8c-0.3-0.9-0.5-1.8-0.6-2.7c-0.1-0.5-0.1-0.9-0.1-1.4c0-0.5,0.1-0.9,0.1-1.4L9.9,31.6z"/></g><path fill="none" stroke="#2864BC" stroke-width="0.6818" stroke-miterlimit="20" d="M10.8,41.4c0.7,3.4-1.3,9.1-5.6,10.4 C7,47.5,4.7,41.7,3.4,38.5c-1.4-3.7-1.5-10-0.5-12.5c-0.7,0.5-1.3,1.3-1.7,2.1c-1-5.7,0.8-13.9,5.6-16.1"/></g></g><g id="Forelock" clip-path="url(#SVGID_2_)"><path fill="#3DA9FF" d="M16.2,13.2c1.3,2.9,5.1,4,6.4,4.1c-0.4-0.6-0.7-1.2-0.7-1.2c6.5-0.5,15.6,3.8,20.4,11.1 c1.8-4.1-1-12.2-2.3-13.5c2.1,0.5,5.9,2.4,7.8,4.2c-0.6-6.5-4.2-11-10.1-13.9c-5.1-2.3-12-0.7-13.2-0.5c0.6-1.5,2.6-2.5,2.6-2.5 c-6.4-1.3-11.8,2.1-13.6,4"/><path fill="#94D4FF" d="M14.9,7.1c6-2.1,14.9-1.6,23.2,4.8c4.9,3.9,5.4,12.8,4.2,15.4c-2-5.5-5.5-11.1-9.4-14 c0.6,1.1,0.7,1.8,0.9,2.4c-1.8-2.2-5.5-3.9-8.5-4.6c1.1,0.8,1.5,1.3,1.8,1.7c-1.4-0.9-7.5-1.4-11.1-0.2"/><g><g><path fill="#2864BC" d="M16.5,12.8c0.1,0.2,0.1,0.3,0.2,0.5c0.1,0.1,0.2,0.3,0.3,0.4c0.2,0.3,0.4,0.5,0.6,0.8 c0.5,0.5,1,0.9,1.5,1.3c1.1,0.7,2.4,1.3,3.7,1.4l0,0l-0.3,0.6c-0.4-0.5-0.8-1-1-1.6c-0.2-0.6-0.4-1.2-0.4-1.8 c0.2,0.6,0.4,1.1,0.8,1.6c0.3,0.5,0.7,0.9,1.1,1.3l0.8,0.7l-1.1-0.1l0,0c-1.5-0.2-2.8-0.7-4-1.5c-0.6-0.4-1.2-0.9-1.7-1.4 c-0.2-0.3-0.5-0.5-0.7-0.9c-0.1-0.1-0.2-0.3-0.3-0.5c-0.1-0.2-0.2-0.3-0.2-0.5L16.5,12.8z"/></g><g><path fill="#2864BC" d="M21.9,15.8c0.5,0,1,0,1.5,0c0.5,0,1,0,1.5,0.1c0.5,0.1,1,0.1,1.5,0.2c0.5,0.1,1,0.2,1.5,0.4 c0.5,0.1,1,0.3,1.5,0.5c0.5,0.2,1,0.3,1.4,0.5c0.5,0.2,0.9,0.4,1.4,0.6c0.5,0.2,0.9,0.5,1.4,0.7c0.4,0.2,0.9,0.5,1.3,0.8 c0.4,0.3,0.9,0.6,1.3,0.9c0.4,0.3,0.8,0.6,1.2,0.9c0.4,0.3,0.8,0.6,1.2,1c0.4,0.4,0.8,0.7,1.1,1.1c0.3,0.4,0.7,0.7,1,1.1 c0.3,0.4,0.7,0.8,1,1.2l0.9,1.2l0,0L42,27.2c0.2-0.6,0.3-1.3,0.4-2c0.1-0.7,0.1-1.4,0.1-2c0-0.7-0.1-1.4-0.2-2 c0-0.3-0.1-0.7-0.2-1c0-0.3-0.1-0.7-0.2-1c-0.1-0.3-0.2-0.7-0.3-1c-0.1-0.3-0.2-0.7-0.3-1c-0.1-0.3-0.2-0.6-0.4-0.9 c-0.1-0.3-0.3-0.6-0.5-0.9c-0.2-0.3-0.3-0.6-0.5-0.9c-0.2-0.3-0.3-0.6-0.5-0.9c-0.2-0.3-0.4-0.6-0.6-0.8L38,11.9l0.9,0.6 c0.3,0.2,0.5,0.5,0.8,0.7c0.3,0.2,0.5,0.5,0.7,0.8c0.2,0.3,0.4,0.6,0.6,0.9c0.2,0.3,0.3,0.6,0.5,1c0.2,0.3,0.3,0.7,0.4,1 c0.1,0.3,0.2,0.7,0.3,1c0.1,0.3,0.2,0.7,0.3,1c0.1,0.3,0.2,0.7,0.2,1c0.1,0.4,0.1,0.7,0.2,1c0.1,0.7,0.1,1.4,0.2,2.1 c0,0.7,0,1.4-0.1,2.1c-0.1,0.7-0.2,1.4-0.4,2.1L42.4,28L42,27.5l0,0l-0.9-1.2c-0.3-0.4-0.6-0.8-1-1.2c-0.3-0.4-0.7-0.7-1-1.1 c-0.3-0.4-0.7-0.7-1.1-1c-0.4-0.3-0.7-0.7-1.1-1c-0.4-0.3-0.8-0.6-1.2-0.9c-0.4-0.3-0.8-0.6-1.2-0.8c-0.4-0.3-0.8-0.5-1.3-0.8 c-0.4-0.3-0.9-0.5-1.3-0.7c-0.4-0.2-0.9-0.4-1.4-0.6c-0.5-0.2-0.9-0.4-1.4-0.5c-0.5-0.2-0.9-0.3-1.4-0.4c-0.5-0.1-1-0.2-1.4-0.3 c-0.5-0.1-1-0.2-1.5-0.2c-0.5-0.1-1-0.1-1.5-0.1c-0.5,0-1,0-1.5,0L21.9,15.8z"/></g><g><path fill="#2864BC" d="M39.9,13.4c0.7,0.2,1.5,0.4,2.2,0.7c0.7,0.3,1.4,0.6,2.1,0.9c1.4,0.7,2.7,1.6,3.8,2.8l0,0l-0.6,0.3 c-0.2-2.7-1.1-5.3-2.6-7.6c-1.5-2.3-3.6-4.1-6-5.4C37.7,4.5,36.4,4,35,3.7c-0.7-0.2-1.3-0.3-2-0.3l-1-0.1l-1,0 c-0.7,0-1.4,0-2,0.1c-0.7,0-1.4,0.1-2,0.2c-0.7,0.1-1.4,0.2-2,0.3c-0.7,0.1-1.3,0.3-2,0.4c0.6-0.3,1.3-0.5,2-0.7 c0.7-0.2,1.3-0.4,2-0.5c0.7-0.1,1.4-0.3,2.1-0.3c0.7-0.1,1.4-0.1,2.1-0.1c0.7,0,1.4,0,2.1,0.1c0.7,0.1,1.4,0.2,2.1,0.4 c1.4,0.3,2.7,0.8,4,1.4c2.5,1.3,4.7,3.2,6.2,5.6c1.6,2.4,2.5,5.1,2.7,7.9l0.1,0.9l-0.6-0.6l0,0c-1-1.1-2.3-1.9-3.6-2.6 c-0.7-0.3-1.4-0.6-2.1-0.9c-0.4-0.1-0.7-0.3-1.1-0.4c-0.2-0.1-0.4-0.1-0.5-0.2c-0.2-0.1-0.3-0.3-0.5-0.5L39.9,13.4z"/></g><g><path fill="#2864BC" d="M13.3,5c0.4-0.4,0.9-0.9,1.4-1.3c0.5-0.4,1-0.7,1.6-1c0.6-0.3,1.1-0.6,1.7-0.8c0.6-0.2,1.2-0.4,1.8-0.6 C20.4,1.1,21,1,21.6,0.9c0.6-0.1,1.2-0.2,1.9-0.2c0.6,0,1.2,0,1.9,0c0.6,0,1.2,0.1,1.9,0.2l0,0L28.5,1l-1.2,0.5 c-0.6,0.2-1.1,0.6-1.5,1c-0.2,0.2-0.4,0.4-0.6,0.7c0,0.1-0.1,0.1-0.1,0.2c0,0.1,0,0.1-0.1,0.2c-0.2,0.1-0.3,0.2-0.5,0.3 l-0.3-0.1c0.5-1.4,1.6-2.4,2.9-2.9l0.1,0.7l0,0c-0.6-0.1-1.2-0.1-1.8-0.2c-0.6,0-1.2,0-1.8,0c-0.6,0-1.2,0.1-1.8,0.2 c-0.6,0.1-1.2,0.2-1.8,0.4c-0.6,0.2-1.2,0.3-1.7,0.6c-0.6,0.2-1.1,0.5-1.6,0.8c-0.5,0.3-1,0.6-1.5,1c-0.5,0.4-0.9,0.7-1.3,1.2 L13.3,5z"/></g></g></g><g id="Horn_1_" clip-path="url(#SVGID_2_)"><defs><filter id="Adobe_OpacityMaskFilter" filterUnits="userSpaceOnUse" x="29.4" y="2.8" width="8.1" height="13.9"><feColorMatrix  type="matrix" values="1 0 0 0 0  0 1 0 0 0  0 0 1 0 0  0 0 0 1 0"/></filter></defs><mask maskUnits="userSpaceOnUse" x="29.4" y="2.8" width="8.1" height="13.9" id="SVGID_13_"><g filter="url(#Adobe_OpacityMaskFilter)"><path fill="#FFFFFF" d="M29.6,10.9c1.2-2.8,5.9-9,7.6-8.4c1.7,0.6-0.9,9.9-1.8,11.5C35.5,14,32.2,11.4,29.6,10.9z"/></g></mask><g mask="url(#SVGID_13_)"><path fill="#E6EFFC" d="M29.5,13.5c0,3,3.3,3.2,3.7,2.7c2.2-2.7,4.8-12.6,3.8-13c-0.8-0.4-4.5,4.4-7,8.4"/><g><path fill="#9CBDDB" d="M29.5,13.5c0,0,0,0.1,0.1,0.3c0.1,0.2,0.1,0.5,0.3,0.9c0.2,0.3,0.5,0.7,0.9,1c0.4,0.3,1,0.4,1.7,0.4 c0.1,0,0.3,0,0.4-0.1c0.1,0,0,0,0.1-0.1l0.2-0.2c0.2-0.3,0.4-0.6,0.6-1c0.4-0.7,0.7-1.5,1-2.3c0.6-1.6,1.2-3.4,1.6-5.3 c0.2-0.9,0.4-1.8,0.5-2.7c0-0.2,0-0.4,0-0.6c0-0.1,0-0.2,0-0.3c0,0,0,0,0,0c0,0,0.1,0.1,0,0c0.1,0,0,0-0.1,0.1 c-0.1,0-0.2,0.1-0.2,0.2C36.3,3.8,36.2,4,36,4.1c-0.6,0.6-1.2,1.2-1.7,1.9c-0.5,0.6-1,1.2-1.4,1.8c-0.8,1.1-1.5,2.1-2,2.8 c-0.4,0.7-0.7,1.1-0.7,1.1l-0.5-0.3c0,0,1-1.6,2.7-4c0.8-1.2,1.8-2.5,3.1-3.8c0.2-0.2,0.3-0.3,0.5-0.5C36.2,3.1,36.3,3,36.4,3 c0.1-0.1,0.2-0.2,0.6-0.1c0,0,0.3,0.1,0.3,0.2c0.1,0.1,0.1,0.2,0.2,0.3c0.1,0.2,0.1,0.3,0.1,0.4c0,0.3,0,0.5,0,0.7 c-0.1,1-0.3,1.9-0.5,2.8c-0.4,1.9-1,3.7-1.7,5.4c-0.3,0.8-0.7,1.6-1.1,2.4c-0.2,0.4-0.4,0.7-0.6,1.1l-0.2,0.2c0,0,0,0.1-0.1,0.2 c-0.1,0.1-0.1,0.1-0.2,0.1c-0.2,0.1-0.4,0.1-0.7,0.1c-0.8,0-1.5-0.2-2-0.6c-0.5-0.4-0.8-0.9-1-1.3C29.3,14,29.5,13.5,29.5,13.5z "/></g><path fill="none" stroke="#9CBDDB" stroke-width="0.5114" d="M34.7,5c-0.1,1.3,0.7,2.6,2,2.8"/><path fill="none" stroke="#9CBDDB" stroke-width="0.5114" d="M33.1,7c-0.1,1.3,0.8,3.2,2.6,3.6"/></g><g><path fill="#2864BC" d="M35.7,14.3c0,0-0.4-0.3-0.9-0.6c-0.6-0.4-1.3-0.8-2.1-1.2c-0.8-0.4-1.6-0.8-2.2-1.1 c-0.3-0.1-0.6-0.2-0.8-0.3C29.5,11,29.4,11,29.4,11s0.1,0,0.3,0c0.2,0,0.5,0,0.8,0.1c0.7,0.1,1.5,0.5,2.3,0.9 c0.8,0.4,1.5,1,2,1.5C35.4,13.9,35.7,14.3,35.7,14.3z"/></g></g><g id="Ear_2_" clip-path="url(#SVGID_2_)"><path fill="#E6EFFC" d="M16.3,14.6c0.5-8.4-4-11.8-5.3-10.1c-4.3,5.7-6.9,14.4-0.5,19.4C10.5,23.9,12.4,17.8,16.3,14.6z"/><path fill="#C3CFE0" d="M11,18.5c-0.4-2.8-0.2-8.7,0.7-10.1s1.8-1.3,2.1,1.1c0.1,0.9,0.4,3.3,0.4,4.8C13.1,14.7,11.6,17,11,18.5z" /><g><path fill="#9CBDDB" d="M10.5,23.9c0,0-0.1-0.1-0.3-0.2C10,23.5,9.7,23.3,9.3,23c-0.2-0.1-0.4-0.3-0.6-0.5 c-0.2-0.2-0.4-0.4-0.6-0.7c-0.4-0.5-0.8-1.2-1.1-2c-0.7-1.6-0.9-3.5-0.7-5.6C6.4,12.1,7,10,8,8C8.5,7,9.1,6,9.8,5.2 c0.4-0.4,0.8-0.8,1.4-1.1C11.8,4,12.5,4.1,13,4.3c1,0.6,1.6,1.5,2,2.3c0.4,0.9,0.7,1.7,0.9,2.5c0.4,1.6,0.5,3,0.5,4 c0,1-0.2,1.5-0.2,1.5s-0.1-0.5-0.3-1.5c-0.1-0.5-0.2-1-0.3-1.7c-0.1-0.6-0.2-1.4-0.4-2.1c-0.2-0.8-0.5-1.6-0.9-2.4 c-0.4-0.8-1-1.6-1.8-2c-0.4-0.2-0.8-0.3-1.2-0.2c-0.4,0.1-0.8,0.5-1.1,0.9C9.7,6.4,9.1,7.3,8.6,8.3c-1,1.9-1.6,4-1.8,6 c-0.2,2,0.1,3.9,0.7,5.3c0.3,0.7,0.7,1.4,1,1.9c0.2,0.3,0.3,0.5,0.5,0.7c0.2,0.2,0.3,0.4,0.5,0.6c0.3,0.4,0.6,0.6,0.7,0.8 C10.4,23.8,10.5,23.9,10.5,23.9z"/></g><g><path fill="#9CBDDB" d="M11,18.5c0,0-0.1-0.2-0.2-0.6c-0.1-0.4-0.2-0.9-0.3-1.6c-0.1-0.7-0.1-1.5-0.1-2.3c0-0.8,0.1-1.7,0.3-2.6 c0.2-0.9,0.4-1.8,0.7-2.6c0.2-0.4,0.3-0.8,0.5-1.2c0.1-0.2,0.3-0.3,0.5-0.4c0.2-0.1,0.5-0.1,0.7,0c0.4,0.3,0.5,0.6,0.6,0.9 c0.1,0.3,0.1,0.5,0.1,0.7c0,0.4,0.1,0.6,0.1,0.6s0-0.2-0.2-0.6c-0.1-0.2-0.1-0.4-0.3-0.6c-0.1-0.2-0.3-0.5-0.5-0.6 c-0.2-0.1-0.5,0.1-0.7,0.3c-0.2,0.3-0.3,0.7-0.4,1c-0.3,0.8-0.5,1.6-0.6,2.5c-0.2,0.9-0.3,1.7-0.3,2.6c-0.1,0.8-0.1,1.6-0.1,2.3 c0,0.7,0.1,1.2,0.1,1.6C10.9,18.3,11,18.5,11,18.5z"/></g></g></g></svg>
