<svg version="1.1" xmlns="http://www.w3.org/2000/svg" xmlns:xlink="http://www.w3.org/1999/xlink" x="0px" y="0px" viewBox="0 0 200 200" enable-background="new 0 0 200 200" xml:space="preserve"><g><defs><rect id="SVGID_1_" width="200" height="200"/></defs><clipPath id="SVGID_2_"><use xlink:href="#SVGID_1_" overflow="visible"/></clipPath><g id="Far_Crest_1_" clip-path="url(#SVGID_2_)"><g><path fill="#2864BC" d="M126.2,142.4c0,0-0.4-0.1-1-0.4c-0.3-0.1-0.6-0.3-0.9-0.6c-0.3-0.2-0.5-0.5-0.8-0.8 c-0.2-0.3-0.5-0.7-0.8-1.1c-0.3-0.4-0.6-0.7-1-1.1c-0.7-0.8-1.5-1.5-2.4-2.2c-0.4-0.4-0.9-0.7-1.3-1c-0.5-0.3-0.9-0.6-1.4-0.8 c-0.9-0.5-1.8-0.9-2.5-1.3c-0.4-0.2-0.7-0.3-1-0.5c-0.3-0.2-0.5-0.5-0.7-0.8c-0.3-0.5-0.5-1-0.5-1s0.4-0.3,1-0.4 c0.3-0.1,0.7-0.1,1-0.1c0.4,0.1,0.7,0.3,1.2,0.4c0.9,0.3,1.8,0.8,2.8,1.4c0.5,0.3,1,0.6,1.5,0.9c0.5,0.3,1,0.7,1.5,1.1 c0.5,0.4,0.9,0.8,1.4,1.2c0.4,0.4,0.9,0.9,1.2,1.3c0.4,0.5,0.8,0.9,1.1,1.3c0.3,0.4,0.6,0.8,0.9,1.2c0.3,0.4,0.5,0.8,0.6,1.2 c0.1,0.4,0.1,0.7,0.1,1C126.3,142,126.2,142.4,126.2,142.4z"/></g><g><path fill="none" d="M105.7,152.7"/></g><path fill="none" stroke="#2864BC" stroke-width="2.7275" stroke-miterlimit="20" d="M120.1,135c6.9,2.1,10.7,5.4,13.4,14.9 c4.4-7.4,2.2-20.4-16.6-40.6c-10-10.8-16.1-16.1-14.8-35.6"/></g><path id="Body_2_" clip-path="url(#SVGID_2_)" fill="#E6EFFC" stroke="#9CBDDB" stroke-width="2.7273" d="M46,204 c0.8-5.6,1.3-11.4,2.1-17.2l8.5-28.3l39.6-1.3l10.5,8.7c-2.1,4.3-2.9,13.3-3.8,23.7c-0.4,4.3-0.5,9-0.5,13.8"/><g id="Head_1_" clip-path="url(#SVGID_2_)"><g id="face_2_"><g><path fill="#E6EFFC" d="M48.7,184.1c2.3-19.2,3.7-37.3-4-78.8c-6.4-34.4,24.1-65.2,59.1-67.5c34.9-2.3,67,24,67.5,59.1 c0.5,35.2-14.4,42.3-34.1,49.4"/><g><path fill="#9CBDDB" d="M46.8,186.7c0,0,0.2-1.4,0.5-3.9c0.3-2.5,0.7-6.2,1.1-11c0.3-4.7,0.6-10.5,0.5-17.1 c-0.1-6.6-0.5-14.1-1.4-22.2c-0.9-8.1-2.2-16.8-3.9-26c-0.4-2.3-0.8-4.8-1-7.2c-0.2-2.5-0.1-5,0.1-7.5c0.4-5,1.6-10.1,3.5-15 c3.8-9.8,10.6-18.6,19.2-25.5c8.6-6.8,18.9-11.7,29.8-13.9c2.7-0.5,5.5-0.9,8.3-1.1c1.4-0.1,2.7-0.1,4.1-0.1 c1.4,0,2.8,0,4.2,0.1c2.8,0.1,5.5,0.5,8.2,1c2.7,0.5,5.4,1.2,8,2c10.5,3.3,19.9,9.2,27.2,16.6c7.3,7.4,12.6,16.5,15.1,25.7 c1.3,4.6,2,9.3,2.2,13.8c0.2,4.5,0,8.8-0.4,12.9c-0.8,8.3-3.2,15.9-7.2,21.6c-2,2.8-4.3,5.1-6.7,6.9c-2.4,1.8-4.7,3.1-6.9,4.2 c-4.4,2.1-8,3.2-10.4,4c-2.5,0.7-3.8,1.1-3.8,1.1s1.2-0.6,3.6-1.6c1.2-0.5,2.6-1.2,4.3-2c1.7-0.8,3.6-1.7,5.6-2.9 c4.1-2.3,8.7-5.8,12.3-11.1c1.7-2.7,3.2-5.8,4.3-9.2c1.1-3.5,1.8-7.2,2.3-11.2c0.4-4,0.6-8.2,0.5-12.6c-0.1-4.3-0.8-8.7-2-13.1 c-2.4-8.8-7.4-17.4-14.4-24.6c-7-7.1-16.1-12.8-26.1-15.9c-2.5-0.8-5.1-1.4-7.7-1.9c-2.6-0.4-5.2-0.8-7.9-0.9 c-1.3-0.1-2.6-0.1-4-0.1c-1.3,0-2.7,0.1-4,0.1c-2.7,0.2-5.3,0.5-7.9,1.1c-10.5,2.1-20.4,6.8-28.7,13.3 c-8.2,6.6-14.7,15-18.4,24.3c-1.8,4.6-3,9.5-3.3,14.2c-0.2,2.4-0.2,4.8-0.1,7.1c0.1,2.3,0.5,4.6,0.9,6.9 c1.7,9.2,3,18.1,3.9,26.2c0.9,8.2,1.3,15.7,1.4,22.4c0.1,6.7-0.2,12.5-0.6,17.3c-0.4,4.8-0.8,8.5-1.1,11.1 c-0.3,2.5-0.5,3.9-0.5,3.9L46.8,186.7z"/></g></g><g><path fill="#E6EFFC" d="M165.9,121.8c-0.7,11.6,6.1,14.2,6,18.3c-0.4,16.8-35.5,33.2-79.4,23.9"/><g><path fill="#9CBDDB" d="M168.5,123.7c0,0,0,0.1-0.1,0.3c0,0.1-0.1,0.4-0.2,0.7c0,0.3-0.1,0.6,0,1c0,0.1,0,0.2,0.1,0.4 c0,0.1,0.1,0.3,0.1,0.5c0.1,0.3,0.1,0.7,0.2,1c0.3,1.4,0.8,3,1.4,5c0.6,1.9,1.5,4.1,1.9,6.8c0.4,2.9-0.3,5.9-1.7,8.7 c-1.5,2.8-3.6,5.2-6.2,7.3c-2.5,2.1-5.4,3.9-8.4,5.4c-3,1.5-6.2,2.7-9.5,3.7c-6.5,2-13.3,3-19.7,3.5c-3.2,0.2-6.3,0.3-9.2,0.2 c-2.9-0.1-5.7-0.3-8.2-0.5c-5.1-0.5-9.2-1.4-12.1-2.2c-1.4-0.4-2.5-0.7-3.3-1c-0.8-0.3-1.1-0.4-1.1-0.4s0.4,0,1.2,0.1 c0.8,0.1,1.9,0.1,3.4,0.3c2.9,0.2,7.1,0.6,12.1,0.9c5,0.3,10.8,0.3,17-0.1c6.2-0.4,12.8-1.5,19.1-3.4c3.1-1,6.2-2.1,9.1-3.5 c2.9-1.4,5.6-3.1,7.9-5c2.3-1.9,4.2-4.1,5.5-6.5c0.6-1.2,1.1-2.4,1.3-3.6c0-0.3,0.1-0.6,0.1-0.9l0.1-0.4l0-0.5 c0-0.6,0-1.1-0.1-1.7c-0.4-2.2-1.2-4.4-1.8-6.4c-0.6-2-1.1-3.7-1.5-5.2c-0.1-0.4-0.2-0.7-0.2-1c0-0.2-0.1-0.3-0.1-0.5 c0-0.2-0.1-0.4-0.1-0.5c-0.1-0.7-0.1-1.4,0-1.9c0.1-0.5,0.2-0.8,0.3-1c0.1-0.2,0.1-0.3,0.1-0.3L168.5,123.7z"/></g></g></g><g id="right_eye_2_"><g><path fill="none" d="M172.8,75.2"/></g><g><path fill="none" d="M165.8,84.7"/></g><defs><filter id="Adobe_OpacityMaskFilter" filterUnits="userSpaceOnUse" x="139.5" y="73.8" width="33.2" height="59.8"><feColorMatrix type="matrix" values="1 0 0 0 0 0 1 0 0 0 0 0 1 0 0 0 0 0 1 0"/></filter></defs><mask maskUnits="userSpaceOnUse" x="139.5" y="73.8" width="33.2" height="59.8" id="SVGID_3_"><g filter="url(#Adobe_OpacityMaskFilter)"><path fill="#FFFFFF" d="M158.8,73.8c-7.4-0.4-12.4,10.9-13.4,27.8c-1,17,4.6,31.5,12,31.9c0.5,0,1,0,1.4-0.1 c1.4-1.4,2.8-3,4-4.9c0.9-1.3,1.7-2.8,2.4-4.3c0.7-1.5,1.4-3.2,1.9-4.9c1.1-3.4,1.8-7.2,2.2-11.2c0.4-4,0.6-8.2,0.5-12.6 c-0.1-4.3-0.8-8.7-2.1-13.1c-0.3-1.1-0.7-2.2-1.1-3.3C164.4,75.9,161.6,74,158.8,73.8z"/></g></mask><g mask="url(#SVGID_3_)"><path fill="#FFFFFF" d="M172.6,103.7c-1,17-7.8,30.3-15.2,29.9c-7.4-0.4-13-14.9-12-31.9c1-17,6.1-28.3,13.4-27.8 C166.2,74.3,173.6,86.7,172.6,103.7z"/><g><defs><filter id="Adobe_OpacityMaskFilter_1_" filterUnits="userSpaceOnUse" x="139.5" y="81.1" width="26.6" height="49.5"><feColorMatrix type="matrix" values="1 0 0 0 0 0 1 0 0 0 0 0 1 0 0 0 0 0 1 0"/></filter></defs><mask maskUnits="userSpaceOnUse" x="139.5" y="81.1" width="26.6" height="49.5" id="SVGID_3_"><g filter="url(#Adobe_OpacityMaskFilter_1_)"><path fill="#FFFFFF" d="M163.4,106.2c0.1,13.7-5.2,24.5-11.8,24.3c-6.6-0.2-12.1-11.5-12.2-25.2 c-0.1-13.7,5.2-24.5,11.8-24.3C157.9,81.3,163.3,92.6,163.4,106.2z"/></g></mask><g><linearGradient id="SVGID_4_" gradientUnits="userSpaceOnUse" x1="187.7541" y1="216.7892" x2="189.9646" y2="171.8401" gradientTransform="matrix(0.9988 -4.790000e-002 4.790000e-002 0.9988 -46.4872 -81.725)"><stop offset="0" style="stop-color:#F6DF58"/><stop offset="0.7" style="stop-color:#FF8D38"/></linearGradient><path fill="url(#SVGID_4_)" d="M163.4,106.2c0.1,13.7-5.2,24.5-11.8,24.3c-6.6-0.2-12.1-11.5-12.2-25.2 c-0.1-13.7,5.2-24.5,11.8-24.3C157.9,81.3,163.3,92.6,163.4,106.2z"/><polygon fill="#F9E98C" points="150.5,110.7 165.7,101.2 164.7,111.6 "/><polygon fill="#FCF1BD" points="151.5,111.1 166.1,109.8 164.4,118.4 "/></g><path d="M159.5,107.5c0.1,10.5-3.9,18.8-8.9,18.7c-5-0.2-9.1-8.8-9.2-19.3c-0.1-10.5,3.9-18.8,8.9-18.7 C155.3,88.4,159.4,97,159.5,107.5z"/><path fill="#FFFFFF" d="M149.9,104.9c-2.9-0.9-4-5.6-2.6-10.5c1.5-4.9,5-8.1,7.8-7.2c2.9,0.9,4,5.6,2.6,10.5 C156.3,102.6,152.8,105.8,149.9,104.9z"/><path fill="#FFFFFF" d="M150.1,115.9c-1.2-0.6-1.4-2.5-0.6-4.3c0.9-1.7,2.5-2.6,3.7-2c1.2,0.6,1.4,2.5,0.6,4.3 C153,115.6,151.3,116.5,150.1,115.9z"/></g></g><g><path d="M154.2,132.3c0,0-0.3-0.2-0.9-0.6c-0.5-0.4-1.4-1.1-2.3-2.1c-0.9-1-1.9-2.2-2.9-3.8c-1-1.6-1.9-3.4-2.7-5.6 c-1.5-4.3-2.4-9.6-2.5-15.2c-0.1-5.6,0.6-11.6,2.3-17.5c0.8-2.9,1.9-5.7,3.4-8.4c0.8-1.3,1.6-2.6,2.7-3.7c1.1-1.1,2.3-2.2,4-2.8 c1.5-0.6,3.3-0.5,4.8,0c1.5,0.5,2.8,1.4,3.8,2.3c2,1.9,3.3,4.2,4.3,6.3c1.9,4.2,2.7,7.9,3.1,10.5c0.2,1.3,0.4,2.3,0.5,3 c0.1,0.7,0.1,1.1,0.1,1.1l-2.7,0.3c0,0,0-0.4-0.1-1c-0.1-0.7-0.2-1.6-0.4-2.9c-0.5-2.5-1.2-6-2.9-9.8c-0.9-1.9-2-3.9-3.7-5.4 c-1.6-1.5-3.8-2.5-5.9-1.7c-0.9,0.3-2,1.1-2.8,2c-0.9,0.9-1.6,2.1-2.3,3.2c-1.4,2.4-2.4,5.1-3.2,7.8c-1.6,5.5-2.2,11.3-2.2,16.7 c0,2.7,0.3,5.3,0.7,7.7c0.4,2.4,1,4.7,1.6,6.7c0.6,2,1.3,3.9,2,5.5c0.7,1.6,1.4,2.9,2.1,4c0.7,1.1,1.2,1.9,1.6,2.5 C154,132,154.2,132.3,154.2,132.3z"/></g></g><g id="left_eye_1_"><g><path d="M78.2,96.9c0,0-19.3-2.3-19-3.7c0.3-1.3,18,0.2,18,0.2L78.2,96.9z"/><path d="M78.4,89.8c0,0-15.3-9.4-14.5-10.7c0.8-1.3,16.2,7.4,16.2,7.4L78.4,89.8z"/><path d="M82.7,82.3c0,0-8.6-14.4-7.4-15.2c1.2-0.8,10.2,13,10.2,13L82.7,82.3z"/></g><ellipse transform="matrix(0.9978 -6.637052e-002 6.637052e-002 0.9978 -6.9818 7.0031)" fill="#FFFFFF" cx="101.9" cy="108.6" rx="25" ry="34.5"/><defs><filter id="Adobe_OpacityMaskFilter_2_" filterUnits="userSpaceOnUse" x="78.6" y="80.3" width="44.2" height="56.8"><feColorMatrix type="matrix" values="1 0 0 0 0 0 1 0 0 0 0 0 1 0 0 0 0 0 1 0"/></filter></defs><mask maskUnits="userSpaceOnUse" x="78.6" y="80.3" width="44.2" height="56.8" id="SVGID_5_"><g filter="url(#Adobe_OpacityMaskFilter_2_)"><path fill="#FFFFFF" d="M126.9,106.9c-1.3-19-13.8-33.7-28-32.7c-2,0.1-4,0.6-6,1.4c-0.7,0.1-1.4,0.2-2,0.4 c-13.4,3.4-20.4,21.2-15.7,39.6c4.7,18.5,19.4,30.6,32.8,27.2c6.1-1.6,10.9-6.2,13.9-12.4C125.5,124,127.4,115.8,126.9,106.9z" /></g></mask><g mask="url(#SVGID_5_)"><defs><filter id="Adobe_OpacityMaskFilter_3_" filterUnits="userSpaceOnUse" x="78.6" y="80.3" width="44.2" height="56.8"><feColorMatrix type="matrix" values="1 0 0 0 0 0 1 0 0 0 0 0 1 0 0 0 0 0 1 0"/></filter></defs><mask maskUnits="userSpaceOnUse" x="78.6" y="80.3" width="44.2" height="56.8" id="SVGID_5_"><g filter="url(#Adobe_OpacityMaskFilter_3_)"><path fill="#FFFFFF" d="M122.9,108.8c-0.1,15.7-9.2,28.4-20.2,28.3c-11-0.1-19.9-12.8-19.7-28.5c0.1-15.7,9.2-28.4,20.2-28.3 C114.2,80.3,123,93.1,122.9,108.8z"/></g></mask><g><linearGradient id="SVGID_6_" gradientUnits="userSpaceOnUse" x1="178.438" y1="492.1564" x2="189.738" y2="439.1683" gradientTransform="matrix(0.9759 -0.2182 0.2182 0.9759 -178.3688 -306.3748)"><stop offset="0" style="stop-color:#F6DF58"/><stop offset="0.7" style="stop-color:#FF8D38"/></linearGradient><path fill="url(#SVGID_6_)" d="M122.9,108.8c-0.1,15.7-9.2,28.4-20.2,28.3c-11-0.1-19.9-12.8-19.7-28.5 c0.1-15.7,9.2-28.4,20.2-28.3C114.2,80.3,123,93.1,122.9,108.8z"/><polygon fill="#FCF1BD" points="78.6,116.2 110.3,110.7 83.7,126.8 "/><polygon fill="#F9E98C" points="78.9,106.6 110.8,111.1 79.1,118 "/></g><path d="M118.2,109.4c-0.1,12.2-6.7,22-14.6,22c-8-0.1-14.3-10-14.2-22.2c0.1-12.2,6.7-22,14.6-22 C111.9,87.2,118.3,97.2,118.2,109.4z"/><path fill="#FFFFFF" d="M101.9,84.2c4.5,0.9,6.6,6.8,4.8,13.1c-1.8,6.3-6.9,10.7-11.4,9.7c-4.5-0.9-6.6-6.8-4.8-13.1 C92.4,87.6,97.5,83.3,101.9,84.2z"/><path fill="#FFFFFF" d="M111.7,108.3c1.4,0.3,2.1,2.2,1.5,4.2c-0.6,2-2.3,3.3-3.7,3c-1.4-0.3-2.1-2.2-1.5-4.2 C108.6,109.3,110.3,107.9,111.7,108.3z"/></g><g><path d="M76.5,96.7c0,0-0.1-0.1-0.2-0.3c-0.2-0.2-0.3-0.5-0.6-1c-0.1-0.2-0.2-0.5-0.4-0.8c0-0.1-0.2-0.3-0.2-0.5 c0.1-0.1,0.1-0.3,0.1-0.4c0.1-0.6,0.3-1.3,0.6-2c0.9-3,2.9-7.1,6.6-11c1.8-1.9,4.1-3.8,6.8-5.3c2.7-1.5,5.9-2.6,9.3-2.8 c3.4-0.2,7,0.4,10.3,1.8c3.3,1.4,6.2,3.6,8.7,6.1c2.5,2.5,4.5,5.5,6.1,8.5c1.6,3.1,2.8,6.3,3.5,9.4c0.8,3.2,1.2,6.3,1.4,9.3 c0.2,3,0,5.8-0.5,8.4c-0.5,2.6-1.1,4.9-1.9,6.8c-0.8,2-1.6,3.6-2.4,4.9c-0.8,1.3-1.4,2.3-1.9,2.9c-0.5,0.6-0.8,0.9-0.8,0.9 s0.2-0.4,0.5-1.1c0.3-0.7,0.8-1.8,1.2-3.2c0.2-0.7,0.5-1.5,0.7-2.3c0.2-0.8,0.5-1.7,0.7-2.7c0.4-2,0.7-4.2,0.9-6.6 c0.2-2.4,0.2-5.1,0.1-7.9c-0.1-2.8-0.5-5.7-1.3-8.6c-0.7-2.9-1.8-5.9-3.3-8.7c-1.4-2.8-3.3-5.5-5.5-7.7 c-2.2-2.3-4.8-4.2-7.6-5.4c-2.8-1.2-5.8-1.7-8.7-1.6c-2.9,0.2-5.6,1.1-7.9,2.4c-2.4,1.3-4.4,2.9-6,4.6c-1.6,1.7-2.9,3.5-3.9,5.2 c-0.9,1.7-1.6,3.2-2,4.5c-0.4,1.3-0.6,2.4-0.7,3c-0.1,0.8-0.2,1.2-0.2,1.2L76.5,96.7z"/></g></g><g id="fluff_1_"><path fill="#E6EFFC" d="M167.8,132.5c1.8,1.6,6.1,6.2,6.2,6.6c0.3,1.3-1.4,1.2-1.9,1.3c-0.4,0.1,0.6,2.7,1,4.3 c0.4,1.5,1,3.2,0.1,3.2c-0.9,0-0.8-0.6-1.3-1.4c-0.6-0.8-0.5,0.9-0.9,1.8c-0.4,0.9-1.1,3.3-1.7,2.4c-0.6-0.8,0.8-4.9-1.2-6.9 C166.1,141.9,167.8,132.5,167.8,132.5z"/><g><path fill="#9CBDDB" d="M169.6,138.9c0,0,0.1,0,0.2,0.1c0.1,0,0.4,0.1,0.6,0.1c0.5,0.1,1.2,0,1.9-0.3c0.2-0.1,0.4-0.2,0.5-0.3 c0.1-0.1,0.2-0.1,0.2-0.2c0,0,0,0,0-0.1c0,0,0,0-0.1,0.1c0,0.1,0,0.1-0.1,0.2c0,0.1,0,0.1,0,0.2l0,0c0,0.1,0,0,0,0.1l0,0l0-0.1 c0,0,0,0.1,0,0c0,0,0,0-0.1,0c-0.1-0.1-0.3-0.2-0.5-0.3c-0.5-0.2-1.1-0.5-1.7-0.9c-0.6-0.4-1.2-0.9-1.7-1.5 c-0.5-0.6-0.9-1.3-1.1-2c-0.2-0.6-0.4-1.2-0.6-1.8c-0.4-1.1-0.7-2.2-1-3.2c-0.5-1.9-0.7-3.3-0.7-3.3l2.7-0.3 c0,0,0.1,1.1,0.6,2.9c0.2,0.9,0.6,1.9,0.9,3c0.2,0.5,0.4,1.1,0.6,1.7c0.2,0.5,0.4,0.9,0.7,1.4c0.3,0.4,0.6,0.8,1,1.1 c0.4,0.3,0.9,0.6,1.4,1c0.3,0.2,0.6,0.4,0.9,0.7c0.1,0.2,0.3,0.4,0.4,0.6c0,0.1,0.1,0.3,0.1,0.4l0,0.1l0,0l0,0.1l0,0.1 c0,0.1,0,0.1,0,0.2c0,0.2-0.1,0.2-0.1,0.3c-0.1,0.3-0.3,0.4-0.4,0.4c-0.1,0.1-0.2,0.1-0.3,0.2c-0.2,0.1-0.3,0.2-0.5,0.2 c-0.3,0.1-0.6,0.2-0.9,0.2c-0.6,0.1-1.1,0.1-1.5-0.1c-0.4-0.1-0.8-0.3-1.1-0.5c-0.2-0.2-0.4-0.4-0.4-0.6 C169.6,139,169.6,138.9,169.6,138.9z"/></g><g><path fill="#9CBDDB" d="M172.5,139.2c0.1,0.2,0.3,0.5,0.4,0.8l0.3,0.8c0.2,0.5,0.4,1,0.6,1.6c0.3,1.1,0.6,2.2,0.7,3.4 c0,0.6,0,1.2-0.2,1.9c-0.1,0.3-0.3,0.7-0.6,1l-0.1,0.1l0,0l0,0l-0.1,0.1l0,0l0,0c0,0-0.1,0-0.1,0.1c-0.1,0-0.2,0.1-0.3,0.1 c-0.2,0-0.2,0-0.4-0.1c-0.1,0-0.1-0.1-0.2-0.1c-0.1-0.1-0.2-0.1-0.2-0.2c-0.2-0.2-0.2-0.3-0.3-0.5c-0.3-0.6-0.5-1.1-0.7-1.6 c-0.2-0.5-0.4-1-0.5-1.4l1.3-0.2l0,0c-0.1,1.1-0.2,2.2-0.4,3.3c-0.1,0.6-0.3,1.1-0.5,1.7c-0.1,0.3-0.3,0.6-0.6,0.9 c-0.1,0.1-0.3,0.3-0.5,0.4c-0.2,0.1-0.4,0.2-0.5,0.2c-0.1,0-0.2,0.1-0.4,0c-0.1,0-0.2,0-0.3,0c-0.1,0-0.3-0.1-0.4-0.3 c-0.1-0.2-0.1-0.3-0.1-0.4c0-0.1,0-0.2,0-0.2c0-0.1,0.1-0.2,0.1-0.3c0.1-0.3,0.2-0.5,0.3-0.8c0.2-0.5,0.4-1,0.5-1.5 c0.2-1,0-2.1-0.4-3.1c0.7,0.9,1.1,2,1.1,3.2c0,0.6-0.1,1.2-0.2,1.7c-0.1,0.3-0.1,0.6-0.2,0.8c0,0,0,0.1,0,0.1c0,0,0,0,0,0 c0-0.1,0-0.1-0.1-0.2c-0.1-0.1-0.2-0.2-0.3-0.2c-0.1,0-0.1,0-0.1,0c0,0,0,0,0,0c0.2-0.1,0.3-0.1,0.4-0.2 c0.1-0.1,0.2-0.3,0.3-0.5c0.2-0.4,0.3-0.9,0.4-1.4c0.2-1,0.3-2.1,0.4-3.2v0l0.1-2.4l1.2,2.2c0.3,0.5,0.5,1,0.7,1.5 c0.2,0.5,0.4,1,0.7,1.3c0.1,0.1,0.1,0.2,0.1,0.2c0,0,0,0,0,0c0,0-0.1,0-0.1-0.1c-0.1,0-0.1-0.1-0.3-0.1c-0.1,0-0.2,0-0.3,0 c0,0-0.1,0-0.1,0.1l0,0l0,0l0,0c0.1-0.1-0.2,0.1-0.1,0.1l0,0l0,0l0,0c0.1-0.1,0.1-0.2,0.2-0.4c0.1-0.3,0.1-0.8,0.1-1.2 c-0.1-0.9-0.4-1.9-0.8-2.9c-0.4-1-0.8-1.9-1.2-2.8L172.5,139.2z"/></g></g><g id="Muzzle_1_"><path fill="#E6EFFC" d="M137,134.5c9.6-2.8,21.3-0.8,23-0.2c7.1,2.5-2.7,22.3-18.4,24.1c-7.5,0.8-12.2-0.7-16.6-8.5L137,134.5z" /><g><path fill="#9CBDDB" d="M137,134.5c0,0,0.3-0.1,0.8-0.4c0.3-0.1,0.6-0.3,1-0.4c0.4-0.1,0.9-0.3,1.4-0.5c2.1-0.6,5.3-1.3,9.1-1.4 c1.9,0,4,0.1,6.1,0.3c1.1,0.1,2.2,0.3,3.3,0.5c0.3,0.1,0.6,0.1,0.9,0.2c0.1,0,0.3,0.1,0.5,0.1l0.3,0.1l0.1,0l0.2,0.1l0.1,0 l0.4,0.2c0.1,0,0.4,0.2,0.5,0.3c0.4,0.3,0.7,0.6,0.9,0.9c1,1.4,1.2,2.9,1.1,4.3c-0.1,1.4-0.4,2.7-0.9,3.9 c-0.9,2.5-2.3,4.7-3.9,6.8c-3.2,4.1-7.5,7.4-12.1,9c-1.2,0.4-2.3,0.7-3.5,1c-0.6,0.1-1.2,0.2-1.8,0.3c-0.6,0-1.1,0.1-1.6,0.1 c-2.3,0.1-4.4,0-6.4-0.5c-2-0.6-3.7-1.6-4.9-2.6c-1.3-1.1-2.2-2.2-2.9-3.1c-0.7-0.9-1.2-1.7-1.5-2.2c-0.3-0.5-0.5-0.8-0.5-0.8 l2.4-1.3c0,0,0.2,0.3,0.4,0.7c0.3,0.5,0.7,1.2,1.3,2c0.6,0.8,1.4,1.8,2.4,2.6c1,0.9,2.3,1.7,3.9,2.1c1.6,0.5,3.5,0.6,5.5,0.4 c0.5,0,1.1-0.1,1.6-0.1c0.5-0.1,1-0.1,1.5-0.2c1-0.2,2.1-0.5,3.1-0.9c4.1-1.5,8-4.4,10.9-8.2c1.4-1.9,2.7-3.9,3.4-6 c0.4-1.1,0.7-2.1,0.7-3.1c0.1-1-0.1-1.9-0.5-2.4c-0.1-0.1-0.2-0.3-0.3-0.3c0,0,0,0-0.1-0.1c0,0,0,0-0.1-0.1l-0.4-0.2l-0.1,0l0,0 c0,0-0.1-0.1,0.1,0l0,0l-0.2,0c-0.1,0-0.2-0.1-0.3-0.1c-0.2-0.1-0.5-0.1-0.8-0.2c-1-0.2-2.1-0.4-3.1-0.5c-2.1-0.3-4-0.4-5.8-0.5 c-1.8-0.1-3.5-0.1-5-0.2c-1.5,0-2.8,0-3.9,0.1c-1.1,0-1.9,0.1-2.5,0.2C137.3,134.5,137,134.5,137,134.5z"/></g><g><path fill="#9CBDDB" d="M130.7,148.7c0,0-0.2,0.1-0.6,0.2c-0.3,0.1-0.8,0.2-1.4,0.3c-0.3,0.1-0.6,0.1-0.9,0.2 c-0.3,0.1-0.6,0.2-1,0.3c-0.3,0.1-0.6,0.2-1,0.4c-0.3,0.1-0.7,0.3-1,0.4c-0.3,0.1-0.6,0.3-0.9,0.5c-0.3,0.2-0.6,0.4-0.9,0.6 c-0.5,0.4-1.1,0.8-1.5,1.2c-0.4,0.4-0.8,0.7-1.1,1c-0.3,0.2-0.4,0.4-0.4,0.4s0-0.2,0.1-0.6c0-0.2,0.1-0.4,0.2-0.7 c0.1-0.3,0.2-0.5,0.3-0.8c0.5-1.2,1.7-2.6,3.3-3.4c0.4-0.2,0.8-0.4,1.2-0.5c0.4-0.1,0.8-0.2,1.2-0.3c0.4-0.1,0.8-0.1,1.2-0.1 c0.4,0,0.7,0.1,1,0.1c0.3,0,0.6,0.1,0.9,0.2c0.3,0.1,0.5,0.2,0.6,0.2C130.5,148.6,130.7,148.7,130.7,148.7z"/></g><g><path fill="#9CBDDB" d="M137.1,137.3c0,0,0.2,0,0.4,0c0.3,0,0.7,0.1,1.1,0.3c0.5,0.1,1,0.4,1.5,0.8c0.3,0.2,0.6,0.4,0.8,0.7 c0.1,0.1,0.3,0.3,0.4,0.5c0.1,0.2,0.2,0.3,0.3,0.5c0.1,0.2,0.1,0.4,0.1,0.6c0,0.2,0,0.5,0,0.7c-0.1,0.5-0.3,0.9-0.5,1.2 c-0.2,0.4-0.6,0.6-0.9,0.8c-0.3,0.2-0.6,0.3-0.8,0.4c-0.5,0.2-0.9,0.3-1.2,0.3c-0.3,0-0.4,0.1-0.4,0.1s0.1-0.1,0.3-0.2 c0.2-0.1,0.4-0.4,0.7-0.6c0.1-0.2,0.3-0.3,0.4-0.5c0.1-0.2,0.2-0.4,0.3-0.7c0.1-0.2,0.1-0.5,0.1-0.8c0-0.3,0-0.5-0.1-0.8 c-0.3-1-1-1.9-1.5-2.5C137.6,137.6,137.1,137.3,137.1,137.3z"/></g></g></g><g id="Side_Mane" clip-path="url(#SVGID_2_)"><path fill="#3DA9FF" d="M47.5,88.8c0.2,16.1,3.9,33.6,17.4,47.9c-15.5-5.5-21.1-12.5-26.1-21.4l17.6,16.3 c1.1,14.7,5.4,25.2,15.6,37.9c-14.6-1.7-22.6-12.1-27.5-22.7L61.8,166c1.9,27.4-10.3,43.7-24.8,60.9 c4.5-46.1-29.8-75.5-20.4-117.2L7,121.9c0.2-36.3,17.9-63.2,40.3-83.6L47.5,88.8z"/><path fill="#94D4FF" d="M39.6,60.7c-9.7,10.9-14.9,28-15.3,46l5.9-8c-8.4,35.8,24.1,71.3,23.5,105.1c6.1-11.1,11.4-22.3,9.1-36.1 l6.4,0.2c-8.1-11.5-10.6-23.6-13.7-35.6l5.6,1.7c-7.5-12.9-14.8-25.9-14-41L39.6,60.7z"/><g><path fill="#2864BC" d="M48.9,88.7L49,92c0.1,1.1,0.1,2.1,0.2,3.2c0.1,1.1,0.2,2.1,0.3,3.2c0.1,1.1,0.2,2.1,0.4,3.2 c0.2,1.1,0.3,2.1,0.5,3.2c0.2,1,0.4,2.1,0.7,3.1c0.3,1,0.5,2.1,0.8,3.1c0.3,1,0.6,2.1,1,3.1c0.4,1,0.7,2,1.1,3 c0.4,1,0.8,2,1.3,2.9c0.5,1,0.9,1.9,1.4,2.9c0.5,0.9,1,1.9,1.6,2.8c0.6,0.9,1.1,1.8,1.7,2.7c0.6,0.9,1.2,1.8,1.9,2.6 c0.7,0.8,1.3,1.7,2,2.5l2.1,2.4l3,3.4l-4.3-1.1l0,0l-2.2-0.6l-2.2-0.7l-2.1-0.8l-2.1-0.9l-2-1c-0.7-0.4-1.3-0.8-2-1.2l-1.9-1.3 c-0.6-0.5-1.2-0.9-1.8-1.4c-0.6-0.5-1.1-1-1.6-1.6c-0.5-0.6-1-1.1-1.5-1.7c-0.5-0.6-1-1.2-1.4-1.8c-0.4-0.6-0.9-1.2-1.3-1.9 c-0.4-0.6-0.8-1.3-1.1-1.9c-0.3-0.7-0.7-1.3-1-2c-0.3-0.7-0.6-1.4-0.9-2l-0.7-2.1l1.1,1.9l1.2,1.9c0.4,0.6,0.8,1.2,1.2,1.8 c0.4,0.6,0.9,1.1,1.3,1.7c0.5,0.6,1,1.1,1.4,1.6c0.5,0.5,1,1,1.5,1.5c0.5,0.5,1.1,0.9,1.6,1.4c0.5,0.5,1.1,0.9,1.7,1.3l1.7,1.2 l1.8,1.1c0.6,0.3,1.2,0.7,1.9,1l1.9,0.9l1.9,0.8l2,0.7l2,0.6l2.1,0.5l0,0l-1.3,2.3l-2.2-2.5c-0.7-0.8-1.4-1.7-2.1-2.6 c-0.7-0.9-1.3-1.8-1.9-2.7c-0.7-0.9-1.2-1.9-1.8-2.8c-0.6-0.9-1.1-1.9-1.6-2.9c-0.6-1-1-2-1.5-3c-0.5-1-0.9-2-1.3-3.1 c-0.4-1-0.8-2.1-1.2-3.1c-0.4-1-0.7-2.1-1-3.2c-0.3-1.1-0.6-2.1-0.8-3.2c-0.3-1.1-0.5-2.2-0.7-3.2c-0.2-1.1-0.4-2.2-0.6-3.3 c-0.2-1.1-0.3-2.2-0.4-3.3c-0.1-1.1-0.2-2.2-0.3-3.3c-0.1-1.1-0.1-2.2-0.2-3.3l-0.1-3.3L48.9,88.7z"/></g><path fill="none" stroke="#2864BC" stroke-width="2.7273" stroke-miterlimit="100" d="M61.8,166c1.9,27.4-7.7,46.2-24.8,60.9 c4.5-46.1-29.8-75.5-20.4-117.2L7,121.9c0.2-36.3,17.9-63.2,40.3-83.6"/><g><path fill="#2864BC" d="M58.8,133.3c0.2,1.6,0.4,3.3,0.7,4.9c0.2,1.6,0.5,3.2,0.9,4.8l0.5,2.4c0.2,0.8,0.4,1.6,0.6,2.3 c0.2,0.8,0.5,1.5,0.7,2.3c0.3,0.8,0.5,1.5,0.8,2.3c0.6,1.5,1.2,3,2,4.4c0.4,0.7,0.7,1.4,1.1,2.1c0.4,0.7,0.8,1.4,1.2,2.1 c0.4,0.7,0.8,1.4,1.3,2c0.5,0.7,0.9,1.3,1.4,2c0.5,0.7,0.9,1.3,1.4,2l1.5,1.9l0,0l2.1,2.7l-3.4-0.5l-2.4-0.4 c-0.8-0.1-1.6-0.4-2.4-0.5c-0.4-0.1-0.8-0.2-1.2-0.3c-0.4-0.1-0.8-0.2-1.2-0.4c-0.8-0.2-1.5-0.6-2.2-1c-0.8-0.3-1.4-0.7-2.2-1.1 c-0.7-0.4-1.4-0.8-2.1-1.3c-0.7-0.4-1.3-1-1.9-1.5c-0.6-0.5-1.2-1.1-1.8-1.6c-0.6-0.5-1.1-1.1-1.7-1.7c-0.6-0.6-1-1.2-1.5-1.8 c-0.5-0.6-0.9-1.3-1.4-1.9c-0.5-0.6-0.9-1.3-1.3-2c-0.4-0.7-0.8-1.4-1.2-2.1c-0.4-0.7-0.7-1.4-1.1-2.1c-0.7-1.4-1.3-2.9-1.8-4.3 l1.2,2l1.2,2c0.4,0.6,0.8,1.3,1.3,1.9c0.5,0.6,0.9,1.3,1.4,1.9c0.5,0.6,0.9,1.2,1.4,1.8c0.5,0.6,1,1.2,1.5,1.7 c0.5,0.5,1.1,1.1,1.6,1.6c0.6,0.5,1.1,1,1.7,1.5c0.6,0.5,1.2,1,1.8,1.4c0.6,0.4,1.2,0.9,1.9,1.2c0.6,0.4,1.3,0.8,2,1.1 c0.7,0.3,1.3,0.7,2,0.9c0.7,0.3,1.4,0.6,2.1,0.8c0.7,0.2,1.4,0.5,2.1,0.7c0.7,0.2,1.4,0.4,2.2,0.5l2.2,0.4l-1.2,2.2l0,0l-1.5-2 c-0.5-0.7-1-1.3-1.5-2c-0.5-0.7-1-1.4-1.4-2.1c-0.5-0.7-0.9-1.4-1.4-2.1c-0.5-0.7-0.9-1.4-1.3-2.2c-0.4-0.7-0.8-1.5-1.2-2.2 c-0.8-1.5-1.5-3.1-2.1-4.6c-0.3-0.8-0.6-1.6-0.9-2.4c-0.3-0.8-0.5-1.6-0.8-2.4c-0.2-0.8-0.4-1.6-0.7-2.4l-0.6-2.5 c-0.3-1.6-0.6-3.3-0.9-4.9c-0.3-1.7-0.5-3.3-0.7-4.9L58.8,133.3z"/></g></g><g id="Mane_Below_Horn" clip-path="url(#SVGID_2_)"><path fill="#3DA9FF" d="M65.1,29C75.5,12.5,97.6,2.1,115,2.5l-8.3,13l-9.2,2.4c42.4-14.4,81.2-0.4,88.7,49.7 c-11.3-13.5-25.7-24.2-43.2-23.7l-70.8-6.2L65.1,29z"/><g><path fill="#2864BC" d="M64,28.2l2.1-3l2.4-3l2.6-2.7l2.8-2.6l2.9-2.4c1-0.8,2-1.5,3-2.2c1-0.7,2.1-1.3,3.2-2 c1.1-0.7,2.2-1.2,3.3-1.8c1.1-0.6,2.2-1.1,3.4-1.6c1.1-0.6,2.3-1,3.4-1.5c1.1-0.5,2.4-0.8,3.5-1.3c1.2-0.4,2.4-0.7,3.6-1.1 c1.2-0.4,2.4-0.6,3.7-0.9c1.2-0.3,2.5-0.4,3.7-0.6c1.2-0.2,2.5-0.2,3.8-0.4c1.3-0.1,2.5,0,3.8-0.1l2.4-0.1l-1.3,2.1l-4,6.7 l-2,3.3l-0.5,0.8c-0.1,0.1-0.2,0.3-0.2,0.4c0,0.1,0,0.2-0.1,0.2c-0.1,0.1-0.2,0.1-0.2,0.1c-0.3,0.2-0.6,0.4-1,0.5 c-0.3,0.2-0.7,0.3-1.1,0.5l-1.2-0.7l8-13.4l1.1,2.1c-1.2,0-2.4,0-3.6,0.1c-1.2,0.1-2.4,0.2-3.6,0.3c-1.2,0.2-2.4,0.3-3.5,0.6 c-1.2,0.3-2.3,0.5-3.5,0.8c-1.1,0.3-2.3,0.6-3.4,1c-1.1,0.4-2.3,0.7-3.4,1.2c-1.1,0.5-2.2,0.9-3.3,1.4c-1.1,0.5-2.2,1-3.2,1.6 c-1,0.6-2.1,1.1-3.1,1.8c-1,0.6-2,1.3-3,1.9c-1,0.7-2,1.4-2.9,2.1l-2.8,2.3L73,21.4L70.5,24l-2.2,2.7l-2.1,3L64,28.2z"/></g><g><path fill="#2864BC" d="M143.1,42.6l3.2,0l3.3,0.3l3.3,0.5l3.2,0.8c1,0.3,2.1,0.7,3.1,1c1,0.4,2,0.8,3,1.2c1,0.5,2,0.9,2.9,1.4 c0.9,0.5,1.9,1,2.8,1.6c0.9,0.6,1.9,1.2,2.7,1.8c0.9,0.6,1.8,1.2,2.6,1.9c0.8,0.7,1.7,1.3,2.5,2c0.8,0.7,1.7,1.4,2.5,2.1 c0.8,0.7,1.6,1.5,2.4,2.2l2.3,2.3l2.2,2.4l2.1,2.5l0,0l-2.4,1.1c-0.4-2.4-0.8-4.8-1.4-7.2c-0.1-0.6-0.3-1.2-0.4-1.8l-0.5-1.8 c-0.3-1.2-0.6-2.4-1-3.5c-0.7-2.3-1.6-4.6-2.6-6.9c-0.5-1.1-1-2.2-1.6-3.3c-0.6-1.1-1.1-2.2-1.7-3.2c-0.6-1-1.2-2.1-1.9-3.1 c-0.7-1-1.4-2-2.1-3c-1.5-1.9-3.1-3.7-4.8-5.4c-0.9-0.8-1.7-1.7-2.7-2.4l-1.4-1.2l-1.5-1.1c-0.5-0.3-1-0.7-1.5-1.1l-1.5-1 c-1-0.7-2.1-1.2-3.2-1.8c-1.1-0.6-2.2-1-3.3-1.6c-1.1-0.5-2.3-0.9-3.4-1.3c-1.2-0.4-2.3-0.8-3.5-1.1c-1.2-0.3-2.3-0.6-3.5-0.9 c-2.4-0.5-4.8-0.9-7.2-1.1c-1.2-0.1-2.4-0.2-3.7-0.2c-1.2,0-2.4-0.1-3.7,0c-1.2,0-2.4,0.1-3.7,0.1c-1.2,0-2.5,0.1-3.7,0.2 c-2.4,0.2-4.9,0.5-7.3,0.8c-2.4,0.4-4.9,0.7-7.3,1.2c-2.4,0.5-4.9,1-7.3,1.6l3.5-1.4c1.2-0.5,2.4-0.8,3.5-1.3 c2.4-0.8,4.8-1.5,7.2-2.1c1.2-0.3,2.5-0.5,3.7-0.8c1.2-0.3,2.5-0.4,3.7-0.6c1.2-0.2,2.5-0.3,3.8-0.4c1.3-0.2,2.5-0.1,3.8-0.2 c1.3,0,2.5,0,3.8,0c1.3,0,2.5,0.1,3.8,0.2c2.5,0.2,5,0.6,7.5,1.1c1.2,0.2,2.5,0.6,3.7,0.9c1.2,0.3,2.4,0.8,3.7,1.1 c1.2,0.5,2.4,0.9,3.6,1.4c1.2,0.6,2.3,1,3.5,1.6c1.1,0.6,2.3,1.2,3.3,1.9l1.6,1c0.5,0.3,1,0.7,1.6,1.1l1.5,1.1l1.5,1.2 c1,0.8,1.9,1.7,2.8,2.6c1.8,1.8,3.5,3.7,5.1,5.7c0.8,1,1.5,2.1,2.2,3.1c0.7,1.1,1.3,2.2,2,3.2c0.6,1.1,1.2,2.2,1.8,3.4 c0.6,1.1,1.1,2.3,1.6,3.4c1,2.3,1.9,4.7,2.7,7.1c0.4,1.2,0.7,2.4,1.1,3.6l0.5,1.8c0.2,0.6,0.3,1.2,0.4,1.8c0.6,2.5,1,4.9,1.4,7.4 l0.8,4.8l-3.2-3.7l0,0l-2.1-2.4l-2.1-2.3l-2.2-2.2c-0.7-0.7-1.5-1.4-2.3-2.2c-0.8-0.7-1.6-1.4-2.4-2.1c-0.8-0.7-1.6-1.3-2.4-2 c-0.8-0.6-1.7-1.2-2.5-1.8c-0.9-0.6-1.7-1.1-2.6-1.7c-0.9-0.5-1.8-1-2.7-1.5c-0.9-0.5-1.9-0.9-2.8-1.4c-0.9-0.4-1.9-0.8-2.9-1.2 l-2.9-1l-3-0.7l-3-0.5l-3-0.3l-3.2,0L143.1,42.6z"/></g></g><g id="Horn_1_" clip-path="url(#SVGID_2_)"><path fill="#E6EFFC" d="M127.2,54c-0.2,11.9,13.1,12.9,14.8,10.8c8.7-10.9,19.2-50.2,15.2-52c-3.3-1.5-18.1,17.8-27.8,33.4"/><g><path fill="#9CBDDB" d="M127.2,54c0,0,0.1,0.5,0.3,1.3c0.2,0.9,0.6,2.1,1.3,3.5c0.7,1.4,1.9,2.8,3.7,3.9c1.8,1.1,4.2,1.8,6.7,1.7 c0.6,0,1.2-0.2,1.6-0.3c0.1,0,0.2-0.1,0.2-0.1c0,0,0,0.1,0,0l0.2-0.2c0.2-0.3,0.4-0.6,0.6-0.9c0.8-1.2,1.6-2.5,2.3-3.9 c1.5-2.8,2.8-6,4-9.3c2.5-6.6,4.8-13.8,6.5-21.1c0.8-3.6,1.6-7.4,1.9-10.9c0.1-0.9,0.1-1.8,0-2.6c0-0.4-0.1-0.8-0.2-1 c0-0.1-0.1-0.2-0.1-0.1c0,0,0.1,0.1,0.2,0.1c0,0,0.2,0.1,0.1,0l0,0l-0.1,0c0,0,0.1,0,0.1,0c0.1,0-0.3,0.1-0.5,0.2 c-0.3,0.2-0.6,0.4-1,0.6c-0.7,0.5-1.3,1.1-1.9,1.6c-2.5,2.4-4.7,5-6.8,7.5c-2.1,2.5-3.9,4.9-5.6,7.2c-3.4,4.5-6.1,8.4-7.9,11.2 c-1.8,2.8-2.8,4.4-2.8,4.4l-1.9-1.2c0,0,1-1.6,2.8-4.4c1.8-2.8,4.4-6.8,7.8-11.4c1.7-2.3,3.5-4.8,5.5-7.4 c2.1-2.6,4.3-5.2,6.9-7.8c0.7-0.6,1.4-1.3,2.2-1.9c0.4-0.3,0.8-0.6,1.3-0.9c0.5-0.2,1-0.6,2.1-0.5c0.2,0,0.4,0.1,0.5,0.1l0.1,0 l0,0c-0.1,0,0.2,0.1,0.2,0.1c0.3,0.1,0.5,0.3,0.7,0.5c0.3,0.4,0.5,0.8,0.6,1.1c0.2,0.6,0.3,1.2,0.3,1.7c0.1,1,0,2,0,3 c-0.3,3.9-1.1,7.6-2,11.3c-0.9,3.7-1.9,7.4-3,11c-1.1,3.6-2.3,7.1-3.6,10.4c-1.3,3.3-2.7,6.5-4.3,9.5c-0.8,1.5-1.6,2.9-2.5,4.2 c-0.2,0.3-0.5,0.7-0.7,1l-0.2,0.2c0,0.1-0.2,0.3-0.4,0.4c-0.3,0.2-0.5,0.4-0.8,0.5c-1,0.4-1.8,0.5-2.6,0.6 c-3.2,0.1-6-0.9-8.1-2.4c-2.1-1.5-3.3-3.5-3.9-5.2c-0.5-1.7-0.5-3.1-0.4-4c0-0.5,0.1-0.8,0.1-1C127.2,54.1,127.2,54,127.2,54z"/></g><path fill="none" stroke="#9CBDDB" stroke-width="2.0457" d="M148,19.8c-0.4,5.1,3,10.6,7.8,11"/><path fill="none" stroke="#9CBDDB" stroke-width="2.0457" d="M141.8,28c-0.4,5.1,3.3,12.8,10.2,14.3"/></g><g id="Mane_Above_Horn" clip-path="url(#SVGID_2_)"><path id="path7855" fill="#3DA9FF" d="M70.1,44.4c3.7,11.9,15.6,27,33.2,34.5c-4.8-7.2-7.6-15.9-5.8-26.9l-1,11.9 c35.6,6.1,63,22.8,82.5,56.4c2.6-59.4-25.2-85-59.7-88.4L70.1,44.4z"/><g id="path7641"><path fill="#2864BC" d="M74.1,48.8c0.3,0.9,0.6,1.8,0.9,2.6c0.3,0.8,0.6,1.6,1,2.4c0.4,0.8,0.8,1.6,1.2,2.4 c0.4,0.8,0.9,1.5,1.4,2.3c0.5,0.8,1,1.5,1.5,2.2c0.5,0.7,1.1,1.4,1.7,2.1c0.6,0.7,1.2,1.3,1.8,2c0.6,0.6,1.3,1.2,1.9,1.8 c0.7,0.6,1.4,1.2,2,1.7c0.7,0.6,1.4,1.1,2.1,1.6c0.7,0.5,1.5,1,2.2,1.5c0.7,0.5,1.5,1,2.3,1.4c0.8,0.5,1.6,0.9,2.3,1.3 c0.8,0.4,1.6,0.9,2.4,1.3c0.8,0.4,1.6,0.8,2.4,1.2l2.5,1.1l-1.7,2c-0.3-0.5-0.7-1-1-1.5c-0.3-0.5-0.6-1.1-0.9-1.6 c-0.3-0.5-0.6-1.1-0.8-1.6c-0.2-0.6-0.5-1.1-0.7-1.7c-0.5-1.1-0.9-2.3-1.2-3.4c-0.2-0.6-0.3-1.2-0.5-1.8 c-0.1-0.6-0.3-1.2-0.4-1.8c-0.2-1.2-0.4-2.4-0.4-3.6c0-0.6-0.1-1.2-0.1-1.8c0-0.6,0-1.2,0-1.8c0-0.6,0.1-1.2,0.1-1.8 c0.1-0.6,0.1-1.2,0.2-1.8c0.2-1.2,0.4-2.3,0.7-3.5l-0.1,1.8c0,0.6,0,1.2,0,1.8c0,0.6,0,1.2,0,1.8c0,0.6,0.1,1.2,0.1,1.7 c0,0.6,0.1,1.2,0.2,1.7c0.1,0.6,0.1,1.1,0.3,1.7c0.1,0.6,0.2,1.1,0.3,1.7c0.1,0.6,0.2,1.1,0.4,1.7c0.1,0.6,0.3,1.1,0.5,1.6 c0.2,0.5,0.3,1.1,0.5,1.6c0.4,1.1,0.8,2.1,1.3,3.2c0.2,0.5,0.5,1,0.8,1.5c0.3,0.5,0.6,1,0.8,1.5c0.6,1,1.2,1.9,1.8,2.9l2.5,3.9 l-4.1-1.9l-2.5-1.1c-0.9-0.4-1.7-0.8-2.5-1.2c-0.8-0.4-1.7-0.8-2.5-1.3c-0.8-0.5-1.6-0.9-2.4-1.4c-0.8-0.5-1.6-1-2.4-1.5 c-0.8-0.5-1.6-1-2.3-1.6c-0.7-0.6-1.5-1.1-2.2-1.7c-0.7-0.6-1.4-1.2-2.1-1.8c-0.7-0.7-1.4-1.3-2-2c-0.6-0.7-1.3-1.4-1.9-2.1 c-0.6-0.7-1.2-1.4-1.8-2.2c-0.6-0.8-1.1-1.5-1.6-2.3c-0.5-0.8-1-1.6-1.5-2.4c-0.5-0.8-0.9-1.7-1.3-2.5c-0.4-0.8-0.8-1.8-1.1-2.6 c-0.4-0.9-0.6-1.7-0.9-2.6L74.1,48.8z"/></g><path id="path7812" fill="#94D4FF" d="M178.7,118.3c-7.9-27.2-28.2-58.1-48-64.2l2.5,10.8c-8.7-10.4-19.2-19.1-36-20.9l4.5,6.9 c-10.1-5.6-21.5-3.4-31,0.7l-1.5-12.3C136.4,14.7,184,49.9,178.7,118.3z"/><g id="path7639"><path fill="#2864BC" d="M97.6,62.6l6.3,1.2l6.3,1.5c2.1,0.6,4.2,1.2,6.2,1.8c2.1,0.7,4.1,1.4,6.1,2.1l6,2.4 c2,0.9,3.9,1.8,5.9,2.8c1.9,1.1,3.8,2.1,5.7,3.2c1.8,1.2,3.7,2.3,5.5,3.5l2.6,1.9c0.9,0.6,1.8,1.3,2.6,2l2.5,2.1l1.3,1 c0.4,0.4,0.8,0.7,1.2,1.1l2.4,2.2l1.2,1.1l1.1,1.2l2.3,2.3l1.1,1.2l1.1,1.2l2.1,2.5l1.1,1.2l1,1.3l2,2.6c0.7,0.9,1.3,1.7,1.9,2.6 c1.2,1.8,2.5,3.6,3.6,5.4l3.4,5.5l-2.5,0.6l0,0c0-2.5,0.2-4.9,0.2-7.4c0-1.2,0-2.5,0-3.7l-0.1-3.7c0-1.2-0.2-2.5-0.2-3.7 c-0.1-1.2-0.2-2.5-0.3-3.7c-0.1-1.2-0.2-2.5-0.4-3.7l-0.5-3.7c-0.4-2.4-0.9-4.8-1.5-7.2c-0.3-1.2-0.6-2.4-0.9-3.6 c-0.2-0.6-0.3-1.2-0.5-1.8l-0.6-1.7l-0.6-1.7l-0.7-1.7l-0.7-1.7c-0.2-0.6-0.5-1.1-0.7-1.7l-0.7-1.7c-0.3-0.6-0.5-1.1-0.8-1.6 l-0.8-1.6l-0.9-1.6l-0.9-1.6l-1-1.5c-0.6-1-1.4-2-2.1-3c-1.4-2-3-3.8-4.7-5.6c-0.8-0.9-1.7-1.7-2.6-2.6c-0.9-0.8-1.8-1.6-2.7-2.4 c-1-0.8-1.9-1.6-2.9-2.2l-1.5-1.1l-1.5-1c-2-1.3-4.2-2.5-6.4-3.6c-2.2-1-4.5-2-6.8-2.8c-1.2-0.4-2.3-0.8-3.5-1.2 c-1.2-0.4-2.4-0.7-3.6-1c-2.4-0.6-4.8-1.1-7.3-1.5c2.5,0.1,5,0.3,7.5,0.6c1.2,0.2,2.5,0.4,3.7,0.7c1.2,0.2,2.5,0.6,3.7,0.9 c1.2,0.3,2.4,0.7,3.6,1.1c1.2,0.4,2.4,0.9,3.6,1.3c2.3,1,4.6,2.1,6.8,3.4l1.6,1l1.6,1.1c1.1,0.7,2.1,1.5,3.1,2.2 c1,0.8,2,1.6,2.9,2.5c0.9,0.9,1.8,1.8,2.7,2.7c1.7,1.9,3.4,3.8,4.9,5.9c0.8,1,1.5,2.1,2.2,3.1l1,1.6l0.9,1.7l0.9,1.7l0.9,1.7 c0.3,0.6,0.6,1.1,0.8,1.7l0.8,1.7c0.3,0.6,0.5,1.2,0.8,1.7l0.7,1.8l0.7,1.8l0.6,1.8l0.6,1.8c0.2,0.6,0.3,1.2,0.5,1.8 c0.3,1.2,0.7,2.4,1,3.7c0.6,2.5,1.1,4.9,1.5,7.4l0.6,3.7c0.2,1.2,0.3,2.5,0.4,3.8c0.2,1.2,0.3,2.5,0.3,3.8 c0.1,1.3,0.2,2.5,0.2,3.8l0.1,3.8c0,1.3,0,2.5,0,3.8c0,2.5-0.1,5-0.2,7.5l0,0l-0.1,4.6l-2.4-3.9l-3.3-5.4 c-1.1-1.8-2.4-3.5-3.6-5.3c-0.6-0.9-1.2-1.7-1.9-2.6l-1.9-2.5l-1-1.3l-1-1.2l-2.1-2.4l-1-1.2l-1.1-1.1l-2.2-2.3l-1.1-1.1 l-1.2-1.1l-2.3-2.1c-0.4-0.4-0.8-0.7-1.2-1.1l-1.2-1l-2.5-2c-0.8-0.7-1.7-1.3-2.5-1.9l-2.6-1.8c-1.7-1.2-3.6-2.3-5.3-3.4 c-1.8-1.1-3.7-2-5.5-3.1c-1.9-0.9-3.8-1.8-5.7-2.7l-5.9-2.4c-2-0.7-4-1.4-6-2.1c-2-0.6-4.1-1.2-6.1-1.8l-6.2-1.5l-6.3-1.2 L97.6,62.6z"/></g></g><g id="Ear_2_" clip-path="url(#SVGID_2_)"><path fill="#E6EFFC" d="M74.3,58.5C76.4,25,58.1,11.4,53.2,18c-17.2,22.9-27.4,57.6-1.9,77.6C51.3,95.6,58.9,71.1,74.3,58.5z"/><path fill="#C3CFE0" d="M53.1,74.1c-1.4-11.2-1-35,2.9-40.5s7-5.4,8.5,4.3c0.5,3.8,1.8,13.3,1.8,19.2C61.7,58.8,55.5,68,53.1,74.1 z"/><g><path fill="#9CBDDB" d="M51.4,95.5c0,0-0.5-0.3-1.4-0.8c-0.9-0.5-2.2-1.3-3.7-2.6c-1.5-1.2-3.3-2.8-5-5c-1.7-2.2-3.3-4.9-4.5-8 c-1.3-3.1-2.3-6.7-2.8-10.5c-0.5-3.8-0.5-7.9-0.1-12c0.8-8.3,3.4-16.9,7.4-24.8c2-3.9,4.3-7.7,7.3-11.1c0.7-0.8,1.5-1.6,2.4-2.4 c0.9-0.7,1.8-1.4,3.2-1.9l0.2-0.1l0.3-0.1l0.4-0.1c0.2-0.1,0.6-0.1,0.9-0.1c0.3,0,0.7,0,1,0c0.3,0,0.6,0,0.9,0.1 c1.2,0.2,2.4,0.6,3.4,1.1c2,1.1,3.6,2.6,4.9,4.2c1.3,1.6,2.3,3.4,3.2,5.1c1.7,3.5,2.8,6.9,3.7,10.2c0.8,3.2,1.4,6.2,1.7,8.9 c0.3,2.7,0.3,5,0.3,6.9c-0.1,1.9-0.2,3.4-0.4,4.5c-0.2,1-0.3,1.6-0.3,1.6s-0.1-0.5-0.3-1.6c-0.2-1-0.5-2.5-0.7-4.4 c-0.3-1.9-0.6-4.1-1-6.7c-0.4-2.6-0.8-5.5-1.7-8.6c-0.8-3.1-1.9-6.4-3.5-9.6c-0.8-1.6-1.8-3.2-2.9-4.6c-1.1-1.4-2.5-2.7-4.1-3.5 c-0.8-0.4-1.6-0.7-2.5-0.8c-0.2,0-0.4,0-0.6-0.1c-0.2,0-0.4,0-0.6,0c-0.2,0-0.4,0-0.6,0.1l-0.4,0.1l-0.1,0l0,0c0,0-0.1,0,0,0 l-0.1,0c-0.7,0.2-1.5,0.8-2.2,1.4c-0.7,0.6-1.5,1.3-2.1,2.1c-2.7,3.1-5,6.7-6.9,10.5C39.9,40.7,37.4,49,36.6,57 c-0.4,4-0.4,7.8,0.1,11.4c0.5,3.6,1.3,6.9,2.5,9.8c1.2,2.9,2.7,5.4,4.1,7.6c1.4,2.1,2.8,3.9,4,5.3c1.2,1.4,2.2,2.5,3,3.2 C51,95.1,51.4,95.5,51.4,95.5z"/></g><g><path fill="#9CBDDB" d="M53.1,74.1c0,0-0.2-0.9-0.7-2.4C52.2,71,52,70.1,51.8,69c-0.2-1.1-0.4-2.3-0.6-3.6 c-0.2-1.3-0.3-2.8-0.4-4.3c-0.1-1.5-0.1-3.2-0.1-4.9c0-0.8,0.1-1.7,0.1-2.6c0-0.9,0.1-1.7,0.2-2.6c0.1-0.9,0.2-1.8,0.3-2.7 c0.1-0.9,0.2-1.8,0.4-2.7c0.1-0.9,0.3-1.8,0.5-2.7c0.2-0.9,0.4-1.7,0.6-2.6c0.4-1.7,1-3.4,1.5-5c0.3-0.8,0.6-1.6,0.9-2.3 c0.3-0.8,0.7-1.6,1.2-2.3c0.5-0.7,1.2-1.4,2.1-1.8c0.9-0.4,2.1-0.4,2.9,0.1c0.8,0.5,1.2,1.1,1.5,1.7c0.3,0.6,0.5,1.2,0.7,1.7 c0.3,1.1,0.5,2,0.6,2.8c0.1,0.8,0.2,1.4,0.2,1.8c0,0.4,0,0.6,0,0.6s-0.1-0.2-0.2-0.6c-0.1-0.4-0.3-1-0.5-1.7 c-0.2-0.7-0.5-1.6-1-2.6c-0.5-0.9-1.1-2-2.1-2.4c-0.5-0.2-0.9-0.1-1.4,0.1c-0.5,0.3-0.9,0.7-1.3,1.3c-0.4,0.6-0.7,1.2-1,1.9 c-0.3,0.7-0.6,1.5-0.8,2.3c-0.5,1.6-1,3.2-1.4,4.9c-0.2,0.8-0.4,1.7-0.6,2.5c-0.2,0.9-0.4,1.7-0.5,2.6c-0.2,0.9-0.3,1.7-0.4,2.6 c-0.1,0.9-0.3,1.7-0.4,2.6c-0.1,0.9-0.2,1.7-0.3,2.6c-0.1,0.8-0.1,1.7-0.2,2.5c-0.1,1.6-0.2,3.2-0.2,4.7c0,0.8,0,1.5,0,2.2 c0,0.7,0,1.4,0,2.1c0,1.3,0.1,2.5,0.1,3.6c0.1,1.1,0.1,2,0.2,2.8C53,73.3,53.1,74.1,53.1,74.1z"/></g></g></g></svg>
