<svg version="1.1" xmlns="http://www.w3.org/2000/svg" width="50px" height="50px"><path fill="#3DA9FF" d="M31.1,37.4c1.1-1.8,0.5-5.1-4.2-10.2c-2.5-2.7-4.3-4-4-8.9l-0.9-7.8c-1.3,0.9-3,4-3.6,8.3 c-0.5,3.9-1.4,5.7-2.1,6.9c1.1,0,2.3-1.2,3.4-2.6c-0.7,5.2,1.5,11.1,1.3,15.1c-0.1,2.2,0.3,5.4-4.5,7.7c0.6,0.7,1.9,2,4.1,1.5 c2.7-0.6,5.8-4.2,5.1-8c1.1,1,1.3,2,1.5,4.6c2.7-2.9,3-6.2,1.9-8.4c-0.4-0.8-1-1.4-1.5-1.8C29.5,34.3,30.4,35.1,31.1,37.4z"/><path fill="#94D4FF" d="M21.2,11.4c-2.1,1.3-3.7,13.4-4.5,14.1c2.2-1.1,2.8-1.8,3.5-3c-0.8,2.8-0.6,13.5,4,15.7 c2.1,1.4,3.2,1.9,3.2,6.2c1.6-1.1,5-8.1,0.7-10.4c-4.1-2.1-4.6-4.4-5.2-6.7c-0.5-2.2-0.6-9.7,0.6-11.1 C24.6,14.9,21.2,11.4,21.2,11.4z"/><path fill="none" stroke="#2864BC" stroke-width="0.8754" stroke-miterlimit="20" d="M22.1,10.5c-1.3,0.9-3,4-3.6,8.3 c-0.5,3.9-1.4,5.7-2.1,6.9c1.1,0,2.3-1.2,3.4-2.6c-0.7,5.2,1.5,11.1,1.3,15.1c-0.1,2.2,0.3,5.4-4.5,7.7c0.6,0.7,1.9,2,4.1,1.5 c2.7-0.6,5.9-4.2,5.1-8"/><path fill="#2864BC" d="M24.1,38.1c0.6,0.1,1.2,0.3,1.7,0.7c0.5,0.4,0.9,0.9,1.2,1.5c0.5,1.2,0.7,2.4,0.8,3.6l-0.7-0.2 c0.7-0.8,1.4-1.8,1.8-2.8c0.4-1,0.6-2.1,0.5-3.2c0-0.5-0.2-1.1-0.4-1.6c-0.1-0.3-0.2-0.5-0.4-0.7c-0.1-0.2-0.3-0.4-0.4-0.7 c-0.3-0.4-0.7-0.8-1.2-1.1c-0.4-0.4-0.9-0.7-1.4-1c0.6,0,1.2,0.2,1.8,0.4c0.6,0.3,1,0.7,1.4,1.2c0.2,0.2,0.4,0.5,0.5,0.8 c0.1,0.2,0.3,0.5,0.4,0.8c0.2,0.6,0.4,1.2,0.4,1.8c0.1,1.2-0.1,2.5-0.6,3.6c-0.5,1.1-1.2,2.1-2,3l-0.6,0.7L27,44 c-0.1-1.1-0.3-2.3-0.7-3.3c-0.2-0.5-0.5-0.9-0.9-1.3C25,39,24.5,38.6,24.1,38.1z"/><path fill="none" stroke="#2864BC" stroke-width="0.8754" stroke-miterlimit="20" d="M27.7,33.7c1.7,0.5,2.7,1.4,3.4,3.7 c1.1-1.8,0.5-5.1-4.2-10.2c-2.5-2.7-4-4-3.7-8.9"/><path fill="#E6EFFC" stroke="#9CBDDB" stroke-width="0.8754" d="M9.1,51c0.2-1.4,0.3-2.9,0.5-4.3l2.1-7.1l9.9-0.3l2.6,2.2 c-0.5,1.1-0.7,3.3-0.9,5.9c-0.1,1.1-0.1,2.2-0.1,3.5"/><path fill="#E6EFFC" d="M9.8,46c0.6-4.8,0.9-9.4-1-19.8c-1.6-8.6,6-16.3,14.8-16.9c8.8-0.6,16.8,6,16.9,14.8 c0.1,8.8-3.6,10.6-8.6,12.4"/><path fill="#9CBDDB" d="M9.2,46.7c0,0,0.2-1.4,0.4-3.7c0.2-2.4,0.2-5.8-0.2-9.8c-0.2-2-0.5-4.2-1-6.5c-0.5-2.4-0.3-5,0.7-7.5 c1-2.5,2.7-4.7,4.8-6.4c2.2-1.7,4.8-3,7.5-3.5c2.8-0.6,5.6-0.4,8.3,0.5c2.6,0.8,5,2.3,6.9,4.2c1.8,1.9,3.2,4.2,3.8,6.5 c0.3,1.2,0.5,2.3,0.5,3.5c0,1.1,0,2.2-0.1,3.3c-0.2,2.1-0.8,4-1.8,5.4c-1,1.4-2.4,2.3-3.5,2.8c-1.1,0.5-2,0.8-2.6,1 c-0.6,0.2-1,0.3-1,0.3s0.3-0.1,0.9-0.4c0.6-0.3,1.4-0.7,2.4-1.3c1-0.6,2.2-1.5,3-2.8c0.9-1.3,1.4-3.1,1.6-5.1 c0.2-2,0.2-4.2-0.4-6.4c-0.6-2.2-1.8-4.3-3.6-6.1c-1.7-1.8-4-3.2-6.5-4c-2.5-0.8-5.2-1-7.8-0.4c-2.6,0.5-5.1,1.7-7.1,3.3 c-2.1,1.6-3.7,3.7-4.6,6.1c-0.9,2.3-1.1,4.8-0.6,7c0.4,2.3,0.8,4.5,1,6.6c0.5,4.1,0.4,7.6,0.2,10c-0.2,2.4-0.4,3.8-0.4,3.8 L9.2,46.7z"/><path fill="#E6EFFC" d="M39.2,30.4c-0.2,2.9,1.5,3.6,1.5,4.6c-0.1,4.2-8.9,8.3-19.9,6"/><path fill="#9CBDDB" d="M39.9,30.9c0,0,0,0.1-0.1,0.2c0,0.1,0,0.1,0,0.2c0,0.1,0.1,0.3,0.1,0.5c0.1,0.3,0.2,0.8,0.4,1.2 c0.1,0.5,0.4,1,0.5,1.7c0,0.2,0,0.4,0,0.6c0,0.2,0,0.3-0.1,0.5c-0.1,0.4-0.2,0.8-0.4,1.1c-0.4,0.7-0.9,1.3-1.6,1.9 c-1.3,1.1-2.9,1.8-4.5,2.3c-1.6,0.5-3.4,0.8-4.9,0.9c-1.6,0.1-3.1,0.1-4.4-0.1c-0.6-0.1-1.2-0.2-1.7-0.3c-0.5-0.1-0.9-0.2-1.3-0.3 c-0.7-0.2-1.1-0.4-1.1-0.4s0.4,0,1.2,0c0.7,0,1.8,0.1,3,0.2c2.5,0.1,5.8,0.1,9-0.9c1.6-0.5,3.1-1.2,4.2-2.1c0.6-0.5,1-1,1.4-1.6 c0.1-0.3,0.3-0.6,0.3-0.9c0-0.1,0-0.3,0.1-0.5c0-0.1,0-0.3,0-0.4c-0.1-0.5-0.3-1.1-0.5-1.6c-0.2-0.5-0.3-0.9-0.4-1.3 c0-0.2-0.1-0.3-0.1-0.5c0-0.2,0-0.4,0-0.5c0-0.1,0-0.2,0.1-0.3c0,0,0-0.1,0-0.1L39.9,30.9z"/><path d="M39.6,23.2c0,0,0.2,0,0.5-0.1c0.3,0,0.7,0,1.1-0.1c0.8,0,1.6,0,1.6,0c0.1,0,0.2,0.1,0.2,0.2c0,0.1-0.1,0.2-0.2,0.2 c0,0-0.8,0.2-1.5,0.3c-0.4,0.1-0.8,0.2-1.1,0.2c-0.3,0-0.5,0-0.5,0c-0.2,0-0.4-0.2-0.4-0.4C39.3,23.5,39.4,23.3,39.6,23.2z"/><path d="M39.4,22.1c0,0,0.2-0.1,0.4-0.2c0.2-0.1,0.6-0.3,0.9-0.4c0.7-0.3,1.4-0.6,1.4-0.6c0.1,0,0.2,0,0.3,0.1c0,0.1,0,0.2-0.1,0.3 c0,0-0.6,0.5-1.2,0.9c-0.3,0.2-0.6,0.4-0.9,0.5c-0.2,0.1-0.4,0.2-0.4,0.2c-0.2,0.1-0.5,0-0.6-0.2C39.2,22.4,39.3,22.2,39.4,22.1z" /><path d="M38.8,20.8c0,0,0.1-0.2,0.3-0.4c0.2-0.2,0.4-0.5,0.7-0.8c0.5-0.6,1-1.1,1-1.1c0.1-0.1,0.2-0.1,0.3,0c0.1,0.1,0.1,0.2,0,0.3 c0,0-0.4,0.7-0.8,1.3c-0.2,0.3-0.4,0.6-0.6,0.9c-0.2,0.2-0.3,0.4-0.3,0.4c-0.2,0.2-0.4,0.2-0.6,0C38.7,21.2,38.7,21,38.8,20.8z"/><defs><filter id="Adobe_OpacityMaskFilter" filterUnits="userSpaceOnUse" x="32.6" y="18.4" width="8.3" height="15"><feColorMatrix type="matrix" values="1 0 0 0 0 0 1 0 0 0 0 0 1 0 0 0 0 0 1 0"/></filter><filter id="Adobe_OpacityMaskFilter_2_" filterUnits="userSpaceOnUse" x="29.4" y="2.6" width="8.3" height="14.1"><feColorMatrix type="matrix" values="1 0 0 0 0 0 1 0 0 0 0 0 1 0 0 0 0 0 1 0"/></filter><filter id="Adobe_OpacityMaskFilter_1_" filterUnits="userSpaceOnUse" x="17.3" y="20" width="11.1" height="14.3"><feColorMatrix type="matrix" values="1 0 0 0 0 0 1 0 0 0 0 0 1 0 0 0 0 0 1 0"/></filter></defs><mask maskUnits="userSpaceOnUse" x="32.6" y="18.4" width="8.3" height="15" id="SVGID_1_"><g filter="url(#Adobe_OpacityMaskFilter)"><path fill="#FFFFFF" d="M37.4,18.4c-1.8-0.1-3.1,2.7-3.4,7c-0.3,4.3,1.2,7.9,3,8c0.1,0,0.2,0,0.4,0c0.4-0.4,0.7-0.8,1-1.2 c0.2-0.3,0.4-0.7,0.6-1.1c0.2-0.4,0.3-0.8,0.5-1.2c0.3-0.9,0.5-1.8,0.6-2.8c0.1-1,0.1-2.1,0.1-3.1c0-1.1-0.2-2.2-0.5-3.3 c-0.1-0.3-0.2-0.6-0.3-0.8C38.8,18.9,38.1,18.4,37.4,18.4z"/></g></mask><g mask="url(#SVGID_1_)"><path fill="#FFFFFF" d="M40.9,25.8c-0.3,4.3-2,7.6-3.8,7.5c-1.8-0.1-3.3-3.7-3-8c0.3-4.3,1.5-7.1,3.4-7 C39.3,18.5,41.1,21.6,40.9,25.8z"/><linearGradient id="SVGID_2_" gradientUnits="userSpaceOnUse" x1="62.6951" y1="90.4423" x2="63.2493" y2="79.1724" gradientTransform="matrix(0.9988 -4.790000e-002 4.790000e-002 0.9988 -31.3831 -55.932)"><stop offset="0" style="stop-color:#ECFF4F"/><stop offset="0.7" style="stop-color:#FFAB6D"/></linearGradient><path fill="url(#SVGID_2_)" d="M38.6,26.5c0,3.4-1.3,6.2-3,6.1c-1.7-0.1-3-2.9-3.1-6.3c0-3.4,1.3-6.2,3-6.1 C37.2,20.2,38.6,23.1,38.6,26.5z"/><polygon opacity="0.33" fill="#FFFFFF" points="35.3,27.6 39.2,25.2 38.9,27.8"/><polygon opacity="0.66" fill="#FFFFFF" points="35.6,27.7 39.2,27.4 38.8,29.5"/><path d="M37.6,26.8c0,2.6-1,4.7-2.2,4.7c-1.3,0-2.3-2.2-2.3-4.8c0-2.6,1-4.7,2.2-4.7C36.5,22,37.6,24.2,37.6,26.8z"/><path fill="#FFFFFF" d="M35.2,26.2c-0.7-0.2-1-1.4-0.6-2.6c0.4-1.2,1.2-2,2-1.8c0.7,0.2,1,1.4,0.6,2.6 C36.8,25.6,35.9,26.4,35.2,26.2z"/><path fill="#FFFFFF" d="M35.2,28.9c-0.3-0.2-0.4-0.6-0.1-1.1c0.2-0.4,0.6-0.7,0.9-0.5c0.3,0.2,0.4,0.6,0.1,1.1 C36,28.9,35.5,29.1,35.2,28.9z"/></g><path d="M36.3,33c0,0-0.1-0.1-0.2-0.1c-0.2-0.1-0.3-0.3-0.6-0.5c-0.5-0.5-1-1.3-1.4-2.4c-0.8-2.2-0.9-5.3-0.1-8.2 c0.2-0.7,0.5-1.5,0.9-2.1c0.4-0.7,0.8-1.3,1.7-1.7l0.3-0.1c0.1,0,0.2,0,0.4,0c0.2,0,0.4,0,0.6,0.1c0.4,0.1,0.7,0.4,1,0.6 c0.5,0.5,0.8,1.1,1.1,1.6c0.5,1.1,0.7,2,0.8,2.7c0.1,0.7,0.2,1,0.2,1L39.9,24c0,0,0-0.4-0.1-1c-0.1-0.6-0.3-1.5-0.7-2.4 c-0.2-0.5-0.5-1-0.9-1.3c-0.4-0.4-0.9-0.6-1.4-0.4c-0.4,0.2-0.9,0.7-1.2,1.3c-0.3,0.6-0.6,1.3-0.8,1.9c-0.4,1.4-0.6,2.8-0.5,4.1 c0,1.3,0.2,2.6,0.6,3.6c0.3,1,0.7,1.8,1,2.4c0.2,0.3,0.3,0.5,0.4,0.6C36.2,32.9,36.3,33,36.3,33z"/><path d="M17.2,24.1c0,0-4.8-0.6-4.8-0.9c0.1-0.3,4.5,0,4.5,0L17.2,24.1z"/><path d="M17.3,22.4c0,0-3.8-2.4-3.6-2.7c0.2-0.3,4,1.9,4,1.9L17.3,22.4z"/><path d="M18.3,20.5c0,0-2.2-3.6-1.8-3.8c0.3-0.2,2.6,3.3,2.6,3.3L18.3,20.5z"/><ellipse transform="matrix(0.9978 -6.637052e-002 6.637052e-002 0.9978 -1.7462 1.5964)" fill="#FFFFFF" cx="23.2" cy="27.1" rx="6.3" ry="8.6"/><mask maskUnits="userSpaceOnUse" x="17.3" y="20" width="11.1" height="14.3" id="SVGID_3_"><g filter="url(#Adobe_OpacityMaskFilter_1_)"><path fill="#FFFFFF" d="M29.4,26.7c-0.3-4.8-3.5-8.4-7-8.2c-0.5,0-1,0.2-1.5,0.3c-0.2,0-0.3,0.1-0.5,0.1c-3.4,0.9-5.1,5.3-3.9,9.9 c1.2,4.6,4.9,7.7,8.2,6.8c1.5-0.4,2.7-1.5,3.5-3.1C29.1,30.9,29.6,28.9,29.4,26.7z"/></g></mask><g mask="url(#SVGID_3_)"> <linearGradient id="SVGID_4_" gradientUnits="userSpaceOnUse" x1="70.1037" y1="249.509" x2="72.937" y2="236.2234" gradientTransform="matrix(0.9759 -0.2182 0.2182 0.9759 -99.3904 -194.5001)"><stop offset="0" style="stop-color:#ECFF4F"/><stop offset="0.7" style="stop-color:#FFAB6D"/></linearGradient><path fill="url(#SVGID_4_)" d="M28.4,27.1c0,3.9-2.3,7.1-5.1,7.1c-2.8,0-5-3.2-4.9-7.2c0-3.9,2.3-7.1,5.1-7.1 C26.2,20,28.4,23.2,28.4,27.1z"/><polygon opacity="0.33" fill="#FFFFFF" points="17.4,26.6 25.4,27.7 17.4,29.4"/><polygon opacity="0.67" fill="#FFFFFF" points="17.3,29 25.3,27.6 18.6,31.6"/><path d="M27.2,27.3c0,3.1-1.7,5.5-3.7,5.5c-2,0-3.6-2.5-3.6-5.6c0-3.1,1.7-5.5,3.7-5.5S27.3,24.2,27.2,27.3z"/><path fill="#FFFFFF" d="M23.2,21c1.1,0.2,1.7,1.7,1.2,3.3c-0.5,1.6-1.7,2.7-2.9,2.4c-1.1-0.2-1.7-1.7-1.2-3.3 C20.8,21.8,22,20.7,23.2,21z"/><path fill="#FFFFFF" d="M25.6,27c0.4,0.1,0.5,0.5,0.4,1c-0.2,0.5-0.6,0.8-0.9,0.7c-0.4-0.1-0.5-0.5-0.4-1 C24.8,27.3,25.3,26.9,25.6,27z"/></g><path d="M16.8,24.1c0,0-0.1-0.1-0.3-0.3c-0.3-0.2-0.1-0.6,0-0.9c0.2-0.8,0.7-1.8,1.7-2.8c0.9-1,2.3-1.9,4.1-2.1 c0.9-0.1,1.8,0.1,2.6,0.5c0.8,0.4,1.6,0.9,2.2,1.6c1.3,1.3,2,3,2.4,4.6c0.4,1.6,0.4,3.2,0.2,4.5c-0.3,1.3-0.7,2.3-1.1,2.9 c-0.2,0.3-0.4,0.6-0.5,0.7c-0.1,0.2-0.2,0.2-0.2,0.2s0.2-0.4,0.4-1.1c0.2-0.7,0.5-1.7,0.5-2.9c0.1-0.6,0-1.3,0-2 c0-0.7-0.1-1.4-0.3-2.1c-0.4-1.5-1.1-2.9-2.2-4.1c-1.1-1.1-2.6-1.8-4-1.7c-1.4,0.1-2.6,0.9-3.4,1.7c-0.8,0.8-1.2,1.7-1.4,2.4 c-0.1,0.3-0.2,0.5-0.2,0.8c0,0.2,0,0.3,0,0.3L16.8,24.1z"/><path fill="#E6EFFC" d="M39.7,33.1c0.5,0.4,1.5,1.6,1.5,1.7c0.1,0.3-0.4,0.3-0.5,0.3c-0.1,0,0.2,0.7,0.3,1.1c0.1,0.4,0.2,0.8,0,0.8 c-0.2,0-0.2-0.2-0.3-0.3c-0.1-0.2-0.1,0.2-0.2,0.5c-0.1,0.2-0.3,0.8-0.4,0.6c-0.1-0.2,0.2-1.2-0.3-1.7 C39.3,35.4,39.7,33.1,39.7,33.1z"/><path fill="#9CBDDB" d="M40.1,34.7c0,0,0.1,0,0.2,0c0.1,0,0.3,0,0.5-0.1c0,0,0.1,0,0.1-0.1c0,0,0.1-0.1,0,0c0,0,0,0.1,0,0.2l0,0 c0,0,0-0.1,0,0c0,0,0,0.1,0,0l-0.1-0.1c-0.2-0.1-0.6-0.3-0.9-0.6c-0.1-0.2-0.2-0.3-0.3-0.5c-0.1-0.2-0.1-0.3-0.2-0.4 c-0.1-0.3-0.2-0.6-0.2-0.8C39,31.8,39,31.4,39,31.4l0.9-0.1c0,0,0,0.3,0.1,0.7c0.1,0.2,0.1,0.5,0.2,0.8c0,0.1,0.1,0.3,0.1,0.4 c0,0.1,0.1,0.2,0.1,0.3c0.1,0.2,0.3,0.3,0.6,0.5c0.1,0,0.1,0.1,0.2,0.2c0,0,0.1,0.1,0.1,0.2c0,0.1,0,0,0,0.1l0,0c0,0.1,0,0.1,0,0.2 C41.3,35,41.2,35,41.1,35c-0.1,0-0.2,0-0.2,0.1c-0.3,0-0.6,0-0.7-0.2C40.1,34.8,40.1,34.7,40.1,34.7z"/><path fill="#9CBDDB" d="M40.9,34.7c0.2,0.5,0.4,1,0.5,1.6c0,0.2,0,0.3-0.1,0.5c0,0.1-0.1,0.2-0.2,0.3l0,0l0,0l0,0L41,37.2l0,0l0,0 c-0.1,0-0.2,0-0.3,0c0,0,0,0-0.1-0.1c-0.1-0.1-0.1-0.1-0.1-0.1c-0.1-0.3-0.2-0.5-0.3-0.8l0,0l0.4-0.1c0,0.3,0,0.5-0.1,0.8 c0,0.1-0.1,0.3-0.1,0.4c-0.1,0.1-0.2,0.3-0.4,0.4c0,0-0.1,0.1-0.3-0.1c-0.1-0.2,0-0.2,0-0.3l0.1-0.2c0.1-0.1,0.1-0.2,0.1-0.4 c0.1-0.2,0-0.5-0.1-0.8c0.2,0.2,0.3,0.5,0.3,0.8c0,0.1,0,0.3,0,0.4l0,0.2c0,0,0,0.1,0-0.1c-0.2-0.1-0.2,0-0.1-0.1 c0,0,0.1-0.1,0.1-0.2c0-0.1,0.1-0.2,0.1-0.3c0-0.3,0.1-0.5,0.1-0.8l0.1-0.8l0.3,0.7l0,0c0.1,0.3,0.2,0.5,0.4,0.7c0,0,0,0,0,0 c0,0,0,0,0,0c0,0-0.2-0.1-0.2,0l0,0l0,0c0,0,0.1-0.1-0.1,0.1l0,0l0,0l0,0l0,0c0,0,0,0,0-0.1c0-0.1,0-0.2,0-0.3 c-0.1-0.5-0.3-0.9-0.5-1.4L40.9,34.7z"/><path fill="#E6EFFC" d="M32,33.6c2.4-0.7,5.3-0.2,5.8,0c1.8,0.6-0.7,5.6-4.6,6c-1.9,0.2-3.1-0.2-4.2-2.1L32,33.6z"/><path fill="#9CBDDB" d="M32,33.6c0,0,0.1,0,0.2-0.1c0.1-0.1,0.3-0.2,0.6-0.3c0.5-0.2,1.3-0.4,2.3-0.4c0.5,0,1,0,1.5,0.1 c0.3,0,0.6,0.1,0.8,0.1l0.2,0.1l0.1,0l0.1,0l0,0l0.1,0l0,0c0.1,0.1,0.2,0.1,0.4,0.3c0.4,0.4,0.3,0.8,0.3,1.2c0,0.4-0.1,0.7-0.2,1 c-0.2,0.6-0.6,1.2-1,1.7c-0.4,0.5-0.9,1-1.4,1.4c-0.5,0.4-1.1,0.7-1.7,0.9c-0.3,0.1-0.6,0.2-0.9,0.2c-0.2,0-0.3,0.1-0.4,0.1 c-0.1,0-0.3,0-0.4,0c-0.6,0-1.1,0-1.6-0.1c-0.5-0.1-1-0.4-1.3-0.7c-0.3-0.3-0.6-0.6-0.7-0.8c-0.3-0.5-0.5-0.8-0.5-0.8l0.8-0.4 c0,0,0.1,0.3,0.4,0.7c0.3,0.4,0.8,0.9,1.5,1.2c0.4,0.1,0.9,0.1,1.3,0.1c0.1,0,0.3,0,0.4,0l0.4-0.1c0.3,0,0.5-0.1,0.8-0.2 c0.5-0.2,1-0.5,1.5-0.8c0.5-0.3,0.9-0.8,1.2-1.2c0.3-0.5,0.7-1,0.8-1.5c0.1-0.3,0.2-0.5,0.2-0.8c0-0.2-0.1-0.5-0.1-0.5 c0.1,0-0.1-0.1-0.3-0.2l0,0l0,0c-0.1,0,0.1,0,0.1,0l0,0l0,0l-0.1,0l-0.2,0c-0.3,0-0.5-0.1-0.8-0.1c-0.5-0.1-1-0.1-1.5-0.1 c-0.9-0.1-1.7-0.1-2.2-0.1C32.3,33.6,32,33.6,32,33.6z"/><path fill="#9CBDDB" d="M30.4,37.1c0,0-0.1,0-0.1,0.1c-0.1,0-0.2,0.1-0.4,0.1c-0.3,0.1-0.6,0.2-0.9,0.4c-0.3,0.1-0.6,0.3-0.8,0.5 c-0.1,0.1-0.2,0.2-0.3,0.2c-0.1,0.1-0.1,0.1-0.1,0.1s0-0.2,0.1-0.5c0.1-0.3,0.4-0.7,0.8-0.9c0.4-0.2,0.9-0.2,1.2-0.1 C30.2,37,30.4,37.1,30.4,37.1z"/><path fill="#9CBDDB" d="M32,34.3c0,0,0.2,0,0.4,0c0.1,0,0.3,0.1,0.4,0.2c0.1,0,0.2,0.1,0.2,0.2c0.1,0.1,0.2,0.2,0.2,0.3 c0.1,0.2,0,0.5-0.2,0.7c-0.2,0.2-0.4,0.3-0.5,0.3c-0.3,0.1-0.4,0-0.4,0.1c0,0,0.1-0.1,0.3-0.2c0.1-0.1,0.2-0.4,0.2-0.7 c-0.1-0.3-0.2-0.5-0.4-0.6C32.1,34.4,32,34.3,32,34.3z"/><path fill="#3DA9FF" d="M16.9,38.4c1.1-1.8,0.5-5.1-4.2-10.2c-2.5-2.7-4.3-4-4-8.9l-0.9-7.8c-1.3,0.9-3,4-3.6,8.3 c-0.5,3.9-1.4,5.7-2.1,6.9c1.1,0,2.3-1.2,3.4-2.6c-0.7,5.2,1.5,11.1,1.3,15.1c-0.1,2.2,0.3,5.4-4.5,7.7c0.6,0.7,1.9,2,4.1,1.5 c2.7-0.6,5.8-4.2,5.1-8c1.1,1,2,2.5,2.2,5c2.7-2.9,2.3-6.7,1.2-8.8c-0.4-0.8-1-1.4-1.5-1.8C15.3,35.2,16.2,36,16.9,38.4z"/><path fill="#94D4FF" d="M6.9,12.3c-2.1,1.3-3.7,13.4-4.5,14.1c2.2-1.1,2.8-1.8,3.5-3c-0.8,2.8-0.6,13.5,4,15.7 c2.1,1.4,3.9,2.3,3.9,6.6c1.6-1.1,4.3-8.6,0-10.8c-4.1-2.1-4.6-4.4-5.2-6.7C8,26.1,8,18.6,9.2,17.2C10.4,15.9,6.9,12.3,6.9,12.3z"/><path fill="none" stroke="#2864BC" stroke-width="0.8754" stroke-miterlimit="20" d="M7.9,11.5c-1.3,0.9-3,4-3.6,8.3 c-0.5,3.9-1.4,5.7-2.1,6.9c1.1,0,2.3-1.2,3.4-2.6c-0.7,5.2,1.5,11.1,1.3,15.1c-0.1,2.2,0.3,5.4-4.5,7.7c0.6,0.7,1.9,2,4.1,1.5 c2.7-0.6,5.9-4.2,5.1-8"/><path fill="#2864BC" d="M9.9,39.1c0.7,0.1,1.3,0.4,1.9,0.8c0.6,0.4,1,0.9,1.4,1.5c0.7,1.2,1,2.5,1.2,3.9L13.6,45 c0.4-0.4,0.7-0.9,1-1.4c0.3-0.5,0.5-1,0.6-1.5c0.3-1.1,0.4-2.2,0.2-3.3c-0.1-0.6-0.2-1.1-0.5-1.6c-0.1-0.3-0.2-0.5-0.4-0.8 c-0.1-0.3-0.3-0.5-0.4-0.7c-0.3-0.4-0.8-0.8-1.2-1.1c-0.4-0.4-0.9-0.7-1.4-1.1c0.6,0,1.2,0.2,1.8,0.5c0.6,0.3,1,0.7,1.4,1.2 c0.2,0.2,0.4,0.5,0.5,0.8c0.1,0.2,0.3,0.6,0.4,0.8c0.2,0.6,0.4,1.2,0.5,1.8c0.2,1.2,0.2,2.5-0.2,3.7c-0.2,0.6-0.4,1.2-0.7,1.7 c-0.3,0.5-0.7,1-1.1,1.5l-0.6,0.7l-0.1-1c-0.1-1.2-0.4-2.5-1-3.5c-0.3-0.5-0.7-1-1.1-1.4C10.9,40,10.4,39.6,9.9,39.1z"/><path fill="none" stroke="#2864BC" stroke-width="0.8754" stroke-miterlimit="20" d="M13.5,34.7c1.7,0.5,2.7,1.4,3.4,3.7 c1.1-1.8,0.5-5.1-4.2-10.2c-2.5-2.7-4-4-3.7-8.9"/><path fill="#3DA9FF" d="M47.8,18C46.4,5.1,30-1,20.9,2.3C14.4,4.7,10.5,9,7.9,12.5l6.2,0.2l1.5,0.3c4.3,0.4,5.1,3.9,5.3,5.6 c1.1-2.4,1.4-4.2,1.2-6.2l1.2,0.6c4.8,3.2,5,7.7,5.3,9.4c3.2-0.8,4.5-4.7,5.1-6c6.6,5.5,8.7,11.6,9.7,16.6 c4.1-9.1,0.4-15.8-2.8-19.5l0,0C44.5,15.2,46,16.3,47.8,18z"/><path fill="#94D4FF" d="M12.6,7.6c7,2.1,15.6,6.6,15.9,14.7c2.2-1,4.2-2.4,5.2-6c1.5,2.1,7.1,3.7,9.6,16.1 c2.7-1.9,3.6-14.6-5.2-21.5c-8.8-6.9-16-7.5-20.7-6.5C15.1,4.8,12.6,7.6,12.6,7.6z"/><path fill="none" stroke="#2864BC" stroke-width="0.8754" stroke-miterlimit="20" d="M7.9,12.5c2.7-3.5,5.5-6.8,11.9-9.4 c11.6-4.8,26.6,2.1,28,14.9c-1.8-1.6-3.4-2.8-7.2-4.6"/><path fill="#2864BC" d="M37.8,10.7c0.9,0.5,1.8,1.1,2.5,1.9c0.4,0.4,0.8,0.7,1.1,1.2c0.3,0.4,0.6,0.8,0.9,1.3 c1.2,1.7,2.1,3.7,2.7,5.7c0.5,2,0.7,4.2,0.4,6.3c-0.2,2.1-0.9,4.1-1.7,6.1l-0.5,1.3L42.9,33c-0.3-1.6-0.7-3.1-1.3-4.7 c-0.3-0.8-0.6-1.5-0.9-2.2c-0.3-0.7-0.7-1.4-1.1-2.1c-0.4-0.7-0.8-1.4-1.3-2c-0.5-0.6-1-1.3-1.5-1.9c-0.3-0.3-0.5-0.6-0.8-0.9 c-0.3-0.3-0.6-0.6-0.8-0.9c-0.6-0.6-1.2-1.1-1.8-1.6l0.7-0.2c-0.5,1.2-1,2.6-1.9,3.7c-0.2,0.3-0.4,0.6-0.7,0.8 c-0.1,0.1-0.3,0.3-0.4,0.4c-0.1,0.1-0.3,0.2-0.4,0.3c-0.3,0.2-0.6,0.4-0.9,0.6c-0.3,0.2-0.7,0.3-1,0.4l-0.5,0.1l-0.1-0.5 c-0.1-1.1-0.3-2.1-0.6-3.1c-0.1-0.5-0.3-1-0.5-1.4c-0.2-0.5-0.5-0.9-0.7-1.3c-0.3-0.4-0.6-0.8-0.9-1.2c-0.3-0.4-0.7-0.7-1.1-1.1 l-0.6-0.5l-0.6-0.4c-0.4-0.3-0.9-0.5-1.3-0.8l0.6-0.4c0.1,1,0.2,2.1,0.1,3.2c-0.1,1.1-0.6,2.2-1.1,3.1l-0.6,1l-0.2-1.2 c-0.2-1.3-0.7-2.7-1.6-3.7c-0.4-0.5-0.9-0.9-1.5-1.2c-0.6-0.2-1.2-0.2-1.9-0.1l-0.2-0.9c0.8-0.2,1.6-0.2,2.4,0.1 c0.8,0.3,1.4,0.8,1.9,1.4c0.5,0.6,0.9,1.3,1.2,2c0.3,0.7,0.5,1.4,0.6,2.2l-0.8-0.2c0.5-0.9,0.9-1.8,1-2.8c0.1-1,0-2-0.1-3.1 l-0.1-0.8l0.7,0.4c0.5,0.3,1,0.5,1.4,0.8l0.7,0.5l0.6,0.5c0.4,0.4,0.8,0.7,1.2,1.2c0.4,0.4,0.7,0.9,1,1.3c0.3,0.5,0.6,1,0.8,1.5 c0.2,0.5,0.4,1,0.6,1.5c0.3,1,0.5,2.2,0.6,3.2l-0.5-0.4c0.3-0.1,0.6-0.2,0.9-0.3c0.3-0.1,0.5-0.3,0.8-0.5c0.1-0.1,0.3-0.2,0.4-0.3 c0.1-0.1,0.2-0.2,0.3-0.3c0.2-0.2,0.4-0.5,0.6-0.7c0.4-0.5,0.7-1.1,1-1.7c0.3-0.6,0.5-1.2,0.8-1.9l0.2-0.6l0.4,0.4 c0.6,0.5,1.3,1.1,1.8,1.7c0.3,0.3,0.6,0.6,0.9,0.9c0.3,0.3,0.6,0.6,0.8,0.9c0.5,0.6,1.1,1.3,1.5,2c0.5,0.7,0.9,1.4,1.4,2.1 c0.4,0.7,0.8,1.5,1.2,2.2c0.3,0.8,0.7,1.5,0.9,2.3c0.6,1.6,1,3.2,1.3,4.8L43,32.7c0.8-1.9,1.4-3.8,1.7-5.8c0.2-2,0.1-4-0.4-6 c-0.5-1.9-1.4-3.8-2.6-5.4c-0.6-0.8-1.2-1.6-1.9-2.4L37.8,10.7z"/><mask maskUnits="userSpaceOnUse" x="29.4" y="2.6" width="8.3" height="14.1" id="SVGID_5_"><g filter="url(#Adobe_OpacityMaskFilter_2_)"><path fill="#FFFFFF" d="M29.6,10.8c1.2-2.8,5.9-9.1,7.7-8.5c1.8,0.6-0.9,10-1.8,11.5C35.5,13.9,32.2,11.3,29.6,10.8z"/></g></mask><g mask="url(#SVGID_5_)"><path fill="#E6EFFC" d="M29.5,13.4c0,3,3.3,3.2,3.7,2.7C35.4,13.4,38,3.5,37,3c-0.8-0.4-4.5,4.5-7,8.4"/><path fill="#9CBDDB" d="M29.5,13.4c0,0,0,0.1,0.1,0.3c0.1,0.2,0.2,0.5,0.4,0.8c0.2,0.3,0.5,0.7,0.9,0.9c0.4,0.3,1,0.4,1.6,0.4 c0.1,0,0.3,0,0.4-0.1c0,0,0,0,0,0c0,0,0,0,0-0.1l0.2-0.2c0.2-0.3,0.4-0.6,0.6-1c0.4-0.7,0.7-1.5,1-2.3c0.6-1.6,1.2-3.4,1.6-5.3 c0.2-0.9,0.4-1.8,0.5-2.7c0-0.2,0-0.4,0-0.6c0-0.1,0-0.2,0-0.2c0,0,0,0,0,0c0,0,0.2,0.1,0.1,0.1c0.2,0,0,0,0,0.1 c-0.1,0-0.1,0.1-0.2,0.1c-0.2,0.1-0.3,0.3-0.5,0.4c-0.6,0.6-1.2,1.2-1.7,1.9c-0.5,0.6-1,1.2-1.4,1.8c-0.9,1.1-1.5,2.1-2,2.8 c-0.4,0.7-0.7,1.1-0.7,1.1l-0.6-0.4c0,0,1-1.6,2.7-4c0.8-1.2,1.8-2.5,3.1-3.8c0.2-0.2,0.3-0.3,0.5-0.5c0.1-0.1,0.2-0.2,0.3-0.2 c0.1-0.1,0.3-0.2,0.6-0.1l0,0l0,0l0,0c-0.1,0,0.1,0,0.1,0c0.1,0,0.2,0.1,0.2,0.2c0.1,0.1,0.1,0.2,0.2,0.3c0.1,0.2,0.1,0.3,0.1,0.4 c0,0.3,0,0.5,0,0.8c-0.1,1-0.3,1.9-0.5,2.9c-0.4,1.9-1,3.7-1.7,5.4c-0.3,0.8-0.7,1.6-1.1,2.4c-0.2,0.4-0.4,0.7-0.6,1.1l-0.2,0.2 c0,0,0,0.1-0.1,0.2c-0.1,0.1-0.1,0.1-0.2,0.1c-0.3,0.1-0.5,0.1-0.7,0.1c-0.8,0-1.5-0.3-2.1-0.6c-0.5-0.4-0.9-0.9-1-1.3 c-0.1-0.4-0.1-0.8-0.1-1C29.5,13.5,29.5,13.4,29.5,13.4z"/><path fill="none" stroke="#9CBDDB" stroke-width="0.6565" d="M34.7,4.8c-0.1,1.3,0.7,2.6,2,2.8"/><path fill="none" stroke="#9CBDDB" stroke-width="0.6565" d="M33.2,6.9c-0.1,1.3,0.8,3.2,2.6,3.6"/></g><path fill="#2864BC" d="M35.5,13.9c0,0-0.4-0.2-0.9-0.5c-0.6-0.3-1.3-0.7-2-1.1c-0.7-0.4-1.5-0.8-2-1.1c-0.6-0.3-0.9-0.4-0.9-0.4 s0.4,0,1.1,0.2c0.6,0.2,1.4,0.5,2.2,0.9c0.7,0.4,1.5,0.9,1.9,1.3C35.2,13.6,35.5,13.9,35.5,13.9z"/><path fill="#E6EFFC" d="M16.2,14.5c0.5-8.4-4-11.8-5.3-10.2c-4.3,5.7-6.9,14.4-0.5,19.5C10.5,23.8,12.4,17.7,16.2,14.5z"/><path fill="#C3CFE0" d="M10.9,18.4c-0.4-2.8-0.2-8.8,0.7-10.2s1.8-1.3,2.1,1.1c0.1,1,0.4,3.3,0.4,4.8C13.1,14.6,11.5,16.9,10.9,18.4 z"/><path fill="#9CBDDB" d="M10.5,23.8c0,0-0.1-0.1-0.4-0.2c-0.2-0.1-0.6-0.3-0.9-0.6c-0.2-0.1-0.4-0.3-0.6-0.5 c-0.2-0.2-0.4-0.4-0.7-0.7c-0.4-0.5-0.8-1.2-1.2-2c-0.7-1.6-0.9-3.6-0.7-5.7C6.2,12,6.9,9.8,7.9,7.8c0.5-1,1.1-2,1.8-2.8 c0.4-0.4,0.8-0.8,1.4-1.1c0.6-0.2,1.3-0.1,1.8,0.2c1.1,0.6,1.6,1.5,2.1,2.4c0.4,0.9,0.7,1.8,0.9,2.6c0.4,1.6,0.5,3,0.5,4 c-0.1,1-0.2,1.5-0.2,1.5s-0.2-0.5-0.3-1.5c-0.1-0.5-0.2-1-0.3-1.7c-0.1-0.6-0.2-1.4-0.4-2.1c-0.2-0.8-0.5-1.6-0.9-2.4 c-0.4-0.8-1-1.6-1.7-2c-0.4-0.2-0.8-0.3-1.2-0.2c-0.3,0.1-0.7,0.5-1,0.8C9.7,6.4,9.1,7.3,8.7,8.2c-1,1.9-1.6,4-1.8,5.9 c-0.2,2,0,3.8,0.6,5.3c0.3,0.7,0.6,1.3,1,1.9c0.3,0.5,0.7,1,1,1.4c0.3,0.4,0.6,0.6,0.7,0.8C10.4,23.7,10.5,23.8,10.5,23.8z"/><path fill="#9CBDDB" d="M10.9,18.4c0,0-0.1-0.2-0.2-0.6c-0.1-0.4-0.2-0.9-0.3-1.6c-0.1-0.7-0.1-1.5-0.1-2.3c0-0.8,0.1-1.8,0.3-2.6 c0.1-0.9,0.4-1.8,0.7-2.6c0.2-0.4,0.3-0.8,0.5-1.2c0.1-0.2,0.3-0.4,0.5-0.5c0.2-0.1,0.6-0.1,0.8,0c0.4,0.3,0.5,0.6,0.6,0.9 c0.1,0.3,0.1,0.5,0.1,0.7c0,0.4,0,0.6,0,0.6s-0.1-0.2-0.2-0.6c-0.1-0.2-0.1-0.4-0.3-0.6c-0.1-0.2-0.3-0.5-0.5-0.6 c-0.2-0.1-0.4,0.1-0.6,0.3c-0.2,0.3-0.3,0.7-0.4,1c-0.3,0.8-0.4,1.6-0.6,2.5c-0.2,0.9-0.3,1.7-0.3,2.6c0,0.4-0.1,0.8-0.1,1.2 c0,0.4,0,0.7,0,1.1c0,0.7,0,1.2,0.1,1.6C10.9,18.2,10.9,18.4,10.9,18.4z"/></svg>
