<svg version="1.1" xmlns="http://www.w3.org/2000/svg" xmlns:xlink="http://www.w3.org/1999/xlink" x="0px" y="0px"  viewBox="0 0 50 50" enable-background="new 0 0 50 50" xml:space="preserve"><defs><rect id="SVGID_1_" width="50" height="50"/></defs><clipPath id="SVGID_2_"><use xlink:href="#SVGID_1_"  overflow="visible"/></clipPath><g id="Far_Crest_1_" clip-path="url(#SVGID_2_)"><g><path fill="#2864BC" d="M31.5,35.6c0,0-0.1,0-0.2-0.1c-0.1-0.1-0.3-0.2-0.4-0.4c-0.2-0.3-0.6-0.8-1-1.1c-0.4-0.4-0.9-0.6-1.3-0.8 c-0.1-0.1-0.2-0.1-0.3-0.1c-0.1-0.1-0.1-0.1-0.2-0.2c-0.1-0.1-0.1-0.3-0.1-0.3s0.1-0.1,0.3-0.1c0.1,0,0.2,0,0.3,0 c0.1,0,0.2,0.1,0.3,0.1c0.4,0.2,1,0.5,1.5,0.9c0.5,0.4,0.9,0.9,1.1,1.3C31.7,35.2,31.5,35.6,31.5,35.6z"/></g><g><path fill="none" d="M26.4,38.2"/></g><path fill="none" stroke="#2864BC" stroke-width="0.6819" stroke-miterlimit="20" d="M30,33.8c1.7,0.5,2.7,1.4,3.3,3.7 c1.1-1.8,0.5-5.1-4.1-10.1c-2.5-2.7-4-4-3.7-8.9"/></g><path id="Body_2_" clip-path="url(#SVGID_2_)" fill="#E6EFFC" stroke="#9CBDDB" stroke-width="0.6818" d="M11.5,51 c0.2-1.4,0.3-2.9,0.5-4.3l2.1-7.1l9.9-0.3l2.6,2.2c-0.5,1.1-0.7,3.3-0.9,5.9c-0.1,1.1-0.1,2.2-0.1,3.4"/><g id="Head_1_" clip-path="url(#SVGID_2_)"><g id="face_2_"><g><path fill="#E6EFFC" d="M12.2,46c0.6-4.8,0.9-9.3-1-19.7C9.6,17.7,17.2,10,26,9.4c8.7-0.6,16.8,6,16.9,14.8 c0.1,8.8-3.6,10.6-8.5,12.4"/><g><path fill="#9CBDDB" d="M11.7,46.7c0,0,0.2-1.4,0.4-3.7c0.2-2.4,0.2-5.8-0.2-9.8c-0.2-2-0.5-4.2-1-6.5c-0.5-2.3-0.3-5,0.7-7.4 c1-2.4,2.7-4.7,4.8-6.4c2.1-1.7,4.7-2.9,7.5-3.5C26.5,8.8,29.4,9,32,9.8c2.6,0.8,5,2.3,6.8,4.2c1.8,1.9,3.1,4.1,3.8,6.4 c0.7,2.3,0.6,4.6,0.4,6.7c-0.2,2.1-0.8,4-1.8,5.4c-1,1.4-2.3,2.2-3.4,2.8c-1.1,0.5-2,0.8-2.6,1c-0.6,0.2-0.9,0.3-0.9,0.3 s0.3-0.1,0.9-0.4c0.6-0.3,1.4-0.6,2.5-1.2c1-0.6,2.2-1.4,3.1-2.8c0.9-1.3,1.4-3.1,1.6-5.1c0.2-2,0.2-4.2-0.4-6.4 c-0.6-2.2-1.9-4.4-3.6-6.1c-1.8-1.8-4-3.2-6.5-4c-2.5-0.8-5.3-1-7.9-0.4c-2.6,0.5-5.1,1.7-7.2,3.3c-2.1,1.6-3.7,3.8-4.6,6.1 c-0.9,2.3-1.1,4.8-0.6,7.1c0.4,2.3,0.8,4.5,1,6.6c0.5,4.1,0.4,7.5,0.2,9.9c-0.2,2.4-0.4,3.7-0.4,3.7L11.7,46.7z"/></g></g><g><path fill="#E6EFFC" d="M41.5,30.4C41.3,33.3,43,34,43,35c-0.1,4.2-8.9,8.3-19.8,6"/><g><path fill="#9CBDDB" d="M42.1,30.9c0,0,0,0.1-0.1,0.2c0,0.1,0,0.1,0,0.3c0,0.1,0.1,0.3,0.1,0.5c0.1,0.3,0.2,0.8,0.4,1.2 c0.1,0.5,0.4,1,0.5,1.7c0,0.2,0,0.4,0,0.6c0,0.2,0,0.3-0.1,0.5c-0.1,0.4-0.2,0.7-0.4,1.1c-0.4,0.7-0.9,1.3-1.5,1.8 c-1.3,1-2.9,1.8-4.5,2.3c-1.6,0.5-3.3,0.8-4.9,0.9c-1.6,0.1-3.1,0.1-4.3-0.1c-0.6-0.1-1.2-0.2-1.7-0.3 c-0.5-0.1-0.9-0.2-1.3-0.3c-0.7-0.2-1.1-0.4-1.1-0.4s0.4,0,1.2,0.1c0.7,0.1,1.8,0.2,3,0.2c2.5,0.1,5.8,0.1,9-0.9 c1.6-0.5,3.1-1.2,4.3-2.1c0.6-0.5,1.1-1,1.4-1.6c0.1-0.3,0.3-0.6,0.3-0.9c0-0.1,0-0.3,0.1-0.5c0-0.1,0-0.3,0-0.4 c-0.1-0.6-0.3-1.1-0.5-1.6c-0.2-0.5-0.3-0.9-0.4-1.3c0-0.2-0.1-0.3-0.1-0.5c0-0.2,0-0.4,0-0.5c0-0.2,0.1-0.3,0.1-0.3L42.1,30.9 z"/></g></g></g><g id="right_eye_2_"><g><path fill="none" d="M43.2,18.8"/></g><g><path fill="none" d="M41.4,21.2"/></g><defs><filter id="Adobe_OpacityMaskFilter" filterUnits="userSpaceOnUse" x="34.9" y="18.5" width="8.3" height="14.9"><feColorMatrix  type="matrix" values="1 0 0 0 0  0 1 0 0 0  0 0 1 0 0  0 0 0 1 0"/></filter></defs><mask maskUnits="userSpaceOnUse" x="34.9" y="18.5" width="8.3" height="14.9" id="SVGID_3_"><g filter="url(#Adobe_OpacityMaskFilter)"><path fill="#FFFFFF" d="M39.7,18.5c-1.8-0.1-3.1,2.7-3.4,7c-0.3,4.2,1.2,7.9,3,8c0.1,0,0.2,0,0.4,0c0.4-0.4,0.7-0.8,1-1.2 c0.2-0.3,0.4-0.7,0.6-1.1c0.2-0.4,0.3-0.8,0.5-1.2c0.3-0.9,0.5-1.8,0.6-2.8c0.1-1,0.1-2.1,0.1-3.1c0-1.1-0.2-2.2-0.5-3.3 c-0.1-0.3-0.2-0.6-0.3-0.8C41.1,19,40.4,18.5,39.7,18.5z"/></g></mask><g mask="url(#SVGID_3_)"><path fill="#FFFFFF" d="M43.1,25.9c-0.3,4.2-2,7.6-3.8,7.5c-1.8-0.1-3.3-3.7-3-8c0.3-4.2,1.5-7.1,3.4-7 C41.5,18.6,43.4,21.7,43.1,25.9z"/><g><defs><filter id="Adobe_OpacityMaskFilter_1_" filterUnits="userSpaceOnUse" x="34.9" y="20.3" width="6.7" height="12.4"><feColorMatrix  type="matrix" values="1 0 0 0 0  0 1 0 0 0  0 0 1 0 0  0 0 0 1 0"/></filter></defs><mask maskUnits="userSpaceOnUse" x="34.9" y="20.3" width="6.7" height="12.4" id="SVGID_3_"><g filter="url(#Adobe_OpacityMaskFilter_1_)"><path fill="#FFFFFF" d="M40.9,26.6c0,3.4-1.3,6.1-3,6.1c-1.7-0.1-3-2.9-3-6.3c0-3.4,1.3-6.1,3-6.1 C39.5,20.3,40.8,23.1,40.9,26.6z"/></g></mask><g>  <linearGradient id="SVGID_4_" gradientUnits="userSpaceOnUse" x1="78.8294" y1="117.0941" x2="79.3821" y2="105.8568" gradientTransform="matrix(0.9988 -4.790000e-002 4.790000e-002 0.9988 -46.4872 -81.725)"><stop  offset="0" style="stop-color:#F6DF58"/><stop  offset="0.7" style="stop-color:#FF8D38"/></linearGradient><path fill="url(#SVGID_4_)" d="M40.9,26.6c0,3.4-1.3,6.1-3,6.1c-1.7-0.1-3-2.9-3-6.3c0-3.4,1.3-6.1,3-6.1 C39.5,20.3,40.8,23.1,40.9,26.6z"/><polygon fill="#F9E98C" points="37.6,27.7 41.4,25.3 41.2,27.9"/><polygon fill="#FCF1BD" points="37.9,27.8 41.5,27.4 41.1,29.6"/></g><path d="M39.9,26.9c0,2.6-1,4.7-2.2,4.7c-1.2,0-2.3-2.2-2.3-4.8c0-2.6,1-4.7,2.2-4.7C38.8,22.1,39.8,24.3,39.9,26.9z"/><path fill="#FFFFFF" d="M37.5,26.2c-0.7-0.2-1-1.4-0.6-2.6c0.4-1.2,1.2-2,2-1.8c0.7,0.2,1,1.4,0.6,2.6 C39.1,25.6,38.2,26.5,37.5,26.2z"/><path fill="#FFFFFF" d="M37.5,29c-0.3-0.2-0.4-0.6-0.1-1.1c0.2-0.4,0.6-0.6,0.9-0.5c0.3,0.2,0.4,0.6,0.1,1.1 C38.2,28.9,37.8,29.1,37.5,29z"/></g></g><g><path d="M38.5,33.1c0,0-0.1-0.1-0.2-0.2c-0.1-0.1-0.3-0.3-0.6-0.5c-0.4-0.5-1-1.3-1.4-2.3c-0.8-2.1-0.9-5.3-0.1-8.2 c0.2-0.7,0.5-1.4,0.9-2.1c0.4-0.6,0.8-1.3,1.7-1.6l0.2-0.1l0.3,0c0.2,0,0.4,0,0.6,0.1c0.4,0.1,0.7,0.3,0.9,0.6 c0.5,0.5,0.8,1,1.1,1.6c0.5,1.1,0.7,2,0.8,2.6c0.1,0.6,0.2,1,0.2,1L42.3,24c0,0,0-0.4-0.1-1c-0.1-0.6-0.3-1.5-0.7-2.5 c-0.2-0.5-0.5-1-0.9-1.4c-0.4-0.4-0.9-0.6-1.5-0.4c-0.5,0.2-0.9,0.7-1.3,1.3c-0.3,0.6-0.6,1.3-0.8,2c-0.4,1.4-0.6,2.8-0.5,4.2 c0,1.3,0.2,2.6,0.6,3.6c0.3,1,0.7,1.8,1,2.4c0.2,0.3,0.3,0.5,0.4,0.6C38.5,33,38.5,33.1,38.5,33.1z"/></g></g><g id="left_eye_1_"><g><path d="M19.6,24.2c0,0-4.8-0.6-4.8-0.9c0.1-0.3,4.5,0,4.5,0L19.6,24.2z"/><path d="M19.6,22.4c0,0-3.8-2.4-3.6-2.7c0.2-0.3,4,1.8,4,1.8L19.6,22.4z"/><path d="M20.7,20.6c0,0-2.1-3.6-1.8-3.8c0.3-0.2,2.6,3.2,2.6,3.2L20.7,20.6z"/></g>  <ellipse transform="matrix(0.9978 -6.637052e-002 6.637052e-002 0.9978 -1.7454 1.7508)" fill="#FFFFFF" cx="25.5" cy="27.1" rx="6.2" ry="8.6"/><defs><filter id="Adobe_OpacityMaskFilter_2_" filterUnits="userSpaceOnUse" x="19.7" y="20.1" width="11.1" height="14.2"><feColorMatrix  type="matrix" values="1 0 0 0 0  0 1 0 0 0  0 0 1 0 0  0 0 0 1 0"/></filter></defs><mask maskUnits="userSpaceOnUse" x="19.7" y="20.1" width="11.1" height="14.2" id="SVGID_5_"><g filter="url(#Adobe_OpacityMaskFilter_2_)"><path fill="#FFFFFF" d="M31.7,26.7c-0.3-4.8-3.5-8.4-7-8.2c-0.5,0-1,0.2-1.5,0.3c-0.2,0-0.3,0.1-0.5,0.1 c-3.3,0.9-5.1,5.3-3.9,9.9c1.2,4.6,4.8,7.7,8.2,6.8c1.5-0.4,2.7-1.5,3.5-3.1C31.4,31,31.9,28.9,31.7,26.7z"/></g></mask><g mask="url(#SVGID_5_)"><defs><filter id="Adobe_OpacityMaskFilter_3_" filterUnits="userSpaceOnUse" x="19.7" y="20.1" width="11.1" height="14.2"><feColorMatrix  type="matrix" values="1 0 0 0 0  0 1 0 0 0  0 0 1 0 0  0 0 0 1 0"/></filter></defs><mask maskUnits="userSpaceOnUse" x="19.7" y="20.1" width="11.1" height="14.2" id="SVGID_5_"><g filter="url(#Adobe_OpacityMaskFilter_3_)"><path fill="#FFFFFF" d="M30.7,27.2c0,3.9-2.3,7.1-5,7.1c-2.8,0-5-3.2-4.9-7.1c0-3.9,2.3-7.1,5-7.1 C28.5,20.1,30.7,23.3,30.7,27.2z"/></g></mask><g>  <linearGradient id="SVGID_6_" gradientUnits="userSpaceOnUse" x1="125.0245" y1="376.4745" x2="127.8495" y2="363.2275" gradientTransform="matrix(0.9759 -0.2182 0.2182 0.9759 -178.3688 -306.3748)"><stop  offset="0" style="stop-color:#F6DF58"/><stop  offset="0.7" style="stop-color:#FF8D38"/></linearGradient><path fill="url(#SVGID_6_)" d="M30.7,27.2c0,3.9-2.3,7.1-5,7.1c-2.8,0-5-3.2-4.9-7.1c0-3.9,2.3-7.1,5-7.1 C28.5,20.1,30.7,23.3,30.7,27.2z"/><polygon fill="#FCF1BD" points="19.7,29.1 27.6,27.7 20.9,31.7"/><polygon fill="#F9E98C" points="19.7,26.7 27.7,27.8 19.8,29.5"/></g><path d="M29.5,27.3c0,3-1.7,5.5-3.7,5.5c-2,0-3.6-2.5-3.5-5.5c0-3,1.7-5.5,3.7-5.5C28,21.8,29.6,24.3,29.5,27.3z"/><path fill="#FFFFFF" d="M25.5,21.1c1.1,0.2,1.7,1.7,1.2,3.3c-0.5,1.6-1.7,2.7-2.8,2.4c-1.1-0.2-1.7-1.7-1.2-3.3 C23.1,21.9,24.4,20.8,25.5,21.1z"/><path fill="#FFFFFF" d="M27.9,27.1c0.4,0.1,0.5,0.5,0.4,1c-0.2,0.5-0.6,0.8-0.9,0.7c-0.4-0.1-0.5-0.5-0.4-1 C27.2,27.3,27.6,27,27.9,27.1z"/></g><g><path d="M19.1,24.2c0,0-0.1-0.1-0.2-0.3c-0.2-0.2-0.1-0.5,0-0.9c0.2-0.7,0.7-1.8,1.7-2.8c0.9-1,2.3-1.9,4-2 c0.8-0.1,1.8,0.1,2.6,0.5c0.8,0.4,1.6,0.9,2.2,1.5c1.2,1.3,2,2.9,2.4,4.5c0.4,1.6,0.4,3.1,0.2,4.4c-0.3,1.3-0.7,2.3-1.1,2.9 c-0.4,0.6-0.7,1-0.7,1s0.2-0.4,0.4-1.1c0.2-0.7,0.5-1.7,0.5-2.9c0.1-1.2,0.1-2.7-0.3-4.1c-0.4-1.5-1.1-3-2.2-4.1 c-1.1-1.2-2.6-1.9-4.1-1.7c-1.4,0.1-2.7,0.9-3.5,1.8c-0.8,0.9-1.3,1.8-1.5,2.4c-0.1,0.3-0.2,0.6-0.2,0.8c0,0.2,0,0.3,0,0.3 L19.1,24.2z"/></g></g><g id="fluff_1_"><path fill="#E6EFFC" d="M41.9,33.1c0.5,0.4,1.5,1.6,1.5,1.7c0.1,0.3-0.4,0.3-0.5,0.3c-0.1,0,0.2,0.7,0.3,1.1 c0.1,0.4,0.2,0.8,0,0.8c-0.2,0-0.2-0.2-0.3-0.3c-0.1-0.2-0.1,0.2-0.2,0.5c-0.1,0.2-0.3,0.8-0.4,0.6c-0.1-0.2,0.2-1.2-0.3-1.7 C41.5,35.5,41.9,33.1,41.9,33.1z"/><g><path fill="#9CBDDB" d="M42.4,34.7c0,0,0.1,0,0.2,0.1c0.1,0,0.3,0,0.5-0.1c0,0,0.1,0,0.1-0.1c0,0,0.1-0.1,0,0c0,0,0,0.1,0,0.1 l0,0c0,0,0,0,0,0c0,0,0,0,0,0c0,0-0.1,0-0.1-0.1c-0.2-0.1-0.6-0.3-0.8-0.6c-0.1-0.2-0.2-0.3-0.3-0.5c-0.1-0.2-0.1-0.3-0.2-0.4 c-0.1-0.3-0.2-0.6-0.2-0.8c-0.1-0.5-0.2-0.8-0.2-0.8l0.7-0.1c0,0,0,0.3,0.1,0.7c0.1,0.2,0.1,0.5,0.2,0.8 c0.1,0.3,0.2,0.6,0.3,0.8c0.1,0.2,0.3,0.4,0.6,0.5c0.1,0,0.1,0.1,0.2,0.2c0,0,0.1,0.1,0.1,0.2c0,0,0,0,0,0.1l0,0 c0,0.1,0,0.1,0,0.2C43.5,35,43.5,35,43.4,35c-0.1,0-0.1,0-0.2,0.1c-0.3,0-0.5,0-0.6-0.1C42.4,34.8,42.4,34.7,42.4,34.7z"/></g><g><path fill="#9CBDDB" d="M43.1,34.8c0.2,0.5,0.4,1,0.5,1.6c0,0.2,0,0.3-0.1,0.5c0,0.1-0.1,0.2-0.2,0.2l0,0l0,0l0,0l-0.1,0l0,0 l0,0c0,0-0.2,0-0.2,0c0,0,0,0,0,0c0-0.1-0.1-0.1-0.1-0.1c-0.1-0.3-0.2-0.5-0.3-0.8l0,0l0.3-0.1c0,0.3,0,0.5-0.1,0.8 c0,0.1-0.1,0.3-0.1,0.4c-0.1,0.1-0.2,0.3-0.4,0.4c0,0-0.1,0.1-0.3-0.1c-0.1-0.1,0-0.2,0-0.2l0.1-0.2c0.1-0.1,0.1-0.2,0.1-0.4 c0-0.3,0-0.5-0.1-0.8c0.2,0.2,0.3,0.5,0.3,0.8c0,0.1,0,0.3,0,0.4l0,0.2c0,0,0,0.1,0,0c-0.1-0.1-0.1,0-0.1-0.1 c0.1,0,0.2-0.3,0.3-0.5c0-0.3,0.1-0.5,0.1-0.8l0.1-0.6l0.3,0.5l0,0c0.1,0.3,0.2,0.5,0.3,0.7c0,0,0,0,0,0c0,0,0,0,0,0 c0,0-0.1,0-0.2,0l0,0l0,0c0,0,0.1,0-0.1,0l0,0l0,0l0,0l0,0c0,0,0-0.1,0-0.1c0-0.1,0-0.2,0-0.3c-0.1-0.5-0.3-1-0.5-1.4L43.1,34.8 z"/></g></g><g id="Muzzle_1_"><path fill="#E6EFFC" d="M34.3,33.6c2.4-0.7,5.3-0.2,5.7,0c1.8,0.6-0.7,5.6-4.6,6c-1.9,0.2-3.1-0.2-4.2-2.1L34.3,33.6z"/><g><path fill="#9CBDDB" d="M34.3,33.6c0,0,0.1,0,0.2-0.1c0.1-0.1,0.3-0.1,0.6-0.2c0.5-0.2,1.3-0.3,2.3-0.3c0.5,0,1,0,1.5,0.1 c0.3,0,0.5,0.1,0.8,0.1c0.2,0,0.2,0,0.5,0.2c0.1,0.1,0.2,0.1,0.4,0.3c0.3,0.4,0.3,0.7,0.3,1.1c0,0.3-0.1,0.7-0.2,1 c-0.2,0.6-0.6,1.2-1,1.7c-0.4,0.5-0.9,1-1.4,1.4c-0.5,0.4-1.1,0.7-1.7,0.9c-0.3,0.1-0.6,0.2-0.9,0.2C35.5,40,35.2,40,35,40 c-0.6,0-1.1,0-1.6-0.1c-1-0.3-1.6-1-1.9-1.4c-0.3-0.5-0.5-0.8-0.5-0.8l0.6-0.3c0,0,0.1,0.3,0.4,0.7c0.3,0.4,0.8,1,1.6,1.2 c0.4,0.1,0.9,0.1,1.4,0.1c0.3,0,0.5,0,0.8-0.1c0.3,0,0.5-0.1,0.8-0.2c0.5-0.2,1-0.5,1.5-0.8c0.5-0.3,0.9-0.8,1.3-1.2 c0.4-0.5,0.7-1,0.9-1.5c0.1-0.3,0.2-0.5,0.2-0.8c0-0.2,0-0.5-0.1-0.6c0,0-0.2-0.1-0.3-0.2c0,0-0.2-0.1-0.3-0.1 c-0.3,0-0.5-0.1-0.8-0.1c-0.5-0.1-1-0.1-1.5-0.1c-0.9,0-1.7-0.1-2.2,0C34.6,33.6,34.3,33.6,34.3,33.6z"/></g><g><path fill="#9CBDDB" d="M32.7,37.2c0,0-0.2,0.1-0.5,0.1c-0.3,0.1-0.6,0.2-1,0.3c-0.3,0.2-0.6,0.4-0.8,0.6 c-0.2,0.2-0.4,0.3-0.4,0.3s0-0.2,0.1-0.5c0.1-0.3,0.4-0.7,0.8-0.9c0.2-0.1,0.4-0.2,0.6-0.2c0.2,0,0.4,0,0.6,0 C32.5,37.1,32.7,37.2,32.7,37.2z"/></g><g><path fill="#9CBDDB" d="M34.3,34.3c0,0,0.2,0,0.4,0.1c0.1,0,0.2,0.1,0.4,0.2c0.1,0,0.1,0.1,0.2,0.2c0.1,0.1,0.1,0.1,0.2,0.3 c0,0.1,0.1,0.2,0,0.3c0,0.1-0.1,0.2-0.1,0.3c-0.1,0.2-0.3,0.3-0.4,0.3c-0.2,0.1-0.4,0.1-0.4,0.1c0,0,0.1-0.1,0.3-0.2 c0.1-0.1,0.2-0.4,0.2-0.7c-0.1-0.3-0.2-0.5-0.4-0.6C34.4,34.4,34.3,34.3,34.3,34.3z"/></g></g></g><g id="Side_Mane" clip-path="url(#SVGID_2_)"><path fill="#3DA9FF" d="M11.9,22.2c0.1,4,1,8.4,4.3,12c-3.9-1.4-5.3-3.1-6.5-5.3l4.4,4.1c0.3,3.7,1.3,6.3,3.9,9.5 c-3.6-0.4-5.7-3-6.9-5.7l4.3,4.8c0.5,6.8-2.6,10.9-6.2,15.2c1.1-11.5-7.5-18.9-5.1-29.3l-2.4,3.1c0.1-9.1,4.5-15.8,10.1-20.9 L11.9,22.2z"/><path fill="#94D4FF" d="M9.9,15.2c-2.4,2.7-3.7,7-3.8,11.5l1.5-2c-2.1,8.9,6,17.8,5.9,26.3c1.5-2.8,2.9-5.6,2.3-9l1.6,0.1 c-2-2.9-2.6-5.9-3.4-8.9l1.4,0.4c-1.9-3.2-3.7-6.5-3.5-10.3L9.9,15.2z"/><g><path fill="#2864BC" d="M12.2,22.2c0,1.1,0.1,2.1,0.3,3.2c0.2,1.1,0.4,2.1,0.7,3.1c0.2,0.5,0.4,1,0.6,1.5c0.2,0.5,0.5,1,0.7,1.4 c0.5,0.9,1.2,1.8,1.9,2.5l0,0l0.7,0.8l-1-0.2c-0.7-0.2-1.5-0.4-2.1-0.7c-0.3-0.2-0.7-0.3-1-0.5c-0.3-0.2-0.6-0.4-0.9-0.7 c-1.1-1-2-2.3-2.4-3.7c0.3,0.6,0.7,1.3,1.2,1.8c0.5,0.5,1,1,1.6,1.5c0.3,0.2,0.6,0.4,0.9,0.6c0.3,0.2,0.6,0.3,0.9,0.5 c0.6,0.3,1.3,0.5,2,0.7L16,34.4l0,0c-0.8-0.8-1.4-1.7-2-2.7c-0.3-0.5-0.5-1-0.8-1.5c-0.2-0.5-0.4-1-0.6-1.5 c-0.4-1.1-0.6-2.1-0.8-3.2c-0.2-1.1-0.2-2.2-0.3-3.3L12.2,22.2z"/></g><path fill="none" stroke="#2864BC" stroke-width="0.6818" stroke-miterlimit="100" d="M15.4,41.5c0.5,6.8-1.9,11.6-6.2,15.2 c1.1-11.5-7.5-18.9-5.1-29.3l-2.4,3.1c0.1-9.1,4.5-15.8,10.1-20.9"/><g><path fill="#2864BC" d="M14.7,33.3c0.2,1.6,0.5,3.2,1.1,4.7c0.6,1.5,1.5,2.9,2.5,4.1l0,0l0.5,0.7L18,42.7 c-0.8-0.1-1.6-0.3-2.3-0.7c-0.7-0.3-1.4-0.8-2-1.4c-0.6-0.5-1.1-1.2-1.5-1.9c-0.4-0.7-0.8-1.4-1-2.1c0.8,1.4,1.7,2.6,2.8,3.6 c0.3,0.2,0.6,0.5,0.9,0.7c0.3,0.2,0.7,0.4,1,0.5c0.2,0.1,0.3,0.1,0.5,0.2c0.2,0.1,0.3,0.1,0.5,0.2c0.4,0.1,0.7,0.2,1.1,0.2 l-0.3,0.6l0,0c-1-1.3-2-2.7-2.6-4.3c-0.6-1.6-0.9-3.3-1.1-4.9L14.7,33.3z"/></g></g><g id="Mane_Below_Horn" clip-path="url(#SVGID_2_)"><path fill="#3DA9FF" d="M16.3,7.2c2.6-4.1,8.1-6.7,12.5-6.6l-2.1,3.3l-2.3,0.6C35,0.9,44.7,4.4,46.6,16.9 c-2.8-3.4-6.4-6.1-10.8-5.9L18.1,9.4L16.3,7.2z"/><g><path fill="#2864BC" d="M16,7l0.5-0.8l0.6-0.7c0.4-0.5,0.9-0.9,1.3-1.3c0.5-0.4,1-0.8,1.5-1.1c0.5-0.3,1.1-0.7,1.6-1 c2.2-1.1,4.7-1.9,7.2-1.8l0,0l0.6,0L29,0.8l-1,1.7l-0.5,0.8l-0.1,0.2c-0.1,0.1,0,0.2-0.2,0.2c-0.2,0.1-0.3,0.2-0.5,0.3l-0.3-0.2 l2-3.3L28.7,1l0,0c-2.4,0-4.8,0.7-6.9,1.8c-0.5,0.3-1,0.6-1.5,0.9c-0.5,0.3-1,0.7-1.4,1.1C18.5,5.1,18,5.6,17.6,6l-0.6,0.7 l-0.5,0.8L16,7z"/></g><g><path fill="#2864BC" d="M35.8,10.6l0.8,0l0.8,0.1c0.5,0.1,1.1,0.2,1.6,0.3c0.5,0.2,1,0.3,1.5,0.6c0.5,0.2,1,0.5,1.4,0.8 c1.9,1.1,3.4,2.7,4.8,4.3l0,0L46.2,17l-0.4-1.8c-0.1-0.6-0.3-1.2-0.5-1.8c-0.2-0.6-0.4-1.1-0.6-1.7c-0.1-0.3-0.2-0.6-0.4-0.8 L43.9,10c-0.2-0.3-0.3-0.5-0.5-0.8l-0.5-0.7c-0.3-0.5-0.8-0.9-1.2-1.4c-0.4-0.5-0.9-0.8-1.4-1.2c-0.5-0.4-1-0.6-1.5-1 c-0.5-0.3-1.1-0.5-1.7-0.7C36.5,4.2,36,4,35.4,3.8c-0.6-0.1-1.2-0.2-1.8-0.3c-0.6,0-1.2-0.1-1.8-0.1c-0.6,0-1.2,0-1.8,0.1 c-0.6,0.1-1.2,0.1-1.8,0.2c-0.6,0.1-1.2,0.2-1.8,0.3c-0.6,0.1-1.2,0.3-1.8,0.4C25,4.3,25.6,4,26.2,3.8c0.6-0.2,1.2-0.4,1.8-0.5 c0.6-0.2,1.2-0.2,1.9-0.3c0.6-0.1,1.3-0.1,1.9-0.1c0.6,0,1.3,0.1,1.9,0.1c0.6,0,1.3,0.2,1.9,0.3c0.6,0.1,1.2,0.3,1.8,0.5 c0.6,0.3,1.2,0.5,1.8,0.8c0.5,0.3,1.1,0.6,1.6,1c0.5,0.4,1,0.8,1.5,1.2c0.5,0.5,0.9,0.9,1.3,1.4L44,8.9c0.2,0.3,0.3,0.5,0.5,0.8 l0.5,0.8c0.2,0.3,0.3,0.6,0.4,0.9c0.2,0.6,0.5,1.2,0.7,1.8c0.2,0.6,0.4,1.2,0.5,1.8l0.4,1.9l0.2,1.2l-0.8-1l0,0 C45,15.5,43.4,14,41.7,13c-0.4-0.3-0.9-0.5-1.4-0.7c-0.5-0.2-1-0.4-1.5-0.5c-0.5-0.1-1-0.2-1.5-0.3l-0.8-0.1l-0.8,0L35.8,10.6z" /></g></g><g id="Horn_1_" clip-path="url(#SVGID_2_)"><path fill="#E6EFFC" d="M31.8,13.5c0,3,3.3,3.2,3.7,2.7c2.2-2.7,4.8-12.6,3.8-13c-0.8-0.4-4.5,4.4-7,8.4"/><g><path fill="#9CBDDB" d="M31.8,13.5c0,0,0,0.1,0.1,0.3c0.1,0.2,0.1,0.5,0.3,0.9c0.2,0.3,0.5,0.7,0.9,1c0.4,0.3,1,0.4,1.7,0.4 c0.1,0,0.3,0,0.4-0.1c0.1,0,0,0,0.1-0.1l0.2-0.2c0.2-0.3,0.4-0.6,0.6-1c0.4-0.7,0.7-1.5,1-2.3c0.6-1.6,1.2-3.4,1.6-5.3 c0.2-0.9,0.4-1.8,0.5-2.7c0-0.2,0-0.4,0-0.6c0-0.1,0-0.2,0-0.3c0,0,0,0,0,0c0,0,0.1,0.1,0,0c0.1,0,0,0-0.1,0.1 c-0.1,0-0.2,0.1-0.2,0.2c-0.2,0.1-0.3,0.3-0.5,0.4c-0.6,0.6-1.2,1.2-1.7,1.9c-0.5,0.6-1,1.2-1.4,1.8c-0.8,1.1-1.5,2.1-2,2.8 c-0.4,0.7-0.7,1.1-0.7,1.1l-0.5-0.3c0,0,1-1.6,2.7-4c0.8-1.2,1.8-2.5,3.1-3.8c0.2-0.2,0.3-0.3,0.5-0.5C38.5,3.1,38.6,3,38.7,3 c0.1-0.1,0.2-0.2,0.6-0.1c0,0,0.3,0.1,0.3,0.2c0.1,0.1,0.1,0.2,0.2,0.3c0.1,0.2,0.1,0.3,0.1,0.4c0,0.3,0,0.5,0,0.7 c-0.1,1-0.3,1.9-0.5,2.8c-0.4,1.9-1,3.7-1.7,5.4c-0.3,0.8-0.7,1.6-1.1,2.4c-0.2,0.4-0.4,0.7-0.6,1.1l-0.2,0.2c0,0,0,0.1-0.1,0.2 c-0.1,0.1-0.1,0.1-0.2,0.1c-0.2,0.1-0.4,0.1-0.7,0.1c-0.8,0-1.5-0.2-2-0.6c-0.5-0.4-0.8-0.9-1-1.3C31.6,14,31.8,13.5,31.8,13.5z" /></g><path fill="none" stroke="#9CBDDB" stroke-width="0.5114" d="M37,5c-0.1,1.3,0.7,2.6,2,2.8"/><path fill="none" stroke="#9CBDDB" stroke-width="0.5114" d="M35.5,7c-0.1,1.3,0.8,3.2,2.6,3.6"/></g><g id="Mane_Above_Horn" clip-path="url(#SVGID_2_)"><path id="path7855" fill="#3DA9FF" d="M17.5,11.1c0.9,3,3.9,6.8,8.3,8.6c-1.2-1.8-1.9-4-1.5-6.7l-0.3,3 c8.9,1.5,15.8,5.7,20.6,14.1C45.4,15.2,38.4,8.8,29.8,8L17.5,11.1z"/><g id="path7641"><path fill="#2864BC" d="M18.5,12.2c0.1,0.4,0.3,0.8,0.5,1.2c0.2,0.4,0.4,0.8,0.6,1.2c0.5,0.7,1.1,1.4,1.7,2 c1.3,1.2,2.9,2.1,4.6,2.8l-0.4,0.5c-0.7-1-1.1-2.2-1.3-3.4c-0.1-0.6-0.1-1.2-0.1-1.8c0-0.6,0.1-1.2,0.3-1.8c0,0.6,0,1.2,0,1.8 c0,0.6,0.2,1.1,0.3,1.7c0.3,1.1,0.8,2.1,1.4,3.1l0.7,1L25.7,20c-1.7-0.7-3.4-1.7-4.8-2.9c-0.7-0.6-1.3-1.3-1.8-2.1 c-0.3-0.4-0.5-0.8-0.7-1.2c-0.2-0.4-0.4-0.9-0.5-1.3L18.5,12.2z"/></g><path id="path7812" fill="#94D4FF" d="M44.7,29.6c-2-6.8-7-14.5-12-16.1l0.6,2.7c-2.2-2.6-4.8-4.8-9-5.2l1.1,1.7 c-2.5-1.4-5.4-0.9-7.8,0.2l-0.4-3.1C34.1,3.7,46,12.5,44.7,29.6z"/><g id="path7639"><path fill="#2864BC" d="M24.4,15.7L26,16l1.6,0.4l1.6,0.4l1.5,0.5l1.5,0.6l1.5,0.7c1,0.5,1.9,1.1,2.8,1.7c0.4,0.3,0.9,0.6,1.3,1 c0.4,0.3,0.9,0.7,1.2,1c0.4,0.4,0.8,0.7,1.2,1.1c0.4,0.4,0.8,0.8,1.1,1.2c0.3,0.4,0.7,0.8,1,1.2c0.3,0.4,0.7,0.9,1,1.3 c0.6,0.9,1.2,1.8,1.8,2.7l0,0L44.4,30l0-1.9c0-0.6,0-1.2,0-1.8c0-0.6,0-1.2-0.1-1.8L44,22.7l-0.4-1.8c-0.1-0.6-0.3-1.2-0.5-1.8 c-0.2-0.6-0.4-1.1-0.7-1.7c-0.2-0.6-0.5-1.1-0.8-1.6c-0.3-0.6-0.7-1-1-1.5c-0.3-0.5-0.8-0.9-1.2-1.4c-0.4-0.4-0.9-0.8-1.3-1.2 c-0.5-0.4-0.9-0.8-1.5-1.1c-0.5-0.3-1-0.7-1.6-0.9c-0.5-0.3-1.1-0.5-1.7-0.7c-0.6-0.2-1.2-0.4-1.8-0.5C31,8.2,30.4,8.1,29.8,8 C30.4,8,31,8,31.7,8.1c0.6,0.1,1.2,0.2,1.8,0.4l0.9,0.3C34.7,8.9,35,9,35.3,9.1c0.6,0.2,1.1,0.5,1.7,0.8c0.6,0.3,1,0.7,1.6,1.1 c0.5,0.4,1,0.8,1.4,1.3c0.4,0.5,0.9,0.9,1.2,1.5c0.3,0.5,0.8,1,1,1.6c0.3,0.6,0.6,1.1,0.9,1.7c0.2,0.6,0.5,1.2,0.7,1.8 c0.2,0.6,0.4,1.2,0.5,1.8l0.4,1.9l0.2,1.9c0.1,0.6,0.1,1.3,0.1,1.9c0,0.6,0.1,1.3,0,1.9l0,1.9l0,1.2l-0.6-1l0,0 c-0.5-0.9-1.1-1.8-1.7-2.7c-0.3-0.4-0.6-0.8-1-1.3c-0.3-0.4-0.7-0.8-1-1.2c-0.3-0.4-0.7-0.8-1.1-1.2c-0.4-0.4-0.8-0.7-1.1-1.1 c-0.4-0.4-0.8-0.7-1.2-1c-0.4-0.3-0.9-0.6-1.3-0.9c-0.9-0.6-1.8-1.1-2.7-1.6l-1.4-0.7L30.4,18l-1.5-0.5L27.4,17l-1.5-0.4 l-1.6-0.3L24.4,15.7z"/></g></g><g id="Ear_2_" clip-path="url(#SVGID_2_)"><path fill="#E6EFFC" d="M18.6,14.6c0.5-8.4-4-11.8-5.3-10.1C9,10.2,6.4,18.9,12.8,23.9C12.8,23.9,14.7,17.8,18.6,14.6z"/><path fill="#C3CFE0" d="M13.3,18.5C12.9,15.7,13,9.8,14,8.4s1.8-1.3,2.1,1.1c0.1,0.9,0.4,3.3,0.4,4.8C15.4,14.7,13.9,17,13.3,18.5 z"/><g><path fill="#9CBDDB" d="M12.8,23.9c0,0-0.1-0.1-0.3-0.2c-0.2-0.1-0.5-0.3-0.9-0.6c-0.2-0.1-0.4-0.3-0.6-0.5 c-0.2-0.2-0.4-0.4-0.6-0.7c-0.4-0.5-0.8-1.2-1.1-2c-0.7-1.6-0.9-3.5-0.7-5.6C8.7,12.1,9.3,10,10.3,8c0.5-1,1.1-1.9,1.8-2.8 c0.4-0.4,0.8-0.8,1.4-1.1c0.6-0.2,1.3-0.1,1.8,0.2c1,0.6,1.6,1.5,2,2.3c0.4,0.9,0.7,1.7,0.9,2.5c0.4,1.6,0.5,3,0.5,4 c0,1-0.2,1.5-0.2,1.5s-0.1-0.5-0.3-1.5c-0.1-0.5-0.2-1-0.3-1.7c-0.1-0.6-0.2-1.4-0.4-2.1c-0.2-0.8-0.5-1.6-0.9-2.4 c-0.4-0.8-1-1.6-1.8-2c-0.4-0.2-0.8-0.3-1.2-0.2c-0.4,0.1-0.8,0.5-1.1,0.9c-0.7,0.8-1.2,1.7-1.7,2.6c-1,1.9-1.6,4-1.8,6 c-0.2,2,0.1,3.9,0.7,5.3c0.3,0.7,0.7,1.4,1,1.9c0.2,0.3,0.3,0.5,0.5,0.7c0.2,0.2,0.3,0.4,0.5,0.6c0.3,0.4,0.6,0.6,0.7,0.8 C12.8,23.8,12.8,23.9,12.8,23.9z"/></g><g><path fill="#9CBDDB" d="M13.3,18.5c0,0-0.1-0.2-0.2-0.6c-0.1-0.4-0.2-0.9-0.3-1.6c-0.1-0.7-0.1-1.5-0.1-2.3 c0-0.8,0.1-1.7,0.3-2.6c0.2-0.9,0.4-1.8,0.7-2.6c0.2-0.4,0.3-0.8,0.5-1.2c0.1-0.2,0.3-0.3,0.5-0.4c0.2-0.1,0.5-0.1,0.7,0 c0.4,0.3,0.5,0.6,0.6,0.9C16,8.4,16,8.7,16.1,8.8c0,0.4,0.1,0.6,0.1,0.6s0-0.2-0.2-0.6c-0.1-0.2-0.1-0.4-0.3-0.6 c-0.1-0.2-0.3-0.5-0.5-0.6C15,7.5,14.7,7.7,14.5,8c-0.2,0.3-0.3,0.7-0.4,1c-0.3,0.8-0.5,1.6-0.6,2.5c-0.2,0.9-0.3,1.7-0.3,2.6 c-0.1,0.8-0.1,1.6-0.1,2.3c0,0.7,0.1,1.2,0.1,1.6C13.2,18.3,13.3,18.5,13.3,18.5z"/></g></g></svg>
