<svg width="200px"  height="200px"  xmlns="http://www.w3.org/2000/svg" viewBox="0 0 100 100" preserveAspectRatio="xMidYMid"><g transform="translate(50 50)"><g transform="rotate(306.024)"><animateTransform attributeName="transform" type="rotate" values="0;360" keyTimes="0;1" dur="4s" repeatCount="indefinite"/><path d="M37.439 -6.5 L47.439 -6.5 L47.439 6.5 L37.439 6.5 A38 38 0 0 1 35.673 13.090 L35.673 13.090 L44.334 18.090 L37.834 29.349 L29.173 24.349 A38 38 0 0 1 24.349 29.173 L24.349 29.173 L29.349 37.834 L18.090 44.334 L13.090 35.673 A38 38 0 0 1 6.5 37.439 L6.5 37.439 L6.500 47.439 L-6.499 47.439 L-6.499 37.439 A38 38 0 0 1 -13.090 35.673 L-13.090 35.673 L-18.090 44.334 L-29.349 37.834 L-24.349 29.173 A38 38 0 0 1 -29.173 24.349 L-29.173 24.349 L-37.834 29.349 L-44.334 18.090 L-35.673 13.090 A38 38 0 0 1 -37.439 6.500 L-37.439 6.500 L-47.439 6.500 L-47.439 -6.499 L-37.439 -6.499 A38 38 0 0 1 -35.673 -13.090 L-35.673 -13.090 L-44.334 -18.090 L-37.834 -29.349 L-29.173 -24.349 A38 38 0 0 1 -24.349 -29.173 L-24.349 -29.173 L-29.349 -37.834 L-18.090 -44.334 L-13.090 -35.673 A38 38 0 0 1 -6.500 -37.439 L-6.500 -37.439 L-6.500 -47.439 L6.499 -47.439 L6.499 -37.439 A38 38 0 0 1 13.090 -35.673 L13.090 -35.673 L18.090 -44.334 L29.349 -37.834 L24.349 -29.173 A38 38 0 0 1 29.173 -24.349 L29.173 -24.349 L37.834 -29.349 L44.334 -18.090 L35.673 -13.090 A38 38 0 0 1 37.439 -6.500 M0 -20A20 20 0 1 0 0 20 A20 20 0 1 0 0 -20" fill="#2C73B1"/></g></g></svg>
