<svg version="1.1" xmlns="http://www.w3.org/2000/svg" xmlns:xlink="http://www.w3.org/1999/xlink" x="0px" y="0px"  viewBox="0 0 4000 4000" enable-background="new 0 0 4000 4000" xml:space="preserve"><g><defs><rect id="SVGID_1_" width="4000" height="4000"/></defs><clipPath id="SVGID_2_"><use xlink:href="#SVGID_1_"  overflow="visible"/></clipPath><g clip-path="url(#SVGID_2_)"><path fill="#F5B7D0" stroke="#E880B0" stroke-width="45" stroke-miterlimit="10" d="M1355.1,4049 c55.5-208.5,133.9-250.8,223.5-468c33.8-82-23.1-54.6-4.5-118.5c20.9-71.7,76.5-130.5,124.5-445.5l912,21l-175.5,499.5 c0,0,109.5,198,118.5,342s-4.5,214.5-4.5,214.5"/><path opacity="0.25" enable-background="new" d="M2533,3571c-120-428-764.5,30.8-872.6-33.1c-46.2,34-91,68.5-133.2,103.2 c-26.7,55.7-52.2,98.3-77.1,139.8c-45.3,75.7-84.5,141-116.8,262.3l19,20.4l4.2,10.1l584.3,18.8 C1940.9,4092.6,2299,3693,2533,3571z"/><path fill="#EB458B" d="M3237,1593c0,0-0.2-316.3-101.9-574.8C2967,591,2563,579.5,2563,579.5l-78.1-141.4 c0,0-161.9-374.9-597.9-374.9s-522,626.8-338,516.3s314,559.5,314,559.5l1189.9,815.8"/><path fill="#EB458B" d="M2172.6,3368c0,0-106.5,151-46.5,231.5c0,0,32.1,82.5,136.5,91s304.5-19,282,8.5s-229.5,326-57,330.5 s546-648,546-648l-238.5-177L2948,3111l-117.7-248.4"/><path fill="none" stroke="#BB1C76" stroke-width="45" stroke-miterlimit="10" d="M1448.1,443.2c58.5-262.5,261-381,471-381 S2733,281,2531,1181"/><path fill="none" stroke="#BB1C76" stroke-width="50" stroke-miterlimit="10" d="M2539,580.5c0,0,666.4-70.6,685,963.3"/><path fill="#BB1C76" d="M2920,3167c0,0-55,32-88,41c33.5,8.6,66.5,19.4,98.6,32.3l-11.8,70.7c0,0-105.8-77-188.8-89 c120-70,175-111,175-111"/><path fill="#BB1C76" d="M2150,3469c-54,127,32,277,477,180c-80,72-332,102.2-430,65.1c-78-29.5-122.6-93.3-122-184.1"/><path fill="#BB1C76" d="M2545,3680.3c-194,186.7-157.3,334-157.3,334s88,92,54-9.3s82-271.3,135.3-330"/><path fill="none" stroke="#BB1C76" stroke-width="15" stroke-miterlimit="10" d="M2367,3699c0,0,265-180,265-396 c0-156-85-185-85-185"/><path fill="none" stroke="#BB1C76" stroke-width="15" stroke-miterlimit="10" d="M2879,3012.2c-39,57.8-174,123.8-252,75.8"/><path fill="none" stroke="#BB1C76" stroke-width="20" stroke-miterlimit="10" d="M3186.2,1191.4c0,0-34.1,79.7-113.6,130.7"/><path fill="none" stroke="#BB1C76" stroke-width="20" stroke-miterlimit="10" d="M2143.7,115.6c190.9,219.3,79.9,438.6,79.9,438.6 s280.9,67.5,348.2,297"/><path fill="none" stroke="#BB1C76" stroke-width="20" stroke-miterlimit="10" d="M2013.6,657.7c0,0,89.2,66,130.1,316.5"/><path opacity="0.25" enable-background="new" d="M2860.6,2926.6c-46.3,1-101.9,14.8-162.1,37.3L2172.6,3368 c0,0-45.5,64.5-60.3,131.6L2075,3530c-0.5,77.7,32,135.6,90.3,169.2c106.4-279.8,472.1-525.5,718.7-573.4 c14.1-9.7,21-14.8,21-14.8l2.9,10.7c9.5-1.4,18.8-2.4,27.8-3.2l12.3-7.6L2860.6,2926.6z"/><path fill="#F5B7D0" d="M1325,2708.3c0,0,144.9,216.5,264.7,269.1S2153,3169,2269,3035s830-1342,830-1342s35-276.4-56.5-505.9 s-145.5-370.5-276-370.5s-156,385.5-156,385.5s-198-240-631.5-253.5S951,1163,951,1163s-90,220-90,368s10.7,350.6,187.2,583.1 c55,253.5,82,351,82,351"/><path fill="#E880B0" d="M3101.3,1741.2l-36.5-34.2c-0.9,0.9-1.6,1.9-2.3,2.9c0.7-1.3,18-34.2,18-200.3 c0-113.9-38.6-283.7-96.1-422.6c-31-74.7-66-136.7-101.2-179.3c-37.2-44.9-73.4-67.6-107.6-67.6c-8.7,0-18.2,5.3-28.2,15.8 c-33.9,35.5-66.4,122.2-89.2,238.1c-8.9,45.3-16.4,95.5-23.9,141.6c-10,62-21.3,184-28.7,184.7s-31.3-59.3-17.6-193.2 c4.9-47.7,12.1-96.5,21.2-142.7c17.6-89.7,49.6-208.2,102.1-263c19.8-20.7,41.5-31.2,64.3-31.2c49.8,0,99,28.8,146.1,85.7 c39,47,75.6,111.6,108.9,192c59.8,144.3,100,321.9,100,441.7C3130.5,1638.8,3120.1,1721.1,3101.3,1741.2z"/><path fill="#E880B0" d="M2873,1070c0,0,135,381.1-22.4,711.1C3104,1433.1,2873,1070,2873,1070z"/><path fill="#E880B0" d="M1095.4,1128.2c0,0-128.9,311-0.4,588.4C883,1421.5,1095.4,1128.2,1095.4,1128.2z"/><path fill="none" stroke="#E880B0" stroke-width="50" stroke-miterlimit="10" d="M2610.6,1221.6c0,0-171-270-582-262.5"/><path fill="#E880B0" d="M1336.4,1255.7c-7-84.3-23.7-174.3-47.7-229.6l45.9-19.9c26.7,61.6,40.8,167.6,48.2,256 c6.6,79.9-13.7,151.4-19,151.5S1343.1,1336.4,1336.4,1255.7z"/><path fill="#E880B0" d="M953,1279c0,0-61,84-61,318c0,352,177.9,518.4,177.9,518.4s12.4,105.6,44.4,194.9 c29.4,82-45.3,45.3-45.3,45.3s40.4-16.6,21-19.7c-31.1-5-54.3-205.7-54.3-205.7S832,1902,832,1611c0-270.6,57-313,57-313"/><path fill="none" stroke="#E880B0" stroke-width="50" stroke-miterlimit="10" d="M1386.6,2816.1c138,126,229.5,217.5,513,255"/><path d="M1063,1935c0,0-84,50-167.3-14.7c36,109.3,170.7,74,170.7,74"/><path d="M1066.3,2009c0,0-56.7,64-139.3,53.3c78,61.3,144,1.2,144,1.2"/><path d="M1096.7,2225c0,0-60.2-32-85.2,38c56.5-37,89.5-15,89.5-15"/><path d="M2624.3,1860.3c0,0,103.3,28.7,199.3-42c-42.2,119.8-190.7,100-190.7,100"/><path fill="#FFFFFF" d="M1557,2402.3c35-257.7-36-490.3-36-490.3l-462-14c0,0-4,251,45,374s106,190,106,190s156-59,197-64"/><path d="M2633.7,1933.7c0,0,90.3,72,168,62.7c66.3-8-33.3,59.3-168-3.3"/><defs><filter id="Adobe_OpacityMaskFilter" filterUnits="userSpaceOnUse" x="1209.8" y="1903.6" width="356.9" height="489.7"><feColorMatrix  type="matrix" values="1 0 0 0 0  0 1 0 0 0  0 0 1 0 0  0 0 0 1 0"/></filter></defs><mask maskUnits="userSpaceOnUse" x="1209.8" y="1903.6" width="356.9" height="489.7" id="b"><g transform="translate(-125.64 -39.69)" filter="url(#Adobe_OpacityMaskFilter)"><path fill="#FFFFFF" d="M1646.6,1951.7l-254-8.4c-41.2,8.4-60.8,120.2-56.7,191.2c10,171.7,113.7,305.2,231.5,298.3 c47.2-2.8,89.6-27.7,122.7-67.6C1704.1,2139.8,1646.6,1951.7,1646.6,1951.7z"/></g></mask><g mask="url(#b)"><linearGradient id="SVGID_3_" gradientUnits="userSpaceOnUse" x1="1513.8827" y1="-2006.7301" x2="1513.8827" y2="-1516.9849" gradientTransform="matrix(1 0 0 1 -125.64 3910.3101)"><stop  offset="0" style="stop-color:#196E91"/><stop  offset="1" style="stop-color:#7DD0F1"/></linearGradient><path fill="url(#SVGID_3_)" d="M1521,1912l-254-8.4c-41.2,8.4-60.8,120.2-56.7,191.2c10,171.7,113.7,305.2,231.5,298.3 c47.2-2.8,89.6-27.7,122.7-67.6C1578.4,2100.2,1521,1912,1521,1912z"/><path fill="#E4F5FD" d="M1299.4,2335.1l78.5-76.6l-61.1-42.7l-73.8,33.4C1258.6,2282,1277.7,2311.1,1299.4,2335.1z"/><path fill="#A4DFF8" d="M1246.6,2256.3l82.5-33.4l-23.3-49.9l-87.8,8.2C1225.1,2207.1,1234.7,2232.2,1246.6,2256.3z"/></g><path d="M1524.2,1923.3c-4.7-4.2-9.6-8.1-14.7-11.7l-145.2-4.4c-55.7,36.5-91.6,116.1-86.5,206.1 c6.8,120.4,84.4,213.8,173.3,208.8c47.5-2.7,88.6-33,115.5-78.9C1565.3,2087.1,1534.4,1960.7,1524.2,1923.3z"/><ellipse transform="matrix(0.5445 -0.8388 0.8388 0.5445 -1108.5222 2125.8892)" fill="#FFFFFF" cx="1403" cy="2083.6" rx="28.3" ry="45"/><path fill="#FFFFFF" d="M1521,1912l-149.8-4.5c-6.2,35.3,11.6,80.3,48.7,114.8c42.3,39.3,96.3,52.4,131.8,35.2 C1538.3,1968.8,1521,1912,1521,1912z"/><path fill="#FFFFFF" d="M2622,1812c0,0,28,90,24,337s-253,244.3-253,244.3s-44-9-154-9s-167,18.1-167,18.1s-88.4-207.4-36.4-515.4"/><defs><filter id="Adobe_OpacityMaskFilter_1_" filterUnits="userSpaceOnUse" x="2083.6" y="1833.4" width="420" height="558.6"><feColorMatrix  type="matrix" values="1 0 0 0 0  0 1 0 0 0  0 0 1 0 0  0 0 0 1 0"/></filter></defs><mask maskUnits="userSpaceOnUse" x="2083.6" y="1833.4" width="420" height="558.6" id="d"><g transform="translate(-125.64 -39.69)" filter="url(#Adobe_OpacityMaskFilter_1_)"><path fill="#FFFFFF" d="M2629.2,2133.3c0,164.8-94,298.4-210,298.4s-210-133.6-210-298.4c0-92.5,20.9-174.9,67.4-229.6 c18.5-21.7,81.3-11.8,134.2-16c51.2-4.1,101.3-23.3,116.9-9.9C2588.6,1930.1,2629.2,2024.9,2629.2,2133.3z"/></g></mask><g mask="url(#d)"><linearGradient id="SVGID_4_" gradientUnits="userSpaceOnUse" x1="2419.23" y1="-2076.8677" x2="2419.23" y2="-1518.3101" gradientTransform="matrix(1 0 0 1 -125.64 3910.3101)"><stop  offset="0" style="stop-color:#1C7099"/><stop  offset="1" style="stop-color:#7DD0F1"/></linearGradient><path fill="url(#SVGID_4_)" d="M2503.6,2093.6c0,164.8-94,298.4-210,298.4s-210-133.6-210-298.4c0-92.5,20.9-174.9,67.4-229.6 c18.5-21.7,81.3-11.8,134.2-16c51.2-4.1,101.3-23.3,116.9-9.9C2462.9,1890.4,2503.6,1985.3,2503.6,2093.6z"/><path fill="#E4F5FD" d="M2463.9,2274.8l-73.4-59l-41,65.9l54.2,71C2426.9,2332,2447.3,2305.6,2463.9,2274.8z"/><path fill="#A4DFF8" d="M2455.2,2289.9c13.8-22.9,25-47.3,33.4-72.8l-72.2-24.1l-25.9,45.4L2455.2,2289.9z"/></g><path d="M2445.7,2062.4c12.5,131.4-49.2,244.7-137.9,253.1s-170.6-91.2-183.1-222.6s59.7-242.2,148.3-250.6 S2433.2,1931,2445.7,2062.4z"/><ellipse transform="matrix(0.8105 -0.5858 0.5858 0.8105 -763.1665 1713.3516)" fill="#FFFFFF" cx="2266" cy="2036" rx="31.3" ry="49.8"/><path fill="#FFFFFF" d="M2435.9,1919c39.6,71.7,39.6,147.6-0.1,169.5s-103.9-18.4-143.5-90.1c-29.1-52.7-36.8-107.6-23.1-141.8 c4.9-12.3,69-34.1,95-17.8S2416.1,1883.2,2435.9,1919z"/><path d="M935,1749c0,0,66,106,138.7,124.7s314,12,366,12s126.8,0.5,148-19.3c30-28,30-90.7,30-90.7s32,105.3-14,141.3 c-26.7,17.3-534.7,9.6-551.3,0C936.9,1850.8,935,1749,935,1749z"/><path d="M2744,1634c0,0-54.4,129.6-157,156c-109,28-618,86-649,66s-66.3-67.7-65-100.3c-19.3,80,14,138.7,36,148 s652.3-42.7,712-75.7C2744,1760,2744,1634,2744,1634z"/><path d="M2072,2402.3c-4.5-9.9-8.4-20.1-12.2-30.4s-7.2-20.6-10.4-31c-6.5-20.9-12.1-42-17-63.3c-9.8-42.8-16.8-86.1-21.1-129.8 c-8.7-87.5-6.8-176.3,4.6-264.1l39.4,6.7c-17.8,84.2-25.8,170.2-24.1,256.2c0.9,43.2,4.6,86.4,11,129.2c3.2,21.4,7.2,42.8,12,63.9 c2.4,10.6,5.1,21.1,8,31.6C2065.2,2381.7,2068.3,2392.1,2072,2402.3z"/><path d="M1557,2402.3c3.8-41,5.3-82.2,4.4-123.4c-0.8-41.1-3.8-82.1-8.6-122.7s-11.5-81.1-19.9-121c-4.2-20-8.9-39.8-14-59.5 c-2.6-9.8-5.3-19.6-8.1-29.3c-1.4-4.9-2.9-9.7-4.4-14.5l-2.3-7.2l-1.2-3.5l-0.6-1.7l-0.6-1.6l38.3-11.7l0.5,2.1l0.5,2l0.9,3.9 l1.8,7.8c1.2,5.2,2.3,10.3,3.3,15.5c2.1,10.3,4.1,20.6,5.9,30.9c3.6,20.6,6.8,41.3,9.4,62c5.3,41.4,8.7,82.9,10.3,124.5 c1.5,41.6,1.2,83.1-1.4,124.5C1569,2320.5,1564.2,2361.6,1557,2402.3z"/><path fill="#FFFFFF" d="M1721.7,2810c0,0-27-49.3,48.7-17s147.3,50.7,184.3,24s98.3-133.7,105.3-103.3s-5.7,94.7-8,100.3 s-75.3,98.3-117,96.7s-162-23.3-174.7-57.3"/><path fill="#E880B0" d="M1634,2507.5c0,0-17,68.3,52,81.5c0,0-58,22.3-74.5-11.3S1634,2507.5,1634,2507.5z M1842,2587 c0,0,63.7-13,51.3-83.3c0,0,34,25.7,18.3,63.3S1842,2587,1842,2587z"/><path fill="#B0D8E7" d="M2063,2725.9l-0.2,2.3c-0.1,0.9-0.1,1.7-0.2,2.5c-0.2,1.6-0.4,3.3-0.6,4.9c-0.4,3.2-1,6.4-1.7,9.6 c-1.4,6.3-3.2,12.4-5.5,18.4c-4.5,11.6-10.5,22.6-17.8,32.7c-7.1,9.7-15.2,18.7-24.1,26.8c-4.4,4-8.9,7.8-13.6,11.3 c-4.7,3.6-9.5,6.8-14.6,9.8c4.2-4,8.2-8.2,12-12.6c3.8-4.4,7.3-8.9,10.6-13.6c6.6-9.2,12.2-19,16.7-29.3 c4.4-9.9,7.5-20.4,9.2-31.1c0.8-5.2,1.2-10.4,1.2-15.6c0-2.6-0.1-5.1-0.3-7.7c-0.1-1.3-0.2-2.5-0.4-3.8c-0.1-0.6-0.2-1.2-0.2-1.8 l-0.3-2.1L2063,2725.9z M1729.1,2768.7c0.3,0.6,0.8,1.3,1.2,1.9l1.3,2.1c0.9,1.4,1.8,2.8,2.8,4.2c1.9,2.8,3.8,5.5,5.8,8.3 c4,5.5,8.2,10.8,12.6,16c8.8,10.5,18.4,20.2,28.6,29.3c10.3,9.1,21.6,17.1,33.6,23.8c12.2,6.9,25.3,11.9,39,14.8 c-14.3-0.5-28.5-3.2-42-7.9c-13.7-4.8-26.9-11-39.3-18.5c-12.5-7.5-24.4-16-35.7-25.4c-5.6-4.7-11.1-9.5-16.5-14.6 c-2.7-2.5-5.3-5.1-7.9-7.8c-1.3-1.3-2.6-2.7-3.9-4.1l-1.9-2.1c-0.7-0.7-1.3-1.4-2-2.3L1729.1,2768.7z"/><path fill="#E880B0" d="M1668,2433c0,0,132-29.7,242.3,0c0,0-30.7-40.3-114.3-41S1668,2433,1668,2433z"/><path fill="#E880B0" d="M2052.5,2591.1c0,0-7.2,172.7-125.5,215.9c-135.5,49.5-290-149-290-149c9.7,58,113,312,335,263 C2141,2856,2052.5,2591.1,2052.5,2591.1z M1972,2890.5c-134.5,49.5-242.5-95.5-242.5-95.5s115.8,75.2,200,49 c96.5-30,118.3-111.5,118.3-111.5S2070.1,2854.4,1972,2890.5z"/><path fill="#E880B0" d="M1293,2442.3c150.7-55.3,322-29.8,322-29.8s-160.7-75.5-330,20.5"/><path fill="#E880B0" d="M2423,2380.3c-221.3-45.3-423,39.3-423,39.3s293-48,393-14"/><path fill="#EB458B" d="M1771.8,1438.8c0,0,276-209,276-531s-132-558.1-408-558.1c-528.1,0-489,513-489,513s-129-147-423-147 c-157.9,0-582.1,150.6-582.1,747.1S799,2429,799,2429s-161,76.4-356.9-35.6C529,2553,655,2617.6,741,2617.6 c59.9,0,211.7,1.8,211.7-158.8s-251.2-348.8-251.2-720.3s334.4-575.8,590.2-575.8C1630.8,1162.7,1771.8,1438.8,1771.8,1438.8z"/><path fill="#BB1C76" d="M788,2664c-85,0-143.1-20.1-196-56c-61-41.4-126.3-129.4-167.5-205.1l-33.7-61.9l61.2,35 c67.8,38.8,138.6,58.4,210.4,58.4c30.2,0.1,60.3-3.5,89.6-10.8c-17.4-11.1-40.1-26.4-66.8-45.5 c-56.5-40.6-141.8-107.3-227.2-194.6c-96.2-98.4-173-202.3-228.1-309c-69.2-134-104.3-272.5-104.3-411.8 c0-141.3,23.7-267.9,70.4-376.3c39.9-92.6,96.5-171.9,168.1-235.8c58.4-52,125.8-92.9,198.9-120.8 c57.4-21.7,117.4-34.2,164.6-34.2c68.8,0,134.4,7.9,195.1,23.6c48.8,12.6,94.6,30.2,136,52.3c25.2,13.3,49.1,28.7,71.6,46.2 c1.2-30,4.4-59.9,9.7-89.5c8-45.1,20.6-87.6,37.3-126.5c21-49,48.8-92.2,82.5-128.6c88.2-95.1,216-143.4,379.9-143.4 c70.5,0,134.2,14.9,189.6,44.2c52.9,28.1,98.2,69.4,134.5,122.8c68,100,104,242.1,104,411c0,76-15,152.1-44.6,226.2 c-23.5,59-56.3,116.9-97.4,172c-69.9,93.7-139.1,146.6-142,148.8l-19,14.4l-10.8-21.2c-0.3-0.6-35.2-67.5-109.6-133.2 c-99-87.5-217.7-131.9-352.7-131.9c-239.1,0-570.2,193.2-570.2,555.8c0,218.8,89.4,372.7,161.3,496.4c48.2,83.1,92.2,157,97.2,225 c3,40.3,0.9,80.7-17,108C947.6,2591.4,918,2664,788,2664z M495.8,2441.6c31.5,43.9,67.9,80.4,107.3,107.2 c46.3,31.5,95.3,48.8,137.9,48.8h4c27.2,0,77.8,0,119-18.7c46.2-21,68.7-60.3,68.7-120.1c0-58.3-39.2-125.7-84.5-203.8 c-36.6-63-83.8-132.7-121.2-215.1c-45-99-68-195.9-68-298c0-91.4,20.3-180.2,59-258.4c35-70.8,98.9-140.4,162-193.6 c113.8-96,270.8-155,410-155c80,0,157.8,22.8,227.6,52.5c56.5,24.2,108.7,57.4,154.6,98.3c54.1,48.1,88.2,95.9,105,122.6 c24.5-21.2,65.4-69.3,108.8-133.4c61-90,123-206.6,123-367c0-160.8-14.7-295.5-78.2-388.8c-67.5-99.2-165.4-149.5-291-149.5 c-152.2,0-270,43.9-350.3,130.4c-69.3,74.6-97.9,168.4-109.7,233.9c-13,71.9-9.1,126.7-9.1,127.3l4.4,59.6l-39.4-44.9 c-0.3-0.3-31.8-35.4-97.6-70.1C977.4,773.8,882.6,747,736,747c-64.8,0-200.9,33.7-329,148c-147.3,131.4-234,320.5-234,570 c0,301.4,167.2,540.9,313.6,690.6c159.5,163.1,320.6,255.1,322.2,256l33.5,19c0,0-53.4,52.4-166.4,52.4 C619.5,2483,550.1,2463.4,495.8,2441.6z"/><path fill="#168B44" d="M1595,3941c17.3,0,595.4-489.4,1184.9-915.1c571.5-412.6,1155.1-761.2,1155.1-801.1s-170.2-213.9-321-399 c-155.6-191.1-292.5-392.8-321-392.8c-28.9,0-491.8,465.3-909.1,944.9c-392,450.4-740.4,917.1-756.9,917.1 c-16.6,0-122.1-270.5-220-550c-102.4-292.2-197.5-594-222-594c-23.9,0-156,191.9-302,376c-147,185.4-308,362.9-308,382 c0,18.6,292.8,243.9,536,492C1364.6,3659.6,1569.5,3941,1595,3941z"/><path fill="#F5B7D0" stroke="#E880B0" stroke-width="45" stroke-miterlimit="10" d="M509.2,4010c36-280.5,197.2-964.4,413.2-964.4 c177,0,413.2,295.5,413.2,463.5c0,106.5-163.5,241.5-253.5,520.5"/><path fill="#F5B7D0" stroke="#E880B0" stroke-width="45" stroke-miterlimit="10" d="M2423,4035c102-96,510-492,510-842 c0-104.1-76-196-76-256c0-126,286-364,422-364c150,0,248,288,248,576c0,230-54,522-412,900"/></g></g></svg>
