<svg xmlns="http://www.w3.org/2000/svg" xmlns:xlink="http://www.w3.org/1999/xlink" viewBox="0 0 3809.37 4058.53"><defs><clipPath id="a" transform="translate(-125.64 -39.69)"><rect width="4000" height="4000" fill="none"/></clipPath><mask id="b" x="1084.15" y="1863.89" width="356.9" height="489.75" maskUnits="userSpaceOnUse"><g transform="translate(-125.64 -39.69)"><path d="M1521,1912l-254-8.42c-41.16,8.42-60.81,120.23-56.67,191.16,10,171.66,113.69,305.22,231.51,298.33,47.23-2.76,89.56-27.69,122.69-67.61C1578.42,2100.16,1521,1912,1521,1912Z" fill="#fff"/></g></mask><linearGradient id="c" x1="1388.24" y1="2096.42" x2="1388.24" y2="1606.67" gradientTransform="matrix(1, 0, 0, -1, 0, 4000)" gradientUnits="userSpaceOnUse"><stop offset="0" stop-color="#196e91"/><stop offset="1" stop-color="#7dd0f1"/></linearGradient><mask id="d" x="1957.95" y="1793.76" width="420" height="558.55" maskUnits="userSpaceOnUse"><g transform="translate(-125.64 -39.69)"><path d="M2503.59,2093.64c0,164.78-94,298.36-210,298.36s-210-133.58-210-298.36c0-92.54,20.86-174.91,67.41-229.64,18.46-21.7,81.31-11.77,134.19-16,51.21-4.1,101.31-23.26,116.89-9.88C2462.92,1890.38,2503.59,1985.26,2503.59,2093.64Z" fill="#fff"/></g></mask><linearGradient id="e" x1="2293.59" y1="2166.55" x2="2293.59" y2="1608.01" gradientTransform="matrix(1, 0, 0, -1, 0, 4000)" gradientUnits="userSpaceOnUse"><stop offset="0" stop-color="#1c7099"/><stop offset="1" stop-color="#7dd0f1"/></linearGradient></defs><title>login-success</title><g style="isolation:isolate"><g clip-path="url(#a)"><path d="M1355.12,4049c55.5-208.5,133.86-250.8,223.49-468,33.83-82-23.13-54.57-4.5-118.49C1595,3390.79,1650.61,3332,1698.6,3017l912,21-175.49,499.48s109.5,198,118.49,342-4.5,214.49-4.5,214.49" transform="translate(-125.64 -39.69)" fill="#f5b7d0" stroke="#e880b0" stroke-miterlimit="10" stroke-width="45"/><path d="M2533,3571c-120-428-764.51,30.83-872.6-33.06-46.17,34-91,68.53-133.17,103.21-26.74,55.73-52.22,98.27-77.08,139.77-45.34,75.67-84.49,141-116.77,262.3l19,20.45,4.24,10.12,584.31,18.84S2299,3693,2533,3571Z" transform="translate(-125.64 -39.69)" opacity="0.25" style="mix-blend-mode:hard-light;isolation:isolate"/><path d="M3237,1593s-0.19-316.26-101.92-574.81C2967,591,2563,579.45,2563,579.45l-78.14-141.39S2323,63.12,1887,63.12s-522,626.79-338,516.33S1863,1139,1863,1139l1189.93,815.81" transform="translate(-125.64 -39.69)" fill="#eb458b"/><path d="M2172.58,3368s-106.5,151-46.5,231.48c0,0,32.07,82.51,136.49,91s304.49-19,282,8.49-229.49,326-57,330.49,546-648,546-648l-238.49-177L2948,3111,2830.3,2862.55" transform="translate(-125.64 -39.69)" fill="#eb458b"/><path d="M1448.12,443.17c58.5-262.49,261-381,471-381S2733,281,2531,1181" transform="translate(-125.64 -39.69)" fill="none" stroke="#bb1c76" stroke-miterlimit="10" stroke-width="45"/><path d="M2539,580.47s666.36-70.59,685,963.3" transform="translate(-125.64 -39.69)" fill="none" stroke="#bb1c76" stroke-miterlimit="10" stroke-width="50"/><path d="M2920,3167s-55,32-88,41a787.83,787.83,0,0,1,98.61,32.26L2918.84,3311S2813,3234,2730,3222c120-70,175-111,175-111" transform="translate(-125.64 -39.69)" fill="#bb1c76"/><path d="M2150,3469c-54,127,32,277,477,180-80,72-332,102.18-430,65.1-78-29.51-122.55-93.25-122-184.1" transform="translate(-125.64 -39.69)" fill="#bb1c76"/><path d="M2545,3680.33c-194,186.67-157.33,334-157.33,334s88,92,54-9.33,82-271.33,135.33-330" transform="translate(-125.64 -39.69)" fill="#bb1c76"/><path d="M2367,3699s265-180,265-396c0-156-85-185-85-185" transform="translate(-125.64 -39.69)" fill="none" stroke="#bb1c76" stroke-miterlimit="10" stroke-width="15"/><path d="M2879,3012.23C2840,3070,2705,3136,2627,3088" transform="translate(-125.64 -39.69)" fill="none" stroke="#bb1c76" stroke-miterlimit="10" stroke-width="15"/><path d="M3186.16,1191.39s-34.13,79.74-113.62,130.74" transform="translate(-125.64 -39.69)" fill="none" stroke="#bb1c76" stroke-miterlimit="10" stroke-width="20"/><path d="M2143.69,115.57c190.88,219.3,79.89,438.6,79.89,438.6s280.85,67.5,348.17,297" transform="translate(-125.64 -39.69)" fill="none" stroke="#bb1c76" stroke-miterlimit="10" stroke-width="20"/><path d="M2013.59,657.66s89.22,66,130.1,316.48" transform="translate(-125.64 -39.69)" fill="none" stroke="#bb1c76" stroke-miterlimit="10" stroke-width="20"/><path d="M2860.65,2926.59c-46.33,1-101.86,14.81-162.15,37.25L2172.58,3368s-45.47,64.47-60.25,131.61L2075,3530c-0.51,77.74,32,135.63,90.31,169.2,106.43-279.79,472.11-525.5,718.71-573.42,14.12-9.68,21-14.78,21-14.78l2.87,10.73q14.24-2.08,27.82-3.18L2948,3111Z" transform="translate(-125.64 -39.69)" opacity="0.25" style="mix-blend-mode:hard-light;isolation:isolate"/><path d="M1325,2708.3s144.94,216.49,264.66,269.06S2153,3169,2269,3035s830-1342,830-1342,35-276.38-56.46-505.87-145.49-370.48-276-370.48-156,385.48-156,385.48-198-240-631.47-253.49S951,1163,951,1163s-90,220-90,368,10.68,350.6,187.15,583.08c55,253.49,82,351,82,351" transform="translate(-125.64 -39.69)" fill="#f5b7d0"/><path d="M3101.27,1741.2L3064.8,1707a17.14,17.14,0,0,0-2.29,2.93c0.74-1.33,18-34.21,18-200.32,0-113.91-38.64-283.74-96.15-422.6-31-74.73-66-136.71-101.22-179.25-37.19-44.87-73.4-67.61-107.61-67.61-8.69,0-18.17,5.31-28.19,15.79-33.9,35.45-66.39,122.23-89.16,238.1-8.9,45.27-16.42,95.46-23.87,141.63-10,62-21.33,184-28.67,184.67S2574.33,1361,2588,1227.1c4.86-47.69,12.08-96.49,21.17-142.7,17.63-89.72,49.65-208.18,102.09-263,19.82-20.72,41.46-31.23,64.33-31.23,49.81,0,99,28.84,146.11,85.71,39,47,75.61,111.61,108.92,192,59.79,144.35,100,321.87,100,441.73C3130.53,1638.83,3120.14,1721.08,3101.27,1741.2Z" transform="translate(-125.64 -39.69)" fill="#e880b0"/><path d="M2873,1070s135,381.12-22.45,711.1C3104,1433.12,2873,1070,2873,1070Z" transform="translate(-125.64 -39.69)" fill="#e880b0"/><path d="M1095.41,1128.23s-128.91,311-.37,588.41C883,1421.46,1095.41,1128.23,1095.41,1128.23Z" transform="translate(-125.64 -39.69)" fill="#e880b0"/><path d="M2610.56,1221.63s-171-270-582-262.49" transform="translate(-125.64 -39.69)" fill="none" stroke="#e880b0" stroke-miterlimit="10" stroke-width="50"/><path d="M1336.37,1255.67c-7-84.32-23.69-174.34-47.67-229.57l45.86-19.91c26.74,61.59,40.81,167.57,48.16,256,6.64,79.88-13.7,151.45-19,151.46S1343.07,1336.39,1336.37,1255.67Z" transform="translate(-125.64 -39.69)" fill="#e880b0"/><path d="M953,1279s-61,84-61,318c0,352,177.89,518.41,177.89,518.41s12.44,105.59,44.44,194.92c29.37,82-45.33,45.33-45.33,45.33s40.4-16.55,21-19.67c-31.08-5-54.33-205.67-54.33-205.67S832,1902,832,1611c0-270.64,57-313,57-313" transform="translate(-125.64 -39.69)" fill="#e880b0"/><path d="M1386.62,2816.05c138,126,229.49,217.49,513,255" transform="translate(-125.64 -39.69)" fill="none" stroke="#e880b0" stroke-miterlimit="10" stroke-width="50"/><path d="M1063,1935s-84,50-167.33-14.67c36,109.33,170.67,74,170.67,74" transform="translate(-125.64 -39.69)"/><path d="M1066.33,2009s-56.67,64-139.33,53.33c78,61.33,144,1.2,144,1.2" transform="translate(-125.64 -39.69)"/><path d="M1096.73,2225s-60.23-32-85.23,38c56.5-37,89.5-15,89.5-15" transform="translate(-125.64 -39.69)"/><path d="M2624.33,1860.33s103.33,28.67,199.33-42c-42.23,119.75-190.67,100-190.67,100" transform="translate(-125.64 -39.69)"/><path d="M1557,2402.33c35-257.67-36-490.33-36-490.33l-462-14s-4,251,45,374,106,190,106,190,156-59,197-64" transform="translate(-125.64 -39.69)" fill="#fff"/><path d="M2633.67,1933.67s90.33,72,168,62.67c66.31-8-33.33,59.33-168-3.33" transform="translate(-125.64 -39.69)"/><g mask="url(#b)"><path d="M1521,1912l-254-8.42c-41.16,8.42-60.81,120.23-56.67,191.16,10,171.66,113.69,305.22,231.51,298.33,47.23-2.76,89.56-27.69,122.69-67.61C1578.42,2100.16,1521,1912,1521,1912Z" transform="translate(-125.64 -39.69)" fill="url(#c)"/><path d="M1299.43,2335.07l78.51-76.64-61.07-42.72-73.79,33.4C1258.57,2282,1277.67,2311.09,1299.43,2335.07Z" transform="translate(-125.64 -39.69)" fill="#e4f5fd"/><path d="M1246.58,2256.34l82.5-33.42-23.3-49.94-87.84,8.22A432.29,432.29,0,0,0,1246.58,2256.34Z" transform="translate(-125.64 -39.69)" fill="#a4dff8"/></g><path d="M1524.2,1923.32a167.27,167.27,0,0,0-14.65-11.67l-145.22-4.4c-55.67,36.48-91.64,116.07-86.52,206.14,6.84,120.36,84.44,213.84,173.33,208.8,47.47-2.7,88.56-33,115.51-78.9C1565.27,2087.06,1534.36,1960.73,1524.2,1923.32Z" transform="translate(-125.64 -39.69)"/><ellipse cx="1403.03" cy="2083.66" rx="28.28" ry="44.96" transform="translate(-1234.25 2086.14) rotate(-57.01)" fill="#fff"/><path d="M1521,1912l-149.77-4.54c-6.16,35.3,11.55,80.31,48.67,114.81,42.25,39.25,96.25,52.43,131.76,35.18C1538.34,1968.84,1521,1912,1521,1912Z" transform="translate(-125.64 -39.69)" fill="#fff"/><path d="M2622,1812s28,90,24,337-253,244.33-253,244.33-44-9-154-9-167,18.05-167,18.05S1983.6,2195,2035.6,1887" transform="translate(-125.64 -39.69)" fill="#fff"/><g mask="url(#d)"><path d="M2503.59,2093.64c0,164.78-94,298.36-210,298.36s-210-133.58-210-298.36c0-92.54,20.86-174.91,67.41-229.64,18.46-21.7,81.31-11.77,134.19-16,51.21-4.1,101.31-23.26,116.89-9.88C2462.92,1890.38,2503.59,1985.26,2503.59,2093.64Z" transform="translate(-125.64 -39.69)" fill="url(#e)"/><path d="M2463.85,2274.8l-73.37-59-41,65.89,54.23,71C2426.88,2332,2447.27,2305.6,2463.85,2274.8Z" transform="translate(-125.64 -39.69)" fill="#e4f5fd"/><path d="M2455.2,2289.93a358.27,358.27,0,0,0,33.4-72.77l-72.2-24.07-25.92,45.37Z" transform="translate(-125.64 -39.69)" fill="#a4dff8"/></g><path d="M2445.67,2062.41c12.5,131.36-49.23,244.68-137.86,253.11s-170.61-91.22-183.11-222.58,59.66-242.17,148.3-250.6S2433.18,1931,2445.67,2062.41Z" transform="translate(-125.64 -39.69)"/><ellipse cx="2266" cy="2035.9" rx="31.31" ry="49.78" transform="translate(-888.77 1673.72) rotate(-35.86)" fill="#fff"/><path d="M2435.87,1919c39.6,71.69,39.55,147.57-.12,169.49s-103.93-18.45-143.54-90.13c-29.11-52.69-36.79-107.64-23.07-141.77,4.95-12.31,69-34.07,95-17.76S2416.07,1883.2,2435.87,1919Z" transform="translate(-125.64 -39.69)" fill="#fff"/><path d="M935,1749s66,106,138.67,124.67,314,12,366,12,126.75,0.5,148-19.33c30-28,30-90.67,30-90.67s32,105.33-14,141.33c-26.72,17.25-534.67,9.56-551.33,0C936.9,1850.77,935,1749,935,1749Z" transform="translate(-125.64 -39.69)"/><path d="M2744,1634s-54.38,129.64-157,156c-109,28-618,86-649,66s-66.33-67.67-65-100.33c-19.33,80,14,138.67,36,148S2561.26,1861,2621,1828C2744,1760,2744,1634,2744,1634Z" transform="translate(-125.64 -39.69)"/><path d="M2072,2402.33c-4.5-9.92-8.42-20.11-12.16-30.35s-7.17-20.62-10.42-31q-9.72-31.29-17-63.34a1033.9,1033.9,0,0,1-21.12-129.81c-8.68-87.49-6.83-176.31,4.61-264.11l39.44,6.66a1130.16,1130.16,0,0,0-24.09,256.23,1018.76,1018.76,0,0,0,11,129.16c3.24,21.42,7.21,42.75,12,63.91q3.63,15.87,8,31.59C2065.16,2381.68,2068.27,2392.1,2072,2402.33Z" transform="translate(-125.64 -39.69)"/><path d="M1557,2402.33a1082.66,1082.66,0,0,0,4.44-123.38c-0.81-41.09-3.76-82.05-8.58-122.73s-11.5-81.07-19.93-121q-6.33-29.95-14-59.5-3.86-14.76-8.1-29.35-2.13-7.29-4.36-14.5l-2.27-7.16-1.16-3.53-0.58-1.73-0.56-1.6,38.26-11.68,0.54,2.1,0.49,2,0.94,3.91,1.79,7.76q1.74,7.74,3.32,15.46,3.18,15.44,5.89,30.9,5.46,30.92,9.41,62,7.94,62.07,10.29,124.46c1.54,41.55,1.17,83.11-1.36,124.48A1088.15,1088.15,0,0,1,1557,2402.33Z" transform="translate(-125.64 -39.69)"/><path d="M1721.67,2810s-27-49.33,48.67-17,147.33,50.67,184.33,24S2053,2683.33,2060,2713.67s-5.67,94.67-8,100.33-75.33,98.33-117,96.67-162-23.33-174.67-57.33" transform="translate(-125.64 -39.69)" fill="#fff"/><path d="M1634,2507.5s-17,68.25,52,81.5c0,0-58,22.25-74.5-11.25S1634,2507.5,1634,2507.5Zm208,79.5s63.67-13,51.33-83.33c0,0,34,25.67,18.33,63.33S1842,2587,1842,2587Z" transform="translate(-125.64 -39.69)" fill="#e880b0"/><path d="M2063,2725.92l-0.18,2.28c-0.06.88-.14,1.73-0.22,2.53q-0.24,2.45-.58,4.88-0.67,4.86-1.72,9.62a128.55,128.55,0,0,1-5.52,18.44,143.41,143.41,0,0,1-17.85,32.69,176.3,176.3,0,0,1-24.08,26.8q-6.58,6-13.63,11.33a151.72,151.72,0,0,1-14.55,9.83,150.07,150.07,0,0,0,12-12.57q5.63-6.57,10.58-13.57a164.88,164.88,0,0,0,16.7-29.32,124.54,124.54,0,0,0,9.15-31.13,103.87,103.87,0,0,0,1.16-15.62q0-3.87-.32-7.69c-0.1-1.27-.23-2.54-0.38-3.8-0.07-.65-0.16-1.24-0.24-1.81l-0.28-2.06Zm-333.86,42.78c0.3,0.55.75,1.28,1.17,1.95l1.31,2.07q1.34,2.08,2.75,4.16,2.82,4.16,5.82,8.25,6,8.18,12.6,16a268.62,268.62,0,0,0,28.64,29.26,196.27,196.27,0,0,0,33.57,23.82,138.8,138.8,0,0,0,39,14.79,142.55,142.55,0,0,1-42-7.92,207.57,207.57,0,0,1-39.33-18.52,287.27,287.27,0,0,1-35.65-25.39q-8.46-7-16.46-14.62-4-3.81-7.9-7.79-1.95-2-3.87-4.06l-1.93-2.1c-0.66-.73-1.27-1.41-2-2.28Z" transform="translate(-125.64 -39.69)" fill="#b0d8e7"/><path d="M1668,2433s132-29.67,242.33,0c0,0-30.67-40.33-114.33-41S1668,2433,1668,2433Z" transform="translate(-125.64 -39.69)" fill="#e880b0"/><path d="M2052.5,2591.14S2045.28,2763.79,1927,2807c-135.5,49.5-290-149-290-149,9.71,58,113,312,335,263C2141,2856,2052.5,2591.14,2052.5,2591.14ZM1972,2890.5c-134.5,49.5-242.5-95.5-242.5-95.5s115.77,75.19,200,49c96.5-30,118.32-111.5,118.32-111.5S2070.1,2854.4,1972,2890.5Z" transform="translate(-125.64 -39.69)" fill="#e880b0"/><path d="M1293,2442.33c150.67-55.33,322-29.84,322-29.84s-160.67-75.5-330,20.5" transform="translate(-125.64 -39.69)" fill="#e880b0"/><path d="M2423,2380.33c-221.33-45.33-423,39.33-423,39.33s293-48,393-14" transform="translate(-125.64 -39.69)" fill="#e880b0"/><path d="M1771.8,1438.76s276-209,276-531.05-132-558.06-408-558.06c-528.05,0-489,513.05-489,513.05s-129-147-423-147c-157.87,0-582.06,150.63-582.06,747.07S799,2429,799,2429s-161,76.4-356.93-35.62C529,2553,655,2617.63,741,2617.63c59.91,0,211.71,1.79,211.71-158.77s-251.17-348.8-251.17-720.31,334.36-575.82,590.2-575.82C1630.78,1162.74,1771.8,1438.76,1771.8,1438.76Z" transform="translate(-125.64 -39.69)" fill="#eb458b"/><path d="M788,2664c-85,0-143.14-20.06-196-56-60.95-41.44-126.3-129.42-167.49-205.05L390.79,2341l61.2,35c67.8,38.76,138.6,58.42,210.42,58.42A369.06,369.06,0,0,0,752,2423.63c-17.37-11.15-40.13-26.35-66.77-45.48-56.53-40.6-141.84-107.31-227.23-194.61-96.23-98.38-173-202.34-228.06-309-69.22-134-104.32-272.51-104.32-411.78,0-141.32,23.68-267.91,70.38-376.27,39.89-92.56,96.46-171.91,168.13-235.85A644.54,644.54,0,0,1,563.07,729.85c57.37-21.7,117.37-34.15,164.62-34.15,68.75,0,134.4,7.94,195.14,23.6,48.81,12.59,94.58,30.17,136,52.25a491.16,491.16,0,0,1,71.62,46.16,655.66,655.66,0,0,1,9.65-89.54c8-45.06,20.56-87.64,37.28-126.54,21-49,48.8-92.23,82.48-128.57,88.19-95.15,216-143.39,379.88-143.39,70.46,0,134.24,14.89,189.58,44.24,52.93,28.08,98.18,69.39,134.49,122.77,68,100,104,242.15,104,411,0,76-15,152.12-44.55,226.24-23.54,59-56.32,116.89-97.43,172-69.9,93.71-139.06,146.55-142,148.75l-19,14.4L1754,1447.86c-0.33-.64-35.16-67.48-109.56-133.22-99-87.53-217.7-131.9-352.68-131.9-239.05,0-570.21,193.16-570.21,555.82,0,218.77,89.42,372.74,161.27,496.45C931,2318.06,975,2392,980,2460c3,40.33.88,80.74-17,108C947.62,2591.45,918,2664,788,2664ZM495.8,2441.64c31.45,43.9,67.86,80.36,107.33,107.19,46.3,31.48,95.26,48.81,137.88,48.81h4c27.21,0,77.85,0,119-18.69,46.24-21,68.71-60.3,68.71-120.08,0-58.3-39.16-125.72-84.49-203.78-36.59-63-83.77-132.69-121.23-215.08-45-99-68-195.87-68-298,0-91.42,20.3-180.19,59-258.36,35-70.77,98.86-140.37,162-193.64,113.77-96,270.84-155,410-155,80,0,157.77,22.79,227.61,52.46a565.54,565.54,0,0,1,154.59,98.34c54.08,48.07,88.2,95.92,105,122.55,24.46-21.24,65.4-69.29,108.83-133.36,61-90,123-206.6,123-367,0-160.83-14.73-295.48-78.22-388.83-67.47-99.21-165.38-149.52-291-149.52-152.16,0-270,43.86-350.34,130.35-69.3,74.64-97.92,168.42-109.72,233.94-13,71.94-9.1,126.71-9.06,127.26l4.43,59.56-39.39-44.87c-0.27-.31-31.85-35.44-97.59-70.09C977.42,773.82,882.61,747,736,747c-64.85,0-200.88,33.7-329,148-147.29,131.4-234,320.47-234,570,0,301.37,167.18,540.86,313.61,690.57,159.52,163.09,320.63,255.12,322.24,256l33.51,19S789,2483,676,2483C619.48,2483,550.09,2463.43,495.8,2441.64Z" transform="translate(-125.64 -39.69)" fill="#bb1c76"/><path d="M1595,3941c17.26,0,595.42-489.45,1184.9-915.08C3351.38,2613.29,3935,2264.72,3935,2224.84s-170.18-213.87-321-399c-155.65-191.05-292.54-392.8-321-392.8-28.88,0-491.77,465.25-909.14,944.86C1991.83,2828.34,1643.47,3295,1627,3295c-16.62,0-122.09-270.5-220-550-102.36-292.21-197.47-594-222-594-23.92,0-156,191.93-302,376-147,185.35-308,362.94-308,382,0,18.6,292.8,243.95,536,492C1364.57,3659.63,1569.48,3941,1595,3941Z" transform="translate(-125.64 -39.69)" fill="#168b44"/><path d="M509.17,4010c36-280.49,197.24-964.45,413.23-964.45,177,0,413.23,295.48,413.23,463.48,0,106.5-163.49,241.49-253.49,520.48" transform="translate(-125.64 -39.69)" fill="#f5b7d0" stroke="#e880b0" stroke-miterlimit="10" stroke-width="45"/><path d="M2423,4035c102-96,510-492,510-842,0-104.07-76-196-76-256,0-126,286-364,422-364,150,0,248,288,248,576,0,230-54,522-412,900" transform="translate(-125.64 -39.69)" fill="#f5b7d0" stroke="#e880b0" stroke-miterlimit="10" stroke-width="45"/></g></g></svg>