<svg version="1.1" xmlns="http://www.w3.org/2000/svg" xmlns:xlink="http://www.w3.org/1999/xlink" x="0px" y="0px"  viewBox="0 0 200 200" enable-background="new 0 0 200 200" xml:space="preserve"><g id="Fill"><path fill="#FFFFFF" d="M200,176c0,13.3-10.7,24-24,24H24c-13.3,0-24-10.7-24-24V24C0,10.7,10.7,0,24,0h152c13.3,0,24,10.7,24,24 V176z"/></g><g><defs><path id="SVGID_1_" d="M200,176c0,13.3-10.7,24-24,24H24c-13.3,0-24-10.7-24-24V24C0,10.7,10.7,0,24,0h152c13.3,0,24,10.7,24,24 V176z"/></defs><clipPath id="SVGID_2_"><use xlink:href="#SVGID_1_"  overflow="visible"/></clipPath><g id="BG_1_" opacity="0.5" clip-path="url(#SVGID_2_)"><g><g id="Vertical_5_"><line fill="none" stroke="#A5A5A5" stroke-width="2" x1="132" y1="200" x2="132" y2="0"/><line fill="none" stroke="#A5A5A5" stroke-width="2" x1="100" y1="200" x2="100" y2="0"/><line fill="none" stroke="#A5A5A5" stroke-width="2" x1="68" y1="200" x2="68" y2="0"/><line fill="none" stroke="#A5A5A5" stroke-width="2" x1="36" y1="200" x2="36" y2="0"/><line fill="none" stroke="#A5A5A5" stroke-width="2" x1="164" y1="200" x2="164" y2="0"/></g><g id="Horizontal_5_"><line fill="none" stroke="#A5A5A5" stroke-width="2" x1="0" y1="132" x2="200" y2="132"/><line fill="none" stroke="#A5A5A5" stroke-width="2" x1="0" y1="100" x2="200" y2="100"/><line fill="none" stroke="#A5A5A5" stroke-width="2" x1="0" y1="68" x2="200" y2="68"/><line fill="none" stroke="#A5A5A5" stroke-width="2" x1="0" y1="36" x2="200" y2="36"/><line fill="none" stroke="#A5A5A5" stroke-width="2" x1="0" y1="164" x2="200" y2="164"/></g></g></g><g clip-path="url(#SVGID_2_)"><defs><rect id="SVGID_3_" x="1.6" y="3.3" width="196.7" height="196.7"/></defs><clipPath id="SVGID_4_"><use xlink:href="#SVGID_3_"  overflow="visible"/></clipPath><g id="Far_Crest_1_" clip-path="url(#SVGID_4_)"><g><path fill="#2864BC" d="M125.8,143.3c0,0-0.4-0.1-1-0.4c-0.3-0.1-0.6-0.3-0.8-0.6c-0.3-0.2-0.5-0.5-0.7-0.8 c-0.2-0.3-0.5-0.7-0.8-1c-0.3-0.4-0.6-0.7-1-1.1c-0.7-0.7-1.5-1.5-2.3-2.1c-0.4-0.3-0.9-0.7-1.3-1c-0.4-0.3-0.9-0.6-1.3-0.8 c-0.9-0.5-1.8-0.9-2.5-1.3c-0.4-0.2-0.7-0.3-1-0.5c-0.3-0.2-0.5-0.5-0.7-0.8c-0.3-0.5-0.5-1-0.5-1s0.4-0.3,1-0.4 c0.3-0.1,0.7-0.1,1-0.1c0.4,0.1,0.7,0.3,1.2,0.4c0.9,0.3,1.8,0.8,2.8,1.3c0.5,0.3,1,0.6,1.5,0.9c0.5,0.3,1,0.7,1.5,1.1 c0.5,0.4,0.9,0.8,1.4,1.2c0.4,0.4,0.8,0.8,1.2,1.3c0.4,0.4,0.7,0.8,1,1.3c0.3,0.4,0.6,0.8,0.9,1.2c0.3,0.4,0.5,0.8,0.6,1.2 c0.1,0.4,0.1,0.7,0.1,1C125.9,142.9,125.8,143.3,125.8,143.3z"/></g><g><path fill="none" d="M105.6,153.5"/></g><path fill="none" stroke="#2864BC" stroke-width="2.6829" stroke-miterlimit="20" d="M119.8,136.1c6.8,2.1,10.5,5.3,13.2,14.6 c4.3-7.2,2.1-20.1-16.3-39.9c-9.9-10.6-15.8-15.8-14.5-35.1"/></g><path id="Body_2_" clip-path="url(#SVGID_4_)" fill="#E6EFFC" stroke="#9CBDDB" stroke-width="2.6826" d="M46.9,203.9 c0.8-5.5,1.3-11.2,2.1-17l8.4-27.9l38.9-1.2l10.3,8.6c-2.1,4.2-2.8,13.1-3.7,23.3c-0.4,4.2-0.5,8.8-0.5,13.5"/><g id="Head_1_" clip-path="url(#SVGID_4_)"><g id="face_2_"><g><path fill="#E6EFFC" d="M49.6,184.3c2.3-18.9,3.7-36.7-3.9-77.5c-6.3-33.9,23.7-64.1,58.1-66.4c34.4-2.3,65.9,23.7,66.4,58.1 c0.5,34.6-14.2,41.6-33.6,48.6"/><g><path fill="#9CBDDB" d="M47.6,186.9c0,0,0.2-1.3,0.4-3.8c0.3-2.5,0.7-6.1,1-10.8c0.3-4.7,0.6-10.3,0.5-16.8 c-0.1-6.5-0.5-13.8-1.4-21.8c-0.9-8-2.1-16.6-3.8-25.6c-0.4-2.3-0.8-4.7-0.9-7.1c-0.2-2.4-0.1-4.9,0.1-7.4 c0.4-5,1.6-10,3.5-14.8c3.8-9.6,10.5-18.3,18.9-25c8.4-6.7,18.6-11.5,29.4-13.6c2.7-0.5,5.4-0.9,8.1-1.1 c1.4-0.1,2.7-0.1,4.1-0.1c1.4,0,2.8,0,4.1,0.1c2.7,0.1,5.4,0.5,8.1,1c2.7,0.5,5.3,1.1,7.9,2c10.3,3.2,19.6,9,26.8,16.3 c7.2,7.3,12.3,16.2,14.9,25.3c1.3,4.5,2,9.1,2.1,13.6c0.1,4.4,0,8.6-0.4,12.7c-0.8,8.1-3.1,15.7-7.1,21.2 c-2,2.8-4.2,5.1-6.6,6.8c-2.3,1.8-4.6,3.1-6.8,4.1c-4.3,2.1-7.8,3.2-10.2,4c-2.4,0.7-3.7,1.1-3.7,1.1s1.2-0.6,3.5-1.6 c1.1-0.5,2.6-1.2,4.2-2c1.6-0.8,3.5-1.7,5.5-2.9c4-2.3,8.6-5.7,12.1-10.9c1.7-2.6,3.2-5.7,4.2-9.1c1-3.4,1.8-7.1,2.2-11 c0.4-3.9,0.6-8.1,0.4-12.3c-0.1-4.2-0.8-8.6-2-12.9c-2.4-8.7-7.3-17.2-14.2-24.2c-6.9-7-15.8-12.6-25.7-15.7 c-2.5-0.8-5-1.4-7.5-1.9c-2.6-0.4-5.2-0.8-7.8-0.9c-1.3-0.1-2.6-0.1-3.9-0.1c-1.3,0-2.7,0.1-4,0.1c-2.6,0.2-5.2,0.5-7.8,1 c-10.3,2-20.1,6.6-28.2,13.1c-8.1,6.4-14.5,14.8-18.1,23.9c-1.8,4.6-2.9,9.3-3.3,14c-0.2,2.3-0.2,4.7-0.1,7 c0.1,2.3,0.5,4.5,0.9,6.8c1.7,9.1,3,17.8,3.8,25.8c0.9,8,1.3,15.5,1.4,22c0.1,6.6-0.2,12.3-0.5,17c-0.4,4.7-0.8,8.4-1.1,10.9 c-0.3,2.5-0.4,3.8-0.4,3.8L47.6,186.9z"/></g></g><g><path fill="#E6EFFC" d="M164.8,123c-0.7,11.4,6,13.9,5.9,18c-0.4,16.5-34.9,32.6-78.1,23.5"/><g><path fill="#9CBDDB" d="M167.4,124.9c0,0,0,0.1-0.1,0.3c0,0.1-0.1,0.4-0.2,0.7c0,0.3-0.1,0.6,0,1c0,0.1,0,0.2,0.1,0.4 c0,0.1,0.1,0.3,0.1,0.5c0.1,0.3,0.1,0.7,0.2,1c0.3,1.3,0.8,3,1.4,4.9c0.6,1.9,1.4,4,1.9,6.7c0.4,2.8-0.3,5.8-1.7,8.5 c-1.4,2.7-3.6,5.1-6.1,7.2c-2.5,2.1-5.3,3.8-8.3,5.3c-3,1.5-6.1,2.7-9.4,3.6c-6.4,2-13.1,3-19.3,3.5c-3.1,0.2-6.2,0.3-9,0.2 c-2.9-0.1-5.6-0.3-8.1-0.5c-5-0.5-9-1.4-11.9-2.2c-1.4-0.4-2.5-0.7-3.2-1c-0.7-0.2-1.1-0.4-1.1-0.4s0.4,0,1.2,0.1 c0.8,0.1,1.9,0.1,3.4,0.3c2.9,0.2,7,0.6,11.9,0.9c4.9,0.3,10.6,0.3,16.7-0.1c6.1-0.4,12.5-1.4,18.7-3.3 c6.2-1.9,12.1-4.6,16.7-8.4c2.3-1.9,4.2-4,5.4-6.4c0.6-1.2,1-2.3,1.3-3.5c0-0.3,0.1-0.6,0.1-0.9l0-0.4l0-0.5 c0-0.6,0-1.1-0.1-1.6c-0.3-2.2-1.2-4.3-1.8-6.3c-0.6-1.9-1.1-3.7-1.5-5.1c-0.1-0.4-0.2-0.7-0.2-1c0-0.2-0.1-0.3-0.1-0.5 c0-0.2-0.1-0.3-0.1-0.5c-0.1-0.7-0.1-1.4,0-1.8c0.1-0.5,0.2-0.8,0.3-1c0.1-0.2,0.1-0.3,0.1-0.3L167.4,124.9z"/></g></g></g><g id="right_eye_2_"><g><path fill="none" d="M171.6,77.3"/></g><g><path fill="none" d="M164.7,86.6"/></g><defs><filter id="Adobe_OpacityMaskFilter" filterUnits="userSpaceOnUse" x="138.8" y="75.9" width="32.7" height="58.8"><feColorMatrix  type="matrix" values="1 0 0 0 0  0 1 0 0 0  0 0 1 0 0  0 0 0 1 0"/></filter></defs><mask maskUnits="userSpaceOnUse" x="138.8" y="75.9" width="32.7" height="58.8" id="SVGID_5_"><g filter="url(#Adobe_OpacityMaskFilter)"><path fill="#FFFFFF" d="M157.8,75.9c-7.3-0.4-12.2,10.7-13.2,27.4c-1,16.7,4.6,30.9,11.8,31.4c0.5,0,0.9,0,1.4-0.1 c1.4-1.4,2.8-3,4-4.8c0.9-1.3,1.7-2.7,2.4-4.2c0.7-1.5,1.3-3.1,1.9-4.8c1.1-3.4,1.8-7.1,2.2-11c0.4-3.9,0.6-8.1,0.5-12.3 c-0.1-4.2-0.8-8.6-2-12.9c-0.3-1.1-0.7-2.2-1-3.3C163.4,77.9,160.6,76.1,157.8,75.9z"/></g></mask><g mask="url(#SVGID_5_)"><path fill="#FFFFFF" d="M171.4,105.2c-1,16.7-7.7,29.9-15,29.4c-7.3-0.4-12.8-14.7-11.8-31.4c1-16.7,6-27.8,13.2-27.4 C165.1,76.3,172.4,88.6,171.4,105.2z"/><g><defs><filter id="Adobe_OpacityMaskFilter_1_" filterUnits="userSpaceOnUse" x="138.8" y="83" width="26.2" height="48.7"><feColorMatrix  type="matrix" values="1 0 0 0 0  0 1 0 0 0  0 0 1 0 0  0 0 0 1 0"/></filter></defs><mask maskUnits="userSpaceOnUse" x="138.8" y="83" width="26.2" height="48.7" id="SVGID_5_"><g filter="url(#Adobe_OpacityMaskFilter_1_)"><path fill="#FFFFFF" d="M162.4,107.8c0.1,13.4-5.1,24.1-11.6,23.9c-6.5-0.2-11.9-11.3-12-24.8c-0.1-13.4,5.1-24.1,11.6-23.9 C157,83.2,162.3,94.3,162.4,107.8z"/></g></mask><g>  <linearGradient id="SVGID_6_" gradientUnits="userSpaceOnUse" x1="197.7123" y1="188.8153" x2="199.8867" y2="144.6017" gradientTransform="matrix(0.9988 -4.790000e-002 4.790000e-002 0.9988 -55.935 -52.0936)"><stop  offset="0" style="stop-color:#F6DF58"/><stop  offset="0.7" style="stop-color:#FF8D38"/></linearGradient><path fill="url(#SVGID_6_)" d="M162.4,107.8c0.1,13.4-5.1,24.1-11.6,23.9c-6.5-0.2-11.9-11.3-12-24.8 c-0.1-13.4,5.1-24.1,11.6-23.9C157,83.2,162.3,94.3,162.4,107.8z"/><polygon fill="#F9E98C" points="149.6,112.2 164.6,102.9 163.7,113.1"/><polygon fill="#FCF1BD" points="150.7,112.5 165,111.3 163.3,119.7"/></g><path d="M158.5,109c0.1,10.3-3.9,18.5-8.8,18.4c-4.9-0.2-8.9-8.7-9-19c-0.1-10.3,3.9-18.5,8.8-18.4 C154.4,90.2,158.4,98.7,158.5,109z"/><path fill="#FFFFFF" d="M149.1,106.4c-2.8-0.9-3.9-5.6-2.5-10.4c1.4-4.8,4.9-8,7.7-7.1c2.8,0.9,3.9,5.6,2.5,10.4 C155.3,104.2,151.9,107.4,149.1,106.4z"/><path fill="#FFFFFF" d="M149.3,117.3c-1.2-0.6-1.4-2.5-0.6-4.2c0.8-1.7,2.5-2.6,3.6-1.9s1.4,2.5,0.6,4.2 C152.1,117,150.5,117.9,149.3,117.3z"/></g></g><g><path d="M153.3,133.4c0,0-0.3-0.2-0.9-0.6c-0.5-0.4-1.4-1.1-2.2-2c-0.9-1-1.9-2.2-2.8-3.8c-0.9-1.6-1.9-3.4-2.7-5.5 c-1.5-4.2-2.3-9.4-2.4-15c-0.1-5.5,0.6-11.5,2.2-17.2c0.8-2.8,1.9-5.7,3.4-8.3c0.7-1.3,1.6-2.6,2.6-3.7c1-1.1,2.3-2.1,3.9-2.7 c1.5-0.6,3.3-0.5,4.7,0c1.5,0.5,2.7,1.4,3.7,2.3c2,1.9,3.2,4.1,4.2,6.2c1.9,4.1,2.6,7.8,3.1,10.3c0.2,1.3,0.4,2.3,0.5,3 c0.1,0.7,0.1,1,0.1,1l-2.7,0.3c0,0,0-0.4-0.1-1c-0.1-0.7-0.2-1.6-0.4-2.8c-0.4-2.4-1.2-5.9-2.9-9.7c-0.9-1.9-2-3.8-3.6-5.3 c-1.6-1.5-3.7-2.5-5.8-1.7c-0.9,0.3-1.9,1.1-2.8,2c-0.8,0.9-1.6,2-2.3,3.2c-1.3,2.3-2.3,5-3.1,7.7c-1.5,5.4-2.2,11.1-2.1,16.4 c0,2.6,0.3,5.2,0.7,7.6c0.4,2.4,1,4.6,1.6,6.6c0.6,2,1.2,3.8,2,5.4c0.7,1.6,1.4,2.9,2.1,3.9c0.6,1.1,1.2,1.9,1.5,2.5 C153.1,133.1,153.3,133.4,153.3,133.4z"/></g></g><g id="left_eye_1_"><g><path d="M78.6,98.6c0,0-19-2.3-18.7-3.6c0.3-1.3,17.7,0.2,17.7,0.2L78.6,98.6z"/><path d="M78.7,91.6c0,0-15.1-9.3-14.3-10.5c0.8-1.3,15.9,7.3,15.9,7.3L78.7,91.6z"/><path d="M83,84.3c0,0-8.5-14.1-7.2-14.9c1.2-0.8,10.1,12.8,10.1,12.8L83,84.3z"/></g>  <ellipse transform="matrix(0.9978 -6.637052e-002 6.637052e-002 0.9978 -7.0811 7.0044)" fill="#FFFFFF" cx="101.9" cy="110.1" rx="24.6" ry="33.9"/><defs><filter id="Adobe_OpacityMaskFilter_2_" filterUnits="userSpaceOnUse" x="79" y="82.2" width="43.5" height="55.9"><feColorMatrix  type="matrix" values="1 0 0 0 0  0 1 0 0 0  0 0 1 0 0  0 0 0 1 0"/></filter></defs><mask maskUnits="userSpaceOnUse" x="79" y="82.2" width="43.5" height="55.9" id="SVGID_7_"><g filter="url(#Adobe_OpacityMaskFilter_2_)"><path fill="#FFFFFF" d="M126.4,108.4c-1.2-18.7-13.6-33.1-27.6-32.2c-2,0.1-4,0.6-5.9,1.4c-0.7,0.1-1.3,0.2-2,0.4 c-13.2,3.4-20.1,20.8-15.4,39c4.6,18.2,19.1,30.1,32.2,26.8c6-1.5,10.8-6.1,13.6-12.2C125.1,125.3,127,117.2,126.4,108.4z"/></g></mask><g mask="url(#SVGID_7_)"><defs><filter id="Adobe_OpacityMaskFilter_3_" filterUnits="userSpaceOnUse" x="79" y="82.2" width="43.5" height="55.9"><feColorMatrix  type="matrix" values="1 0 0 0 0  0 1 0 0 0  0 0 1 0 0  0 0 0 1 0"/></filter></defs><mask maskUnits="userSpaceOnUse" x="79" y="82.2" width="43.5" height="55.9" id="SVGID_7_"><g filter="url(#Adobe_OpacityMaskFilter_3_)"><path fill="#FFFFFF" d="M122.5,110.3c-0.1,15.4-9,27.9-19.9,27.8c-10.8-0.1-19.5-12.6-19.4-28.1c0.1-15.4,9-27.9,19.9-27.8 C113.9,82.3,122.6,94.9,122.5,110.3z"/></g></mask><g>  <linearGradient id="SVGID_8_" gradientUnits="userSpaceOnUse" x1="239.3215" y1="364.4861" x2="250.4366" y2="312.3651" gradientTransform="matrix(0.9759 -0.2182 0.2182 0.9759 -209.979 -167.4327)"><stop  offset="0" style="stop-color:#F6DF58"/><stop  offset="0.7" style="stop-color:#FF8D38"/></linearGradient><path fill="url(#SVGID_8_)" d="M122.5,110.3c-0.1,15.4-9,27.9-19.9,27.8c-10.8-0.1-19.5-12.6-19.4-28.1 c0.1-15.4,9-27.9,19.9-27.8C113.9,82.3,122.6,94.9,122.5,110.3z"/><polygon fill="#FCF1BD" points="79,117.6 110.1,112.2 84,128"/><polygon fill="#F9E98C" points="79.2,108.2 110.6,112.6 79.5,119.4"/></g><path d="M117.9,110.9c-0.1,12-6.6,21.7-14.4,21.6s-14.1-9.8-14-21.8c0.1-12,6.6-21.7,14.4-21.6 C111.7,89.1,118,98.9,117.9,110.9z"/><path fill="#FFFFFF" d="M101.9,86.1c4.4,0.9,6.5,6.7,4.7,12.9c-1.8,6.2-6.8,10.5-11.2,9.6c-4.4-0.9-6.5-6.7-4.7-12.9 C92.5,89.5,97.5,85.2,101.9,86.1z"/><path fill="#FFFFFF" d="M111.5,109.8c1.4,0.3,2.1,2.1,1.5,4.1c-0.6,1.9-2.2,3.3-3.7,2.9c-1.4-0.3-2.1-2.1-1.5-4.1 C108.5,110.8,110.1,109.4,111.5,109.8z"/></g><g><path d="M76.9,98.4c0,0-0.1-0.1-0.2-0.3c-0.1-0.2-0.3-0.5-0.6-1c-0.1-0.2-0.2-0.5-0.4-0.8c0-0.1-0.2-0.3-0.2-0.5 c0.1-0.1,0.1-0.3,0.1-0.4c0.1-0.6,0.3-1.3,0.5-2c0.9-2.9,2.9-7,6.5-10.8c1.8-1.9,4.1-3.7,6.7-5.2c2.7-1.5,5.8-2.5,9.2-2.8 c3.3-0.2,6.9,0.4,10.1,1.8c3.2,1.4,6.1,3.5,8.5,6c2.4,2.5,4.4,5.4,6,8.4c1.6,3,2.7,6.2,3.5,9.3c0.8,3.1,1.2,6.2,1.3,9.2 c0.2,2.9,0,5.7-0.5,8.3c-0.5,2.5-1.1,4.8-1.9,6.7c-0.7,1.9-1.6,3.6-2.3,4.8c-0.8,1.3-1.4,2.2-1.9,2.8c-0.5,0.6-0.8,0.9-0.8,0.9 s0.2-0.4,0.5-1.1c0.3-0.7,0.8-1.8,1.2-3.1c0.2-0.7,0.5-1.4,0.7-2.3c0.2-0.8,0.5-1.7,0.6-2.7c0.4-1.9,0.7-4.1,0.9-6.5 c0.2-2.4,0.2-5,0.1-7.7c-0.1-2.7-0.5-5.6-1.2-8.5c-0.7-2.9-1.8-5.8-3.2-8.6c-1.4-2.8-3.2-5.4-5.4-7.6c-2.2-2.2-4.7-4.1-7.5-5.3 c-2.8-1.2-5.7-1.7-8.5-1.5c-2.8,0.2-5.5,1.1-7.8,2.4c-2.3,1.3-4.3,2.9-5.9,4.6c-3.3,3.4-4.9,7-5.7,9.5c-0.4,1.3-0.6,2.3-0.7,3 c-0.1,0.8-0.2,1.2-0.2,1.2L76.9,98.4z"/></g></g><g id="fluff_1_"><path fill="#E6EFFC" d="M166.7,133.6c1.8,1.6,6,6.1,6.1,6.5c0.3,1.3-1.4,1.2-1.8,1.3c-0.4,0.1,0.6,2.7,1,4.2 c0.4,1.5,0.9,3.2,0.1,3.2c-0.8,0-0.7-0.6-1.3-1.3c-0.6-0.7-0.4,0.9-0.9,1.8c-0.4,0.9-1.1,3.2-1.7,2.4c-0.6-0.8,0.7-4.8-1.2-6.8 C165,142.9,166.7,133.6,166.7,133.6z"/><g><path fill="#9CBDDB" d="M168.4,139.9c0,0,0.1,0,0.2,0.1c0.1,0,0.4,0.1,0.6,0.1c0.5,0.1,1.1,0,1.9-0.3c0.2-0.1,0.4-0.2,0.5-0.3 c0.1-0.1,0.2-0.1,0.2-0.2c0,0,0,0,0-0.1c0,0,0,0-0.1,0.1c0,0.1,0,0.1-0.1,0.2c0,0.1,0,0.1,0,0.2l0,0c0,0.1,0,0,0,0.1l0,0l0-0.1 c0,0,0,0.1,0,0c0,0,0,0-0.1,0c-0.1-0.1-0.3-0.2-0.5-0.3c-0.5-0.2-1.1-0.5-1.7-0.9c-0.6-0.4-1.2-0.9-1.7-1.5 c-0.5-0.6-0.8-1.3-1.1-1.9c-0.2-0.6-0.4-1.2-0.6-1.7c-0.4-1.1-0.7-2.2-1-3.1c-0.5-1.9-0.7-3.2-0.7-3.2l2.7-0.3 c0,0,0.1,1.1,0.6,2.9c0.2,0.9,0.5,1.9,0.9,3c0.2,0.5,0.4,1.1,0.6,1.7c0.2,0.5,0.4,0.9,0.6,1.3c0.3,0.4,0.6,0.8,1,1.1 c0.4,0.3,0.9,0.6,1.4,1c0.3,0.2,0.6,0.4,0.9,0.7c0.1,0.2,0.3,0.4,0.4,0.6c0,0.1,0.1,0.3,0.1,0.4l0,0.1l0,0l0,0.1l0,0.1 c0,0.1,0,0.1,0,0.2c0,0.2-0.1,0.2-0.1,0.3c-0.1,0.3-0.3,0.4-0.4,0.4c-0.1,0.1-0.2,0.1-0.3,0.2c-0.2,0.1-0.3,0.2-0.5,0.2 c-0.3,0.1-0.6,0.2-0.9,0.2c-0.5,0.1-1.1,0.1-1.5-0.1c-0.4-0.1-0.8-0.3-1-0.5c-0.2-0.2-0.4-0.4-0.4-0.6 C168.4,140,168.4,139.9,168.4,139.9z"/></g><g><path fill="#9CBDDB" d="M171.4,140.2c0.5,1,0.9,2,1.3,3c0.3,1.1,0.6,2.1,0.7,3.3c0,0.6,0,1.2-0.2,1.9c-0.1,0.3-0.3,0.7-0.6,1 l-0.1,0.1l0,0l0,0l-0.1,0.1l0,0l0,0c0,0-0.1,0-0.1,0.1c-0.1,0-0.2,0.1-0.3,0c-0.2,0-0.2,0-0.4-0.1c-0.1,0-0.1-0.1-0.2-0.1 c-0.1-0.1-0.2-0.1-0.2-0.2c-0.2-0.2-0.2-0.3-0.3-0.5c-0.3-0.6-0.5-1-0.6-1.5c-0.2-0.5-0.4-1-0.5-1.4l1.3-0.2l0,0 c-0.1,1.1-0.2,2.2-0.4,3.3c-0.1,0.6-0.2,1.1-0.5,1.7c-0.1,0.3-0.3,0.6-0.6,0.8c-0.1,0.1-0.3,0.3-0.5,0.4 c-0.2,0.1-0.4,0.2-0.5,0.2c-0.1,0-0.2,0.1-0.4,0c-0.1,0-0.2,0-0.3,0c-0.1,0-0.3-0.1-0.4-0.3c-0.1-0.2-0.1-0.3-0.1-0.4 c0-0.1,0-0.2,0-0.2c0-0.1,0.1-0.2,0.1-0.3c0.1-0.3,0.2-0.5,0.3-0.8c0.2-0.5,0.4-0.9,0.5-1.4c0.2-1,0-2.1-0.4-3 c0.7,0.9,1.1,1.9,1.1,3.1c0,0.6-0.1,1.2-0.2,1.7c-0.1,0.3-0.1,0.5-0.2,0.8c0,0,0,0.1,0,0.1c0,0,0,0,0,0c0-0.1,0-0.1-0.1-0.2 c-0.1-0.1-0.2-0.2-0.3-0.2c-0.1,0-0.1,0-0.1,0c0,0,0,0,0,0c0.2-0.1,0.3-0.1,0.4-0.2c0.1-0.1,0.2-0.3,0.3-0.5 c0.2-0.4,0.3-0.9,0.4-1.4c0.2-1,0.3-2.1,0.4-3.1l0,0l0.1-2.4l1.1,2.2c0.3,0.5,0.5,1,0.7,1.5c0.2,0.5,0.4,0.9,0.7,1.3 c0.1,0.1,0.1,0.2,0.1,0.2c0,0,0,0,0,0c0,0-0.1,0-0.1-0.1c-0.1,0-0.1-0.1-0.3-0.1c-0.1,0-0.2,0-0.3,0c0,0-0.1,0-0.1,0.1l0,0l0,0 l0,0c0.1-0.1-0.2,0.1-0.1,0.1l0,0l0,0l0,0c0.1-0.1,0.1-0.2,0.2-0.4c0.1-0.3,0.1-0.8,0.1-1.2c-0.1-0.9-0.4-1.9-0.7-2.8 c-0.3-0.9-0.7-1.9-1.2-2.8L171.4,140.2z"/></g></g><g id="Muzzle_1_"><path fill="#E6EFFC" d="M136.4,135.6c9.5-2.8,20.9-0.8,22.6-0.2c7,2.4-2.6,22-18.1,23.7c-7.3,0.8-12-0.7-16.4-8.3L136.4,135.6z" /><g><path fill="#9CBDDB" d="M136.4,135.6c0,0,0.3-0.1,0.8-0.4c0.3-0.1,0.6-0.3,1-0.4c0.4-0.1,0.9-0.3,1.4-0.5 c2.1-0.6,5.2-1.3,8.9-1.4c1.9,0,3.9,0.1,6,0.3c1.1,0.1,2.2,0.3,3.3,0.5c0.3,0.1,0.6,0.1,0.9,0.2c0.1,0,0.3,0.1,0.5,0.1l0.3,0.1 l0.1,0l0.2,0.1l0.1,0l0.4,0.2c0.1,0,0.4,0.2,0.5,0.3c0.4,0.3,0.7,0.6,0.9,0.9c1,1.3,1.2,2.9,1.1,4.2c-0.1,1.4-0.4,2.6-0.9,3.8 c-0.9,2.4-2.2,4.6-3.8,6.7c-3.2,4-7.4,7.2-11.9,8.9c-1.1,0.4-2.3,0.7-3.4,1c-0.6,0.1-1.1,0.2-1.7,0.3c-0.5,0-1,0.1-1.6,0.1 c-2.2,0.1-4.4,0-6.3-0.5c-2-0.6-3.6-1.5-4.9-2.6c-1.2-1.1-2.1-2.1-2.8-3.1c-0.7-0.9-1.1-1.7-1.4-2.2c-0.3-0.5-0.5-0.8-0.5-0.8 l2.3-1.3c0,0,0.1,0.3,0.4,0.7c0.3,0.5,0.7,1.1,1.3,2c0.6,0.8,1.4,1.7,2.4,2.6c1,0.9,2.3,1.6,3.9,2.1c1.6,0.5,3.4,0.6,5.4,0.4 c0.5,0,1-0.1,1.6-0.1c0.5-0.1,1-0.1,1.5-0.2c1-0.2,2-0.5,3-0.8c4-1.4,7.9-4.4,10.7-8c1.4-1.8,2.6-3.8,3.4-5.9 c0.4-1,0.6-2.1,0.7-3.1c0.1-1-0.1-1.9-0.5-2.4c-0.1-0.1-0.2-0.3-0.3-0.3c0,0,0,0-0.1-0.1c0,0,0,0-0.1-0.1l-0.4-0.2l-0.1,0l0,0 c0,0-0.1-0.1,0.1,0l0,0l-0.2,0c-0.1,0-0.2-0.1-0.3-0.1c-0.2-0.1-0.5-0.1-0.8-0.2c-1-0.2-2.1-0.4-3.1-0.5c-2-0.3-4-0.4-5.7-0.5 c-1.8-0.1-3.4-0.1-4.9-0.2c-1.5,0-2.7,0-3.8,0.1c-1,0-1.9,0.1-2.5,0.2C136.7,135.6,136.4,135.6,136.4,135.6z"/></g><g><path fill="#9CBDDB" d="M130.2,149.6c0,0-0.2,0.1-0.6,0.2c-0.3,0.1-0.8,0.2-1.4,0.3c-0.3,0.1-0.6,0.1-0.9,0.2 c-0.3,0.1-0.6,0.2-0.9,0.3c-0.3,0.1-0.6,0.2-1,0.4c-0.3,0.1-0.6,0.3-0.9,0.4c-1.3,0.6-2.4,1.5-3.2,2.2c-0.4,0.4-0.8,0.7-1.1,1 c-0.3,0.2-0.4,0.4-0.4,0.4s0-0.2,0.1-0.6c0-0.2,0.1-0.4,0.2-0.6c0.1-0.2,0.2-0.5,0.3-0.8c0.5-1.2,1.7-2.6,3.3-3.3 c0.4-0.2,0.8-0.3,1.2-0.5c0.4-0.1,0.8-0.2,1.2-0.2c0.4-0.1,0.8-0.1,1.2-0.1c0.4,0,0.7,0.1,1,0.1c0.6,0.1,1.1,0.3,1.5,0.4 C130,149.5,130.2,149.6,130.2,149.6z"/></g><g><path fill="#9CBDDB" d="M136.5,138.3c0,0,0.2,0,0.4,0c0.3,0,0.7,0.1,1.1,0.3c0.5,0.1,1,0.4,1.5,0.8c0.3,0.2,0.5,0.4,0.8,0.7 c0.1,0.1,0.3,0.3,0.4,0.4c0.1,0.2,0.2,0.3,0.3,0.5c0.1,0.2,0.1,0.4,0.1,0.6c0,0.2,0,0.5,0,0.7c-0.1,0.4-0.3,0.9-0.5,1.2 c-0.2,0.4-0.6,0.6-0.8,0.8c-0.3,0.2-0.6,0.3-0.8,0.4c-0.5,0.2-0.9,0.3-1.1,0.3c-0.3,0-0.4,0.1-0.4,0.1s0.1-0.1,0.3-0.2 c0.2-0.1,0.4-0.3,0.7-0.6c0.1-0.2,0.3-0.3,0.4-0.5c0.1-0.2,0.2-0.4,0.3-0.7c0.1-0.2,0.1-0.5,0.1-0.7c0-0.3,0-0.5-0.1-0.8 c-0.3-1-1-1.9-1.5-2.4C136.9,138.7,136.5,138.3,136.5,138.3z"/></g></g></g><g id="Side_Mane" clip-path="url(#SVGID_4_)"><path fill="#3DA9FF" d="M48.4,90.6c0.2,15.8,3.8,33.1,17.1,47.1c-15.2-5.4-20.7-12.3-25.6-21l17.3,16 c1.1,14.4,5.3,24.8,15.3,37.3c-14.3-1.7-22.3-11.9-27-22.3l17,18.8c1.9,26.9-10.1,42.9-24.4,59.9c4.4-45.3-29.4-74.3-20.1-115.3 l-9.5,12C8.7,87.4,26.1,61,48.1,40.9L48.4,90.6z"/><path fill="#94D4FF" d="M40.6,62.9c-9.5,10.7-14.7,27.5-15.1,45.2l5.8-7.9c-8.3,35.2,23.7,70.1,23.1,103.4 c6-10.9,11.2-21.9,8.9-35.6l6.3,0.2c-8-11.3-10.4-23.2-13.5-35.1l5.5,1.7c-7.4-12.7-14.6-25.4-13.7-40.3L40.6,62.9z"/><g><path fill="#2864BC" d="M49.7,90.6l0.1,3.2c0.1,1,0.1,2.1,0.2,3.1c0.1,1,0.2,2.1,0.3,3.1c0.1,1,0.2,2.1,0.4,3.1 c0.2,1,0.3,2.1,0.5,3.1c0.2,1,0.4,2.1,0.7,3.1c0.3,1,0.5,2,0.8,3c0.3,1,0.6,2,0.9,3c0.3,1,0.7,2,1.1,2.9c0.4,1,0.8,1.9,1.2,2.9 c0.4,0.9,0.9,1.9,1.4,2.8c0.5,0.9,1,1.9,1.5,2.7c0.6,0.9,1.1,1.8,1.7,2.6c0.6,0.8,1.2,1.7,1.8,2.6c0.7,0.8,1.3,1.7,2,2.4 l2.1,2.3l3,3.3l-4.2-1.1l0,0l-2.2-0.6l-2.1-0.7l-2.1-0.8l-2.1-0.9l-2-1c-0.7-0.4-1.3-0.7-1.9-1.1l-1.8-1.3 c-0.6-0.5-1.2-0.9-1.7-1.4c-0.5-0.5-1.1-1-1.6-1.5c-0.5-0.5-1-1.1-1.5-1.6c-0.5-0.6-0.9-1.1-1.4-1.7c-0.4-0.6-0.9-1.2-1.2-1.8 c-0.4-0.6-0.8-1.2-1.1-1.9c-0.3-0.7-0.7-1.3-1-2c-0.3-0.7-0.6-1.3-0.8-2l-0.7-2.1l1,1.9l1.1,1.8c0.4,0.6,0.8,1.2,1.2,1.7 c0.4,0.6,0.9,1.1,1.3,1.7c0.4,0.5,0.9,1.1,1.4,1.6c0.5,0.5,1,1,1.5,1.5c0.5,0.5,1,0.9,1.6,1.4c0.5,0.4,1.1,0.9,1.7,1.3l1.7,1.2 l1.8,1.1c0.6,0.3,1.2,0.6,1.8,1l1.9,0.9l1.9,0.8l2,0.7l2,0.6l2,0.5l0,0l-1.3,2.2l-2.2-2.5c-0.7-0.8-1.4-1.7-2.1-2.6 c-0.7-0.9-1.3-1.8-1.9-2.7c-0.7-0.9-1.2-1.8-1.8-2.8c-0.6-0.9-1.1-1.9-1.6-2.9c-0.5-1-1-2-1.4-2.9c-0.5-1-0.9-2-1.3-3 c-0.4-1-0.8-2-1.1-3.1c-0.4-1-0.7-2.1-1-3.1c-0.3-1-0.6-2.1-0.8-3.2c-0.3-1.1-0.5-2.1-0.7-3.2c-0.2-1.1-0.4-2.1-0.6-3.2 c-0.2-1.1-0.3-2.2-0.4-3.2c-0.1-1.1-0.2-2.2-0.3-3.2c-0.1-1.1-0.1-2.2-0.2-3.3l-0.1-3.2L49.7,90.6z"/></g><path fill="none" stroke="#2864BC" stroke-width="2.6826" stroke-miterlimit="100" d="M62.4,166.6c1.9,26.9-7.6,45.5-24.4,59.9 c4.4-45.3-29.4-74.3-20.1-115.3l-9.5,12C8.7,87.4,26.1,61,48.1,40.9"/><g><path fill="#2864BC" d="M59.5,134.3c0.2,1.6,0.4,3.2,0.6,4.8c0.2,1.6,0.5,3.2,0.8,4.7l0.5,2.3c0.2,0.8,0.4,1.5,0.6,2.3 c0.2,0.8,0.4,1.5,0.7,2.3c0.3,0.7,0.5,1.5,0.8,2.2c0.6,1.5,1.2,2.9,1.9,4.3c0.4,0.7,0.7,1.4,1.1,2.1c0.4,0.7,0.8,1.4,1.2,2 c0.4,0.7,0.8,1.4,1.3,2c0.4,0.7,0.9,1.3,1.4,2c0.5,0.6,0.9,1.3,1.4,1.9l1.5,1.9l0,0l2.1,2.7l-3.3-0.5l-2.4-0.4 c-0.8-0.1-1.6-0.4-2.3-0.5c-0.8-0.2-1.5-0.5-2.3-0.7c-0.8-0.2-1.5-0.6-2.2-0.9c-0.7-0.3-1.4-0.7-2.1-1.1c-0.7-0.4-1.4-0.8-2-1.3 c-0.7-0.4-1.3-0.9-1.9-1.4c-0.6-0.5-1.2-1-1.8-1.6c-0.6-0.5-1.1-1.1-1.7-1.7c-0.6-0.6-1-1.2-1.5-1.8c-0.5-0.6-0.9-1.3-1.4-1.9 c-0.5-0.6-0.9-1.3-1.3-2c-0.4-0.7-0.8-1.4-1.2-2c-0.4-0.7-0.7-1.4-1.1-2.1c-0.7-1.4-1.2-2.8-1.8-4.3l1.1,2l1.2,1.9 c0.4,0.6,0.8,1.3,1.3,1.9c0.5,0.6,0.9,1.2,1.3,1.8c0.5,0.6,0.9,1.2,1.4,1.8c0.5,0.6,1,1.2,1.5,1.7c0.5,0.5,1,1.1,1.6,1.6 c0.6,0.5,1.1,1,1.7,1.5c0.6,0.5,1.1,0.9,1.8,1.3c0.6,0.4,1.2,0.9,1.9,1.2c0.6,0.4,1.3,0.8,1.9,1.1c0.7,0.3,1.3,0.7,2,0.9 c0.7,0.3,1.3,0.6,2.1,0.8c0.7,0.2,1.4,0.5,2.1,0.6c0.7,0.2,1.4,0.4,2.1,0.5l2.2,0.3l-1.2,2.2l0,0l-1.5-1.9c-0.5-0.6-1-1.3-1.5-2 c-0.5-0.7-0.9-1.4-1.4-2c-0.5-0.7-0.9-1.4-1.3-2.1c-0.4-0.7-0.9-1.4-1.3-2.1c-0.4-0.7-0.8-1.5-1.2-2.2c-0.8-1.5-1.4-3-2-4.5 c-0.3-0.8-0.6-1.6-0.9-2.3c-0.3-0.8-0.5-1.6-0.7-2.4c-0.2-0.8-0.4-1.6-0.6-2.4l-0.5-2.4c-0.3-1.6-0.6-3.2-0.9-4.9 c-0.2-1.6-0.5-3.2-0.7-4.9L59.5,134.3z"/></g></g><g id="Mane_Below_Horn" clip-path="url(#SVGID_4_)"><path fill="#3DA9FF" d="M65.7,31.8c10.2-16.2,31.9-26.5,49.1-26l-8.1,12.8l-9,2.4c41.7-14.1,79.9-0.4,87.3,48.9 c-11.1-13.3-25.3-23.8-42.5-23.3l-69.6-6.1L65.7,31.8z"/><g><path fill="#2864BC" d="M64.6,31l2-3l2.4-2.9l2.5-2.7l2.7-2.5l2.9-2.3c1-0.7,2-1.4,3-2.2c1-0.7,2.1-1.3,3.1-2 c1-0.6,2.1-1.2,3.2-1.8c1.1-0.6,2.2-1.1,3.3-1.6c1.1-0.5,2.3-1,3.4-1.4c1.1-0.5,2.3-0.8,3.5-1.2c1.2-0.4,2.4-0.7,3.5-1 c1.2-0.4,2.4-0.6,3.6-0.8c1.2-0.3,2.4-0.4,3.7-0.6c1.2-0.2,2.5-0.2,3.7-0.4c1.2-0.1,2.5,0,3.7-0.1l2.4,0l-1.3,2.1l-4,6.6l-2,3.3 l-0.5,0.8c-0.1,0.1-0.2,0.3-0.2,0.4c0,0.1,0,0.2-0.1,0.2c-0.1,0.1-0.2,0.1-0.2,0.1c-0.3,0.2-0.6,0.4-1,0.5 c-0.3,0.2-0.7,0.3-1.1,0.5l-1.1-0.7L113.6,5l1.1,2c-1.2,0-2.3,0-3.5,0.1c-1.2,0.1-2.3,0.2-3.5,0.3c-1.2,0.2-2.3,0.3-3.5,0.6 c-1.1,0.3-2.3,0.5-3.4,0.8c-1.1,0.3-2.3,0.6-3.4,1c-1.1,0.4-2.2,0.7-3.3,1.2c-1.1,0.5-2.2,0.9-3.3,1.4c-1.1,0.5-2.1,1-3.2,1.6 c-1,0.6-2.1,1.1-3.1,1.7c-1,0.6-2,1.2-3,1.9c-1,0.7-1.9,1.4-2.9,2.1L76,21.9l-2.6,2.4L71,26.9l-2.2,2.7l-2,3L64.6,31z"/></g><g><path fill="#2864BC" d="M142.4,45.1l3.1,0l3.3,0.3L152,46l3.1,0.8c1,0.3,2.1,0.7,3.1,1c1,0.4,2,0.8,3,1.2c1,0.5,1.9,0.9,2.9,1.4 c0.9,0.5,1.9,1,2.8,1.6c0.9,0.6,1.8,1.1,2.7,1.7c0.9,0.6,1.8,1.2,2.6,1.9c0.8,0.7,1.7,1.3,2.5,2c0.8,0.7,1.6,1.4,2.4,2.1 c0.8,0.7,1.6,1.5,2.3,2.2l2.2,2.3l2.2,2.3l2.1,2.4l0,0l-2.4,1.1c-0.4-2.4-0.8-4.8-1.4-7.1c-0.1-0.6-0.3-1.2-0.4-1.8l-0.5-1.7 c-0.3-1.2-0.6-2.3-1-3.5c-0.7-2.3-1.6-4.5-2.5-6.7c-0.5-1.1-1-2.2-1.5-3.3c-0.6-1.1-1.1-2.1-1.7-3.2c-0.6-1-1.2-2.1-1.9-3 c-0.7-1-1.3-2-2.1-2.9c-1.5-1.9-3-3.7-4.8-5.3c-0.9-0.8-1.7-1.7-2.6-2.4l-1.4-1.1l-1.4-1.1c-0.5-0.3-1-0.7-1.5-1l-1.5-1 c-1-0.7-2.1-1.2-3.1-1.8c-1-0.6-2.2-1-3.2-1.5c-1.1-0.5-2.2-0.9-3.3-1.3c-1.1-0.4-2.3-0.7-3.4-1.1c-1.2-0.3-2.3-0.6-3.5-0.8 c-2.3-0.5-4.7-0.9-7.1-1.1c-1.2-0.1-2.4-0.2-3.6-0.2c-1.2,0-2.4-0.1-3.6,0c-1.2,0-2.4,0.1-3.6,0.1c-1.2,0-2.4,0.1-3.6,0.2 c-2.4,0.2-4.8,0.5-7.2,0.8c-2.4,0.3-4.8,0.7-7.2,1.2c-2.4,0.5-4.8,1-7.2,1.6l3.4-1.4c1.1-0.4,2.3-0.8,3.5-1.3 c2.3-0.7,4.7-1.5,7.1-2c1.2-0.3,2.4-0.5,3.6-0.8c1.2-0.3,2.4-0.4,3.7-0.6c1.2-0.2,2.5-0.3,3.7-0.4c1.2-0.1,2.5-0.1,3.7-0.2 c1.2,0,2.5,0,3.7,0c1.2,0,2.5,0.1,3.7,0.2c2.5,0.2,5,0.6,7.4,1.1c1.2,0.2,2.4,0.6,3.7,0.9c1.2,0.3,2.4,0.7,3.6,1.1 c1.2,0.5,2.4,0.9,3.5,1.4c1.1,0.5,2.3,1,3.4,1.6c1.1,0.6,2.2,1.2,3.3,1.9l1.6,1c0.5,0.3,1,0.7,1.5,1.1l1.5,1.1l1.5,1.2 c1,0.8,1.9,1.7,2.8,2.5c1.8,1.7,3.5,3.6,5,5.6c0.8,1,1.5,2,2.2,3.1c0.7,1,1.3,2.1,2,3.2c0.6,1.1,1.2,2.2,1.8,3.3 c0.6,1.1,1.1,2.3,1.6,3.4c1,2.3,1.9,4.6,2.6,7c0.4,1.2,0.7,2.4,1.1,3.6l0.5,1.8c0.2,0.6,0.3,1.2,0.4,1.8c0.6,2.4,1,4.9,1.4,7.3 l0.8,4.7l-3.2-3.7l0,0l-2-2.3l-2.1-2.3l-2.2-2.2c-0.7-0.7-1.5-1.4-2.2-2.1c-0.8-0.7-1.6-1.4-2.3-2c-0.8-0.7-1.6-1.3-2.4-1.9 c-0.8-0.6-1.7-1.2-2.5-1.8c-0.8-0.6-1.7-1.1-2.6-1.7c-0.9-0.5-1.8-1-2.7-1.5c-0.9-0.5-1.8-0.9-2.7-1.3c-0.9-0.4-1.9-0.8-2.8-1.2 l-2.9-0.9l-3-0.7l-3-0.5l-3-0.3l-3.1,0L142.4,45.1z"/></g></g><g id="Horn_1_" clip-path="url(#SVGID_4_)"><path fill="#E6EFFC" d="M126.8,56.4c-0.2,11.8,12.9,12.7,14.6,10.6c8.5-10.7,18.9-49.4,14.9-51.2c-3.2-1.5-17.8,17.5-27.4,32.9" /><g><path fill="#9CBDDB" d="M126.8,56.4c0,0,0.1,0.5,0.3,1.3c0.2,0.8,0.6,2.1,1.3,3.4c0.7,1.3,1.9,2.7,3.7,3.8 c1.7,1,4.1,1.8,6.6,1.7c0.6,0,1.2-0.1,1.6-0.3c0.1,0,0.2-0.1,0.2-0.1c0,0,0,0.1,0,0l0.2-0.2c0.2-0.3,0.4-0.6,0.6-0.8 c0.8-1.2,1.6-2.5,2.3-3.9c1.4-2.8,2.7-5.9,4-9.1c2.5-6.5,4.7-13.6,6.4-20.8c0.8-3.6,1.6-7.2,1.9-10.8c0.1-0.9,0.1-1.7,0-2.5 c0-0.4-0.1-0.8-0.2-1c0-0.1-0.1-0.2-0.1-0.1c0,0,0.1,0.1,0.2,0.1c0,0,0.2,0.1,0.1,0l0,0l-0.1,0c0,0,0.1,0,0.1,0 c0.1,0-0.3,0.1-0.5,0.2c-0.3,0.2-0.6,0.4-0.9,0.6c-0.6,0.5-1.3,1-1.9,1.6c-2.4,2.3-4.6,4.9-6.6,7.4c-2,2.5-3.9,4.8-5.5,7.1 c-3.3,4.5-6,8.3-7.8,11c-1.8,2.7-2.8,4.3-2.8,4.3l-1.8-1.1c0,0,1-1.6,2.8-4.3c1.8-2.7,4.4-6.7,7.7-11.2c1.6-2.3,3.5-4.7,5.5-7.3 c2-2.5,4.2-5.2,6.8-7.7c0.7-0.6,1.3-1.2,2.1-1.8c0.4-0.3,0.8-0.6,1.3-0.8c0.5-0.2,1-0.6,2-0.5c0.2,0,0.4,0.1,0.5,0.1l0.1,0l0,0 c-0.1,0,0.2,0.1,0.2,0.1c0.3,0.1,0.5,0.3,0.7,0.5c0.3,0.4,0.5,0.7,0.6,1.1c0.2,0.6,0.3,1.2,0.3,1.7c0.1,1,0,2,0,2.9 c-0.3,3.8-1.1,7.5-1.9,11.2c-0.9,3.7-1.9,7.3-3,10.8c-1.1,3.5-2.3,7-3.6,10.3c-1.3,3.3-2.7,6.4-4.2,9.3 c-0.8,1.4-1.6,2.8-2.5,4.1c-0.2,0.3-0.4,0.6-0.7,1l-0.2,0.2c0,0.1-0.2,0.3-0.3,0.4c-0.3,0.2-0.5,0.4-0.8,0.5 c-1,0.4-1.8,0.5-2.6,0.5c-3.2,0.1-5.9-0.9-7.9-2.3c-2.1-1.4-3.3-3.4-3.8-5.1c-0.5-1.7-0.5-3.1-0.4-3.9c0-0.4,0.1-0.8,0.1-1 C126.8,56.5,126.8,56.4,126.8,56.4z"/></g><path fill="none" stroke="#9CBDDB" stroke-width="2.0122" d="M147.2,22.8c-0.4,5,2.9,10.4,7.7,10.8"/><path fill="none" stroke="#9CBDDB" stroke-width="2.0122" d="M141.1,30.8c-0.4,5,3.3,12.6,10,14.1"/></g><g id="Mane_Above_Horn" clip-path="url(#SVGID_4_)"><path id="path7855" fill="#3DA9FF" d="M70.6,46.9c3.6,11.7,15.4,26.6,32.7,33.9c-4.7-7.1-7.5-15.6-5.8-26.5l-1,11.7 c35,6,62,22.5,81.2,55.5c2.6-58.4-24.7-83.6-58.8-86.9L70.6,46.9z"/><g id="path7641"><path fill="#2864BC" d="M74.5,51.2c0.3,0.8,0.6,1.7,0.9,2.5c0.3,0.8,0.6,1.6,1,2.4c0.4,0.8,0.8,1.6,1.2,2.3 c0.4,0.8,0.9,1.5,1.4,2.2c0.5,0.7,1,1.4,1.5,2.1c0.5,0.7,1.1,1.4,1.6,2c0.6,0.7,1.2,1.3,1.8,1.9c0.6,0.6,1.3,1.2,1.9,1.8 c0.7,0.6,1.3,1.1,2,1.7c0.7,0.5,1.4,1.1,2.1,1.6c0.7,0.5,1.4,1,2.2,1.5c0.7,0.5,1.5,0.9,2.2,1.4c0.7,0.5,1.5,0.9,2.3,1.3 c0.8,0.4,1.5,0.9,2.3,1.2c0.8,0.4,1.6,0.8,2.4,1.2l2.4,1.1l-1.6,2c-0.3-0.5-0.7-1-1-1.5c-0.3-0.5-0.6-1-0.9-1.6 c-0.3-0.5-0.6-1.1-0.8-1.6c-0.2-0.5-0.5-1.1-0.7-1.6c-0.5-1.1-0.9-2.2-1.2-3.4c-0.2-0.6-0.3-1.1-0.5-1.7 c-0.1-0.6-0.3-1.2-0.3-1.8c-0.2-1.2-0.3-2.4-0.4-3.5c0-0.6-0.1-1.2-0.1-1.8c0-0.6,0-1.2,0-1.8c0-0.6,0.1-1.2,0.1-1.8 c0.1-0.6,0.1-1.2,0.2-1.7c0.2-1.2,0.4-2.3,0.7-3.4l-0.1,1.7c0,0.6,0,1.2,0,1.7c0,0.6,0,1.2,0,1.7c0,0.6,0.1,1.1,0.1,1.7 c0,0.6,0.1,1.1,0.2,1.7c0.1,0.6,0.1,1.1,0.3,1.7c0.1,0.6,0.2,1.1,0.3,1.7c0.1,0.6,0.2,1.1,0.4,1.6c0.1,0.5,0.3,1.1,0.5,1.6 c0.2,0.5,0.3,1.1,0.5,1.6c0.4,1.1,0.8,2.1,1.3,3.1c0.2,0.5,0.5,1,0.7,1.5c0.2,0.5,0.5,1,0.8,1.5c0.6,1,1.2,1.9,1.8,2.9l2.4,3.8 l-4.1-1.8l-2.5-1.1c-0.8-0.4-1.6-0.8-2.5-1.2c-0.8-0.4-1.6-0.8-2.4-1.3c-0.8-0.4-1.6-0.9-2.4-1.4c-0.8-0.5-1.6-0.9-2.3-1.5 c-0.8-0.5-1.5-1-2.3-1.6c-0.7-0.6-1.5-1.1-2.2-1.7c-0.7-0.6-1.4-1.2-2.1-1.8c-0.7-0.6-1.4-1.3-2-1.9c-0.6-0.7-1.3-1.3-1.9-2 c-0.6-0.7-1.2-1.4-1.8-2.2c-0.5-0.8-1.1-1.5-1.6-2.3c-0.5-0.8-1-1.6-1.5-2.4c-0.5-0.8-0.9-1.6-1.3-2.5c-0.4-0.8-0.8-1.7-1.1-2.6 c-0.4-0.9-0.6-1.7-0.9-2.6L74.5,51.2z"/></g><path id="path7812" fill="#94D4FF" d="M177.4,119.7c-7.7-26.8-27.7-57.2-47.3-63.2l2.5,10.6c-8.5-10.2-18.9-18.8-35.4-20.5 l4.4,6.8c-10-5.5-21.2-3.4-30.5,0.7l-1.4-12.1C135.8,17.7,182.6,52.3,177.4,119.7z"/><g id="path7639"><path fill="#2864BC" d="M97.6,64.9l6.2,1.2l6.2,1.5c2.1,0.6,4.1,1.2,6.1,1.8c2,0.7,4,1.4,6,2.1l5.9,2.4c1.9,0.9,3.9,1.8,5.8,2.8 c1.9,1,3.8,2,5.6,3.1c1.8,1.2,3.6,2.2,5.4,3.5l2.6,1.9c0.9,0.6,1.7,1.2,2.6,1.9l2.5,2l1.2,1c0.4,0.3,0.8,0.7,1.2,1.1l2.4,2.2 l1.2,1.1l1.1,1.2l2.2,2.3l1.1,1.2l1,1.2l2.1,2.4l1,1.2l1,1.3l1.9,2.5c0.6,0.8,1.3,1.7,1.9,2.6c1.2,1.8,2.4,3.5,3.6,5.3l3.3,5.4 l-2.5,0.6l0,0c0-2.4,0.2-4.9,0.1-7.3c0-1.2,0-2.4,0-3.6l-0.1-3.6c0-1.2-0.2-2.4-0.2-3.6c-0.1-1.2-0.2-2.4-0.3-3.6 c-0.1-1.2-0.2-2.4-0.4-3.6l-0.5-3.6c-0.4-2.4-0.9-4.8-1.5-7.1c-0.3-1.2-0.6-2.3-0.9-3.5c-0.3-1.2-0.7-2.3-1.1-3.5l-0.6-1.7 l-0.6-1.7l-0.6-1.7c-0.2-0.6-0.5-1.1-0.7-1.7c-0.5-1.1-1-2.2-1.5-3.3l-0.8-1.6l-0.9-1.6l-0.9-1.6l-1-1.5c-0.6-1-1.3-2-2-3 c-1.4-1.9-3-3.8-4.6-5.5c-0.8-0.9-1.7-1.7-2.5-2.5c-0.9-0.8-1.8-1.6-2.7-2.4c-0.9-0.7-1.8-1.5-2.8-2.2l-1.5-1.1l-1.5-1 c-2-1.3-4.1-2.4-6.3-3.5c-2.2-1-4.4-2-6.7-2.8c-1.1-0.4-2.3-0.8-3.5-1.1c-1.2-0.4-2.3-0.7-3.5-1c-2.4-0.6-4.8-1.1-7.2-1.5 c2.5,0.1,4.9,0.3,7.4,0.6c1.2,0.2,2.4,0.4,3.7,0.6c1.2,0.2,2.4,0.5,3.6,0.9c1.2,0.3,2.4,0.7,3.6,1.1c1.2,0.4,2.3,0.9,3.5,1.3 c2.3,1,4.5,2.1,6.7,3.4l1.6,1l1.6,1c1.1,0.7,2,1.5,3,2.2c1,0.8,1.9,1.6,2.9,2.4c0.9,0.9,1.8,1.7,2.7,2.6 c1.7,1.8,3.3,3.7,4.8,5.8c0.7,1,1.5,2,2.1,3.1l1,1.6l0.9,1.6l0.9,1.6l0.8,1.7c0.6,1.1,1.1,2.2,1.6,3.4c0.2,0.6,0.5,1.1,0.7,1.7 l0.7,1.7l0.7,1.7l0.6,1.8c0.4,1.2,0.8,2.4,1.1,3.6c0.3,1.2,0.7,2.4,1,3.6c0.6,2.4,1.1,4.8,1.5,7.3l0.5,3.7 c0.2,1.2,0.3,2.5,0.4,3.7c0.2,1.2,0.2,2.5,0.3,3.7c0.1,1.2,0.2,2.5,0.2,3.7l0.1,3.7c0,1.2,0,2.5,0,3.7c0,2.5-0.1,4.9-0.2,7.4 l0,0l-0.1,4.5l-2.4-3.9l-3.3-5.3c-1.1-1.8-2.3-3.5-3.5-5.2c-0.6-0.9-1.2-1.7-1.8-2.5l-1.9-2.5l-1-1.2l-1-1.2l-2-2.4l-1-1.2 l-1.1-1.1l-2.2-2.2l-1.1-1.1l-1.1-1.1l-2.3-2.1c-0.4-0.3-0.8-0.7-1.2-1l-1.2-1l-2.4-2c-0.8-0.7-1.6-1.3-2.5-1.9l-2.5-1.8 c-1.7-1.2-3.5-2.2-5.2-3.4c-1.8-1.1-3.6-2-5.4-3c-1.9-0.9-3.7-1.8-5.6-2.7l-5.8-2.3c-2-0.7-3.9-1.4-5.9-2c-2-0.6-4-1.2-6-1.7 l-6.1-1.4l-6.2-1.2L97.6,64.9z"/></g></g><g id="Ear_2_" clip-path="url(#SVGID_4_)"><path fill="#E6EFFC" d="M74.7,60.8c2-33-15.9-46.4-20.8-39.9c-17,22.5-27,56.7-1.9,76.4C52.1,97.3,59.5,73.2,74.7,60.8z"/><path fill="#C3CFE0" d="M53.9,76.2c-1.4-11-0.9-34.4,2.9-39.9s6.9-5.3,8.4,4.2c0.5,3.7,1.8,13.1,1.8,18.9 C62.4,61.1,56.2,70.2,53.9,76.2z"/><g><path fill="#9CBDDB" d="M52.2,97.2c0,0-0.5-0.2-1.4-0.8c-0.9-0.5-2.1-1.3-3.6-2.5c-1.5-1.2-3.2-2.8-4.9-4.9 c-1.6-2.1-3.2-4.8-4.5-7.8c-1.3-3.1-2.2-6.5-2.7-10.3c-0.5-3.8-0.5-7.8-0.1-11.8c0.8-8.2,3.4-16.6,7.3-24.4 c2-3.9,4.3-7.6,7.2-10.9c0.7-0.8,1.5-1.6,2.4-2.3c0.9-0.7,1.8-1.4,3.1-1.8l0.2-0.1l0.3-0.1l0.4-0.1c0.2-0.1,0.6-0.1,0.9-0.1 c0.3,0,0.6,0,0.9,0c0.3,0,0.6,0,0.9,0.1c1.2,0.2,2.3,0.5,3.3,1.1c2,1.1,3.6,2.6,4.8,4.2c1.3,1.6,2.3,3.3,3.2,5 c1.7,3.4,2.8,6.8,3.6,10c0.8,3.2,1.3,6.1,1.6,8.7c0.3,2.6,0.3,4.9,0.3,6.8c-0.1,1.9-0.2,3.4-0.4,4.4c-0.2,1-0.3,1.5-0.3,1.5 s-0.1-0.5-0.3-1.5c-0.2-1-0.5-2.5-0.7-4.3c-0.3-1.8-0.6-4.1-1-6.6c-0.4-2.5-0.8-5.4-1.6-8.4c-0.8-3-1.9-6.3-3.5-9.4 c-0.8-1.6-1.8-3.1-2.9-4.5c-1.1-1.4-2.5-2.7-4-3.5c-0.8-0.4-1.6-0.7-2.4-0.8c-0.2,0-0.4,0-0.6-0.1c-0.2,0-0.4,0-0.6,0 c-0.2,0-0.4,0-0.6,0.1L56,22.1l-0.1,0l0,0c0,0-0.1,0,0,0l-0.1,0c-0.7,0.2-1.5,0.7-2.2,1.3c-0.7,0.6-1.4,1.3-2.1,2.1 c-2.7,3-4.9,6.6-6.8,10.3c-3.8,7.5-6.2,15.7-7,23.4c-0.4,3.9-0.4,7.7,0.1,11.2c0.5,3.5,1.3,6.8,2.5,9.7c1.1,2.9,2.6,5.3,4,7.4 c1.4,2.1,2.7,3.9,4,5.3c1.2,1.4,2.2,2.5,2.9,3.2C51.8,96.8,52.2,97.2,52.2,97.2z"/></g><g><path fill="#9CBDDB" d="M53.9,76.2c0,0-0.2-0.8-0.7-2.3c-0.2-0.7-0.4-1.7-0.6-2.7c-0.2-1.1-0.4-2.3-0.6-3.6 c-0.2-1.3-0.3-2.7-0.4-4.3c-0.1-1.5-0.1-3.1-0.1-4.8c0-0.8,0.1-1.7,0.1-2.5c0-0.9,0.1-1.7,0.2-2.6c0.1-0.9,0.2-1.7,0.3-2.6 c0.1-0.9,0.2-1.8,0.4-2.6c0.1-0.9,0.3-1.7,0.5-2.6c0.2-0.9,0.4-1.7,0.6-2.6c0.4-1.7,0.9-3.3,1.5-4.9c0.3-0.8,0.6-1.6,0.9-2.3 c0.3-0.8,0.7-1.6,1.2-2.3c0.5-0.7,1.2-1.3,2-1.8c0.9-0.4,2.1-0.4,2.8,0.1c0.8,0.5,1.2,1.1,1.5,1.7c0.3,0.6,0.5,1.2,0.7,1.7 c0.3,1.1,0.5,2,0.6,2.8c0.1,0.8,0.2,1.4,0.2,1.8c0,0.4,0,0.6,0,0.6s-0.1-0.2-0.2-0.6c-0.1-0.4-0.3-1-0.5-1.7 c-0.2-0.7-0.5-1.6-1-2.5c-0.5-0.9-1.1-2-2-2.4c-0.5-0.2-0.9-0.1-1.3,0.1c-0.5,0.3-0.9,0.7-1.3,1.2c-0.4,0.5-0.7,1.2-0.9,1.9 c-0.3,0.7-0.6,1.5-0.8,2.2c-0.5,1.5-1,3.1-1.4,4.8c-0.2,0.8-0.4,1.7-0.6,2.5c-0.2,0.8-0.4,1.7-0.5,2.5c-0.2,0.8-0.3,1.7-0.4,2.5 c-0.1,0.8-0.3,1.7-0.3,2.5c-0.1,0.8-0.2,1.7-0.3,2.5c-0.1,0.8-0.1,1.7-0.2,2.5c-0.1,1.6-0.2,3.2-0.2,4.7c0,0.7,0,1.5,0,2.2 c0,0.7,0,1.4,0,2c0,1.3,0.1,2.5,0.1,3.6c0.1,1,0.1,2,0.2,2.7C53.8,75.3,53.9,76.2,53.9,76.2z"/></g></g></g></g><path d="M176,3c11.6,0,21,9.4,21,21v152c0,11.6-9.4,21-21,21H24c-11.6,0-21-9.4-21-21V24C3,12.4,12.4,3,24,3H176 M176,0H24 C10.7,0,0,10.7,0,24v152c0,13.3,10.7,24,24,24h152c13.3,0,24-10.7,24-24V24C200,10.7,189.3,0,176,0L176,0z"/></svg>
