<svg version="1.1" xmlns="http://www.w3.org/2000/svg" xmlns:xlink="http://www.w3.org/1999/xlink" x="0px" y="0px"  viewBox="0 0 200 200" enable-background="new 0 0 200 200" xml:space="preserve"><g id="Fill"><path fill="#FFFFFF" d="M200,176c0,13.3-10.7,24-24,24H24c-13.3,0-24-10.7-24-24V24C0,10.7,10.7,0,24,0h152c13.3,0,24,10.7,24,24 V176z"/></g><g><defs><path id="SVGID_1_" d="M200,176c0,13.3-10.7,24-24,24H24c-13.3,0-24-10.7-24-24V24C0,10.7,10.7,0,24,0h152c13.3,0,24,10.7,24,24 V176z"/></defs><clipPath id="SVGID_2_"><use xlink:href="#SVGID_1_"  overflow="visible"/></clipPath><g id="BG_1_" opacity="0.5" clip-path="url(#SVGID_2_)"><g><g id="Vertical_5_"><line fill="none" stroke="#A5A5A5" stroke-width="2" x1="132" y1="200" x2="132" y2="0"/><line fill="none" stroke="#A5A5A5" stroke-width="2" x1="100" y1="200" x2="100" y2="0"/><line fill="none" stroke="#A5A5A5" stroke-width="2" x1="68" y1="200" x2="68" y2="0"/><line fill="none" stroke="#A5A5A5" stroke-width="2" x1="36" y1="200" x2="36" y2="0"/><line fill="none" stroke="#A5A5A5" stroke-width="2" x1="164" y1="200" x2="164" y2="0"/></g><g id="Horizontal_5_"><line fill="none" stroke="#A5A5A5" stroke-width="2" x1="0" y1="132" x2="200" y2="132"/><line fill="none" stroke="#A5A5A5" stroke-width="2" x1="0" y1="100" x2="200" y2="100"/><line fill="none" stroke="#A5A5A5" stroke-width="2" x1="0" y1="68" x2="200" y2="68"/><line fill="none" stroke="#A5A5A5" stroke-width="2" x1="0" y1="36" x2="200" y2="36"/><line fill="none" stroke="#A5A5A5" stroke-width="2" x1="0" y1="164" x2="200" y2="164"/></g></g></g><g clip-path="url(#SVGID_2_)"><defs><rect id="SVGID_3_" x="3.8" y="3.8" width="196.2" height="196.2"/></defs><clipPath id="SVGID_4_"><use xlink:href="#SVGID_3_"  overflow="visible"/></clipPath><g id="Far_Crest_1_" clip-path="url(#SVGID_4_)"><g><path fill="#2864BC" d="M118.5,143.5c0,0-0.4-0.1-1-0.4c-0.3-0.1-0.6-0.3-0.8-0.6c-0.3-0.2-0.5-0.5-0.7-0.8 c-0.2-0.3-0.5-0.7-0.8-1c-0.3-0.4-0.6-0.7-0.9-1.1c-0.7-0.7-1.5-1.5-2.3-2.1c-0.4-0.3-0.9-0.7-1.3-1c-0.4-0.3-0.9-0.6-1.3-0.8 c-0.9-0.5-1.8-0.9-2.5-1.3c-0.4-0.2-0.7-0.3-1-0.5c-0.3-0.2-0.5-0.5-0.7-0.8c-0.3-0.5-0.5-1-0.5-1s0.4-0.3,1-0.4 c0.3-0.1,0.7-0.1,1-0.1c0.4,0.1,0.7,0.3,1.2,0.4c0.8,0.3,1.8,0.8,2.8,1.3c0.5,0.3,1,0.6,1.5,0.9c0.5,0.3,1,0.7,1.5,1.1 c0.5,0.4,0.9,0.8,1.4,1.2c0.4,0.4,0.8,0.8,1.2,1.3c0.4,0.4,0.7,0.8,1,1.3c0.3,0.4,0.6,0.8,0.9,1.2c0.3,0.4,0.5,0.8,0.6,1.1 c0.1,0.4,0.1,0.7,0.1,1C118.6,143.1,118.5,143.5,118.5,143.5z"/></g><g><path fill="none" d="M98.4,153.6"/></g><path fill="none" stroke="#2864BC" stroke-width="2.676" stroke-miterlimit="20" d="M112.6,136.3c6.7,2.1,10.5,5.3,13.1,14.6 c4.3-7.2,2.1-20-16.3-39.8c-9.8-10.6-15.8-15.8-14.5-35"/></g><path id="Body_2_" clip-path="url(#SVGID_4_)" fill="#E6EFFC" stroke="#9CBDDB" stroke-width="2.6758" d="M39.8,203.9 c0.8-5.5,1.3-11.2,2.1-16.9l8.3-27.8l38.8-1.2l10.3,8.5c-2.1,4.2-2.8,13.1-3.7,23.2c-0.4,4.2-0.5,8.8-0.5,13.5"/><g id="Head_1_" clip-path="url(#SVGID_4_)"><g id="face_2_"><g><path fill="#E6EFFC" d="M42.5,184.4c2.3-18.8,3.6-36.6-3.9-77.3c-6.3-33.8,23.7-63.9,58-66.2c34.3-2.3,65.8,23.6,66.2,58 c0.5,34.5-14.2,41.5-33.5,48.5"/><g><path fill="#9CBDDB" d="M40.6,187c0,0,0.2-1.3,0.4-3.8c0.3-2.5,0.7-6.1,1-10.8c0.3-4.6,0.6-10.3,0.5-16.8 c-0.1-6.5-0.5-13.8-1.4-21.7c-0.9-7.9-2.1-16.5-3.8-25.5c-0.4-2.3-0.8-4.7-0.9-7.1c-0.2-2.4-0.1-4.9,0.1-7.4 C37,88.9,38.1,84,40,79.2c3.8-9.6,10.4-18.3,18.8-25c8.4-6.7,18.5-11.5,29.3-13.6c2.7-0.5,5.4-0.9,8.1-1.1 c1.4-0.1,2.7-0.1,4.1-0.1c1.4,0,2.8,0,4.1,0.1c2.7,0.1,5.4,0.5,8.1,1c2.7,0.5,5.3,1.1,7.8,2c10.3,3.2,19.5,9,26.7,16.3 c7.2,7.3,12.3,16.2,14.8,25.3c1.3,4.5,2,9.1,2.1,13.5c0.1,4.4,0,8.6-0.4,12.7c-0.8,8.1-3.1,15.6-7.1,21.2 c-2,2.7-4.2,5-6.6,6.8c-2.3,1.8-4.6,3.1-6.8,4.1c-4.3,2.1-7.8,3.2-10.2,3.9c-2.4,0.7-3.7,1.1-3.7,1.1s1.2-0.6,3.5-1.6 c1.1-0.5,2.6-1.2,4.2-2c1.6-0.8,3.5-1.7,5.5-2.9c4-2.3,8.5-5.7,12.1-10.9c1.7-2.6,3.2-5.6,4.2-9c1-3.4,1.8-7.1,2.2-11 c0.4-3.9,0.6-8.1,0.4-12.3c-0.1-4.2-0.8-8.6-2-12.9c-2.4-8.7-7.3-17.1-14.2-24.1c-6.9-7-15.8-12.5-25.6-15.6 c-2.5-0.8-5-1.4-7.5-1.9c-2.6-0.4-5.1-0.8-7.8-0.9c-1.3-0.1-2.6-0.1-3.9-0.1c-1.3,0-2.7,0.1-3.9,0.1c-2.6,0.2-5.2,0.5-7.8,1 c-10.3,2-20.1,6.6-28.1,13.1c-8.1,6.4-14.4,14.8-18,23.9c-1.8,4.5-2.9,9.3-3.3,14c-0.2,2.3-0.2,4.7-0.1,7 c0.1,2.3,0.5,4.5,0.9,6.8c1.7,9.1,3,17.7,3.8,25.7c0.9,8,1.3,15.4,1.4,22c0.1,6.6-0.2,12.3-0.5,17c-0.4,4.7-0.8,8.4-1.1,10.9 c-0.3,2.5-0.4,3.8-0.4,3.8L40.6,187z"/></g></g><g><path fill="#E6EFFC" d="M157.5,123.2c-0.7,11.4,6,13.9,5.9,17.9c-0.4,16.5-34.8,32.5-77.9,23.4"/><g><path fill="#9CBDDB" d="M160,125.1c0,0,0,0.1-0.1,0.3c0,0.1-0.1,0.4-0.2,0.7c0,0.3-0.1,0.6,0,1c0,0.1,0,0.2,0.1,0.4 c0,0.1,0.1,0.3,0.1,0.5c0.1,0.3,0.1,0.7,0.2,1c0.3,1.3,0.8,3,1.4,4.9c0.6,1.9,1.4,4,1.9,6.7c0.4,2.8-0.3,5.8-1.7,8.5 c-1.4,2.7-3.6,5.1-6,7.1c-2.5,2.1-5.3,3.8-8.3,5.3c-3,1.5-6.1,2.7-9.3,3.6c-6.4,2-13.1,3-19.3,3.5c-3.1,0.2-6.1,0.3-9,0.2 c-2.9-0.1-5.6-0.3-8-0.5c-5-0.5-9-1.4-11.8-2.2c-1.4-0.4-2.5-0.7-3.2-1c-0.7-0.2-1.1-0.4-1.1-0.4s0.4,0,1.2,0.1 c0.8,0.1,1.9,0.1,3.3,0.3c2.9,0.2,6.9,0.6,11.8,0.9c4.9,0.3,10.6,0.3,16.7-0.1c6.1-0.4,12.5-1.4,18.7-3.3 c6.2-1.9,12.1-4.6,16.7-8.4c2.3-1.9,4.2-4,5.4-6.3c0.6-1.2,1-2.3,1.3-3.5c0-0.3,0.1-0.6,0.1-0.9l0-0.4l0-0.5 c0-0.6,0-1.1-0.1-1.6c-0.3-2.2-1.2-4.3-1.8-6.2c-0.6-1.9-1.1-3.6-1.5-5.1c-0.1-0.4-0.2-0.7-0.2-1c0-0.2-0.1-0.3-0.1-0.5 c0-0.2-0.1-0.3-0.1-0.5c-0.1-0.7-0.1-1.4,0-1.8c0.1-0.5,0.2-0.8,0.3-1c0.1-0.2,0.1-0.3,0.1-0.3L160,125.1z"/></g></g></g><g id="right_eye_2_"><g><path fill="none" d="M164.2,77.6"/></g><g><path fill="none" d="M157.3,86.9"/></g><g><defs><path id="SVGID_5_" d="M150.5,76.2c-7.2-0.4-12.2,10.7-13.2,27.3c-1,16.6,4.5,30.9,11.8,31.3c0.5,0,0.9,0,1.4-0.1 c1.4-1.4,2.8-3,4-4.8c0.9-1.3,1.7-2.7,2.4-4.2c0.7-1.5,1.3-3.1,1.9-4.8c1.1-3.4,1.8-7.1,2.2-11c0.4-3.9,0.6-8.1,0.5-12.3 c-0.1-4.2-0.8-8.6-2-12.9c-0.3-1.1-0.7-2.2-1-3.3C156,78.3,153.2,76.4,150.5,76.2z"/></defs><clipPath id="SVGID_6_"><use xlink:href="#SVGID_5_"  overflow="visible"/></clipPath><path clip-path="url(#SVGID_6_)" fill="#FFFFFF" d="M164,105.5c-1,16.6-7.7,29.8-14.9,29.3s-12.8-14.7-11.8-31.3 c1-16.6,5.9-27.7,13.2-27.3C157.7,76.7,165,88.8,164,105.5z"/><g clip-path="url(#SVGID_6_)"><g><defs><path id="SVGID_7_" d="M155,108c0.1,13.4-5.1,24.1-11.6,23.8c-6.5-0.2-11.8-11.3-11.9-24.7c-0.1-13.4,5.1-24.1,11.6-23.8 C149.6,83.5,154.9,94.6,155,108z"/></defs><clipPath id="SVGID_8_"><use xlink:href="#SVGID_7_"  overflow="visible"/></clipPath>  <linearGradient id="SVGID_9_" gradientUnits="userSpaceOnUse" x1="190.3727" y1="188.6508" x2="192.5415" y2="144.5507" gradientTransform="matrix(0.9988 -4.790000e-002 4.790000e-002 0.9988 -55.935 -52.0936)"><stop  offset="0" style="stop-color:#F6DF58"/><stop  offset="0.7" style="stop-color:#FF8D38"/></linearGradient><path clip-path="url(#SVGID_8_)" fill="url(#SVGID_9_)" d="M155,108c0.1,13.4-5.1,24.1-11.6,23.8 c-6.5-0.2-11.8-11.3-11.9-24.7c-0.1-13.4,5.1-24.1,11.6-23.8C149.6,83.5,154.9,94.6,155,108z"/><polygon clip-path="url(#SVGID_8_)" fill="#F9E98C" points="142.3,112.4 157.3,103.1 156.3,113.3 							"/><polygon clip-path="url(#SVGID_8_)" fill="#FCF1BD" points="143.4,112.7 157.6,111.5 156,119.9 							"/></g><path d="M151.1,109.3c0.1,10.3-3.8,18.5-8.7,18.3c-4.9-0.2-8.9-8.7-9-19c-0.1-10.3,3.8-18.5,8.7-18.3 C147,90.5,151.1,99,151.1,109.3z"/><path fill="#FFFFFF" d="M141.8,106.7c-2.8-0.9-3.9-5.5-2.5-10.3c1.4-4.8,4.9-8,7.7-7.1c2.8,0.9,3.9,5.5,2.5,10.3 C148,104.4,144.6,107.6,141.8,106.7z"/><path fill="#FFFFFF" d="M142,117.5c-1.2-0.6-1.4-2.5-0.6-4.2c0.8-1.7,2.5-2.5,3.6-1.9c1.2,0.6,1.4,2.5,0.6,4.2 C144.8,117.2,143.1,118.1,142,117.5z"/></g></g><g><path d="M146,133.6c0,0-0.3-0.2-0.9-0.6c-0.3-0.2-0.6-0.5-1-0.8c-0.4-0.3-0.8-0.7-1.2-1.2c-0.9-1-1.9-2.2-2.8-3.7 c-0.9-1.6-1.9-3.4-2.7-5.5c-1.5-4.2-2.3-9.4-2.4-14.9c-0.1-5.5,0.6-11.4,2.2-17.1c0.8-2.8,1.9-5.6,3.4-8.2 c0.7-1.3,1.6-2.5,2.6-3.7c1-1.1,2.3-2.1,3.9-2.7c1.5-0.6,3.3-0.5,4.7,0c1.5,0.5,2.7,1.4,3.7,2.3c2,1.9,3.2,4.1,4.2,6.1 c1.9,4.1,2.6,7.8,3.1,10.3c0.2,1.3,0.4,2.3,0.5,3c0.1,0.7,0.1,1,0.1,1l-2.7,0.3c0,0,0-0.4-0.1-1c-0.1-0.7-0.2-1.6-0.4-2.8 c-0.4-2.4-1.2-5.9-2.9-9.7c-0.9-1.9-2-3.8-3.6-5.3c-1.6-1.5-3.7-2.5-5.8-1.7c-0.9,0.3-1.9,1.1-2.8,2c-0.8,0.9-1.6,2-2.3,3.2 c-1.3,2.3-2.3,5-3.1,7.7c-1.5,5.4-2.2,11.1-2.1,16.3c0,2.6,0.3,5.2,0.7,7.6c0.4,2.4,1,4.6,1.6,6.6c0.6,2,1.2,3.8,2,5.4 c0.7,1.6,1.4,2.9,2.1,3.9c0.6,1.1,1.2,1.9,1.5,2.5C145.8,133.3,146,133.6,146,133.6z"/></g></g><g id="left_eye_1_"><g><path d="M71.4,98.8c0,0-18.9-2.3-18.7-3.6c0.3-1.3,17.7,0.2,17.7,0.2L71.4,98.8z"/><path d="M71.6,91.9c0,0-15-9.3-14.3-10.5c0.8-1.3,15.8,7.2,15.8,7.2L71.6,91.9z"/><path d="M75.8,84.6c0,0-8.4-14.1-7.2-14.9c1.2-0.8,10,12.7,10,12.7L75.8,84.6z"/></g>  <ellipse transform="matrix(0.9978 -6.637052e-002 6.637052e-002 0.9978 -7.1123 6.5261)" fill="#FFFFFF" cx="94.7" cy="110.3" rx="24.5" ry="33.8"/><g><defs><path id="SVGID_10_" d="M119.1,108.7c-1.2-18.6-13.5-33-27.5-32.1c-2,0.1-4,0.6-5.9,1.4c-0.7,0.1-1.3,0.2-2,0.4 c-13.1,3.4-20,20.8-15.4,38.9c4.6,18.1,19,30.1,32.2,26.7c6-1.5,10.7-6,13.6-12.2C117.8,125.5,119.7,117.4,119.1,108.7z"/></defs><clipPath id="SVGID_11_"><use xlink:href="#SVGID_10_"  overflow="visible"/></clipPath><g clip-path="url(#SVGID_11_)"><defs><path id="SVGID_12_" d="M115.2,110.5c-0.1,15.4-9,27.8-19.8,27.8c-10.8-0.1-19.5-12.6-19.4-28c0.1-15.4,9-27.8,19.8-27.8 C106.7,82.6,115.3,95.1,115.2,110.5z"/></defs><clipPath id="SVGID_13_"><use xlink:href="#SVGID_12_"  overflow="visible"/></clipPath>  <linearGradient id="SVGID_14_" gradientUnits="userSpaceOnUse" x1="232.2428" y1="363.0716" x2="243.3293" y2="311.0843" gradientTransform="matrix(0.9759 -0.2182 0.2182 0.9759 -209.979 -167.4327)"><stop  offset="0" style="stop-color:#F6DF58"/><stop  offset="0.7" style="stop-color:#FF8D38"/></linearGradient><path clip-path="url(#SVGID_13_)" fill="url(#SVGID_14_)" d="M115.2,110.5c-0.1,15.4-9,27.8-19.8,27.8 c-10.8-0.1-19.5-12.6-19.4-28c0.1-15.4,9-27.8,19.8-27.8C106.7,82.6,115.3,95.1,115.2,110.5z"/><polygon clip-path="url(#SVGID_13_)" fill="#FCF1BD" points="71.8,117.8 102.9,112.4 76.8,128.2 						"/><polygon clip-path="url(#SVGID_13_)" fill="#F9E98C" points="72.1,108.4 103.3,112.8 72.3,119.6 						"/></g><path clip-path="url(#SVGID_11_)" d="M110.6,111.1c-0.1,12-6.5,21.6-14.3,21.6c-7.8-0.1-14-9.8-13.9-21.8 c0.1-12,6.5-21.6,14.3-21.6C104.5,89.4,110.7,99.1,110.6,111.1z"/><path clip-path="url(#SVGID_11_)" fill="#FFFFFF" d="M94.7,86.4c4.4,0.9,6.5,6.7,4.7,12.8c-1.8,6.2-6.8,10.5-11.2,9.6 c-4.4-0.9-6.5-6.7-4.7-12.8C85.3,89.8,90.3,85.5,94.7,86.4z"/><path clip-path="url(#SVGID_11_)" fill="#FFFFFF" d="M104.3,110c1.4,0.3,2.1,2.1,1.5,4.1c-0.6,1.9-2.2,3.2-3.7,2.9 c-1.4-0.3-2.1-2.1-1.5-4.1C101.3,111,102.9,109.7,104.3,110z"/></g><g><path d="M69.8,98.6c0,0-0.1-0.1-0.2-0.3c-0.1-0.2-0.3-0.5-0.6-1c-0.1-0.2-0.2-0.5-0.4-0.8c0-0.1-0.2-0.3-0.2-0.4 c0.1-0.1,0.1-0.3,0.1-0.4c0.1-0.6,0.3-1.3,0.5-2c0.9-2.9,2.8-7,6.5-10.8c1.8-1.9,4-3.7,6.7-5.2c2.7-1.4,5.8-2.5,9.1-2.8 c3.3-0.2,6.9,0.4,10.1,1.8c3.2,1.4,6.1,3.5,8.5,6c2.4,2.5,4.4,5.4,6,8.4c1.6,3,2.7,6.2,3.5,9.3c0.8,3.1,1.2,6.2,1.3,9.1 c0.2,2.9,0,5.7-0.5,8.2c-0.5,2.5-1.1,4.8-1.9,6.7c-0.7,1.9-1.6,3.5-2.3,4.8c-0.8,1.3-1.4,2.2-1.9,2.8c-0.5,0.6-0.8,0.9-0.8,0.9 s0.2-0.4,0.5-1.1c0.3-0.7,0.7-1.8,1.2-3.1c0.2-0.7,0.5-1.4,0.7-2.3c0.2-0.8,0.5-1.7,0.6-2.7c0.4-1.9,0.7-4.1,0.9-6.5 c0.2-2.4,0.2-5,0.1-7.7c-0.1-2.7-0.5-5.6-1.2-8.5c-0.7-2.9-1.8-5.8-3.2-8.5c-1.4-2.8-3.2-5.4-5.4-7.6c-2.2-2.2-4.7-4.1-7.5-5.3 c-2.8-1.2-5.7-1.7-8.5-1.5c-2.8,0.2-5.5,1.1-7.8,2.4c-2.3,1.3-4.3,2.9-5.9,4.6c-3.2,3.4-4.9,7-5.7,9.5c-0.4,1.3-0.6,2.3-0.7,3 c-0.1,0.8-0.2,1.2-0.2,1.2L69.8,98.6z"/></g></g><g id="fluff_1_"><path fill="#E6EFFC" d="M159.3,133.8c1.8,1.6,6,6.1,6,6.5c0.3,1.3-1.4,1.2-1.8,1.3c-0.4,0.1,0.6,2.7,1,4.2 c0.4,1.5,0.9,3.2,0.1,3.2c-0.8,0-0.7-0.6-1.3-1.3c-0.6-0.7-0.4,0.9-0.9,1.8c-0.4,0.9-1.1,3.2-1.7,2.4c-0.6-0.8,0.7-4.8-1.2-6.8 C157.7,143,159.3,133.8,159.3,133.8z"/><g><path fill="#9CBDDB" d="M161,140.1c0,0,0.1,0,0.2,0.1c0.1,0,0.4,0.1,0.6,0.1c0.5,0.1,1.1,0,1.9-0.3c0.2-0.1,0.4-0.2,0.5-0.3 c0.1-0.1,0.2-0.1,0.2-0.2c0,0,0,0,0-0.1c0,0,0,0-0.1,0.1c0,0.1,0,0.1-0.1,0.2c0,0.1,0,0.1,0,0.2l0,0c0,0.1,0,0,0,0.1l0,0l0-0.1 c0,0,0,0.1,0,0c0,0,0,0-0.1,0c-0.1-0.1-0.3-0.2-0.5-0.3c-0.5-0.2-1.1-0.5-1.7-0.9c-0.6-0.4-1.2-0.9-1.7-1.5 c-0.5-0.6-0.8-1.3-1.1-1.9c-0.2-0.6-0.4-1.2-0.6-1.7c-0.4-1.1-0.7-2.2-1-3.1c-0.5-1.9-0.6-3.2-0.6-3.2l2.7-0.3 c0,0,0.1,1.1,0.6,2.8c0.2,0.9,0.5,1.9,0.9,3c0.2,0.5,0.4,1.1,0.6,1.7c0.2,0.5,0.4,0.9,0.6,1.3c0.3,0.4,0.6,0.8,1,1.1 c0.4,0.3,0.9,0.6,1.4,1c0.3,0.2,0.6,0.4,0.9,0.7c0.1,0.2,0.3,0.4,0.4,0.6c0,0.1,0.1,0.3,0.1,0.4l0,0.1l0,0l0,0.1l0,0.1 c0,0.1,0,0.1,0,0.2c0,0.2-0.1,0.2-0.1,0.3c-0.1,0.3-0.3,0.4-0.4,0.4c-0.1,0.1-0.2,0.1-0.3,0.2c-0.2,0.1-0.3,0.2-0.5,0.2 c-0.3,0.1-0.6,0.2-0.9,0.2c-0.5,0.1-1.1,0.1-1.5-0.1c-0.4-0.1-0.8-0.3-1-0.5c-0.2-0.2-0.4-0.4-0.4-0.6 C161.1,140.2,161,140.1,161,140.1z"/></g><g><path fill="#9CBDDB" d="M164,140.4c0.5,1,0.9,2,1.3,3c0.3,1,0.6,2.1,0.7,3.3c0,0.6,0,1.2-0.2,1.9c-0.1,0.3-0.3,0.7-0.6,1 l-0.1,0.1l0,0l0,0l-0.1,0.1l0,0l0,0c0,0-0.1,0-0.1,0.1c-0.1,0-0.2,0.1-0.3,0c-0.2,0-0.2,0-0.4-0.1c-0.1,0-0.1-0.1-0.2-0.1 c-0.1-0.1-0.2-0.1-0.2-0.2c-0.2-0.2-0.2-0.3-0.3-0.5c-0.3-0.5-0.5-1-0.6-1.5c-0.2-0.5-0.4-1-0.5-1.4l1.3-0.2l0,0 c-0.1,1.1-0.2,2.1-0.4,3.2c-0.1,0.6-0.2,1.1-0.5,1.7c-0.1,0.3-0.3,0.6-0.6,0.8c-0.1,0.1-0.3,0.3-0.5,0.4 c-0.2,0.1-0.4,0.2-0.5,0.2c-0.1,0-0.2,0-0.4,0c-0.1,0-0.2,0-0.3,0c-0.1,0-0.3-0.1-0.4-0.3c-0.1-0.2-0.1-0.3-0.1-0.4 c0-0.1,0-0.2,0-0.2c0-0.1,0.1-0.2,0.1-0.3c0.1-0.3,0.2-0.5,0.3-0.8c0.2-0.5,0.4-0.9,0.5-1.4c0.2-1,0-2.1-0.4-3 c0.7,0.8,1.1,1.9,1.1,3.1c0,0.6-0.1,1.1-0.2,1.7c-0.1,0.3-0.1,0.5-0.2,0.8c0,0,0,0.1,0,0.1c0,0,0,0,0,0c0-0.1,0-0.1-0.1-0.2 c-0.1-0.1-0.2-0.2-0.3-0.2c-0.1,0-0.1,0-0.1,0c0,0,0,0,0,0c0.2-0.1,0.3-0.1,0.4-0.2c0.1-0.1,0.2-0.3,0.3-0.5 c0.2-0.4,0.3-0.9,0.4-1.4c0.2-1,0.3-2.1,0.4-3.1l0,0l0.1-2.4l1.1,2.2c0.3,0.5,0.5,1,0.7,1.5c0.2,0.5,0.4,0.9,0.7,1.3 c0.1,0.1,0.1,0.2,0.1,0.2c0,0,0,0,0,0c0,0-0.1,0-0.1-0.1c-0.1,0-0.1-0.1-0.3-0.1c-0.1,0-0.2,0-0.3,0c0,0-0.1,0-0.1,0.1l0,0l0,0 l0,0c0.1-0.1-0.2,0.1-0.1,0.1l0,0l0,0l0,0c0.1-0.1,0.1-0.2,0.2-0.4c0.1-0.3,0.1-0.8,0.1-1.2c-0.1-0.9-0.4-1.9-0.7-2.8 c-0.3-0.9-0.7-1.9-1.2-2.8L164,140.4z"/></g></g><g id="Muzzle_1_"><path fill="#E6EFFC" d="M129.1,135.8c9.4-2.8,20.8-0.8,22.6-0.2c7,2.4-2.6,21.9-18.1,23.7c-7.3,0.8-12-0.7-16.3-8.3L129.1,135.8 z"/><g><path fill="#9CBDDB" d="M129.1,135.8c0,0,0.3-0.1,0.8-0.4c0.3-0.1,0.6-0.3,1-0.4c0.4-0.1,0.9-0.3,1.4-0.5 c2.1-0.6,5.2-1.3,8.9-1.4c1.9,0,3.9,0.1,6,0.3c1.1,0.1,2.2,0.3,3.3,0.5c0.3,0.1,0.6,0.1,0.9,0.2c0.1,0,0.3,0.1,0.5,0.1l0.2,0.1 l0.1,0l0.2,0.1l0.1,0l0.4,0.2c0.1,0,0.4,0.2,0.5,0.3c0.4,0.3,0.7,0.6,0.9,0.9c1,1.3,1.1,2.9,1.1,4.2c-0.1,1.4-0.4,2.6-0.9,3.8 c-0.9,2.4-2.2,4.6-3.8,6.7c-3.1,4-7.3,7.2-11.9,8.9c-1.1,0.4-2.3,0.7-3.4,1c-0.6,0.1-1.1,0.2-1.7,0.3c-0.5,0-1,0.1-1.6,0.1 c-2.2,0.1-4.3,0-6.3-0.5c-2-0.6-3.6-1.5-4.9-2.6c-1.2-1.1-2.1-2.1-2.8-3c-0.7-0.9-1.1-1.7-1.4-2.2c-0.3-0.5-0.5-0.8-0.5-0.8 l2.3-1.3c0,0,0.1,0.2,0.4,0.7c0.3,0.5,0.7,1.1,1.3,2c0.6,0.8,1.4,1.7,2.4,2.6c1,0.9,2.3,1.6,3.9,2.1c1.5,0.5,3.4,0.6,5.4,0.4 c0.5,0,1-0.1,1.6-0.1c0.5-0.1,1-0.1,1.5-0.2c1-0.2,2-0.5,3-0.8c4-1.4,7.9-4.4,10.7-8c1.4-1.8,2.6-3.8,3.4-5.9 c0.4-1,0.6-2.1,0.7-3.1c0.1-1-0.1-1.9-0.5-2.4c-0.1-0.1-0.2-0.3-0.3-0.3c0,0,0,0-0.1-0.1c0,0,0,0-0.1-0.1l-0.4-0.2l-0.1,0l0,0 c0,0-0.1-0.1,0.1,0l0,0l-0.2,0c-0.1,0-0.2-0.1-0.3-0.1c-0.2-0.1-0.5-0.1-0.8-0.2c-1-0.2-2.1-0.3-3.1-0.5c-2-0.3-4-0.4-5.7-0.5 c-1.8-0.1-3.4-0.1-4.9-0.2c-1.5,0-2.7,0-3.8,0.1c-1,0-1.9,0.1-2.5,0.2C129.4,135.8,129.1,135.8,129.1,135.8z"/></g><g><path fill="#9CBDDB" d="M122.9,149.7c0,0-0.2,0.1-0.6,0.2c-0.3,0.1-0.8,0.2-1.4,0.3c-0.3,0.1-0.6,0.1-0.9,0.2 c-0.3,0.1-0.6,0.2-0.9,0.3c-0.3,0.1-0.6,0.2-1,0.4c-0.3,0.1-0.6,0.3-0.9,0.4c-1.2,0.6-2.4,1.5-3.2,2.2c-0.4,0.4-0.8,0.7-1,1 c-0.3,0.2-0.4,0.4-0.4,0.4s0-0.2,0.1-0.6c0-0.2,0.1-0.4,0.2-0.6c0.1-0.2,0.2-0.5,0.3-0.8c0.5-1.2,1.7-2.6,3.3-3.3 c0.4-0.2,0.8-0.3,1.2-0.5c0.4-0.1,0.8-0.2,1.2-0.2c0.4-0.1,0.8-0.1,1.1-0.1c0.4,0,0.7,0.1,1,0.1c0.6,0.1,1.1,0.3,1.5,0.4 C122.7,149.6,122.9,149.7,122.9,149.7z"/></g><g><path fill="#9CBDDB" d="M129.2,138.5c0,0,0.2,0,0.4,0c0.3,0,0.7,0.1,1.1,0.3c0.5,0.1,1,0.4,1.5,0.8c0.3,0.2,0.5,0.4,0.8,0.7 c0.1,0.1,0.3,0.3,0.4,0.4c0.1,0.2,0.2,0.3,0.3,0.5c0.1,0.2,0.1,0.4,0.1,0.6c0,0.2,0,0.4,0,0.7c-0.1,0.4-0.3,0.9-0.5,1.2 c-0.2,0.4-0.6,0.6-0.8,0.8c-0.3,0.2-0.6,0.3-0.8,0.4c-0.5,0.2-0.9,0.3-1.1,0.3c-0.3,0-0.4,0.1-0.4,0.1s0.1-0.1,0.3-0.2 c0.2-0.1,0.4-0.3,0.7-0.6c0.1-0.2,0.3-0.3,0.4-0.5c0.1-0.2,0.2-0.4,0.3-0.6c0.1-0.2,0.1-0.5,0.1-0.7c0-0.3,0-0.5-0.1-0.8 c-0.3-1-1-1.9-1.5-2.4C129.6,138.8,129.2,138.5,129.2,138.5z"/></g></g></g><g id="Crest" clip-path="url(#SVGID_4_)"><path fill="#3DA9FF" d="M24.1,207.2c8-3.9,13.8-7.7,13.8-17.6S29.2,72.4,29.2,72.4l1.3-20.3c-13,1.2-26.1,33.1-21.4,61 c3.5-6.1,5.4-7,5.4-7c-1.7,14-2.5,36.8,6.1,56.7C27.7,179,27.6,200.7,24.1,207.2z"/><path fill="#94D4FF" d="M29.2,68c-8.8,10-9.2,21.1-9.4,27.2c1.1-2.2,3.2-3.9,4.9-4.4c-11,48.4,15.8,68.7,7.5,112.6 c11.3-9.4,15.3-22.5,13.9-37.1c4.6,1,8.1,0.9,8.1,0.9c-9.7-12.2-13.6-26.5-12.7-38.3c0,0,6.4,2.6,11.4,3.6 c-9.2-14.7-11.2-21.7-12.3-35L29.2,68z"/><g><g><path fill="#2864BC" d="M42,93.5c-0.1,0.9-0.2,1.6-0.2,2.5c0,0.8,0,1.7,0.1,2.5c0.1,1.7,0.3,3.4,0.6,5c0.5,3.4,1.3,6.7,2.4,9.9 c1,3.3,2.2,6.4,3.7,9.5c1.5,3.1,3.2,6,5.3,8.6l0,0l2.1,2.7l-3.3-0.5c-0.9-0.1-1.9-0.3-2.8-0.5c-0.5-0.1-0.9-0.2-1.4-0.3 c-0.5-0.1-0.9-0.3-1.4-0.4c-0.5-0.1-0.9-0.3-1.4-0.5c-0.4-0.2-0.9-0.4-1.3-0.6c-0.4-0.2-0.9-0.4-1.3-0.7 c-0.4-0.2-0.8-0.5-1.2-0.8c-0.4-0.3-0.8-0.6-1.2-0.9c-0.4-0.3-0.7-0.6-1.1-0.9c-0.4-0.3-0.7-0.7-1-1c-0.3-0.3-0.6-0.7-0.9-1.1 c-0.6-0.7-1.1-1.5-1.6-2.3c-0.5-0.8-0.9-1.6-1.3-2.5l0.9,1.1l0.9,1c0.3,0.3,0.6,0.7,1,1c0.3,0.3,0.7,0.6,1,0.9 c0.4,0.3,0.7,0.6,1,0.8c0.4,0.3,0.7,0.5,1.1,0.8c0.7,0.5,1.5,0.9,2.3,1.3c0.4,0.2,0.8,0.4,1.2,0.6c0.4,0.2,0.8,0.4,1.2,0.5 c0.8,0.3,1.7,0.6,2.5,0.8c0.4,0.1,0.8,0.3,1.3,0.4c0.4,0.1,0.8,0.2,1.3,0.3c0.9,0.2,1.7,0.3,2.6,0.5l-1.2,2.2l0,0 c-2.3-2.8-4.1-5.9-5.6-9.1c-1.5-3.2-2.8-6.5-3.9-9.9c-1-3.4-1.9-6.8-2.4-10.3c-0.3-1.8-0.5-3.5-0.6-5.3c0-0.9-0.1-1.8-0.1-2.7 c0-0.9,0.1-1.9,0.2-2.7L42,93.5z"/></g><g><path fill="#2864BC" d="M42.7,127.9c-0.1,0.9-0.2,1.8-0.3,2.6c-0.1,0.8-0.1,1.7-0.1,2.6c0,1.7,0.1,3.4,0.2,5.1 c0.4,3.4,1.2,6.8,2.3,10.1c1.1,3.3,2.6,6.4,4.3,9.4c1.7,3,3.7,5.9,6,8.5l0,0l1.7,2l-2.6,0.2l-1.7,0.1c-0.6,0-1.1,0-1.7,0 c-1.1-0.1-2.3-0.2-3.4-0.5c-0.5-0.2-1.1-0.3-1.6-0.5c-0.5-0.2-1.1-0.4-1.5-0.7c-0.5-0.2-1-0.5-1.5-0.8l-0.7-0.4l-0.7-0.5 c-0.5-0.3-0.9-0.7-1.3-1c-0.4-0.4-0.8-0.8-1.2-1.1c-0.4-0.4-0.7-0.8-1.1-1.2c-0.4-0.4-0.7-0.8-1-1.3c-0.3-0.4-0.6-0.9-0.9-1.3 c-0.3-0.5-0.6-0.9-0.8-1.4c-0.2-0.5-0.5-0.9-0.7-1.4l-0.7-1.4l0.9,1.3c0.3,0.4,0.7,0.8,1,1.2c0.3,0.4,0.7,0.8,1,1.2 c0.3,0.4,0.7,0.8,1.1,1.1c0.4,0.4,0.7,0.7,1.1,1.1c0.4,0.3,0.8,0.7,1.2,1c0.4,0.3,0.8,0.6,1.2,0.9c0.4,0.3,0.8,0.6,1.3,0.8 l0.6,0.4l0.7,0.3c0.4,0.2,0.9,0.4,1.4,0.6c0.4,0.2,0.9,0.3,1.4,0.5c0.5,0.2,0.9,0.2,1.4,0.3c0.5,0.1,1,0.1,1.4,0.2 c0.5,0.1,1,0.1,1.4,0.1c0.5,0,1,0,1.5,0l1.5-0.1l-0.8,2.2l0,0c-2.4-2.8-4.5-5.7-6.3-8.9c-1.8-3.1-3.3-6.5-4.5-9.9 c-1.2-3.4-2-7-2.4-10.7c-0.2-1.8-0.3-3.7-0.3-5.5c0-0.9,0.1-1.8,0.1-2.8c0.1-0.9,0.2-1.8,0.3-2.7L42.7,127.9z"/></g><path fill="none" stroke="#2864BC" stroke-width="2.6758" stroke-miterlimit="20" d="M46.1,166.2c2.9,13.3-5,35.6-21.9,41 c6.9-17-2.1-39.6-6.9-52.5c-5.3-14.4-5.9-39.1-2-49.2c-2.9,2.1-5.2,5-6.5,8.3c-4-22.3,3-54.7,22-63.3"/></g></g><g id="Forelock" clip-path="url(#SVGID_4_)"><path fill="#3DA9FF" d="M67.4,55.4c5.3,11.5,20.2,15.9,25,16.2c-1.6-2.2-2.8-4.6-2.8-4.6c25.4-1.8,61.2,15.1,80.2,43.7 c7.2-16.1-4-47.7-8.8-52.8c8.4,1.9,23.1,9.3,30.7,16.5C189.2,49,175,31.2,152,20c-19.9-8.9-47-2.8-51.8-1.9 c2.4-6,10.2-9.7,10.2-9.7C85.3,3.5,64,16.6,57.1,24.1"/><path fill="#94D4FF" d="M62.1,31.5c23.5-8.2,58.4-6.1,91,18.9c19.4,15.2,21.3,50.4,16.7,60.3c-7.8-21.7-21.6-43.5-36.9-54.9 c2.3,4.3,2.9,6.9,3.4,9.6c-7.2-8.5-21.5-15.5-33.2-18.2c4.3,3.1,5.7,5,7,6.8c-5.6-3.7-29.6-5.4-43.6-0.6"/><g><g><path fill="#2864BC" d="M68.5,54L69,55l0.2,0.5l0.2,0.4l0.5,0.8c0.2,0.3,0.4,0.5,0.5,0.8c0.3,0.5,0.8,1.1,1.2,1.6 c0.4,0.5,0.9,1,1.3,1.5c0.4,0.5,0.9,0.9,1.4,1.4c0.5,0.5,1,0.9,1.5,1.3c0.5,0.4,1,0.8,1.6,1.2c0.5,0.4,1.1,0.8,1.6,1.1 c0.5,0.4,1.1,0.7,1.7,1.1c0.6,0.4,1.2,0.6,1.7,1c0.6,0.3,1.2,0.6,1.8,0.9l0.9,0.4l0.9,0.3c0.6,0.2,1.2,0.5,1.9,0.6 c0.6,0.2,1.3,0.4,1.9,0.5c0.6,0.1,1.3,0.3,1.9,0.4l1.9,0.3l0,0l-1.1,2.3c-0.8-0.9-1.6-1.9-2.2-2.9c-0.6-1-1.2-2.1-1.6-3.3 c-0.4-1.1-0.8-2.3-1-3.4c-0.1-0.6-0.2-1.2-0.3-1.7c-0.1-0.6-0.1-1.2-0.2-1.8c0.8,2.2,1.8,4.3,3,6.2c0.6,0.9,1.3,1.8,2,2.7 c0.7,0.8,1.5,1.6,2.3,2.4l3,2.8l-4.1-0.6l0,0l-2.1-0.3c-0.7-0.1-1.4-0.3-2.1-0.4c-0.7-0.1-1.4-0.4-2.1-0.6 c-0.7-0.2-1.4-0.4-2-0.7l-1-0.4l-1-0.4c-0.7-0.3-1.3-0.6-1.9-0.9c-0.6-0.3-1.3-0.6-1.9-1c-0.6-0.4-1.2-0.7-1.8-1.1 c-0.6-0.4-1.2-0.8-1.7-1.2c-0.6-0.4-1.1-0.9-1.7-1.3c-0.5-0.5-1.1-0.9-1.6-1.4c-0.5-0.5-1-1-1.5-1.5c-0.5-0.5-1-1-1.4-1.6 c-0.4-0.6-0.9-1.1-1.3-1.7c-0.2-0.3-0.4-0.6-0.6-0.9L67,57l-0.3-0.5l-0.2-0.5l-0.4-0.9L68.5,54z"/></g><g><path fill="#2864BC" d="M89.6,65.8c2,0,3.9-0.1,6,0l3,0.2l1.5,0.1c0.5,0.1,1,0.1,1.5,0.2c2,0.3,4,0.5,6,1l3,0.6 c1,0.2,1.9,0.5,2.9,0.8l2.9,0.8c1,0.3,1.9,0.6,2.9,1l2.8,1l2.8,1.1l2.8,1.2l2.7,1.3l2.7,1.3l2.6,1.5l2.6,1.5l2.5,1.6l2.5,1.6 c0.8,0.6,1.6,1.2,2.4,1.8l2.4,1.8c0.8,0.6,1.6,1.3,2.3,1.9c1.5,1.3,3.1,2.5,4.5,3.9c1.4,1.4,3,2.7,4.3,4.2l2.1,2.2 c0.7,0.7,1.4,1.4,2,2.2c1.3,1.5,2.6,3,3.8,4.6l3.6,4.8l-2.4,0.4l0,0c0.8-2.5,1.2-5.1,1.4-7.8c0.1-1.3,0.2-2.7,0.2-4 c0-1.3,0-2.7,0-4c-0.1-2.7-0.3-5.4-0.6-8c-0.2-1.3-0.4-2.7-0.6-4c-0.2-1.3-0.5-2.6-0.8-3.9c-0.3-1.3-0.7-2.6-1.1-3.9l-0.6-1.9 l-0.7-1.9c-0.5-1.2-1-2.5-1.5-3.7c-0.6-1.2-1.1-2.4-1.8-3.6c-0.7-1.1-1.2-2.4-1.9-3.5c-0.6-1.2-1.4-2.3-2.1-3.4 c-0.7-1.1-1.6-2.2-2.4-3.2l-1.4-1.5l-1.4-1.5l1.7,1.1c0.6,0.4,1.1,0.8,1.7,1.3c1.1,0.9,2.1,1.8,3.1,2.8c1,1,1.9,2.1,2.8,3.2 c0.4,0.5,0.8,1.1,1.2,1.7c0.2,0.3,0.4,0.6,0.6,0.9l0.5,0.9c0.7,1.2,1.3,2.5,1.9,3.8c0.6,1.3,1.1,2.6,1.6,3.9l0.7,2l0.6,2 c0.4,1.3,0.8,2.7,1.1,4c0.3,1.4,0.6,2.7,0.9,4.1c0.3,1.4,0.5,2.7,0.7,4.1c0.4,2.8,0.6,5.5,0.7,8.3c0,1.4,0,2.8,0,4.2 c0,1.4-0.1,2.8-0.3,4.2c-0.3,2.8-0.7,5.6-1.6,8.3l0,0l-0.7,2.6l-1.6-2.2l-3.5-4.7c-1.2-1.5-2.5-3-3.7-4.5 c-0.6-0.8-1.3-1.5-2-2.2l-2-2.1c-1.3-1.5-2.8-2.7-4.2-4.1c-1.4-1.4-2.9-2.6-4.4-3.8c-0.8-0.6-1.5-1.3-2.3-1.8l-2.4-1.7 c-0.8-0.6-1.6-1.2-2.4-1.7l-2.5-1.6l-2.5-1.6l-2.6-1.4l-2.6-1.4l-2.6-1.3l-2.6-1.3l-2.7-1.1l-2.7-1.1l-2.8-1 c-0.9-0.3-1.8-0.7-2.8-0.9l-2.8-0.8c-0.9-0.2-1.9-0.6-2.8-0.7l-2.9-0.6c-1.9-0.5-3.8-0.6-5.8-0.9c-0.5-0.1-1-0.1-1.4-0.2 l-1.4-0.1l-2.9-0.2c-1.9-0.1-3.9,0-5.9,0L89.6,65.8z"/></g><g><path fill="#2864BC" d="M160.2,56.4c1.4,0.4,2.9,0.8,4.4,1.3c0.7,0.2,1.5,0.5,2.2,0.7c0.7,0.3,1.4,0.5,2.1,0.8 c1.4,0.5,2.8,1.1,4.2,1.7c0.7,0.3,1.4,0.6,2.1,1c0.7,0.3,1.4,0.7,2.1,1c0.7,0.4,1.4,0.7,2,1.1c0.7,0.4,1.3,0.7,2,1.2 c0.6,0.4,1.3,0.8,1.9,1.2c0.6,0.4,1.3,0.9,1.9,1.3c0.6,0.5,1.2,0.9,1.8,1.4l1.8,1.5l1.7,1.5l1.6,1.6l-2.3,1l0,0 c-0.3-5.3-1.4-10.5-3.1-15.6c-1.7-5-4.1-9.8-7-14.3c-2.9-4.4-6.4-8.5-10.4-12.1c-4-3.5-8.4-6.6-13.1-9c-4.7-2.4-9.8-4.2-15-5.4 c-5.2-1.2-10.5-1.8-15.9-1.9c-2.7-0.1-5.3,0-8,0.2c-2.7,0.2-5.3,0.4-8,0.8c-1.3,0.2-2.7,0.4-4,0.6c-1.3,0.2-2.7,0.4-4,0.7 c-2.7,0.5-5.3,1.1-8,1.6c2.5-1.1,5-2.1,7.7-2.9c1.3-0.4,2.6-0.8,3.9-1.1c1.3-0.3,2.7-0.6,4-0.9c2.7-0.5,5.4-1,8.1-1.3 c2.7-0.3,5.5-0.4,8.2-0.4c5.5,0,11,0.7,16.4,1.9c5.4,1.2,10.6,3.1,15.6,5.7c4.9,2.5,9.5,5.7,13.7,9.4 c4.1,3.7,7.8,7.9,10.8,12.6c3,4.6,5.5,9.6,7.3,14.9c1.8,5.2,2.9,10.7,3.2,16.3l0,0l0.2,3.5l-2.6-2.5l-1.5-1.5l-1.6-1.5 l-1.7-1.4c-0.6-0.4-1.2-0.9-1.8-1.3c-0.6-0.4-1.2-0.8-1.8-1.2c-0.6-0.4-1.2-0.8-1.9-1.2c-0.6-0.4-1.3-0.7-1.9-1.1 c-0.6-0.4-1.3-0.7-1.9-1c-0.6-0.4-1.3-0.7-2-1c-0.7-0.3-1.3-0.6-2-0.9c-1.3-0.6-2.7-1.2-4.1-1.7c-0.7-0.3-1.4-0.5-2.1-0.8 c-0.7-0.3-1.4-0.5-2.1-0.7c-0.7-0.2-1.4-0.5-2.1-0.6c-0.6-0.5-1.2-1.2-1.8-1.9L160.2,56.4z"/></g><g><path fill="#2864BC" d="M56.1,23.2c0.9-0.9,1.6-1.7,2.6-2.6c0.9-0.9,1.9-1.6,2.9-2.4c1-0.8,2-1.4,3-2.1 c1.1-0.6,2.1-1.3,3.2-1.9c1.1-0.6,2.2-1.2,3.3-1.7c1.1-0.5,2.2-1.1,3.4-1.5c1.1-0.4,2.3-0.9,3.5-1.3c1.2-0.4,2.3-0.8,3.5-1.1 c1.2-0.3,2.4-0.7,3.6-0.9c1.2-0.2,2.4-0.5,3.6-0.7l3.6-0.5L96,6.5c1.2-0.1,2.4-0.1,3.7-0.1c1.2,0,2.4,0,3.7,0.1 c1.2,0.1,2.4,0.1,3.7,0.2l3.6,0.4l5.1,0.5l-4.8,2c-2.2,0.9-4.2,2.2-5.9,3.9c-0.4,0.4-0.8,0.8-1.2,1.3c-0.4,0.4-0.7,0.9-1,1.4 c-0.2,0.2-0.3,0.5-0.5,0.7l-0.2,0.4c-0.1,0.1-0.1,0.3-0.2,0.4c-0.6,0.4-1.2,0.8-1.9,1.2l-1.3-0.4c0.2-0.6,0.5-1.3,0.8-1.9 c0.1-0.3,0.3-0.6,0.5-0.9c0.2-0.3,0.4-0.6,0.5-0.9c0.4-0.6,0.8-1.1,1.2-1.7c0.4-0.5,0.9-1,1.4-1.5c2-1.9,4.3-3.4,6.8-4.4 l0.3,2.6l-3.5-0.4c-1.2-0.2-2.4-0.2-3.5-0.2c-1.2-0.1-2.4-0.1-3.5-0.1c-1.2,0-2.4,0-3.5,0.1l-3.5,0.3l-3.5,0.5 c-1.2,0.2-2.3,0.4-3.5,0.6c-1.2,0.2-2.3,0.6-3.4,0.8c-1.2,0.3-2.3,0.7-3.4,1c-1.1,0.3-2.2,0.8-3.3,1.2 c-1.1,0.4-2.2,0.9-3.2,1.4c-1.1,0.5-2.1,1.1-3.1,1.6c-1,0.6-2,1.2-3,1.8c-1,0.7-1.9,1.3-2.9,2c-0.9,0.7-1.8,1.4-2.7,2.2 c-0.9,0.7-1.7,1.6-2.5,2.5L56.1,23.2z"/></g></g></g><g id="Horn_1_" clip-path="url(#SVGID_4_)"><defs><filter id="Adobe_OpacityMaskFilter" filterUnits="userSpaceOnUse" x="119.3" y="14.9" width="31.9" height="54.6"><feColorMatrix  type="matrix" values="1 0 0 0 0  0 1 0 0 0  0 0 1 0 0  0 0 0 1 0"/></filter></defs><mask maskUnits="userSpaceOnUse" x="119.3" y="14.9" width="31.9" height="54.6" id="SVGID_15_"><g filter="url(#Adobe_OpacityMaskFilter)"><path fill="#FFFFFF" d="M119.9,46.8c4.8-10.8,23.1-35.4,30-33.1c6.9,2.3-3.4,38.9-6.9,45.1C143,58.8,130.3,48.6,119.9,46.8z"/></g></mask><g mask="url(#SVGID_15_)"><path fill="#E6EFFC" d="M119.5,56.7c-0.2,11.7,12.8,12.7,14.5,10.6c8.5-10.6,18.9-49.3,14.9-51c-3.2-1.5-17.7,17.4-27.3,32.8"/><g><path fill="#9CBDDB" d="M119.5,56.7c0,0,0.1,0.5,0.3,1.3c0.2,0.8,0.6,2.1,1.3,3.4c0.7,1.3,1.9,2.7,3.6,3.8 c1.7,1,4.1,1.8,6.5,1.7c0.6,0,1.2-0.1,1.6-0.3c0.1,0,0.2-0.1,0.2-0.1c0,0,0,0.1,0,0l0.2-0.2c0.2-0.3,0.4-0.6,0.6-0.8 c0.8-1.2,1.6-2.5,2.3-3.9c1.4-2.8,2.7-5.9,4-9.1c2.5-6.5,4.7-13.5,6.4-20.7c0.8-3.6,1.6-7.2,1.9-10.7c0.1-0.9,0.1-1.7,0-2.5 c0-0.4-0.1-0.8-0.2-1c0-0.1-0.1-0.2-0.1-0.1c0,0,0.1,0.1,0.2,0.1c0,0,0.2,0.1,0.1,0l0,0l-0.1,0c0,0,0.1,0,0.1,0 c0.1,0-0.3,0.1-0.5,0.2c-0.3,0.2-0.6,0.4-0.9,0.6c-0.6,0.5-1.3,1-1.9,1.6c-2.4,2.3-4.6,4.9-6.6,7.3c-2,2.4-3.9,4.8-5.5,7.1 c-3.3,4.5-6,8.3-7.7,11c-1.8,2.7-2.7,4.3-2.7,4.3l-1.8-1.1c0,0,1-1.6,2.8-4.3c1.8-2.7,4.4-6.6,7.6-11.2 c1.6-2.3,3.4-4.7,5.4-7.3c2-2.5,4.2-5.1,6.8-7.7c0.7-0.6,1.3-1.2,2.1-1.8c0.4-0.3,0.8-0.6,1.3-0.8c0.5-0.2,1-0.6,2-0.5 c0.2,0,0.4,0.1,0.5,0.1l0.1,0l0,0c-0.1,0,0.2,0.1,0.2,0.1c0.3,0.1,0.5,0.3,0.7,0.5c0.3,0.4,0.5,0.7,0.6,1 c0.2,0.6,0.3,1.1,0.3,1.7c0.1,1,0,2,0,2.9c-0.3,3.8-1.1,7.5-1.9,11.1c-0.9,3.7-1.9,7.3-3,10.8c-1.1,3.5-2.3,7-3.6,10.2 c-1.3,3.3-2.7,6.4-4.2,9.3c-0.8,1.4-1.6,2.8-2.5,4.1c-0.2,0.3-0.4,0.6-0.7,1l-0.2,0.2c0,0.1-0.2,0.3-0.3,0.4 c-0.3,0.2-0.5,0.4-0.8,0.5c-1,0.4-1.8,0.5-2.6,0.5c-3.1,0.1-5.9-0.9-7.9-2.3c-2.1-1.4-3.3-3.4-3.8-5.1c-0.5-1.7-0.5-3-0.4-3.9 c0-0.4,0.1-0.8,0.1-1C119.5,56.9,119.5,56.7,119.5,56.7z"/></g><path fill="none" stroke="#9CBDDB" stroke-width="2.007" d="M139.9,23.2c-0.4,5,2.9,10.4,7.7,10.8"/><path fill="none" stroke="#9CBDDB" stroke-width="2.007" d="M133.8,31.2c-0.4,5,3.3,12.6,10,14.1"/></g><g><path fill="#2864BC" d="M143.7,59.9c0,0-0.4-0.2-1-0.7c-0.3-0.2-0.7-0.5-1.2-0.8c-0.4-0.3-0.9-0.6-1.5-1 c-0.5-0.4-1.2-0.7-1.8-1.1c-0.6-0.4-1.3-0.8-2-1.2c-1.4-0.8-2.9-1.7-4.5-2.5c-0.8-0.4-1.5-0.8-2.3-1.2c-0.8-0.4-1.5-0.8-2.2-1.1 c-0.7-0.3-1.4-0.7-2.1-1c-0.7-0.3-1.3-0.6-1.9-0.8c-0.6-0.2-1.2-0.5-1.7-0.6c-0.5-0.2-1-0.3-1.3-0.4c-0.7-0.2-1.2-0.3-1.2-0.3 s0.4,0,1.2-0.1c0.4,0,0.9,0,1.4,0.1c0.5,0.1,1.2,0.2,1.8,0.3c0.7,0.2,1.4,0.3,2.1,0.5c0.7,0.2,1.5,0.5,2.3,0.8 c0.8,0.3,1.6,0.6,2.4,1c0.8,0.4,1.6,0.8,2.4,1.2c0.8,0.4,1.6,0.9,2.3,1.4c0.8,0.5,1.5,1,2.2,1.4c0.7,0.5,1.3,1,1.9,1.5 c0.6,0.5,1.2,1,1.6,1.4c0.5,0.5,0.9,0.9,1.3,1.3c0.4,0.4,0.7,0.8,0.9,1.1C143.4,59.5,143.7,59.9,143.7,59.9z"/></g></g><g id="Ear_2_" clip-path="url(#SVGID_4_)"><path fill="#E6EFFC" d="M67.6,61.2c2-32.9-15.8-46.3-20.7-39.8C29.9,43.9,20,77.9,45,97.6C45,97.6,52.4,73.5,67.6,61.2z"/><path fill="#C3CFE0" d="M46.8,76.5c-1.4-11-0.9-34.3,2.9-39.8s6.9-5.3,8.3,4.2c0.5,3.7,1.8,13,1.8,18.9 C55.3,61.5,49.1,70.5,46.8,76.5z"/><g><path fill="#9CBDDB" d="M45.1,97.4c0,0-0.5-0.2-1.4-0.8c-0.9-0.5-2.1-1.3-3.6-2.5c-1.5-1.2-3.2-2.8-4.9-4.9 c-1.6-2.1-3.2-4.8-4.4-7.8c-1.3-3-2.2-6.5-2.7-10.3c-0.5-3.7-0.5-7.7-0.1-11.8c0.8-8.1,3.4-16.6,7.3-24.3 c2-3.9,4.3-7.6,7.2-10.9c0.7-0.8,1.5-1.6,2.4-2.3c0.9-0.7,1.8-1.4,3.1-1.8l0.2-0.1l0.3-0.1l0.4-0.1c0.2-0.1,0.6-0.1,0.9-0.1 c0.3,0,0.6,0,0.9,0c0.3,0,0.6,0,0.9,0.1c1.2,0.2,2.3,0.5,3.3,1.1c2,1.1,3.6,2.6,4.8,4.2c1.3,1.6,2.3,3.3,3.1,5 c1.7,3.4,2.8,6.8,3.6,10c0.8,3.2,1.3,6.1,1.6,8.7c0.3,2.6,0.3,4.9,0.3,6.8c-0.1,1.9-0.2,3.4-0.4,4.4c-0.2,1-0.3,1.5-0.3,1.5 s-0.1-0.5-0.3-1.5c-0.2-1-0.5-2.4-0.7-4.3c-0.3-1.8-0.6-4-1-6.6c-0.4-2.5-0.8-5.4-1.6-8.4c-0.8-3-1.9-6.3-3.5-9.4 c-0.8-1.6-1.7-3.1-2.9-4.5c-1.1-1.4-2.5-2.6-4-3.5c-0.8-0.4-1.6-0.7-2.4-0.8c-0.2,0-0.4,0-0.6-0.1c-0.2,0-0.4,0-0.6,0 c-0.2,0-0.4,0-0.6,0.1l-0.4,0.1l-0.1,0l0,0c0,0-0.1,0,0,0l-0.1,0c-0.7,0.2-1.5,0.7-2.2,1.3c-0.7,0.6-1.4,1.3-2.1,2.1 c-2.7,3-4.9,6.6-6.8,10.3c-3.8,7.5-6.2,15.6-7,23.4c-0.4,3.9-0.4,7.7,0.1,11.2c0.5,3.5,1.3,6.8,2.5,9.6c1.1,2.9,2.6,5.3,4,7.4 c1.4,2.1,2.7,3.9,3.9,5.2c1.2,1.4,2.2,2.4,2.9,3.2C44.7,97,45.1,97.4,45.1,97.4z"/></g><g><path fill="#9CBDDB" d="M46.8,76.5c0,0-0.2-0.8-0.7-2.3c-0.2-0.7-0.4-1.6-0.6-2.7c-0.2-1.1-0.4-2.2-0.6-3.6 c-0.2-1.3-0.3-2.7-0.4-4.3c-0.1-1.5-0.1-3.1-0.1-4.8c0-0.8,0.1-1.7,0.1-2.5c0-0.9,0.1-1.7,0.2-2.6c0.1-0.9,0.2-1.7,0.3-2.6 c0.1-0.9,0.2-1.7,0.4-2.6c0.1-0.9,0.3-1.7,0.5-2.6c0.2-0.9,0.4-1.7,0.6-2.6c0.4-1.7,0.9-3.3,1.5-4.9c0.3-0.8,0.6-1.5,0.9-2.3 c0.3-0.8,0.7-1.6,1.2-2.3c0.5-0.7,1.1-1.3,2-1.8c0.9-0.4,2.1-0.4,2.8,0.1c0.8,0.5,1.2,1.1,1.5,1.7c0.3,0.6,0.5,1.2,0.7,1.7 c0.3,1.1,0.5,2,0.6,2.8c0.1,0.8,0.2,1.4,0.2,1.8c0,0.4,0,0.6,0,0.6s-0.1-0.2-0.2-0.6c-0.1-0.4-0.3-1-0.5-1.7 c-0.2-0.7-0.5-1.6-1-2.5c-0.5-0.9-1.1-2-2-2.4c-0.4-0.2-0.9-0.1-1.3,0.1c-0.5,0.2-0.9,0.7-1.3,1.2c-0.4,0.5-0.7,1.2-0.9,1.9 c-0.3,0.7-0.6,1.5-0.8,2.2c-0.5,1.5-1,3.1-1.4,4.8c-0.2,0.8-0.4,1.7-0.6,2.5c-0.2,0.8-0.4,1.7-0.5,2.5c-0.2,0.8-0.3,1.7-0.4,2.5 c-0.1,0.8-0.3,1.7-0.3,2.5c-0.1,0.8-0.2,1.7-0.3,2.5c-0.1,0.8-0.1,1.6-0.2,2.5c-0.1,1.6-0.2,3.2-0.2,4.7c0,0.7,0,1.5,0,2.2 c0,0.7,0,1.4,0,2c0,1.3,0.1,2.5,0.1,3.5c0.1,1,0.1,2,0.2,2.7C46.7,75.7,46.8,76.5,46.8,76.5z"/></g></g></g></g><g id="Outline_1_"><path d="M176,3c11.6,0,21,9.4,21,21v152c0,11.6-9.4,21-21,21H24c-11.6,0-21-9.4-21-21V24C3,12.4,12.4,3,24,3H176 M176,0H24 C10.7,0,0,10.7,0,24v152c0,13.3,10.7,24,24,24h152c13.3,0,24-10.7,24-24V24C200,10.7,189.3,0,176,0L176,0z"/></g></svg>
