<svg xmlns="http://www.w3.org/2000/svg" viewBox="0 0 266.66666 266.66666"><defs><clipPath id="c"><path d="M 0,200 H 200 V 0 H 0 Z"/></clipPath><clipPath id="d"><path d="M 24,200 C 10.745,200 0,189.255 0,176 V 176 24 C 0,10.745 10.745,0 24,0 v 0 h 152 c 13.255,0 24,10.745 24,24 v 0 152 c 0,13.255 -10.745,24 -24,24 v 0 z"/></clipPath><clipPath id="e"><path d="M 0,200 H 200 V 0 H 0 Z"/></clipPath><clipPath id="f"><path d="M 11.894,196.727 C 7.258,194.013 3.613,189.788 1.636,184.728 v 0 V 15.273 C 5.128,6.333 13.824,0 24,0 v 0 h 152 c 10.176,0 18.872,6.333 22.364,15.273 v 0 169.455 c -1.977,5.06 -5.622,9.285 -10.258,11.999 v 0 z"/></clipPath><clipPath id="g"><path d="m 144.631,96.729 c -1.009,-16.683 4.56,-30.946 11.811,-31.385 v 0 c 0.471,-0.028 0.939,0.001 1.404,0.085 v 0 c 1.411,1.406 2.763,2.999 3.974,4.816 v 0 c 0.868,1.306 1.671,2.719 2.379,4.235 v 0 c 0.718,1.51 1.342,3.123 1.873,4.818 v 0 c 1.057,3.394 1.797,7.103 2.209,11.032 v 0 c 0.422,3.932 0.567,8.073 0.46,12.348 v 0 c -0.138,4.234 -0.786,8.596 -2.019,12.925 v 0 c -0.306,1.096 -0.651,2.188 -1.035,3.276 v 0 c -2.315,3.174 -5.08,5.049 -7.84,5.216 v 0 c -0.138,0.008 -0.275,0.012 -0.412,0.012 v 0 c -7.026,0 -11.814,-11.012 -12.804,-27.378"/></clipPath><clipPath id="a"><path d="m 138.81,116.997 h 26.211 V 68.3294 H 138.81 Z"/></clipPath><clipPath id="b"><path d="m 138.718,117.232 h 26.303 V 68.0937 h -26.303 z"/></clipPath><mask id="h" height="1" width="1" y="0" x="0" maskUnits="userSpaceOnUse"><g clip-path="url(#a)"><path d="m 138.718,117.232 h 26.304 V 68.094 h -26.304 z"/><g clip-path="url(#b)"><path d="m 0,0 c 0.094,-13.438 -5.112,-24.136 -11.628,-23.896 -6.516,0.24 -11.873,11.326 -11.967,24.763 -0.092,13.437 5.114,24.135 11.629,23.897 C -5.451,24.523 -0.094,13.437 0,0" fill="#fff" transform="translate(162.4053,92.2295)"/></g></g></mask><clipPath id="i"><path d="m 138.81,116.997 h 26.211 V 68.3294 H 138.81 Z"/></clipPath><linearGradient id="j" gradientTransform="matrix(0.0539547,44.264656,44.264656,-0.0539547,150.58427,72.975304)" gradientUnits="userSpaceOnUse" x2="1"><stop offset="0" stop-color="#f6df58"/><stop offset="0.7" stop-color="#ff8d38"/><stop offset="1" stop-color="#ff8d38"/></linearGradient><clipPath id="k"><path d="M 11.894,196.727 C 7.258,194.013 3.613,189.788 1.636,184.728 v 0 V 15.273 C 5.128,6.333 13.824,0 24,0 v 0 h 152 c 10.176,0 18.872,6.333 22.364,15.273 v 0 169.455 c -1.977,5.06 -5.622,9.285 -10.258,11.999 v 0 z"/></clipPath><linearGradient id="l" gradientTransform="matrix(-0.525595,53.290203,53.290203,0.525595,103.10571,63.950642)" gradientUnits="userSpaceOnUse" x2="1"><stop offset="0" stop-color="#f6df58"/><stop offset="0.7" stop-color="#ff8d38"/><stop offset="1" stop-color="#ff8d38"/></linearGradient><clipPath id="m"><path d="M 83.21,89.916 C 83.088,74.477 91.781,61.91 102.628,61.848 v 0 c 10.848,-0.062 19.74,12.404 19.863,27.844 v 0 c 0.122,15.44 -8.571,28.007 -19.418,28.068 v 0 c -0.027,10e-4 -0.053,10e-4 -0.08,10e-4 v 0 C 92.182,117.76 83.333,105.318 83.21,89.916"/></clipPath><clipPath id="n"><path d="m 98.849,123.727 c -1.993,-0.133 -3.977,-0.604 -5.893,-1.358 v 0 c -0.673,-0.092 -1.343,-0.222 -2.01,-0.392 v 0 C 77.789,118.609 70.889,101.164 75.536,83.01 v 0 C 80.183,64.857 94.615,52.871 107.772,56.238 v 0 c 6.035,1.546 10.752,6.054 13.643,12.231 v 0 c 3.644,6.27 5.579,14.375 4.999,23.088 v 0 c -1.206,18.123 -12.839,32.211 -26.284,32.212 v 0 c -0.426,0 -0.852,-0.014 -1.281,-0.042"/></clipPath><clipPath id="o"><path d="M 11.894,196.727 C 7.258,194.013 3.613,189.788 1.636,184.728 v 0 V 15.273 C 5.128,6.333 13.824,0 24,0 v 0 h 152 c 10.176,0 18.872,6.333 22.364,15.273 v 0 169.455 c -1.977,5.06 -5.622,9.285 -10.258,11.999 v 0 z"/></clipPath><clipPath id="p"><path d="M 0,200 H 200 V 0 H 0 Z"/></clipPath></defs><g clip-path="url(#c)" transform="matrix(1.3333333,0,0,-1.3333333,0,266.66667)"><path d="m 0,0 c 0,-13.255 -10.745,-24 -24,-24 h -152 c -13.255,0 -24,10.745 -24,24 v 152 c 0,13.255 10.745,24 24,24 h 152 c 13.255,0 24,-10.745 24,-24 z" fill="#fff" transform="translate(200,24)"/></g><g clip-path="url(#d)" transform="matrix(1.3333333,0,0,-1.3333333,0,266.66667)"><g clip-path="url(#e)" opacity="0.5"><path d="M 0,0 V 200" fill="none" stroke="#a5a5a5" stroke-width="2" transform="translate(132)"/><path d="M 0,0 V 200" fill="none" stroke="#a5a5a5" stroke-width="2" transform="translate(100)"/><path d="M 0,0 V 200" fill="none" stroke="#a5a5a5" stroke-width="2" transform="translate(68)"/><path d="M 0,0 V 200" fill="none" stroke="#a5a5a5" stroke-width="2" transform="translate(36)"/><path d="M 0,0 V 200" fill="none" stroke="#a5a5a5" stroke-width="2" transform="translate(164)"/><path d="M 0,0 H 200" fill="none" stroke="#a5a5a5" stroke-width="2" transform="translate(0,68)"/><path d="M 0,0 H 200" fill="none" stroke="#a5a5a5" stroke-width="2" transform="translate(0,100)"/><path d="M 0,0 H 200" fill="none" stroke="#a5a5a5" stroke-width="2" transform="translate(0,132)"/><path d="M 0,0 H 200" fill="none" stroke="#a5a5a5" stroke-width="2" transform="translate(0,164)"/><path d="M 0,0 H 200" fill="none" stroke="#a5a5a5" stroke-width="2" transform="translate(0,36)"/></g></g><g clip-path="url(#f)" transform="matrix(1.3333333,0,0,-1.3333333,0,266.66667)"><path d="m 0,0 c 0,0 -0.427,0.091 -0.954,0.374 -0.269,0.136 -0.553,0.334 -0.845,0.565 -0.305,0.2 -0.527,0.487 -0.739,0.823 -0.2,0.337 -0.507,0.674 -0.782,1.047 -0.272,0.379 -0.622,0.726 -0.952,1.112 -0.687,0.745 -1.479,1.482 -2.33,2.148 -0.416,0.344 -0.856,0.657 -1.295,0.96 -0.444,0.294 -0.885,0.58 -1.33,0.829 -0.875,0.526 -1.762,0.896 -2.489,1.303 -0.36,0.215 -0.731,0.324 -1.022,0.522 -0.279,0.218 -0.498,0.505 -0.666,0.758 -0.34,0.521 -0.464,0.988 -0.464,0.988 0,0 0.412,0.256 1.011,0.408 0.3,0.066 0.654,0.136 1.024,0.085 0.363,-0.061 0.723,-0.258 1.155,-0.391 0.851,-0.296 1.799,-0.776 2.79,-1.346 C -7.391,9.906 -6.892,9.584 -6.391,9.252 -5.895,8.91 -5.396,8.555 -4.922,8.164 -4.428,7.8 -4,7.355 -3.548,6.956 -3.13,6.521 -2.701,6.108 -2.33,5.671 -1.966,5.228 -1.585,4.822 -1.287,4.39 -0.98,3.96 -0.671,3.586 -0.424,3.181 -0.163,2.792 0.049,2.416 0.128,2.028 0.191,1.653 0.199,1.312 0.179,1.009 0.145,0.412 0,0 0,0" fill="#2864bc" transform="translate(125.7615,56.6822)"/><path d="m 0,0 c 6.755,-2.072 10.501,-5.33 13.157,-14.628 4.336,7.234 2.137,20.084 -16.323,39.919 -9.871,10.605 -15.841,15.808 -14.544,35.052" fill="none" stroke="#2864bc" stroke-width="2.68300009" stroke-miterlimit="20" transform="translate(119.8201,63.8913)"/><path d="m 0,0 c 0.807,5.543 1.319,11.217 2.074,16.954 l 8.369,27.865 38.906,1.243 10.316,-8.556 C 57.559,33.263 56.833,24.402 55.967,14.243 55.607,10.032 55.484,5.433 55.507,0.695" fill="#e6effc" stroke="#9cbddb" stroke-width="2.68300009" transform="translate(46.9108,-3.9467)"/><path d="m 0,0 c 2.273,18.889 3.653,36.695 -3.937,77.531 -6.295,33.869 23.726,64.094 58.1,66.38 34.375,2.286 65.93,-23.653 66.38,-58.1 0.453,-34.589 -14.205,-41.614 -33.569,-48.615" fill="#e6effc" transform="translate(49.5758,15.6668)"/><path d="m 0,0 c 0,0 0.156,1.332 0.45,3.83 0.274,2.488 0.689,6.141 1.044,10.794 0.344,4.653 0.61,10.312 0.534,16.809 -0.066,6.496 -0.495,13.826 -1.354,21.791 -0.854,7.966 -2.128,16.566 -3.799,25.609 -0.418,2.266 -0.791,4.674 -0.938,7.099 -0.163,2.426 -0.142,4.894 0.065,7.372 0.401,4.96 1.574,9.96 3.467,14.758 3.783,9.616 10.467,18.329 18.89,25.042 8.42,6.729 18.597,11.523 29.351,13.639 2.687,0.53 5.408,0.885 8.139,1.081 1.422,0.058 2.677,0.146 4.072,0.143 1.381,-0.014 2.767,-0.003 4.122,-0.112 2.729,-0.118 5.429,-0.513 8.106,-0.957 2.66,-0.54 5.307,-1.132 7.868,-1.98 10.297,-3.225 19.571,-9.005 26.774,-16.336 7.212,-7.326 12.347,-16.222 14.869,-25.327 1.286,-4.546 1.96,-9.123 2.122,-13.56 0.149,-4.4 0.006,-8.649 -0.405,-12.732 -0.817,-8.126 -3.118,-15.664 -7.125,-21.217 -1.994,-2.754 -4.237,-5.062 -6.593,-6.787 -2.33,-1.757 -4.644,-3.083 -6.776,-4.145 -4.302,-2.067 -7.844,-3.186 -10.247,-3.953 -2.416,-0.733 -3.717,-1.077 -3.717,-1.077 0,0 1.225,0.556 3.52,1.597 1.145,0.519 2.559,1.156 4.188,1.96 1.636,0.783 3.499,1.718 5.491,2.898 3.989,2.305 8.564,5.694 12.083,10.92 1.704,2.634 3.192,5.663 4.233,9.065 1.048,3.396 1.815,7.097 2.214,11.03 0.413,3.923 0.571,8.075 0.445,12.346 -0.139,4.233 -0.793,8.592 -2.014,12.923 -2.402,8.674 -7.298,17.164 -14.201,24.178 -6.894,7.017 -15.791,12.567 -25.669,15.659 -2.456,0.815 -4.996,1.38 -7.546,1.9 -2.568,0.424 -5.157,0.805 -7.773,0.917 -1.311,0.106 -2.602,0.092 -3.898,0.108 -1.282,0.008 -2.703,-0.088 -3.958,-0.137 -2.617,-0.188 -5.227,-0.529 -7.805,-1.037 -10.32,-2.029 -20.112,-6.641 -28.196,-13.103 -8.09,-6.446 -14.476,-14.793 -18.068,-23.931 -1.8,-4.561 -2.91,-9.298 -3.289,-13.993 -0.197,-2.346 -0.217,-4.682 -0.062,-6.978 0.14,-2.302 0.483,-4.521 0.899,-6.79 C 1.194,70.219 2.479,61.553 3.341,53.511 4.208,45.469 4.643,38.049 4.711,31.464 4.787,24.879 4.518,19.135 4.169,14.424 3.809,9.712 3.391,6.031 3.114,3.519 2.821,1.02 2.664,-0.313 2.664,-0.313 Z" fill="#9cbddb" transform="translate(47.6301,13.0785)"/><path d="M 0,0 C -0.697,-11.418 6.037,-13.938 5.946,-17.987 5.572,-34.481 -28.967,-50.615 -72.121,-41.469" fill="#e6effc" transform="translate(164.8439,76.9639)"/><path d="m 0,0 c 0,0 -0.031,-0.096 -0.09,-0.283 -0.043,-0.145 -0.116,-0.397 -0.167,-0.683 -0.048,-0.297 -0.074,-0.564 -0.009,-0.989 0.02,-0.113 0.04,-0.23 0.061,-0.351 0.031,-0.148 0.063,-0.3 0.097,-0.457 0.068,-0.309 0.132,-0.662 0.215,-0.987 0.306,-1.335 0.779,-2.994 1.393,-4.878 0.588,-1.909 1.449,-4.012 1.887,-6.716 0.396,-2.836 -0.283,-5.786 -1.709,-8.514 -1.435,-2.713 -3.576,-5.113 -6.053,-7.167 -2.48,-2.065 -5.31,-3.797 -8.297,-5.268 -2.99,-1.47 -6.147,-2.676 -9.363,-3.65 -6.433,-1.966 -13.086,-2.988 -19.329,-3.469 -3.124,-0.232 -6.153,-0.324 -9.021,-0.242 -2.867,0.069 -5.571,0.274 -8.057,0.518 -4.97,0.54 -9.049,1.4 -11.854,2.169 -1.401,0.399 -2.495,0.724 -3.23,0.995 -0.739,0.248 -1.128,0.403 -1.128,0.403 0,0 0.42,-0.009 1.196,-0.069 0.773,-0.059 1.907,-0.146 3.351,-0.256 2.878,-0.23 6.959,-0.629 11.854,-0.877 4.891,-0.285 10.606,-0.321 16.695,0.065 6.085,0.409 12.546,1.448 18.743,3.33 6.175,1.876 12.149,4.625 16.726,8.414 2.277,1.886 4.174,4.045 5.394,6.355 0.606,1.154 1.037,2.34 1.285,3.511 0.044,0.289 0.12,0.598 0.14,0.863 l 0.049,0.409 0.028,0.478 c 0.037,0.557 -0.003,1.077 -0.076,1.628 -0.345,2.192 -1.178,4.339 -1.782,6.26 -0.631,1.938 -1.123,3.651 -1.461,5.13 -0.094,0.374 -0.151,0.694 -0.222,1.013 -0.033,0.157 -0.065,0.309 -0.096,0.456 -0.031,0.175 -0.061,0.345 -0.089,0.508 -0.114,0.684 -0.067,1.382 0.018,1.844 0.087,0.475 0.182,0.793 0.253,1.031 0.061,0.194 0.093,0.294 0.093,0.294 z" fill="#9cbddb" transform="translate(167.3762,75.0631)"/></g><g clip-path="url(#g)" transform="matrix(1.3333333,0,0,-1.3333333,0,266.66667)"><path d="m 0,0 c -1.009,-16.684 -7.706,-29.852 -14.958,-29.413 -7.252,0.439 -12.821,14.702 -11.812,31.386 1.009,16.683 5.965,27.804 13.217,27.366 C -6.301,28.899 1.009,16.684 0,0" fill="#fff" transform="translate(171.4007,94.7565)"/><g mask="url(#h)"><g clip-path="url(#i)"><path d="m 162.406,92.229 c 0.093,-13.437 -5.113,-24.135 -11.629,-23.896 -6.515,0.241 -11.873,11.327 -11.966,24.764 -0.093,13.437 5.113,24.135 11.628,23.896 6.515,-0.24 11.873,-11.327 11.967,-24.764" fill="url(#j)"/><path d="M 0,0 15,9.33 14.017,-0.865 Z" fill="#f9e98c" transform="translate(149.6402,87.8077)"/><path d="M 0,0 14.324,1.253 12.648,-7.22 Z" fill="#fcf1bd" transform="translate(150.6973,87.4782)"/></g></g><path d="m 0,0 c 0.067,-10.319 -3.857,-18.535 -8.764,-18.352 -4.908,0.183 -8.941,8.696 -9.009,19.014 -0.068,10.318 3.856,18.534 8.764,18.351 C -4.102,18.831 -0.068,10.319 0,0" transform="translate(158.4823,90.9781)"/><path d="m 0,0 c -2.818,0.912 -3.944,5.557 -2.515,10.374 1.429,4.818 4.871,7.984 7.689,7.072 C 7.992,16.535 9.118,11.89 7.69,7.072 6.26,2.255 2.819,-0.911 0,0" fill="#fff" transform="translate(149.0852,93.5578)"/><g><path d="M 0,0 C -1.163,0.622 -1.418,2.493 -0.571,4.182 0.276,5.871 1.905,6.736 3.067,6.115 4.229,5.494 4.484,3.622 3.638,1.934 2.791,0.245 1.162,-0.62 0,0" fill="#fff" transform="translate(149.3098,82.7263)"/></g></g><g clip-path="url(#k)" transform="matrix(1.3333333,0,0,-1.3333333,0,266.66667)"><path d="m 0,0 c 0,0 -0.314,0.199 -0.878,0.594 -0.539,0.43 -1.357,1.064 -2.222,2.03 -0.873,0.959 -1.864,2.201 -2.819,3.751 -0.937,1.556 -1.88,3.393 -2.664,5.492 -1.524,4.219 -2.347,9.416 -2.449,14.952 -0.084,5.541 0.592,11.458 2.224,17.167 0.828,2.849 1.888,5.654 3.364,8.26 0.738,1.301 1.589,2.552 2.625,3.682 1.048,1.122 2.264,2.142 3.901,2.726 1.49,0.555 3.289,0.527 4.749,0.025 1.492,-0.487 2.711,-1.357 3.719,-2.293 2.003,-1.913 3.25,-4.115 4.219,-6.162 1.873,-4.141 2.615,-7.801 3.086,-10.336 0.231,-1.272 0.373,-2.276 0.461,-2.96 0.088,-0.685 0.135,-1.05 0.135,-1.05 l -2.665,-0.313 c 0,0 -0.045,0.351 -0.13,1.01 -0.084,0.658 -0.22,1.622 -0.442,2.837 -0.443,2.418 -1.17,5.913 -2.88,9.685 -0.871,1.856 -2.01,3.805 -3.618,5.331 -1.598,1.515 -3.722,2.457 -5.8,1.676 -0.927,-0.326 -1.929,-1.078 -2.763,-1.995 -0.849,-0.925 -1.602,-2.018 -2.265,-3.19 -1.331,-2.346 -2.337,-4.982 -3.118,-7.677 -1.548,-5.408 -2.202,-11.095 -2.119,-16.381 0.045,-2.644 0.263,-5.196 0.659,-7.578 0.386,-2.385 0.957,-4.591 1.555,-6.599 C -5.542,10.675 -4.889,8.858 -4.166,7.31 -3.46,5.754 -2.75,4.43 -2.107,3.368 -1.468,2.3 -0.94,1.467 -0.569,0.895 -0.19,0.319 0,0 0,0" transform="translate(153.3028,66.5746)"/><path d="m 0,0 c 0,0 -18.972,2.301 -18.705,3.592 0.267,1.29 17.714,-0.179 17.714,-0.179 z" transform="translate(78.5622,101.4259)"/><path d="M 0,0 C 0,0 -15.082,9.292 -14.29,10.548 -13.498,11.803 1.598,3.28 1.598,3.28 Z" transform="translate(78.7397,108.4066)"/><path d="M 0,0 C 0,0 -8.455,14.121 -7.25,14.933 -6.045,15.746 2.823,2.153 2.823,2.153 Z" transform="translate(82.9987,115.7364)"/><path d="m 0,0 c 1.244,-18.697 -8.734,-34.584 -22.284,-35.486 -13.551,-0.901 -25.545,13.525 -26.789,32.222 -1.243,18.697 8.734,34.584 22.285,35.486 C -13.237,33.123 -1.243,18.697 0,0" fill="#fff" transform="translate(126.4137,91.5567)"/></g><path d="m 102.992,117.76 c -10.81,0 -19.658,-12.442 -19.782,-27.844 v 0 c -10e-4,-0.12 -10e-4,-0.241 -10e-4,-0.361 v 0 C 83.224,74.281 91.866,61.91 102.628,61.848 v 0 c 0.027,0 0.053,0 0.081,0 v 0 c 0.01,0 0.021,0 0.031,0 v 0 c 10.797,0.025 19.629,12.458 19.751,27.844 v 0 c 0.001,0.121 0.001,0.241 0.001,0.362 v 0 c -0.015,15.273 -8.657,27.646 -19.419,27.706 v 0 c -0.027,0 -0.054,0 -0.081,0" fill="url(#l)" transform="matrix(1.3333333,0,0,-1.3333333,0,266.66667)"/><g clip-path="url(#m)" transform="matrix(1.3333333,0,0,-1.3333333,0,266.66667)"><path d="M 0,0 31.145,5.403 4.972,-10.404 Z" fill="#fcf1bd" transform="translate(78.9824,82.4217)"/><path d="M 0,0 31.362,-4.406 0.252,-11.221 Z" fill="#f9e98c" transform="translate(79.2227,91.8424)"/></g><g clip-path="url(#n)" transform="matrix(1.3333333,0,0,-1.3333333,0,266.66667)"><path d="m 0,0 c -0.118,-11.995 -6.559,-21.673 -14.387,-21.618 -7.827,0.055 -14.076,9.823 -13.959,21.818 0.119,11.995 6.559,21.674 14.387,21.618 C -6.132,21.763 0.118,11.995 0,0" transform="translate(117.8782,89.148)"/><path d="m 0,0 c -0.599,-1.94 0.069,-3.768 1.491,-4.085 1.423,-0.316 3.062,1 3.661,2.94 C 5.751,0.794 5.084,2.622 3.661,2.939 2.239,3.255 0.599,1.939 0,0 M -5.982,26.599 C -1.593,25.689 0.517,19.923 -1.27,13.718 -3.057,7.514 -8.064,3.221 -12.453,4.13 c -4.39,0.909 -6.5,6.677 -4.713,12.881 1.787,6.204 6.794,10.497 11.184,9.588" fill="#fff" transform="translate(107.8824,87.302)"/></g><g clip-path="url(#o)" transform="matrix(1.3333333,0,0,-1.3333333,0,266.66667)"><path d="m 0,0 c 0,0 -0.073,0.114 -0.216,0.335 -0.149,0.226 -0.337,0.541 -0.569,0.977 -0.109,0.23 -0.231,0.487 -0.366,0.77 -0.045,0.14 -0.182,0.313 -0.158,0.451 0.071,0.127 0.077,0.274 0.119,0.419 0.13,0.589 0.314,1.257 0.546,1.995 0.931,2.935 2.856,7.025 6.522,10.829 1.819,1.897 4.052,3.724 6.722,5.183 2.66,1.454 5.781,2.542 9.173,2.79 3.335,0.233 6.911,-0.392 10.102,-1.8 3.22,-1.397 6.118,-3.519 8.538,-6.032 2.434,-2.508 4.428,-5.388 5.987,-8.406 1.569,-3.016 2.711,-6.172 3.487,-9.295 0.784,-3.122 1.199,-6.222 1.331,-9.154 0.155,-2.921 -0.021,-5.738 -0.452,-8.26 -0.471,-2.526 -1.085,-4.803 -1.856,-6.734 -0.739,-1.942 -1.556,-3.555 -2.326,-4.82 -0.773,-1.262 -1.414,-2.219 -1.916,-2.827 -0.499,-0.605 -0.765,-0.928 -0.765,-0.928 0,0 0.166,0.382 0.479,1.097 0.291,0.724 0.751,1.758 1.204,3.117 0.218,0.683 0.455,1.436 0.664,2.269 0.23,0.823 0.459,1.718 0.644,2.685 0.367,1.933 0.725,4.112 0.863,6.51 0.19,2.399 0.234,4.971 0.111,7.727 -0.123,2.744 -0.509,5.613 -1.235,8.506 -0.718,2.891 -1.773,5.802 -3.21,8.562 -1.426,2.764 -3.242,5.375 -5.416,7.615 -2.162,2.247 -4.712,4.097 -7.47,5.293 -2.771,1.207 -5.679,1.718 -8.533,1.529 C 19.198,20.198 16.525,19.284 14.209,18.017 11.885,16.748 9.907,15.134 8.298,13.454 5.048,10.083 3.359,6.473 2.551,3.928 2.143,2.646 1.942,1.6 1.824,0.94 1.718,0.181 1.662,-0.224 1.662,-0.224 Z" transform="translate(76.9167,101.6472)"/><path d="m 0,0 c 1.784,-1.562 5.973,-6.115 6.063,-6.515 0.282,-1.259 -1.404,-1.214 -1.82,-1.27 -0.416,-0.055 0.6,-2.704 1.008,-4.218 0.409,-1.513 0.941,-3.186 0.1,-3.186 -0.84,0 -0.739,0.595 -1.293,1.342 -0.554,0.748 -0.447,-0.869 -0.861,-1.793 -0.415,-0.924 -1.103,-3.211 -1.662,-2.379 -0.56,0.83 0.746,4.782 -1.208,6.781 C -1.626,-9.239 0,0 0,0" fill="#e6effc" transform="translate(166.6565,66.3764)"/><path d="M 0,0 C 0,0 0.081,-0.029 0.232,-0.083 0.373,-0.129 0.586,-0.18 0.832,-0.211 1.324,-0.267 1.975,-0.236 2.703,0.048 2.881,0.122 3.061,0.214 3.219,0.321 3.296,0.375 3.369,0.429 3.421,0.476 3.446,0.499 3.467,0.523 3.465,0.53 3.475,0.536 3.439,0.546 3.361,0.399 3.331,0.334 3.328,0.329 3.3,0.206 3.29,0.155 3.287,0.101 3.29,0.048 L 3.293,0.009 C 3.311,-0.119 3.297,-0.023 3.301,-0.05 L 3.298,-0.038 3.272,0.061 C 3.248,0.105 3.272,0.003 3.258,0.029 3.247,0.032 3.221,0.046 3.176,0.077 3.088,0.142 2.897,0.258 2.664,0.373 2.195,0.607 1.582,0.882 0.986,1.264 0.385,1.643 -0.198,2.147 -0.683,2.732 -1.17,3.317 -1.522,3.993 -1.791,4.656 -2.029,5.292 -2.206,5.827 -2.403,6.401 -2.786,7.523 -3.117,8.593 -3.362,9.532 -3.871,11.4 -4.013,12.776 -4.013,12.776 l 2.665,0.308 c 0,0 0.105,-1.114 0.59,-2.854 C -0.521,9.364 -0.209,8.349 0.152,7.257 0.335,6.719 0.524,6.164 0.717,5.599 0.872,5.112 1.106,4.676 1.361,4.259 1.625,3.848 1.95,3.48 2.345,3.144 2.742,2.804 3.201,2.516 3.736,2.156 4.001,1.969 4.299,1.772 4.6,1.429 4.746,1.256 4.893,1.046 4.987,0.794 5.033,0.696 5.091,0.461 5.101,0.374 L 5.109,0.273 5.111,0.26 5.12,0.188 5.122,0.137 C 5.123,0.068 5.119,-0.003 5.108,-0.072 5.082,-0.229 5.055,-0.262 5.016,-0.359 4.877,-0.624 4.752,-0.717 4.661,-0.796 4.562,-0.878 4.476,-0.931 4.393,-0.98 4.228,-1.076 4.075,-1.144 3.924,-1.196 3.625,-1.301 3.341,-1.362 3.066,-1.403 2.518,-1.481 2.004,-1.466 1.562,-1.351 1.12,-1.238 0.767,-1.029 0.529,-0.813 0.288,-0.598 0.165,-0.376 0.088,-0.231 0.021,-0.087 0,0 0,0" fill="#9cbddb" transform="translate(168.4198,60.0794)"/><path d="M 0,0 C 0.498,-0.988 0.911,-1.991 1.258,-3.037 1.585,-4.09 1.865,-5.169 1.934,-6.357 1.956,-6.952 1.939,-7.586 1.692,-8.267 1.562,-8.605 1.358,-8.954 1.06,-9.235 L 0.948,-9.339 0.934,-9.351 0.927,-9.358 0.79,-9.451 0.768,-9.463 0.757,-9.468 C 0.739,-9.478 0.671,-9.51 0.625,-9.524 0.521,-9.56 0.405,-9.577 0.299,-9.574 c -0.168,0.01 -0.242,0.04 -0.357,0.084 -0.065,0.031 -0.126,0.068 -0.185,0.109 -0.08,0.061 -0.154,0.131 -0.192,0.177 -0.173,0.202 -0.241,0.34 -0.32,0.484 -0.28,0.55 -0.453,1.045 -0.642,1.548 -0.182,0.492 -0.358,1.013 -0.537,1.426 l 1.266,0.244 v -0.001 c -0.103,-1.069 -0.193,-2.15 -0.406,-3.258 -0.112,-0.554 -0.247,-1.116 -0.511,-1.691 -0.133,-0.286 -0.309,-0.579 -0.566,-0.849 -0.133,-0.134 -0.287,-0.258 -0.463,-0.36 -0.154,-0.094 -0.43,-0.182 -0.525,-0.204 -0.094,-0.022 -0.204,-0.05 -0.357,-0.048 -0.055,-0.004 -0.176,0.006 -0.293,0.039 -0.115,0.033 -0.32,0.138 -0.416,0.298 -0.125,0.183 -0.125,0.292 -0.143,0.422 10e-4,0.075 0.006,0.179 0.019,0.227 0.024,0.119 0.054,0.2 0.083,0.28 0.118,0.294 0.237,0.519 0.344,0.758 0.214,0.468 0.385,0.94 0.483,1.437 0.202,0.989 0.047,2.068 -0.419,3.044 0.655,-0.851 1.082,-1.944 1.094,-3.099 0.01,-0.572 -0.07,-1.151 -0.194,-1.7 -0.058,-0.271 -0.132,-0.547 -0.169,-0.767 -0.006,-0.049 -0.01,-0.098 -0.005,-0.112 0,-0.018 0.012,0.018 0.009,0.026 -0.002,0.066 -10e-4,0.103 -0.078,0.235 -0.067,0.099 -0.198,0.179 -0.255,0.191 -0.05,0.02 -0.105,0.017 -0.093,0.023 -0.019,0.001 0.003,0.009 0.039,0.014 0.222,0.058 0.256,0.093 0.393,0.216 0.112,0.12 0.223,0.288 0.314,0.489 0.184,0.401 0.309,0.888 0.405,1.385 0.189,1 0.277,2.06 0.374,3.126 v 0.001 l 0.123,2.402 1.142,-2.159 c 0.282,-0.532 0.476,-0.997 0.699,-1.476 0.216,-0.466 0.439,-0.949 0.67,-1.318 0.051,-0.084 0.121,-0.173 0.124,-0.165 0.005,-0.006 -0.017,0.024 -0.047,0.043 -0.03,0.024 -0.063,0.044 -0.1,0.059 -0.084,0.036 -0.126,0.052 -0.262,0.06 C 0.255,-7.929 0.156,-7.945 0.068,-7.978 0.03,-7.991 -0.029,-8.023 -0.04,-8.031 l 0.01,0.007 0.021,0.013 0.003,0.002 c 0.118,0.081 -0.157,-0.109 -0.129,-0.089 l 0.002,0.002 0.003,0.005 0.029,0.034 c 0.078,0.087 0.143,0.204 0.192,0.36 0.097,0.318 0.107,0.758 0.059,1.208 -0.104,0.912 -0.398,1.876 -0.747,2.811 -0.347,0.939 -0.747,1.88 -1.198,2.769 z" fill="#9cbddb" transform="translate(171.3565,59.7734)"/><path d="m 0,0 c 9.451,2.758 20.902,0.761 22.62,0.16 6.997,-2.447 -2.628,-21.965 -18.14,-23.725 -7.334,-0.833 -12.031,0.656 -16.35,8.323 z" fill="#e6effc" transform="translate(136.399,64.3918)"/><path d="m 0,0 c 0,0 0.278,0.143 0.808,0.377 0.266,0.115 0.586,0.279 0.978,0.427 0.402,0.139 0.864,0.3 1.382,0.48 2.086,0.635 5.172,1.326 8.923,1.387 1.872,0.028 3.901,-0.052 6.036,-0.299 1.069,-0.123 2.16,-0.286 3.291,-0.517 0.279,-0.053 0.569,-0.118 0.865,-0.193 0.144,-0.033 0.294,-0.07 0.468,-0.125 l 0.25,-0.076 0.063,-0.019 0.169,-0.07 0.095,-0.045 0.383,-0.178 c 0.108,-0.039 0.366,-0.221 0.536,-0.339 0.414,-0.267 0.654,-0.573 0.928,-0.882 0.991,-1.33 1.153,-2.877 1.086,-4.214 -0.081,-1.361 -0.417,-2.633 -0.857,-3.849 -0.887,-2.434 -2.228,-4.647 -3.791,-6.671 -3.154,-4.012 -7.359,-7.242 -11.944,-8.888 -1.136,-0.429 -2.301,-0.721 -3.449,-0.961 -0.586,-0.094 -1.136,-0.182 -1.739,-0.258 -0.547,-0.045 -1.038,-0.114 -1.612,-0.137 -2.219,-0.129 -4.359,-0.047 -6.325,0.536 -1.96,0.554 -3.626,1.541 -4.864,2.602 -1.242,1.067 -2.139,2.145 -2.813,3.054 -0.663,0.915 -1.142,1.656 -1.438,2.172 -0.305,0.512 -0.468,0.786 -0.468,0.786 l 2.337,1.316 c 0,0 0.15,-0.25 0.43,-0.72 0.272,-0.476 0.707,-1.145 1.295,-1.957 0.594,-0.804 1.372,-1.727 2.386,-2.6 1.017,-0.868 2.303,-1.626 3.869,-2.073 1.551,-0.472 3.434,-0.554 5.389,-0.441 0.475,0.014 1.038,0.09 1.563,0.133 0.49,0.073 0.987,0.147 1.489,0.222 1.006,0.214 2.029,0.466 3.034,0.847 4.046,1.445 7.88,4.37 10.746,8.019 1.418,1.832 2.626,3.846 3.383,5.932 0.378,1.037 0.645,2.098 0.701,3.09 0.058,0.985 -0.121,1.894 -0.533,2.405 -0.115,0.109 -0.226,0.261 -0.304,0.29 -0.02,0.016 -0.038,0.034 -0.056,0.054 -0.01,0.019 -0.031,0.042 -0.113,0.074 l -0.385,0.174 -0.096,0.043 -0.024,0.011 c 0.046,-0.019 -0.136,0.056 0.097,-0.039 l -0.038,0.01 -0.152,0.043 c -0.093,0.029 -0.213,0.058 -0.341,0.086 -0.244,0.058 -0.495,0.112 -0.756,0.159 -1.03,0.194 -2.07,0.35 -3.083,0.47 -2.028,0.252 -3.962,0.409 -5.748,0.5 C 10.263,0.263 8.624,0.275 7.161,0.312 5.704,0.304 4.416,0.294 3.366,0.225 2.318,0.186 1.47,0.114 0.89,0.061 0.312,0.01 0,0 0,0" fill="#9cbddb" transform="translate(136.399,64.3918)"/><path d="m 0,0 c 0,0 -0.203,-0.068 -0.555,-0.156 -0.335,-0.082 -0.814,-0.2 -1.389,-0.341 -0.277,-0.086 -0.578,-0.146 -0.883,-0.246 -0.307,-0.088 -0.625,-0.179 -0.944,-0.293 -0.325,-0.093 -0.638,-0.239 -0.966,-0.351 -0.314,-0.147 -0.642,-0.268 -0.947,-0.438 -1.25,-0.606 -2.366,-1.477 -3.231,-2.231 -0.428,-0.376 -0.793,-0.716 -1.052,-0.96 -0.26,-0.243 -0.429,-0.381 -0.429,-0.381 0,0 0.015,0.209 0.078,0.574 0.029,0.183 0.077,0.402 0.161,0.642 0.071,0.247 0.164,0.524 0.308,0.805 0.49,1.165 1.67,2.575 3.264,3.349 0.391,0.201 0.803,0.35 1.211,0.482 0.414,0.106 0.822,0.215 1.224,0.248 0.4,0.058 0.788,0.062 1.152,0.054 C -2.634,0.762 -2.292,0.69 -1.982,0.652 -1.353,0.544 -0.848,0.388 -0.524,0.241 -0.189,0.099 0,0 0,0" fill="#9cbddb" transform="translate(130.1579,50.4205)"/><path d="M 0,0 C 0,0 0.168,-0.005 0.435,-0.046 0.7,-0.074 1.113,-0.161 1.553,-0.326 2.022,-0.467 2.516,-0.729 3.049,-1.093 3.308,-1.288 3.592,-1.491 3.839,-1.771 3.974,-1.899 4.092,-2.047 4.196,-2.22 4.306,-2.389 4.415,-2.548 4.469,-2.758 4.531,-2.961 4.571,-3.17 4.589,-3.381 4.595,-3.606 4.573,-3.831 4.545,-4.048 4.461,-4.492 4.27,-4.917 4.005,-5.252 3.763,-5.604 3.422,-5.828 3.167,-6.04 2.884,-6.227 2.61,-6.354 2.387,-6.473 1.902,-6.66 1.53,-6.752 1.255,-6.779 0.995,-6.814 0.847,-6.834 0.847,-6.834 c 0,0 0.105,0.078 0.291,0.214 0.195,0.123 0.436,0.346 0.714,0.625 0.119,0.156 0.256,0.322 0.375,0.512 0.099,0.203 0.225,0.408 0.275,0.652 0.084,0.232 0.09,0.492 0.1,0.748 -0.008,0.259 -0.045,0.518 -0.118,0.772 -0.295,1.017 -0.978,1.86 -1.52,2.422 C 0.417,-0.322 0,0 0,0" fill="#9cbddb" transform="translate(136.525,61.6551)"/><path d="M 0,0 C 0.2,-15.788 3.794,-33.092 17.088,-47.138 1.862,-41.753 -3.657,-34.82 -8.538,-26.1 L 8.745,-42.132 C 9.819,-56.552 14.026,-66.931 24.056,-79.445 9.74,-77.762 1.788,-67.558 -2.976,-57.15 l 17.003,-18.811 c 1.856,-26.939 -10.106,-42.939 -24.388,-59.861 4.41,45.308 -29.354,74.264 -20.06,115.289 l -9.502,-12.036 c 0.236,35.717 17.618,62.156 39.668,82.218 z" fill="#3da9ff" transform="translate(48.3969,109.4057)"/><path d="m 0,0 c -9.499,-10.686 -14.683,-27.533 -15.08,-45.24 l 5.823,7.913 c -8.271,-35.198 23.674,-70.096 23.134,-103.423 5.969,10.91 11.215,21.897 8.911,35.553 l 6.335,-0.211 c -7.974,11.299 -10.413,23.212 -13.514,35.052 l 5.49,-1.69 C 13.688,-59.358 6.518,-46.607 7.374,-31.715 Z" fill="#94d4ff" transform="translate(40.5853,137.058)"/><path d="m 0,0 0.092,-3.205 c 0.065,-1.048 0.103,-2.094 0.189,-3.144 0.102,-1.05 0.164,-2.105 0.297,-3.15 0.141,-1.043 0.229,-2.096 0.412,-3.133 0.178,-1.036 0.306,-2.084 0.534,-3.11 0.217,-1.029 0.392,-2.068 0.664,-3.082 0.257,-1.018 0.481,-2.046 0.799,-3.046 0.301,-1.005 0.574,-2.019 0.94,-3.002 0.348,-0.989 0.67,-1.987 1.086,-2.949 0.398,-0.969 0.768,-1.95 1.235,-2.887 0.45,-0.945 0.866,-1.907 1.385,-2.817 0.505,-0.915 0.963,-1.858 1.534,-2.735 0.563,-0.882 1.058,-1.807 1.682,-2.648 0.612,-0.847 1.165,-1.738 1.824,-2.551 0.656,-0.815 1.279,-1.656 1.96,-2.45 l 2.089,-2.343 2.952,-3.313 -4.229,1.084 -10e-4,0.001 -2.152,0.553 -2.126,0.656 -2.093,0.765 -2.053,0.878 -2.003,0.993 c -0.659,0.351 -1.295,0.745 -1.925,1.142 l -1.826,1.297 c -0.579,0.471 -1.168,0.928 -1.735,1.41 -0.542,0.513 -1.097,1.009 -1.621,1.535 -0.505,0.546 -1.03,1.071 -1.512,1.633 -0.47,0.574 -0.949,1.138 -1.38,1.738 -0.416,0.611 -0.861,1.198 -1.248,1.824 -0.373,0.635 -0.781,1.244 -1.119,1.895 -0.326,0.657 -0.676,1.298 -0.978,1.961 -0.286,0.671 -0.585,1.334 -0.843,2.012 l -0.709,2.052 1.046,-1.891 1.136,-1.825 c 0.388,-0.599 0.821,-1.168 1.227,-1.75 0.42,-0.572 0.879,-1.115 1.313,-1.67 0.445,-0.548 0.943,-1.052 1.409,-1.578 0.478,-0.514 1.008,-0.98 1.493,-1.482 0.505,-0.484 1.048,-0.928 1.567,-1.392 0.539,-0.443 1.104,-0.854 1.651,-1.281 l 1.712,-1.188 1.78,-1.076 c 0.62,-0.316 1.228,-0.646 1.824,-0.999 l 1.864,-0.924 1.917,-0.819 1.961,-0.717 1.999,-0.617 2.029,-0.522 h 0.001 l -1.277,-2.229 -2.185,2.451 c -0.712,0.831 -1.367,1.711 -2.052,2.564 -0.688,0.852 -1.271,1.784 -1.91,2.672 -0.652,0.882 -1.173,1.849 -1.761,2.772 -0.597,0.92 -1.079,1.905 -1.607,2.864 -0.541,0.953 -0.978,1.957 -1.448,2.945 -0.487,0.982 -0.875,2.005 -1.29,3.017 -0.433,1.005 -0.771,2.045 -1.133,3.075 -0.38,1.026 -0.666,2.08 -0.979,3.126 -0.33,1.042 -0.564,2.107 -0.83,3.165 -0.282,1.055 -0.464,2.129 -0.688,3.196 -0.236,1.064 -0.369,2.145 -0.553,3.218 -0.188,1.073 -0.28,2.156 -0.425,3.234 -0.137,1.079 -0.202,2.163 -0.306,3.244 -0.088,1.084 -0.129,2.178 -0.196,3.267 l -0.092,3.214 z" fill="#2864bc" transform="translate(49.7377,109.4414)"/><path d="m 0,0 c 1.856,-26.939 -7.568,-45.478 -24.388,-59.862 4.411,45.308 -29.354,74.265 -20.06,115.29 l -9.501,-12.036 c 0.235,35.717 17.617,62.156 39.668,82.218" fill="none" stroke="#2864bc" stroke-width="2.68300009" stroke-miterlimit="100" transform="translate(62.4235,33.4451)"/><path d="m 0,0 c 0.198,-1.615 0.41,-3.215 0.647,-4.786 0.245,-1.581 0.526,-3.155 0.844,-4.715 l 0.528,-2.325 c 0.207,-0.765 0.396,-1.536 0.618,-2.296 0.24,-0.752 0.446,-1.518 0.714,-2.261 0.272,-0.741 0.504,-1.498 0.816,-2.223 0.578,-1.468 1.216,-2.914 1.941,-4.318 0.353,-0.707 0.718,-1.409 1.119,-2.092 0.384,-0.692 0.78,-1.378 1.21,-2.046 0.415,-0.676 0.834,-1.351 1.289,-2.004 0.448,-0.657 0.881,-1.324 1.361,-1.963 0.475,-0.64 0.925,-1.297 1.421,-1.925 l 1.472,-1.894 0.002,-0.003 2.094,-2.692 -3.297,0.521 -2.363,0.374 c -0.786,0.132 -1.557,0.361 -2.335,0.538 -0.783,0.165 -1.531,0.467 -2.291,0.718 -0.762,0.245 -1.478,0.615 -2.208,0.94 -0.738,0.31 -1.426,0.722 -2.123,1.111 -0.71,0.368 -1.363,0.828 -2.025,1.271 -0.674,0.425 -1.282,0.94 -1.902,1.435 -0.635,0.478 -1.201,1.034 -1.782,1.569 -0.595,0.521 -1.116,1.116 -1.659,1.684 -0.56,0.555 -1.024,1.194 -1.522,1.798 -0.508,0.597 -0.93,1.259 -1.392,1.887 -0.467,0.625 -0.851,1.306 -1.278,1.955 -0.426,0.65 -0.769,1.35 -1.156,2.02 -0.374,0.678 -0.7,1.381 -1.05,2.068 -0.664,1.395 -1.239,2.826 -1.789,4.259 l 1.144,-1.997 1.21,-1.948 c 0.426,-0.634 0.826,-1.282 1.271,-1.899 0.453,-0.611 0.878,-1.239 1.349,-1.832 0.478,-0.587 0.912,-1.207 1.422,-1.764 0.506,-0.559 0.969,-1.152 1.512,-1.673 0.533,-0.528 1.034,-1.084 1.595,-1.578 0.552,-0.502 1.079,-1.029 1.673,-1.478 0.581,-0.463 1.144,-0.947 1.766,-1.349 0.608,-0.422 1.206,-0.855 1.852,-1.211 0.632,-0.378 1.253,-0.772 1.923,-1.076 0.659,-0.323 1.305,-0.672 1.997,-0.918 0.685,-0.262 1.349,-0.57 2.06,-0.756 0.706,-0.195 1.373,-0.507 2.097,-0.644 0.714,-0.161 1.417,-0.375 2.141,-0.495 l 2.176,-0.345 -1.203,-2.171 -0.002,0.004 -1.514,1.946 c -0.508,0.645 -0.976,1.326 -1.466,1.987 -0.495,0.658 -0.946,1.352 -1.41,2.035 -0.472,0.677 -0.909,1.38 -1.343,2.085 -0.447,0.696 -0.862,1.414 -1.264,2.14 -0.42,0.715 -0.804,1.452 -1.175,2.196 -0.762,1.476 -1.435,3.001 -2.045,4.549 -0.327,0.766 -0.574,1.561 -0.859,2.342 -0.282,0.783 -0.499,1.584 -0.75,2.376 -0.232,0.796 -0.43,1.6 -0.647,2.401 l -0.549,2.417 c -0.329,1.617 -0.618,3.236 -0.87,4.859 -0.247,1.636 -0.46,3.25 -0.656,4.853 z" fill="#2864bc" transform="translate(59.5173,65.651)"/><path d="M 0,0 C 10.192,16.231 31.943,26.472 49.089,26.037 L 40.971,13.224 31.969,10.843 c 41.736,14.137 79.874,0.421 87.26,-48.885 -11.127,13.325 -25.28,23.838 -42.535,23.326 L 7.059,-8.631 Z" fill="#3da9ff" transform="translate(65.6791,168.2343)"/><path d="m 0,0 2.046,2.977 2.371,2.929 2.539,2.701 2.713,2.516 2.864,2.335 c 0.982,0.741 1.998,1.436 2.996,2.155 1.016,0.692 2.076,1.317 3.113,1.977 1.047,0.643 2.146,1.197 3.216,1.799 1.076,0.595 2.208,1.077 3.31,1.62 1.102,0.544 2.264,0.954 3.393,1.437 1.128,0.489 2.315,0.828 3.469,1.248 1.153,0.429 2.36,0.695 3.537,1.049 1.177,0.361 2.4,0.554 3.598,0.838 1.2,0.281 2.434,0.401 3.65,0.608 1.22,0.186 2.462,0.234 3.692,0.356 1.237,0.067 2.481,0.047 3.721,0.073 L 52.597,26.667 51.344,24.586 47.386,18.01 45.407,14.722 44.912,13.9 C 44.833,13.761 44.74,13.63 44.672,13.485 44.641,13.41 44.624,13.327 44.561,13.272 44.492,13.22 44.402,13.18 44.324,13.134 43.995,12.959 43.693,12.768 43.341,12.606 43.008,12.434 42.646,12.278 42.279,12.126 l -1.149,0.692 7.915,13.151 1.115,-2.032 C 48.994,23.909 47.827,23.93 46.66,23.867 45.495,23.748 44.324,23.707 43.164,23.529 42.007,23.33 40.836,23.221 39.69,22.95 38.546,22.677 37.381,22.498 36.254,22.15 35.127,21.809 33.973,21.559 32.867,21.145 31.76,20.74 30.622,20.42 29.54,19.948 28.456,19.484 27.34,19.092 26.282,18.569 25.225,18.046 24.136,17.585 23.105,17.014 22.078,16.435 21.021,15.905 20.017,15.287 19.024,14.653 18.006,14.055 17.033,13.392 16.078,12.702 15.104,12.037 14.165,11.329 L 11.43,9.1 8.846,6.703 6.437,4.141 4.258,1.458 2.212,-1.518 Z" fill="#2864bc" transform="translate(64.5733,168.9935)"/><path d="m 0,0 3.141,-0.031 3.285,-0.284 3.202,-0.532 3.148,-0.779 c 1.026,-0.336 2.058,-0.656 3.077,-1.009 0.998,-0.408 2.007,-0.792 2.993,-1.222 0.967,-0.473 1.949,-0.916 2.901,-1.415 0.933,-0.53 1.887,-1.029 2.802,-1.588 0.9,-0.581 1.822,-1.132 2.702,-1.741 0.867,-0.627 1.756,-1.226 2.602,-1.878 0.834,-0.667 1.69,-1.309 2.505,-1.997 0.802,-0.701 1.624,-1.383 2.41,-2.102 0.773,-0.732 1.56,-1.45 2.32,-2.194 l 2.234,-2.276 2.153,-2.348 2.076,-2.41 10e-4,-10e-4 -2.356,-1.059 c -0.412,2.381 -0.792,4.769 -1.361,7.114 -0.135,0.588 -0.253,1.18 -0.401,1.765 l -0.479,1.742 c -0.316,1.163 -0.623,2.329 -1.026,3.463 -0.721,2.297 -1.592,4.54 -2.538,6.746 -0.514,1.083 -0.975,2.194 -1.53,3.256 -0.575,1.05 -1.104,2.128 -1.715,3.157 -0.639,1.011 -1.228,2.056 -1.904,3.041 -0.703,0.966 -1.346,1.978 -2.096,2.907 -1.473,1.879 -3.04,3.685 -4.758,5.337 -0.863,0.822 -1.712,1.661 -2.65,2.397 l -1.374,1.144 -1.443,1.053 c -0.487,0.343 -0.954,0.714 -1.457,1.034 l -1.514,0.95 c -0.99,0.666 -2.065,1.187 -3.108,1.765 -1.038,0.586 -2.155,1.019 -3.228,1.538 -1.094,0.475 -2.222,0.871 -3.331,1.312 -1.14,0.356 -2.272,0.74 -3.421,1.068 -1.164,0.277 -2.311,0.621 -3.487,0.846 -2.345,0.482 -4.716,0.855 -7.107,1.063 -1.196,0.095 -2.39,0.222 -3.593,0.233 -1.2,0.039 -2.401,0.092 -3.604,0.047 -1.203,-0.006 -2.404,-0.053 -3.608,-0.105 -1.204,-0.041 -2.41,-0.077 -3.612,-0.198 -2.409,-0.167 -4.809,-0.48 -7.212,-0.811 -2.4,-0.347 -4.804,-0.734 -7.194,-1.224 -2.399,-0.46 -4.781,-1.014 -7.183,-1.556 l 3.408,1.419 c 1.149,0.442 2.316,0.836 3.478,1.256 2.348,0.747 4.713,1.486 7.131,2.023 1.199,0.318 2.42,0.526 3.64,0.751 1.216,0.25 2.448,0.402 3.68,0.569 1.229,0.189 2.468,0.293 3.709,0.402 1.238,0.15 2.486,0.128 3.732,0.156 1.246,0.046 2.493,-0.007 3.74,-0.049 1.247,-0.012 2.491,-0.142 3.736,-0.242 2.488,-0.217 4.963,-0.605 7.415,-1.109 1.229,-0.237 2.433,-0.595 3.651,-0.887 1.205,-0.343 2.394,-0.746 3.59,-1.121 1.168,-0.461 2.352,-0.88 3.504,-1.379 1.132,-0.545 2.305,-1.005 3.402,-1.621 1.1,-0.607 2.231,-1.161 3.278,-1.861 l 1.597,-1.003 c 0.53,-0.338 1.024,-0.729 1.538,-1.091 l 1.523,-1.113 1.45,-1.206 c 0.99,-0.779 1.886,-1.661 2.796,-2.529 1.811,-1.743 3.462,-3.643 5.009,-5.619 0.788,-0.977 1.464,-2.036 2.2,-3.051 0.709,-1.033 1.327,-2.124 1.994,-3.184 0.639,-1.076 1.192,-2.199 1.791,-3.297 0.579,-1.109 1.06,-2.262 1.594,-3.392 0.984,-2.293 1.888,-4.622 2.634,-6.998 0.416,-1.176 0.734,-2.378 1.061,-3.579 l 0.494,-1.799 c 0.152,-0.603 0.274,-1.212 0.413,-1.818 0.586,-2.417 0.977,-4.868 1.399,-7.314 l 0.818,-4.743 -3.174,3.684 -0.001,0.001 -2.024,2.35 -2.094,2.283 -2.167,2.208 c -0.736,0.721 -1.497,1.414 -2.245,2.123 -0.759,0.694 -1.551,1.35 -2.324,2.028 -0.785,0.662 -1.607,1.277 -2.408,1.919 -0.812,0.626 -1.663,1.197 -2.492,1.799 -0.842,0.583 -1.72,1.105 -2.578,1.662 -0.872,0.532 -1.777,1.003 -2.664,1.509 -0.902,0.473 -1.831,0.89 -2.745,1.339 -0.932,0.406 -1.883,0.766 -2.823,1.153 l -2.892,0.949 -2.951,0.73 -2.995,0.498 -2.975,0.263 -3.142,0.031 z" fill="#2864bc" transform="translate(142.386,154.8597)"/><path d="M 0,0 C -0.181,-11.753 12.863,-12.707 14.562,-10.58 23.092,0.092 33.478,38.799 29.509,40.588 26.264,42.051 11.744,23.109 2.118,7.712" fill="#e6effc" transform="translate(126.788,143.6204)"/><path d="m 0,0 c 0,0 0.09,-0.478 0.299,-1.32 0.205,-0.842 0.563,-2.064 1.293,-3.4 0.729,-1.331 1.901,-2.741 3.651,-3.81 1.734,-1.042 4.104,-1.78 6.564,-1.672 0.589,0.034 1.223,0.148 1.599,0.334 0.085,0.044 0.15,0.087 0.162,0.098 0.03,0.031 -0.047,-0.06 0.029,0.032 l 0.171,0.216 c 0.2,0.259 0.415,0.553 0.619,0.844 0.823,1.174 1.581,2.491 2.306,3.88 1.448,2.782 2.747,5.868 3.981,9.101 2.466,6.47 4.7,13.563 6.409,20.754 0.835,3.589 1.588,7.232 1.885,10.754 0.067,0.873 0.099,1.745 0.041,2.534 -0.028,0.388 -0.09,0.766 -0.172,1.004 -0.035,0.117 -0.088,0.184 -0.052,0.135 0.021,-0.025 0.073,-0.071 0.163,-0.115 -0.005,0.002 0.222,-0.088 0.104,-0.043 l -0.04,0.014 -0.08,0.027 c 0.003,-0.009 0.098,-0.043 0.145,-0.04 0.099,0.012 -0.254,-0.05 -0.532,-0.221 C 28.244,38.947 27.919,38.728 27.6,38.49 26.957,38.013 26.331,37.444 25.717,36.873 23.27,34.541 21.09,31.971 19.074,29.521 17.052,27.067 15.209,24.68 13.538,22.452 10.204,17.99 7.549,14.172 5.783,11.443 4.002,8.723 3.028,7.143 3.028,7.143 l -1.82,1.138 c 0,0 0.985,1.596 2.78,4.339 1.816,2.73 4.375,6.651 7.651,11.223 1.64,2.285 3.451,4.738 5.454,7.276 2.025,2.526 4.193,5.158 6.78,7.689 0.655,0.631 1.341,1.246 2.123,1.832 0.393,0.292 0.806,0.577 1.295,0.838 0.507,0.239 1.012,0.551 2.02,0.521 0.159,-0.015 0.367,-0.057 0.479,-0.091 l 0.08,-0.026 0.04,-0.014 c -0.092,0.036 0.163,-0.06 0.182,-0.073 0.297,-0.138 0.523,-0.335 0.695,-0.525 0.337,-0.389 0.478,-0.74 0.588,-1.05 0.205,-0.623 0.265,-1.152 0.308,-1.669 0.075,-1.028 0.031,-1.99 -0.041,-2.946 -0.324,-3.804 -1.097,-7.49 -1.948,-11.164 -0.868,-3.667 -1.875,-7.29 -2.97,-10.826 C 25.622,10.082 24.451,6.63 23.152,3.343 21.855,0.056 20.465,-3.076 18.943,-5.978 c -0.768,-1.449 -1.572,-2.839 -2.462,-4.148 -0.226,-0.33 -0.449,-0.642 -0.7,-0.971 l -0.171,-0.221 c -0.037,-0.053 -0.235,-0.285 -0.346,-0.371 -0.265,-0.232 -0.517,-0.376 -0.759,-0.491 -0.953,-0.423 -1.766,-0.497 -2.566,-0.548 -3.152,-0.105 -5.876,0.899 -7.926,2.339 -2.073,1.439 -3.29,3.413 -3.805,5.083 -0.538,1.683 -0.493,3.056 -0.425,3.947 0.044,0.449 0.095,0.793 0.146,1.016 C -0.024,-0.117 0,0 0,0" fill="#9cbddb" transform="translate(126.788,143.6204)"/><path d="M 0,0 C -0.435,-5.033 2.942,-10.385 7.72,-10.837" fill="none" stroke="#9cbddb" stroke-width="2.01200008" transform="translate(147.1944,177.2444)"/><path d="M 0,0 C -0.435,-5.033 3.277,-12.614 10.048,-14.089" fill="none" stroke="#9cbddb" stroke-width="2.01200008" transform="translate(141.1261,169.2117)"/><path d="m 0,0 c 3.643,-11.708 15.394,-26.562 32.672,-33.905 -4.714,7.1 -7.486,15.644 -5.753,26.508 L 25.891,-19.11 c 34.996,-5.981 62.016,-22.464 81.167,-55.481 2.588,58.386 -24.747,83.631 -58.769,86.92 z" fill="#3da9ff" transform="translate(70.5713,153.0619)"/><path d="m 0,0 c 0.3,-0.84 0.57,-1.733 0.894,-2.529 0.339,-0.788 0.618,-1.585 1.023,-2.364 0.371,-0.786 0.753,-1.568 1.197,-2.317 0.408,-0.768 0.875,-1.502 1.355,-2.229 0.451,-0.745 0.996,-1.428 1.505,-2.134 0.501,-0.713 1.102,-1.351 1.646,-2.032 0.562,-0.667 1.187,-1.282 1.776,-1.926 0.613,-0.623 1.264,-1.211 1.893,-1.818 0.654,-0.583 1.333,-1.14 1.998,-1.711 0.684,-0.55 1.395,-1.07 2.09,-1.606 0.706,-0.524 1.449,-1.001 2.171,-1.505 0.72,-0.506 1.495,-0.936 2.239,-1.408 0.742,-0.478 1.528,-0.887 2.299,-1.319 0.767,-0.439 1.55,-0.852 2.35,-1.235 0.797,-0.386 1.574,-0.812 2.392,-1.159 l 2.429,-1.088 -1.642,-1.977 c -0.315,0.508 -0.655,0.999 -0.958,1.514 -0.286,0.526 -0.588,1.041 -0.859,1.575 -0.262,0.539 -0.552,1.062 -0.79,1.612 -0.242,0.548 -0.505,1.085 -0.717,1.646 -0.454,1.107 -0.859,2.236 -1.184,3.388 -0.171,0.573 -0.334,1.147 -0.456,1.733 -0.14,0.581 -0.256,1.167 -0.348,1.757 -0.215,1.172 -0.35,2.359 -0.398,3.545 -0.043,0.592 -0.059,1.184 -0.052,1.776 -0.009,0.591 -0.003,1.181 0.035,1.771 0.034,0.589 0.068,1.176 0.145,1.76 0.072,0.584 0.117,1.168 0.224,1.745 0.18,1.159 0.436,2.3 0.722,3.428 l -0.065,-1.742 c -0.027,-0.578 0.004,-1.16 -0.011,-1.734 -0.019,-0.576 0.025,-1.152 0.041,-1.725 0.01,-0.574 0.067,-1.145 0.118,-1.715 0.03,-0.57 0.093,-1.136 0.169,-1.701 0.06,-0.566 0.143,-1.128 0.251,-1.685 0.09,-0.56 0.199,-1.115 0.333,-1.665 0.109,-0.554 0.237,-1.104 0.391,-1.646 0.135,-0.547 0.293,-1.087 0.473,-1.62 0.16,-0.539 0.338,-1.071 0.535,-1.597 0.374,-1.057 0.813,-2.091 1.287,-3.106 0.223,-0.513 0.498,-1.004 0.749,-1.505 0.247,-0.502 0.547,-0.979 0.816,-1.469 0.574,-0.964 1.179,-1.909 1.784,-2.856 l 2.423,-3.798 -4.065,1.822 -2.506,1.122 c -0.842,0.358 -1.649,0.798 -2.473,1.198 -0.826,0.397 -1.638,0.824 -2.436,1.28 -0.801,0.449 -1.615,0.874 -2.39,1.372 -0.777,0.492 -1.581,0.94 -2.336,1.469 -0.757,0.527 -1.532,1.027 -2.273,1.576 -0.732,0.563 -1.477,1.11 -2.197,1.688 -0.703,0.603 -1.418,1.19 -2.109,1.806 -0.668,0.643 -1.355,1.266 -2.006,1.927 -0.628,0.684 -1.288,1.338 -1.888,2.048 -0.583,0.725 -1.219,1.406 -1.757,2.169 -0.546,0.754 -1.125,1.485 -1.61,2.282 -0.514,0.778 -1.013,1.566 -1.452,2.39 -0.475,0.803 -0.886,1.641 -1.284,2.484 -0.427,0.823 -0.753,1.728 -1.121,2.598 -0.351,0.875 -0.601,1.711 -0.907,2.568 z" fill="#2864bc" transform="translate(74.5111,148.7715)"/><path d="m 0,0 c -7.738,26.797 -27.7,57.188 -47.262,63.187 l 2.466,-10.583 c -8.525,10.25 -18.852,18.764 -35.446,20.549 l 4.418,-6.781 c -9.971,5.483 -21.189,3.373 -30.515,-0.719 l -1.438,12.123 C -41.625,101.951 5.18,67.339 0,0" fill="#94d4ff" transform="translate(177.4239,80.3199)"/><path d="m 0,0 6.202,-1.195 6.228,-1.477 c 2.054,-0.559 4.089,-1.176 6.134,-1.763 2.023,-0.661 4.027,-1.384 6.041,-2.074 l 5.923,-2.403 c 1.923,-0.919 3.858,-1.817 5.77,-2.76 1.862,-1.039 3.756,-2.025 5.591,-3.111 1.792,-1.157 3.64,-2.232 5.385,-3.459 l 2.598,-1.868 c 0.866,-0.624 1.745,-1.231 2.555,-1.927 l 2.479,-2.023 1.239,-1.013 c 0.406,-0.345 0.788,-0.718 1.183,-1.076 l 2.351,-2.17 1.175,-1.085 1.11,-1.151 2.217,-2.304 1.107,-1.153 1.039,-1.213 2.079,-2.427 1.039,-1.214 0.973,-1.265 1.939,-2.536 c 0.647,-0.845 1.305,-1.683 1.886,-2.574 1.187,-1.764 2.431,-3.492 3.57,-5.286 l 3.329,-5.436 -2.5,-0.613 v 0.004 c 0.048,2.429 0.194,4.859 0.148,7.287 -0.01,1.214 0.009,2.429 -0.026,3.642 l -0.132,3.637 c -0.027,1.214 -0.158,2.42 -0.231,3.63 -0.077,1.21 -0.173,2.418 -0.32,3.621 -0.143,1.202 -0.236,2.412 -0.42,3.608 l -0.531,3.591 c -0.437,2.379 -0.877,4.757 -1.465,7.1 -0.252,1.182 -0.602,2.337 -0.924,3.499 -0.306,1.168 -0.675,2.316 -1.064,3.456 l -0.567,1.716 -0.645,1.687 -0.648,1.685 c -0.225,0.558 -0.481,1.102 -0.72,1.653 -0.477,1.105 -0.969,2.201 -1.531,3.263 l -0.81,1.609 -0.888,1.566 L 66.974,1.239 66,2.75 c -0.629,1.023 -1.332,1.992 -2.041,2.957 -1.403,1.942 -2.966,3.759 -4.594,5.511 -0.825,0.865 -1.694,1.687 -2.548,2.523 -0.915,0.769 -1.773,1.605 -2.7,2.36 -0.934,0.746 -1.838,1.534 -2.827,2.21 l -1.456,1.053 -1.511,0.975 c -2.007,1.316 -4.137,2.433 -6.286,3.518 -2.176,1.029 -4.398,1.979 -6.678,2.793 -1.14,0.411 -2.286,0.808 -3.455,1.135 -1.16,0.362 -2.333,0.681 -3.514,0.981 -2.361,0.61 -4.76,1.073 -7.177,1.519 2.452,-0.087 4.913,-0.262 7.352,-0.636 1.22,-0.184 2.446,-0.357 3.65,-0.642 1.216,-0.236 2.415,-0.544 3.612,-0.868 1.208,-0.291 2.381,-0.702 3.566,-1.08 1.175,-0.404 2.33,-0.871 3.492,-1.321 2.283,-0.996 4.54,-2.078 6.68,-3.373 l 1.61,-0.964 1.558,-1.047 c 1.057,-0.674 2.031,-1.464 3.036,-2.213 1.005,-0.75 1.923,-1.608 2.869,-2.43 0.897,-0.876 1.808,-1.739 2.672,-2.646 1.706,-1.834 3.342,-3.738 4.809,-5.767 C 66.86,6.289 67.594,5.276 68.25,4.21 l 1.016,-1.577 0.932,-1.625 0.923,-1.631 0.843,-1.672 c 0.583,-1.105 1.095,-2.242 1.589,-3.387 0.248,-0.571 0.513,-1.137 0.746,-1.714 l 0.671,-1.744 0.667,-1.745 0.586,-1.771 c 0.402,-1.178 0.781,-2.363 1.098,-3.565 0.332,-1.197 0.691,-2.388 0.951,-3.602 0.604,-2.411 1.057,-4.85 1.503,-7.29 l 0.545,-3.676 c 0.187,-1.226 0.283,-2.46 0.429,-3.69 0.15,-1.229 0.248,-2.462 0.327,-3.696 0.075,-1.234 0.207,-2.467 0.235,-3.702 l 0.135,-3.705 c 0.035,-1.235 0.016,-2.47 0.027,-3.705 0.045,-2.471 -0.102,-4.936 -0.151,-7.404 v -0.004 l -0.131,-4.483 -2.37,3.869 -3.268,5.336 c -1.117,1.76 -2.336,3.451 -3.498,5.181 -0.57,0.874 -1.213,1.692 -1.846,2.519 l -1.897,2.481 -0.952,1.237 -1.015,1.185 -2.029,2.37 -1.015,1.186 -1.081,1.123 -2.161,2.248 -1.082,1.123 -1.145,1.056 -2.29,2.114 c -0.385,0.348 -0.756,0.713 -1.152,1.049 l -1.207,0.984 -2.413,1.971 c -0.788,0.678 -1.644,1.267 -2.486,1.874 l -2.529,1.819 c -1.698,1.195 -3.498,2.238 -5.241,3.366 -1.786,1.058 -3.632,2.016 -5.444,3.03 -1.864,0.918 -3.75,1.793 -5.625,2.69 l -5.781,2.346 c -1.969,0.673 -3.927,1.38 -5.905,2.028 -2.002,0.572 -3.998,1.179 -6.004,1.725 l -6.062,1.439 -6.201,1.195 z" fill="#2864bc" transform="translate(97.6476,135.1063)"/><path d="m 0,0 c 2.036,33.008 -15.881,46.395 -20.776,39.892 -16.961,-22.532 -26.955,-56.682 -1.852,-76.355 0,0 7.457,24.136 22.628,36.463" fill="#e6effc" transform="translate(74.7059,139.1637)"/><path d="m 0,0 c -1.404,10.998 -0.943,34.388 2.895,39.853 3.838,5.465 6.903,5.277 8.35,-4.187 0.523,-3.738 1.76,-13.066 1.757,-18.92 C 8.52,15.075 2.374,5.998 0,0" fill="#c3cfe0" transform="translate(53.8532,123.8254)"/><path d="m 0,0 c 0,0 -0.482,0.249 -1.354,0.757 -0.873,0.505 -2.139,1.325 -3.632,2.511 -1.483,1.199 -3.21,2.791 -4.873,4.907 -1.65,2.121 -3.2,4.772 -4.454,7.839 -1.285,3.056 -2.218,6.549 -2.741,10.294 -0.495,3.75 -0.532,7.75 -0.126,11.828 0.823,8.162 3.375,16.616 7.307,24.384 1.98,3.879 4.276,7.616 7.174,10.917 0.735,0.819 1.511,1.609 2.382,2.336 0.886,0.714 1.807,1.42 3.109,1.841 l 0.244,0.077 0.267,0.056 0.378,0.074 c 0.222,0.057 0.564,0.087 0.891,0.113 0.333,0.038 0.645,0.041 0.939,0.021 0.301,-0.01 0.603,-0.018 0.896,-0.074 1.185,-0.158 2.313,-0.544 3.305,-1.083 2,-1.069 3.572,-2.584 4.843,-4.182 1.277,-1.604 2.295,-3.303 3.154,-5.002 1.712,-3.407 2.803,-6.813 3.606,-9.979 0.786,-3.173 1.332,-6.115 1.627,-8.741 0.299,-2.625 0.339,-4.931 0.266,-6.823 -0.066,-1.892 -0.239,-3.374 -0.403,-4.381 -0.156,-1.007 -0.279,-1.541 -0.279,-1.541 0,0 -0.14,0.534 -0.328,1.53 -0.184,0.995 -0.452,2.45 -0.732,4.29 -0.275,1.829 -0.609,4.051 -0.993,6.6 -0.381,2.535 -0.835,5.394 -1.637,8.431 -0.788,3.032 -1.857,6.274 -3.467,9.423 -0.806,1.57 -1.751,3.115 -2.885,4.522 C 11.356,72.349 10,73.6 8.464,74.423 7.698,74.843 6.878,75.112 6.048,75.222 5.842,75.266 5.633,75.267 5.424,75.274 5.208,75.291 5.009,75.287 4.832,75.264 4.648,75.251 4.477,75.256 4.198,75.189 L 3.82,75.115 3.726,75.096 3.678,75.087 c 0.019,0.004 -0.11,-0.023 0.031,0.007 L 3.585,75.051 C 2.911,74.851 2.117,74.307 1.398,73.71 0.669,73.102 -0.029,72.396 -0.697,71.65 c -2.66,-3.023 -4.888,-6.621 -6.784,-10.345 -3.787,-7.474 -6.247,-15.651 -7.032,-23.436 -0.395,-3.891 -0.354,-7.683 0.096,-11.217 0.459,-3.53 1.299,-6.809 2.472,-9.673 1.131,-2.888 2.623,-5.315 3.987,-7.432 C -6.565,7.446 -5.215,5.674 -4,4.288 -2.792,2.889 -1.791,1.835 -1.087,1.106 -0.367,0.399 0,0 0,0" fill="#9cbddb" transform="translate(52.1923,102.8308)"/><path d="m 0,0 c 0,0 -0.246,0.842 -0.675,2.316 -0.191,0.742 -0.422,1.654 -0.64,2.711 -0.171,1.059 -0.412,2.253 -0.565,3.568 -0.196,1.314 -0.271,2.748 -0.361,4.266 -0.053,1.517 -0.124,3.123 -0.056,4.782 0.017,0.83 0.076,1.671 0.137,2.523 0.048,0.853 0.127,1.713 0.223,2.58 0.079,0.868 0.183,1.74 0.312,2.613 0.11,0.876 0.243,1.752 0.402,2.625 0.14,0.875 0.3,1.748 0.504,2.608 0.18,0.865 0.395,1.719 0.618,2.564 0.431,1.694 0.938,3.342 1.484,4.92 0.251,0.796 0.579,1.554 0.857,2.309 0.279,0.758 0.67,1.574 1.175,2.276 0.499,0.708 1.152,1.348 2.021,1.764 0.873,0.411 2.07,0.364 2.823,-0.145 0.763,-0.477 1.19,-1.109 1.508,-1.69 0.311,-0.59 0.528,-1.156 0.683,-1.693 0.321,-1.069 0.464,-2.007 0.569,-2.776 0.103,-0.769 0.152,-1.373 0.179,-1.785 0.027,-0.412 0.042,-0.631 0.042,-0.631 0,0 -0.053,0.213 -0.153,0.611 -0.099,0.398 -0.253,0.98 -0.486,1.705 -0.233,0.723 -0.536,1.6 -1.005,2.524 C 9.137,41.434 8.477,42.522 7.552,42.93 7.102,43.11 6.674,43.077 6.222,42.819 5.766,42.569 5.325,42.114 4.95,41.571 4.568,41.025 4.268,40.412 4.012,39.682 3.756,38.949 3.452,38.217 3.222,37.442 2.72,35.908 2.254,34.302 1.862,32.65 1.659,31.825 1.464,30.992 1.303,30.147 1.129,29.306 0.946,28.463 0.799,27.612 0.631,26.765 0.487,25.914 0.367,25.062 0.227,24.213 0.112,23.364 0.021,22.519 -0.086,21.675 -0.177,20.837 -0.237,20.006 -0.31,19.176 -0.381,18.355 -0.41,17.546 -0.519,15.931 -0.605,14.367 -0.64,12.881 -0.645,12.137 -0.649,11.414 -0.653,10.715 -0.637,10.016 -0.612,9.34 -0.617,8.689 -0.619,7.387 -0.519,6.198 -0.474,5.139 -0.357,4.093 -0.347,3.162 -0.268,2.399 -0.097,0.872 0,0 0,0" fill="#9cbddb" transform="translate(53.8646,123.7942)"/></g><g clip-path="url(#p)" transform="matrix(1.3333333,0,0,-1.3333333,0,266.66667)"><path d="m 0,0 h -152 c -13.255,0 -24,-10.745 -24,-24 v -152 c 0,-13.255 10.745,-24 24,-24 H 0 c 13.255,0 24,10.745 24,24 V -24 C 24,-10.745 13.255,0 0,0 m 0,-3 c 11.579,0 21,-9.421 21,-21 v -152 c 0,-11.579 -9.421,-21 -21,-21 h -152 c -11.579,0 -21,9.421 -21,21 v 152 c 0,11.579 9.421,21 21,21 H 0" transform="translate(176,200)"/></g></svg>