<svg version="1.1" xmlns="http://www.w3.org/2000/svg" xmlns:xlink="http://www.w3.org/1999/xlink" width="200px" height="200px"><path fill="#FFFFFF" d="M200,176c0,13.3-10.7,24-24,24H24c-13.3,0-24-10.7-24-24V24C0,10.7,10.7,0,24,0h152c13.3,0,24,10.7,24,24 V176z"/><defs><path id="SVGID_1_" d="M200,176c0,13.3-10.7,24-24,24H24c-13.3,0-24-10.7-24-24V24C0,10.7,10.7,0,24,0h152c13.3,0,24,10.7,24,24 V176z"/><filter id="Adobe_OpacityMaskFilter_2_" filterUnits="userSpaceOnUse" x="117.8" y="10.7" width="32.6" height="55.8"><feColorMatrix type="matrix" values="1 0 0 0 0 0 1 0 0 0 0 0 1 0 0 0 0 0 1 0"/></filter><filter id="Adobe_OpacityMaskFilter_1_" filterUnits="userSpaceOnUse" x="69.3" y="79.9" width="44.4" height="57"><feColorMatrix type="matrix" values="1 0 0 0 0 0 1 0 0 0 0 0 1 0 0 0 0 0 1 0"/></filter><filter id="Adobe_OpacityMaskFilter" filterUnits="userSpaceOnUse" x="130.3" y="73.5" width="33.3" height="59.9"><feColorMatrix type="matrix" values="1 0 0 0 0 0 1 0 0 0 0 0 1 0 0 0 0 0 1 0"/></filter><rect id="SVGID_3_" width="200" height="200"/></defs><clipPath id="SVGID_2_"><use xlink:href="#SVGID_1_" overflow="visible"/></clipPath><g opacity="0.5" clip-path="url(#SVGID_2_)"><line stroke="#A5A5A5" stroke-width="2" x1="132" y1="200" x2="132" y2="0"/><line stroke="#A5A5A5" stroke-width="2" x1="100" y1="200" x2="100" y2="0"/><line stroke="#A5A5A5" stroke-width="2" x1="68" y1="200" x2="68" y2="0"/><line stroke="#A5A5A5" stroke-width="2" x1="36" y1="200" x2="36" y2="0"/><line stroke="#A5A5A5" stroke-width="2" x1="164" y1="200" x2="164" y2="0"/><line stroke="#A5A5A5" stroke-width="2" x1="0" y1="132" x2="200" y2="132"/><line stroke="#A5A5A5" stroke-width="2" x1="0" y1="100" x2="200" y2="100"/><line stroke="#A5A5A5" stroke-width="2" x1="0" y1="68" x2="200" y2="68"/><line stroke="#A5A5A5" stroke-width="2" x1="0" y1="36" x2="200" y2="36"/><line stroke="#A5A5A5" stroke-width="2" x1="0" y1="164" x2="200" y2="164"/></g><g clip-path="url(#SVGID_2_)"><clipPath id="SVGID_4_"><use xlink:href="#SVGID_3_" overflow="visible"/></clipPath><g clip-path="url(#SVGID_4_)"><path fill="#3DA9FF" d="M124.3,149.8c4.4-7.4,2.2-20.5-16.6-40.7C97.6,98.3,90.4,93,91.7,73.4l-3.4-31.3 C83,45.5,76.1,57.9,73.8,75.2C71.7,91,68.2,98.1,65.5,103c4.3-0.2,9.2-4.6,13.8-10.6c-2.9,20.7,6.1,44.5,5.3,60.2 c-0.4,8.9,1,21.7-17.9,30.7c2.3,2.9,7.5,8.1,16.4,6c10.9-2.5,23.4-16.9,20.4-31.9c4.3,3.9,5,8.1,6,18.4 c10.9-11.8,11.9-25,7.5-33.6c-1.7-3.3-3.8-5.6-5.9-7.3C117.8,137,121.6,140.4,124.3,149.8z"/><path fill="#94D4FF" d="M84.6,45.5c-8.4,5.4-15,53.4-18.2,56.6c9-4.5,11.4-7.1,13.9-12.1c-3.4,11.3-2.6,54.1,16,62.6 c8.6,5.6,12.7,7.7,12.7,24.9c6.2-4.4,20-32.6,2.7-41.5c-16.3-8.3-18.6-17.4-20.8-26.7c-2.1-8.6-2.2-38.8,2.5-44.3 C98.2,59.7,84.6,45.5,84.6,45.5z"/><path fill="none" stroke="#2864BC" stroke-width="2.7355" stroke-miterlimit="20" d="M88.3,42.1C83,45.5,76.1,57.9,73.8,75.2 C71.7,91,68.2,98.1,65.5,103c4.3-0.2,9.2-4.6,13.8-10.6c-2.9,20.7,6.1,44.5,5.3,60.2c-0.4,8.9,1,21.7-17.9,30.7 c2.3,2.9,7.5,8.1,16.4,6c10.9-2.5,23.4-17,20.4-32"/><path fill="#2864BC" d="M96.4,152.6c2.3,0.6,4.6,1.6,6.6,3.1c0.5,0.4,1,0.8,1.4,1.3c0.4,0.5,0.9,0.9,1.2,1.5 c0.4,0.5,0.7,1,1,1.6c0.3,0.5,0.6,1.1,0.9,1.7c0.3,0.6,0.5,1.1,0.7,1.7c0.2,0.6,0.4,1.2,0.6,1.7c0.2,0.6,0.3,1.2,0.5,1.8 c0.2,0.6,0.3,1.2,0.4,1.8l0.4,1.8l0.3,1.8c0.2,1.2,0.3,2.4,0.4,3.6l-2.3-0.8c3-3.3,5.6-7.1,7.3-11.2c1.7-4.1,2.5-8.6,2.2-12.9 c-0.2-2.2-0.7-4.3-1.5-6.3c-0.2-0.5-0.4-1-0.7-1.5l-0.1-0.2c0,0-0.1-0.1-0.1-0.1l-0.2-0.4l-0.4-0.8c-0.3-0.5-0.6-0.9-0.9-1.4 c-0.3-0.4-0.6-0.9-1-1.3c-0.7-0.8-1.4-1.7-2.2-2.4c-0.4-0.4-0.8-0.7-1.2-1.1l-1.3-1c-0.9-0.7-1.8-1.3-2.7-2 c-1-0.6-1.9-1.3-2.9-2c1.2,0.1,2.4,0.3,3.5,0.7c1.2,0.3,2.3,0.8,3.4,1.3c1.1,0.6,2.1,1.3,3,2.1c0.9,0.8,1.8,1.7,2.6,2.6 c0.4,0.5,0.8,1,1.1,1.4c0.3,0.5,0.7,1.1,1,1.6l0.4,0.8l0.2,0.4l0.1,0.2l0.1,0.2c0.3,0.5,0.5,1.1,0.8,1.7 c0.9,2.3,1.4,4.7,1.6,7.1c0.4,4.9-0.5,9.7-2.4,14.2c-1.9,4.4-4.6,8.4-7.8,11.9l-1.9,2.1l-0.4-2.9c-0.1-1.1-0.2-2.3-0.4-3.4 l-0.3-1.7l-0.3-1.7c-0.1-0.6-0.2-1.1-0.4-1.7c-0.1-0.5-0.3-1.1-0.5-1.6c-0.2-0.5-0.3-1.1-0.5-1.6c-0.2-0.5-0.4-1-0.6-1.5 c-0.3-0.5-0.5-1-0.8-1.5c-0.3-0.5-0.5-0.9-0.9-1.4l-0.5-0.7l-0.5-0.6c-0.3-0.4-0.7-0.8-1.1-1.3c-0.4-0.4-0.8-0.8-1.2-1.2 c-0.4-0.4-0.8-0.8-1.3-1.2c-0.4-0.4-0.9-0.8-1.3-1.2C97.3,153.4,96.8,153,96.4,152.6z"/><path fill="none" stroke="#2864BC" stroke-width="2.7355" stroke-miterlimit="20" d="M110.9,134.9c6.9,2.1,10.7,5.4,13.4,14.9 c4.4-7.4,2.2-20.5-16.6-40.7C97.6,98.3,91.5,93,92.9,73.3"/><path fill="#E6EFFC" stroke="#9CBDDB" stroke-width="2.7355" d="M36.6,204 c0.8-5.7,1.3-11.4,2.1-17.3l8.5-28.4l39.7-1.3l10.5,8.7c-2.1,4.3-2.9,13.4-3.8,23.7c-0.4,4.3-0.5,9-0.5,13.8"/><path fill="#E6EFFC" d="M39.3,184c2.3-19.3,3.7-37.4-4-79.1c-6.4-34.5,24.2-65.3,59.2-67.7c35-2.3,67.2,24.1,67.7,59.2 c0.5,35.3-14.5,42.4-34.2,49.6"/><path fill="#9CBDDB" d="M37.3,186.7c0,0,0.2-1.4,0.5-3.9c0.3-2.5,0.7-6.3,1.1-11c0.4-4.7,0.6-10.5,0.5-17.1 c-0.1-6.6-0.5-14.1-1.4-22.2c-0.9-8.1-2.2-16.9-3.9-26.1c-0.4-2.3-0.8-4.8-1-7.2c-0.2-2.5-0.1-5,0.1-7.5 c0.4-5.1,1.6-10.2,3.5-15C40.6,66.7,47.4,57.8,56,51c8.6-6.9,19-11.7,29.9-13.9c2.7-0.5,5.5-0.9,8.3-1.1 c1.5-0.1,2.7-0.1,4.2-0.1c1.4,0,2.8,0,4.2,0.1c2.8,0.1,5.5,0.5,8.3,1c2.7,0.6,5.4,1.2,8,2c10.5,3.3,20,9.2,27.3,16.7 c7.4,7.5,12.6,16.5,15.2,25.8c1.3,4.6,2,9.3,2.2,13.8c0.2,4.5,0,8.8-0.4,13c-0.9,8.3-3.2,16-7.3,21.6c-2,2.8-4.3,5.2-6.7,6.9 c-2.4,1.8-4.7,3.1-6.9,4.2c-4.4,2.1-8,3.2-10.4,4c-2.5,0.7-3.8,1.1-3.8,1.1s1.2-0.6,3.6-1.6c1.2-0.5,2.6-1.2,4.3-2 c1.7-0.8,3.6-1.8,5.6-3c4.1-2.4,8.7-5.8,12.3-11.1c0.9-1.4,1.7-2.8,2.4-4.3c0.4-0.8,0.7-1.6,1-2.4c0.3-0.8,0.6-1.7,0.9-2.5 c1.1-3.5,1.8-7.2,2.2-11.3c0.4-4,0.6-8.2,0.5-12.6c-0.1-4.3-0.8-8.8-2.1-13.2c-2.4-8.8-7.4-17.5-14.5-24.7 c-7-7.2-16.1-12.8-26.2-16c-2.5-0.8-5.1-1.4-7.7-1.9c-2.6-0.4-5.3-0.8-7.9-0.9c-1.3-0.1-2.7-0.1-4-0.1c-1.3,0-2.8,0.1-4,0.1 c-2.7,0.2-5.3,0.5-8,1.1C76,41.8,66,46.5,57.7,53.1C49.5,59.7,43,68.2,39.3,77.5c-1.8,4.7-3,9.5-3.4,14.3 c-0.2,2.4-0.2,4.8-0.1,7.1c0.1,2.3,0.5,4.6,0.9,6.9c1.7,9.3,3,18.1,3.9,26.3c0.9,8.2,1.3,15.8,1.4,22.5 c0.1,6.7-0.2,12.6-0.6,17.4c-0.4,4.8-0.8,8.6-1.1,11.1c-0.3,2.5-0.5,3.9-0.5,3.9L37.3,186.7z"/><path fill="#E6EFFC" d="M156.8,121.5c-0.7,11.6,6.2,14.2,6.1,18.3c-0.4,16.8-35.6,33.3-79.6,23.9"/><path fill="#9CBDDB" d="M159.4,123.4c0,0-0.2,0.5-0.3,1c-0.1,0.3-0.1,0.6,0,1c0,0.1,0,0.3,0.1,0.4c0,0.2,0.1,0.3,0.1,0.5 c0.1,0.3,0.1,0.7,0.2,1c0.3,1.4,0.8,3.1,1.4,5c0.6,1.9,1.5,4.1,1.9,6.8c0.4,2.9-0.3,5.9-1.7,8.7c-1.5,2.8-3.6,5.2-6.2,7.3 c-2.5,2.1-5.4,3.9-8.5,5.4c-3,1.5-6.3,2.7-9.5,3.7c-6.6,2-13.3,3-19.7,3.5c-3.2,0.2-6.3,0.3-9.2,0.2c-2.9-0.1-5.7-0.3-8.2-0.5 c-5.1-0.6-9.2-1.4-12.1-2.2c-1.4-0.4-2.5-0.7-3.3-1c-0.8-0.3-1.1-0.4-1.1-0.4s0.4,0,1.2,0.1c0.8,0.1,1.9,0.1,3.4,0.3 c2.9,0.2,7.1,0.6,12.1,0.9c5,0.3,10.8,0.3,17-0.1c6.2-0.4,12.8-1.5,19.1-3.4c3.2-1,6.2-2.1,9.1-3.6c2.9-1.4,5.6-3.1,7.9-5 c2.3-1.9,4.3-4.1,5.5-6.5c0.6-1.2,1.1-2.4,1.3-3.6c0-0.3,0.1-0.6,0.1-0.9l0.1-0.4l0-0.5c0-0.6,0-1.1-0.1-1.7 c-0.4-2.2-1.2-4.4-1.8-6.4c-0.6-2-1.1-3.7-1.5-5.2c-0.1-0.4-0.2-0.7-0.2-1c0-0.2-0.1-0.3-0.1-0.5c0-0.2-0.1-0.3-0.1-0.5 c-0.1-0.7-0.1-1.4,0-1.9c0.2-1,0.4-1.3,0.3-1.3L159.4,123.4z"/><path d="M158.6,93.3c0,0,0.8-0.1,1.9-0.2c1.2-0.1,2.7-0.2,4.3-0.3c1.6-0.1,3.1-0.1,4.3-0.2c1.2,0,2,0,2,0 c0.4,0,0.7,0.3,0.7,0.7c0,0.3-0.2,0.6-0.5,0.6c0,0-0.8,0.2-1.9,0.4c-1.2,0.2-2.7,0.5-4.2,0.8c-1.5,0.3-3.1,0.5-4.3,0.7 c-1.2,0.1-1.9,0.2-1.9,0.2c-0.8,0-1.4-0.5-1.4-1.3C157.4,94,157.9,93.4,158.6,93.3z"/><path d="M157.9,88.6c0,0,0.6-0.4,1.6-0.9c1-0.5,2.3-1.1,3.6-1.8c1.3-0.6,2.7-1.2,3.7-1.7c1-0.5,1.7-0.7,1.7-0.7 c0.4-0.1,0.8,0,0.9,0.4c0.1,0.3,0,0.6-0.2,0.8c0,0-0.6,0.5-1.5,1.1c-0.9,0.6-2.2,1.4-3.4,2.2c-1.3,0.8-2.5,1.6-3.5,2.1 c-1,0.5-1.6,0.9-1.6,0.9c-0.7,0.3-1.5,0-1.8-0.7C157.1,89.7,157.3,89,157.9,88.6z"/><path d="M155.6,83.6c0,0,0.4-0.6,1.1-1.5c0.7-0.9,1.6-2,2.6-3.1c1-1.1,1.9-2.2,2.7-3.1c0.7-0.8,1.3-1.4,1.3-1.4 c0.3-0.3,0.7-0.3,1,0c0.2,0.2,0.3,0.6,0.1,0.8c0,0-0.4,0.7-0.9,1.6c-0.6,0.9-1.4,2.2-2.2,3.5c-0.8,1.2-1.6,2.5-2.3,3.4 c-0.6,0.9-1.1,1.5-1.1,1.5c-0.5,0.6-1.4,0.7-1.9,0.2C155.3,84.9,155.2,84.1,155.6,83.6z"/><mask maskUnits="userSpaceOnUse" x="130.3" y="73.5" width="33.3" height="59.9" id="SVGID_5_"><g filter="url(#Adobe_OpacityMaskFilter)"><path fill="#FFFFFF" d="M149.7,73.5c-7.4-0.4-12.4,10.9-13.5,27.9c-1,17,4.6,31.6,12,32c0.5,0,1,0,1.4-0.1 c1.4-1.4,2.8-3.1,4.1-4.9c0.9-1.3,1.7-2.8,2.4-4.3c0.7-1.5,1.4-3.2,1.9-4.9c1.1-3.5,1.8-7.2,2.3-11.2c0.4-4,0.6-8.2,0.5-12.6 c-0.1-4.3-0.8-8.8-2.1-13.2c-0.3-1.1-0.7-2.2-1.1-3.3C155.3,75.6,152.5,73.6,149.7,73.5z"/></g></mask><g mask="url(#SVGID_5_)"><path fill="#FFFFFF" d="M163.5,103.4c-1,17-7.9,30.4-15.3,30c-7.4-0.4-13.1-15-12-32c1-17,6.1-28.3,13.5-27.9 C157.1,73.9,164.5,86.4,163.5,103.4z"/><linearGradient id="SVGID_6_" gradientUnits="userSpaceOnUse" x1="167.924" y1="186.4959" x2="170.141" y2="141.416" gradientTransform="matrix(0.9988 -4.790000e-002 4.790000e-002 0.9988 -34.38 -52.6336)"><stop offset="0" style="stop-color:#ECFF4F"/><stop offset="0.7" style="stop-color:#FFAB6D"/></linearGradient><path fill="url(#SVGID_6_)" d="M154.3,106c0.1,13.7-5.2,24.6-11.9,24.4c-6.6-0.2-12.1-11.5-12.2-25.2 c-0.1-13.7,5.2-24.6,11.9-24.4C148.8,81,154.2,92.3,154.3,106z"/><polygon opacity="0.33" fill="#FFFFFF" points="141.3,110.5 156.6,101 155.6,111.4"/><polygon opacity="0.66" fill="#FFFFFF" points="142.4,110.8 157,109.5 155.3,118.2"/><path d="M150.3,107.2c0.1,10.5-3.9,18.9-8.9,18.7c-5-0.2-9.1-8.9-9.2-19.4c-0.1-10.5,3.9-18.9,8.9-18.7 C146.1,88,150.3,96.7,150.3,107.2z"/><path fill="#FFFFFF" d="M140.7,104.6c-2.9-0.9-4-5.7-2.6-10.6c1.5-4.9,5-8.1,7.8-7.2c2.9,0.9,4,5.7,2.6,10.6 C147.1,102.3,143.6,105.5,140.7,104.6z"/><path fill="#FFFFFF" d="M141,115.7c-1.2-0.6-1.4-2.5-0.6-4.3c0.9-1.7,2.5-2.6,3.7-2c1.2,0.6,1.4,2.5,0.6,4.3 C143.8,115.4,142.2,116.3,141,115.7z"/></g><path d="M145,132.1c0,0-0.3-0.2-0.9-0.6c-0.5-0.4-1.4-1.1-2.3-2.1c-0.9-1-1.9-2.2-2.9-3.8c-1-1.6-1.9-3.5-2.7-5.6 c-1.6-4.3-2.4-9.6-2.5-15.2c-0.1-5.6,0.6-11.7,2.3-17.5c0.8-2.9,1.9-5.8,3.4-8.4c0.8-1.3,1.6-2.6,2.7-3.8 c1.1-1.1,2.3-2.2,4-2.8c1.5-0.6,3.4-0.5,4.8,0c1.5,0.5,2.8,1.4,3.8,2.3c2,2,3.3,4.2,4.3,6.3c1.9,4.2,2.7,8,3.1,10.5 c0.2,1.3,0.4,2.3,0.5,3c0.1,0.7,0.1,1.1,0.1,1.1l-2.7,0.3c0,0,0-0.4-0.1-1c-0.1-0.7-0.2-1.7-0.5-2.9c-0.5-2.5-1.2-6-2.9-9.9 c-0.9-1.9-2.1-3.9-3.7-5.4c-1.6-1.5-3.8-2.5-5.9-1.7c-0.9,0.3-2,1.1-2.8,2c-0.9,0.9-1.6,2.1-2.3,3.3c-1.4,2.4-2.4,5.1-3.2,7.8 c-1.6,5.5-2.2,11.3-2.2,16.7c0,2.7,0.3,5.3,0.7,7.7c0.4,2.4,1,4.7,1.6,6.7c0.6,2,1.3,3.9,2,5.5c0.7,1.6,1.4,2.9,2.1,4 c0.7,1.1,1.2,1.9,1.6,2.5C144.9,131.8,145,132.1,145,132.1z"/><path d="M68.8,96.6c0,0-19.3-2.3-19.1-3.7c0.3-1.3,18.1,0.2,18.1,0.2L68.8,96.6z"/><path d="M69,89.5c0,0-15.4-9.5-14.6-10.8c0.8-1.3,16.2,7.4,16.2,7.4L69,89.5z"/><path d="M73.4,82c0,0-8.6-14.4-7.4-15.2c1.2-0.8,10.3,13,10.3,13L73.4,82z"/><ellipse transform="matrix(0.9978 -6.636798e-002 6.636798e-002 0.9978 -6.9844 6.3854)" fill="#FFFFFF" cx="92.6" cy="108.3" rx="25.1" ry="34.6"/><mask maskUnits="userSpaceOnUse" x="69.3" y="79.9" width="44.4" height="57" id="SVGID_7_"><g filter="url(#Adobe_OpacityMaskFilter_1_)"><path fill="#FFFFFF" d="M117.6,106.6c-1.3-19.1-13.9-33.7-28.1-32.8c-2,0.1-4.1,0.6-6,1.4c-0.7,0.1-1.4,0.2-2,0.4 C68.1,79.1,61,96.9,65.8,115.4c4.7,18.5,19.5,30.7,32.9,27.3c6.2-1.6,11-6.2,13.9-12.5C116.3,123.8,118.2,115.5,117.6,106.6z" /></g></mask><g mask="url(#SVGID_7_)"> <linearGradient id="SVGID_8_" gradientUnits="userSpaceOnUse" x1="132.3878" y1="350.4059" x2="143.7207" y2="297.2635" gradientTransform="matrix(0.9759 -0.2182 0.2182 0.9759 -111.789 -178.2777)"><stop offset="0" style="stop-color:#ECFF4F"/><stop offset="0.7" style="stop-color:#FFAB6D"/></linearGradient><path fill="url(#SVGID_8_)" d="M113.6,108.6c-0.1,15.7-9.2,28.5-20.3,28.4c-11.1-0.1-19.9-12.9-19.8-28.6 c0.1-15.7,9.2-28.5,20.3-28.4C104.9,80,113.8,92.8,113.6,108.6z"/><polygon opacity="0.33" fill="#FFFFFF" points="69.5,106.4 101.5,110.9 69.8,117.8"/><polygon opacity="0.67" fill="#FFFFFF" points="69.3,116 101,110.5 74.3,126.6"/><path d="M108.9,109.1c-0.1,12.2-6.7,22.1-14.7,22c-8-0.1-14.4-10-14.2-22.2c0.1-12.2,6.7-22.1,14.7-22 C102.7,86.9,109,96.9,108.9,109.1z"/><path fill="#FFFFFF" d="M92.6,83.9c4.5,0.9,6.6,6.8,4.8,13.1c-1.8,6.3-6.9,10.7-11.4,9.8c-4.5-0.9-6.6-6.8-4.8-13.1 C83.1,87.3,88.2,82.9,92.6,83.9z"/><path fill="#FFFFFF" d="M102.5,108c1.5,0.3,2.1,2.2,1.5,4.2c-0.6,2-2.3,3.3-3.7,3c-1.5-0.3-2.1-2.2-1.5-4.2 C99.3,109,101,107.7,102.5,108z"/></g><path d="M67.2,96.4c0,0-0.1-0.1-0.2-0.3c-0.2-0.2-0.3-0.6-0.6-1c-0.1-0.2-0.2-0.5-0.4-0.8c0-0.1-0.2-0.3-0.2-0.5 c0.1-0.1,0.1-0.3,0.1-0.4c0.1-0.6,0.3-1.3,0.6-2c0.9-3,2.9-7.2,6.6-11c1.9-1.9,4.1-3.8,6.9-5.3c2.7-1.5,5.9-2.6,9.4-2.8 c3.4-0.2,7,0.4,10.3,1.8c3.3,1.4,6.2,3.6,8.7,6.2c2.5,2.6,4.5,5.5,6.1,8.6c1.6,3.1,2.8,6.3,3.6,9.5c0.8,3.2,1.2,6.3,1.4,9.3 c0.2,3,0,5.9-0.5,8.4c-0.5,2.6-1.1,4.9-1.9,6.9c-0.8,2-1.6,3.6-2.4,4.9c-0.8,1.3-1.4,2.3-2,2.9c-0.5,0.6-0.8,0.9-0.8,0.9 s0.2-0.4,0.5-1.1c0.3-0.7,0.8-1.8,1.2-3.2c0.2-0.7,0.5-1.5,0.7-2.3c0.2-0.8,0.5-1.8,0.7-2.7c0.4-2,0.7-4.2,0.9-6.6 c0.2-2.4,0.2-5.1,0.1-7.9c-0.1-2.8-0.5-5.7-1.3-8.7c-0.7-2.9-1.8-5.9-3.3-8.7c-1.5-2.8-3.3-5.5-5.5-7.8 c-2.2-2.3-4.8-4.2-7.6-5.4c-2.8-1.2-5.8-1.8-8.7-1.6c-2.9,0.2-5.6,1.1-7.9,2.4c-2.4,1.3-4.4,2.9-6,4.7 c-1.6,1.7-2.9,3.5-3.9,5.2c-0.9,1.7-1.6,3.2-2,4.5c-0.4,1.3-0.6,2.4-0.7,3c-0.1,0.8-0.2,1.2-0.2,1.2L67.2,96.4z"/><path fill="#E6EFFC" d="M158.7,132.3c1.8,1.6,6.1,6.2,6.2,6.6c0.3,1.3-1.4,1.2-1.9,1.3c-0.4,0.1,0.6,2.8,1,4.3 c0.4,1.5,1,3.2,0.1,3.2c-0.9,0-0.8-0.6-1.3-1.4c-0.6-0.8-0.5,0.9-0.9,1.8c-0.4,0.9-1.1,3.3-1.7,2.4c-0.6-0.8,0.8-4.9-1.2-6.9 C157,141.7,158.7,132.3,158.7,132.3z"/><path fill="#9CBDDB" d="M160.5,138.7c0,0,0.1,0,0.2,0.1c0.1,0,0.4,0.1,0.6,0.1c0.5,0.1,1.2,0,1.9-0.3c0.2-0.1,0.4-0.2,0.5-0.3 c0.1-0.1,0.2-0.1,0.2-0.2c0,0,0,0,0-0.1c0,0,0,0-0.1,0.1c0,0.1,0,0.1-0.1,0.2c0,0.1,0,0.1,0,0.2l0,0c0,0.1,0,0,0,0.1l0,0l0-0.1 c0,0,0,0.1,0,0c0,0,0,0-0.1,0c-0.1-0.1-0.3-0.2-0.5-0.3c-0.5-0.2-1.1-0.5-1.7-0.9c-0.6-0.4-1.2-0.9-1.7-1.5 c-0.5-0.6-0.9-1.3-1.1-2c-0.2-0.7-0.4-1.2-0.6-1.8c-0.4-1.1-0.7-2.2-1-3.2c-0.3-1-0.4-1.8-0.5-2.4c-0.1-0.6-0.1-0.9-0.1-0.9 l2.7-0.3c0,0,0,0.3,0.1,0.8c0.1,0.5,0.2,1.2,0.5,2.1c0.2,0.9,0.6,1.9,0.9,3c0.2,0.5,0.4,1.1,0.6,1.7c0.2,0.5,0.4,0.9,0.7,1.4 c0.3,0.4,0.6,0.8,1,1.1c0.4,0.3,0.9,0.6,1.4,1c0.3,0.2,0.6,0.4,0.9,0.7c0.1,0.2,0.3,0.4,0.4,0.6c0,0.1,0.1,0.3,0.1,0.4l0,0.1 l0,0l0,0.1l0,0.1c0,0.1,0,0.1,0,0.2c0,0.2-0.1,0.2-0.1,0.3c-0.1,0.3-0.3,0.4-0.4,0.4c-0.1,0.1-0.2,0.1-0.3,0.2 c-0.2,0.1-0.3,0.2-0.5,0.2c-0.3,0.1-0.6,0.2-0.9,0.2c-0.6,0.1-1.1,0.1-1.5-0.1c-0.5-0.1-0.8-0.3-1.1-0.5 c-0.2-0.2-0.4-0.4-0.4-0.6C160.5,138.8,160.5,138.7,160.5,138.7z"/><path fill="#9CBDDB" d="M163.5,139.1c0.1,0.2,0.3,0.5,0.4,0.8l0.3,0.8c0.2,0.5,0.4,1,0.6,1.6c0.3,1.1,0.6,2.2,0.7,3.4 c0,0.6,0,1.3-0.2,1.9c-0.1,0.3-0.3,0.7-0.6,1l-0.1,0.1l0,0l0,0l-0.1,0.1l0,0l0,0c0,0-0.1,0-0.1,0.1c-0.1,0-0.2,0.1-0.3,0.1 c-0.2,0-0.2,0-0.4-0.1c-0.1,0-0.1-0.1-0.2-0.1c-0.1-0.1-0.2-0.1-0.2-0.2c-0.2-0.2-0.2-0.3-0.3-0.5c-0.3-0.6-0.5-1.1-0.7-1.6 c-0.2-0.5-0.4-1-0.5-1.5l1.3-0.2l0,0c-0.1,1.1-0.2,2.2-0.4,3.3c-0.1,0.6-0.3,1.1-0.5,1.7c-0.1,0.3-0.3,0.6-0.6,0.9 c-0.1,0.1-0.3,0.3-0.5,0.4c-0.1,0-0.2,0.1-0.3,0.1l-0.1,0l-0.1,0l-0.1,0c-0.1,0-0.2,0.1-0.4,0c-0.1,0-0.2,0-0.3,0 c-0.1,0-0.3-0.1-0.4-0.3c-0.1-0.2-0.1-0.3-0.1-0.4c0-0.1,0-0.2,0-0.2c0-0.1,0.1-0.2,0.1-0.3c0.1-0.3,0.2-0.5,0.3-0.8 c0.2-0.5,0.4-1,0.5-1.5c0.2-1,0-2.1-0.4-3.1c0.7,0.9,1.1,2,1.1,3.2c0,0.6-0.1,1.2-0.2,1.7c-0.1,0.3-0.1,0.6-0.2,0.8 c0,0,0,0.1,0,0.1c0,0,0,0,0,0c0-0.1,0-0.1-0.1-0.2c-0.1-0.1-0.2-0.2-0.3-0.2c-0.1,0-0.1,0-0.1,0c0,0,0,0,0,0 c0.2-0.1,0.3-0.1,0.4-0.2c0.1-0.1,0.2-0.3,0.3-0.5c0.2-0.4,0.3-0.9,0.4-1.4c0.2-1,0.3-2.1,0.4-3.2v0l0.1-2.4l1.2,2.2 c0.3,0.5,0.5,1,0.7,1.5c0.2,0.5,0.4,1,0.7,1.3c0.1,0.1,0.1,0.2,0.1,0.2c0,0,0,0,0,0c0,0-0.1,0-0.1-0.1c-0.1,0-0.1-0.1-0.3-0.1 c-0.1,0-0.2,0-0.3,0c0,0-0.1,0-0.1,0.1l0,0l0,0l0,0c0.1-0.1-0.2,0.1-0.1,0.1l0,0l0,0l0,0c0.1-0.1,0.1-0.2,0.2-0.4 c0.1-0.3,0.1-0.8,0.1-1.2c-0.1-0.9-0.4-1.9-0.8-2.9c-0.4-1-0.8-1.9-1.2-2.8L163.5,139.1z"/><path fill="#E6EFFC" d="M127.8,134.3c9.6-2.8,21.3-0.8,23.1-0.2c7.1,2.5-2.7,22.4-18.5,24.2c-7.5,0.8-12.3-0.7-16.7-8.5 L127.8,134.3z"/><path fill="#9CBDDB" d="M127.8,134.3c0,0,1.2-0.5,3.2-1.3c0.5-0.2,1.1-0.3,1.8-0.5c0.7-0.2,1.4-0.3,2.2-0.5 c0.8-0.1,1.6-0.2,2.5-0.3c0.9-0.1,1.8-0.2,2.7-0.2c1.9,0,4,0,6.2,0.3c0.5,0.1,1.1,0.1,1.7,0.2c0.6,0.1,1.1,0.2,1.7,0.3 c0.3,0,0.6,0.1,0.9,0.2l0.5,0.1l0.2,0.1l0.1,0l0.2,0.1l0.1,0l0.4,0.2c0.1,0,0.4,0.2,0.5,0.3c0.4,0.3,0.7,0.6,0.9,0.9 c1,1.4,1.2,2.9,1.1,4.3c-0.1,1.4-0.4,2.7-0.9,3.9c-0.9,2.5-2.3,4.7-3.9,6.8c-3.2,4.1-7.5,7.4-12.2,9.1c-1.2,0.4-2.3,0.7-3.5,1 c-0.6,0.1-1.2,0.2-1.8,0.3c-0.6,0-1.1,0.1-1.6,0.1c-2.3,0.1-4.4,0-6.4-0.5c-2-0.6-3.7-1.6-5-2.7c-1.3-1.1-2.2-2.2-2.9-3.1 c-0.7-0.9-1.2-1.7-1.5-2.2c-0.3-0.5-0.5-0.8-0.5-0.8l2.4-1.3c0,0,0.2,0.3,0.4,0.7c0.3,0.5,0.7,1.2,1.3,2 c0.6,0.8,1.4,1.8,2.4,2.7c1,0.9,2.3,1.7,3.9,2.1c1.6,0.5,3.5,0.6,5.5,0.4c0.5,0,1.1-0.1,1.6-0.1c0.5-0.1,1-0.2,1.5-0.2 c1-0.2,2.1-0.5,3.1-0.9c4.1-1.5,8-4.5,11-8.2c1.4-1.9,2.7-3.9,3.4-6c0.4-1.1,0.7-2.1,0.7-3.1c0.1-1-0.1-1.9-0.5-2.5 c-0.1-0.1-0.2-0.3-0.3-0.3c0,0,0,0-0.1-0.1c0,0,0,0-0.1-0.1l-0.4-0.2l-0.1,0l0,0c0,0-0.1-0.1,0.1,0l0,0l-0.2,0l-0.4-0.1 c-0.2-0.1-0.5-0.1-0.7-0.2c-1.1-0.2-2.1-0.4-3.1-0.5c-2.1-0.3-4-0.4-5.9-0.5c-0.5,0-0.9-0.1-1.3-0.1c-0.4,0-0.9,0-1.3,0 c-0.8,0-1.6-0.1-2.4-0.1c-1.5,0.1-2.8,0-3.8,0.1C129.1,134.3,127.8,134.3,127.8,134.3z"/><path fill="#9CBDDB" d="M121.4,148.6c0,0-0.2,0.1-0.6,0.2c-0.2,0-0.4,0.1-0.6,0.2c-0.2,0.1-0.5,0.1-0.8,0.2 c-0.3,0.1-0.6,0.2-0.9,0.3c-0.3,0.1-0.6,0.2-0.9,0.3c-0.3,0.1-0.7,0.2-1,0.3c-0.3,0.2-0.6,0.3-1,0.5c-0.3,0.1-0.6,0.4-0.9,0.5 c-0.2,0.1-0.3,0.2-0.5,0.3c-0.1,0.1-0.3,0.2-0.4,0.3c-0.3,0.2-0.6,0.4-0.8,0.6c-0.2,0.2-0.5,0.4-0.7,0.6 c-0.2,0.2-0.4,0.4-0.6,0.5c-0.2,0.2-0.3,0.3-0.5,0.4c-0.3,0.2-0.5,0.4-0.5,0.4s0-0.2,0.1-0.6c0-0.2,0.1-0.4,0.2-0.7 c0-0.1,0.1-0.3,0.1-0.4c0.1-0.1,0.1-0.3,0.2-0.4c0.1-0.3,0.3-0.6,0.5-0.9c0.2-0.3,0.5-0.6,0.7-0.9c0.1-0.2,0.3-0.3,0.4-0.5 c0.2-0.1,0.3-0.3,0.5-0.4c0.4-0.2,0.7-0.6,1.1-0.7c0.4-0.2,0.8-0.4,1.2-0.5c0.4-0.1,0.8-0.2,1.3-0.2c0.4-0.1,0.8-0.1,1.2-0.1 c0.4,0,0.7,0.1,1.1,0.1c0.3,0,0.6,0.1,0.8,0.2c0.2,0.1,0.5,0.2,0.6,0.2C121.3,148.5,121.4,148.6,121.4,148.6z"/><path fill="#9CBDDB" d="M127.9,137.1c0,0,0.2,0,0.4,0c0.3,0,0.7,0.1,1.1,0.3c0.5,0.1,1,0.4,1.5,0.8c0.3,0.2,0.6,0.4,0.8,0.7 c0.1,0.1,0.3,0.3,0.4,0.5c0.1,0.2,0.2,0.3,0.3,0.5c0.1,0.2,0.1,0.4,0.1,0.6c0,0.2,0,0.5,0,0.7c-0.1,0.5-0.3,0.9-0.6,1.2 c-0.2,0.4-0.6,0.6-0.9,0.8c-0.3,0.2-0.6,0.3-0.8,0.4c-0.5,0.2-0.9,0.3-1.2,0.3c-0.3,0-0.4,0.1-0.4,0.1s0.1-0.1,0.3-0.2 c0.2-0.1,0.4-0.4,0.7-0.6c0.1-0.2,0.3-0.3,0.4-0.5c0.1-0.2,0.2-0.4,0.3-0.7c0.1-0.2,0.1-0.5,0.1-0.8c0-0.3,0-0.5-0.1-0.8 c-0.3-1-1-1.9-1.5-2.5C128.4,137.5,127.9,137.1,127.9,137.1z"/><path fill="#3DA9FF" d="M67.5,153.6c4.4-7.4,2.2-20.5-16.6-40.7c-10.1-10.8-17.3-16.1-16-35.7l-3.4-31.3 C26.2,49.3,19.3,61.7,17,79c-2.1,15.7-5.6,22.9-8.3,27.7c4.3-0.2,9.2-4.6,13.8-10.6c-2.9,20.7,6.1,44.5,5.3,60.2 c-0.4,8.9,1,21.7-17.9,30.7c2.3,2.9,7.5,8.1,16.4,6c10.9-2.5,23.4-16.9,20.4-31.9c4.3,3.9,7.8,9.8,8.8,20.2 c10.9-11.8,9.1-26.7,4.7-35.4c-1.7-3.3-3.8-5.6-5.9-7.3C61,140.8,64.8,144.1,67.5,153.6z"/><path fill="#94D4FF" d="M27.8,49.3c-8.4,5.4-15,53.4-18.2,56.6c9-4.5,11.4-7.1,13.9-12.1c-3.4,11.3-2.6,54.1,16,62.6 c8.6,5.6,15.5,9.4,15.4,26.6c6.2-4.4,17.2-34.3-0.1-43.2c-16.3-8.3-18.6-17.4-20.8-26.7c-2.1-8.6-2.2-38.8,2.5-44.3 C41.4,63.4,27.8,49.3,27.8,49.3z"/><path fill="none" stroke="#2864BC" stroke-width="2.7355" stroke-miterlimit="20" d="M31.5,45.9C26.2,49.3,19.3,61.7,17,79 c-2.1,15.7-5.6,22.9-8.3,27.7c4.3-0.2,9.2-4.6,13.8-10.6c-2.9,20.7,6.1,44.5,5.3,60.2c-0.4,8.9,1,21.7-17.9,30.7 c2.3,2.9,7.5,8.1,16.4,6c10.9-2.5,23.4-17,20.4-32"/><path fill="#2864BC" d="M39.6,156.4c0.6,0.2,1.3,0.4,1.9,0.6c0.6,0.2,1.2,0.5,1.8,0.8c1.2,0.6,2.4,1.3,3.5,2 c0.5,0.4,1.1,0.8,1.6,1.3c0.5,0.5,1,0.9,1.4,1.5c0.4,0.5,0.9,1,1.3,1.6c0.4,0.6,0.8,1.1,1.1,1.7c0.4,0.6,0.7,1.2,1,1.8 c0.3,0.6,0.6,1.2,0.9,1.8c0.2,0.6,0.5,1.2,0.7,1.9c0.2,0.6,0.4,1.3,0.6,1.9l0.5,2c0.2,0.7,0.3,1.3,0.4,2c0.1,0.7,0.2,1.3,0.3,2 l0.2,2l-2.3-0.8c0.8-0.8,1.5-1.7,2.2-2.6c0.7-0.9,1.3-1.9,1.9-2.8c0.5-1,1.1-2,1.5-3c0.4-1,0.8-2.1,1.1-3.2 c1.2-4.3,1.4-9,0.7-13.5c-0.4-2.2-1-4.4-1.9-6.5c-0.2-0.5-0.4-1-0.7-1.5c-0.1-0.2-0.3-0.5-0.4-0.7l-0.4-0.8 c-0.3-0.5-0.6-1-0.9-1.4c-0.3-0.5-0.6-0.9-1-1.4c-0.7-0.9-1.4-1.7-2.3-2.5c-0.8-0.8-1.7-1.4-2.6-2.1c-1.8-1.4-3.8-2.6-5.8-4 c1.2,0.2,2.4,0.4,3.6,0.7c1.2,0.3,2.3,0.8,3.4,1.4c1.1,0.6,2.1,1.3,3.1,2.2c0.9,0.8,1.8,1.7,2.6,2.7c0.4,0.5,0.8,1,1.1,1.5 c0.4,0.5,0.7,1.1,1,1.6l0.4,0.8c0.2,0.3,0.3,0.6,0.4,0.9c0.3,0.6,0.5,1.1,0.8,1.7c0.9,2.3,1.6,4.7,2,7.1 c0.8,4.8,0.6,9.9-0.8,14.7c-0.3,1.2-0.8,2.4-1.2,3.5c-0.5,1.1-1,2.2-1.6,3.3c-0.6,1.1-1.3,2.1-2,3.1c-0.7,1-1.5,1.9-2.4,2.8 l-1.9,2.1l-0.4-2.9l-0.2-1.9c-0.1-0.6-0.2-1.2-0.3-1.9c-0.1-0.6-0.2-1.2-0.4-1.8l-0.5-1.8c-0.2-0.6-0.4-1.2-0.6-1.8 c-0.2-0.6-0.4-1.2-0.7-1.7c-0.2-0.6-0.5-1.1-0.8-1.7c-0.3-0.6-0.6-1.1-0.9-1.6c-0.3-0.5-0.6-1-1-1.5c-0.3-0.5-0.7-1-1.1-1.5 c-0.8-0.9-1.6-1.8-2.5-2.7c-0.5-0.4-0.9-0.9-1.4-1.3c-0.5-0.4-0.9-0.9-1.4-1.3c-0.5-0.4-1-0.8-1.5-1.3 C40.6,157.2,40.1,156.8,39.6,156.4z"/><path fill="none" stroke="#2864BC" stroke-width="2.7355" stroke-miterlimit="20" d="M54.1,138.6c6.9,2.1,10.7,5.4,13.4,14.9 c4.4-7.4,2.2-20.5-16.6-40.7C40.8,102,34.7,96.7,36,77.1"/><path fill="#3DA9FF" d="M191.3,71.9C185.7,20.5,120.1-3.8,83.7,9.4C57.5,19,42.2,36,31.5,50.1l24.9,0.7l5.9,1.1 c17.1,1.4,20.2,15.4,21.2,22.2c4.5-9.6,5.6-16.7,4.6-24.8l4.9,2.4c19.4,12.6,20.2,30.6,21.3,37.5c13-3.3,17.9-18.7,20.3-24 c26.4,22.1,34.9,46.6,38.9,66.3c16.4-36.4,1.6-63.2-11.2-78l0.1,0C177.8,60.8,184.2,65.3,191.3,71.9z"/><path fill="#94D4FF" d="M50.4,30.5c28,8.4,62.4,26.5,63.5,58.8c9-4.2,16.7-9.6,20.6-24c6,8.6,28.5,14.8,38.5,64.5 c10.8-7.4,14.6-58.6-20.7-86c-35.2-27.5-63.9-30-83-26.2C60.3,19.4,50.4,30.5,50.4,30.5z"/><path fill="none" stroke="#2864BC" stroke-width="2.7355" stroke-miterlimit="20" d="M31.5,50.1C42.2,36,53.3,22.9,79.1,12.3 c46.4-19.1,106.6,8.2,112.1,59.6c-7.1-6.6-13.4-11.1-28.9-18.2"/><path fill="#2864BC" d="M151.3,42.9c1.8,1.1,3.5,2.3,5.2,3.5c1.7,1.3,3.2,2.7,4.7,4.1c1.5,1.5,3,3,4.2,4.6 c1.3,1.6,2.6,3.3,3.8,5c4.8,6.9,8.5,14.6,10.7,22.7c2.2,8.1,2.7,16.7,1.8,25.1c-1,8.4-3.5,16.5-6.9,24.1l-1.7,3.9l-0.9-4.2 c-1.3-6.4-3-12.6-5.2-18.7c-1.1-3-2.3-6-3.7-9c-0.7-1.5-1.4-2.9-2.1-4.3c-0.8-1.4-1.5-2.8-2.3-4.2c-0.8-1.4-1.7-2.8-2.5-4.1 c-0.9-1.3-1.8-2.7-2.7-4c-0.9-1.3-1.9-2.6-2.9-3.9c-1-1.3-2-2.5-3.1-3.7c-1-1.2-2.1-2.4-3.2-3.6c-1.1-1.2-2.2-2.3-3.4-3.5 c-1.2-1.1-2.3-2.2-3.5-3.3c-1.2-1.1-2.4-2.1-3.7-3.2l2.1-0.5l-1.6,3.8c-0.5,1.3-1.1,2.5-1.7,3.8c-1.2,2.5-2.6,5-4.2,7.3 c-1.7,2.3-3.6,4.4-5.9,6.2c-0.6,0.4-1.2,0.8-1.8,1.2c-0.6,0.4-1.3,0.7-1.9,1.1c-0.7,0.3-1.3,0.6-2,0.9c-0.7,0.3-1.4,0.5-2.1,0.7 l-1.5,0.4l-0.2-1.5c-0.3-2.2-0.6-4.2-0.9-6.3c-0.4-2-0.8-4.1-1.4-6c-0.3-1-0.6-2-1-2.9c-0.4-1-0.7-1.9-1.2-2.9 c-0.4-0.9-0.9-1.9-1.4-2.8c-0.5-0.9-1-1.8-1.6-2.6c-0.6-0.9-1.1-1.7-1.8-2.5c-0.6-0.8-1.3-1.6-1.9-2.4c-0.7-0.8-1.4-1.5-2.1-2.2 c-0.8-0.7-1.5-1.4-2.3-2.1c-0.8-0.7-1.6-1.3-2.4-1.9c-0.8-0.6-1.7-1.2-2.5-1.8c-0.9-0.6-1.7-1.1-2.6-1.6c-0.9-0.5-1.8-1-2.7-1.5 l2-1.3c0.2,2.1,0.4,4.2,0.5,6.4c0.1,2.2,0.1,4.3-0.2,6.5c-0.1,1.1-0.3,2.2-0.6,3.3c-0.1,0.5-0.3,1.1-0.4,1.6 c-0.2,0.5-0.3,1.1-0.5,1.6c-0.2,0.5-0.4,1-0.6,1.5c-0.2,0.5-0.4,1-0.7,1.5c-0.3,0.5-0.5,1-0.7,1.5l-0.8,1.4l-1.9,3.5l-0.6-4 c-0.2-1.3-0.5-2.7-0.9-4c-0.4-1.3-0.8-2.7-1.4-3.9c-1.1-2.6-2.4-5-4.1-7.1c-0.9-1-1.8-2-2.9-2.8c-0.5-0.4-1.1-0.8-1.6-1.1 c-0.6-0.3-1.2-0.6-1.8-0.8l-0.9-0.3L67.8,53c-0.6-0.1-1.3-0.2-1.9-0.2c-0.7,0-1.3,0-2,0.1c-0.7,0-1.3,0.2-2,0.3l-0.6-2.7 c0.8-0.1,1.5-0.3,2.3-0.3C64.4,50,65.2,50,66,50c0.8,0,1.6,0.1,2.4,0.3l1.2,0.3c0.4,0.1,0.8,0.3,1.1,0.4c0.7,0.3,1.5,0.6,2.1,1 c0.7,0.4,1.3,0.8,2,1.3c1.2,1,2.3,2.1,3.3,3.2c1.9,2.4,3.4,5,4.6,7.8c0.6,1.4,1.1,2.8,1.5,4.2c0.4,1.4,0.8,2.9,1,4.4l-2.5-0.5 l0.7-1.3c0.3-0.4,0.5-0.9,0.7-1.4c0.2-0.4,0.4-0.9,0.6-1.4c0.2-0.5,0.4-0.9,0.6-1.4c0.2-0.5,0.3-0.9,0.5-1.4 c0.2-0.5,0.3-1,0.4-1.4c0.3-1,0.4-2,0.6-3c0.5-4,0.1-8.1-0.2-12.3l-0.2-2.6l2.2,1.2c0.9,0.5,1.9,1,2.8,1.6 c0.9,0.5,1.9,1.1,2.8,1.7c0.9,0.6,1.8,1.2,2.7,1.9c0.9,0.7,1.7,1.3,2.5,2.1c0.8,0.7,1.6,1.5,2.4,2.2c0.8,0.8,1.5,1.6,2.2,2.4 c0.7,0.8,1.4,1.7,2.1,2.5c0.7,0.9,1.3,1.8,1.9,2.7c0.6,0.9,1.1,1.9,1.7,2.8c0.5,1,1,1.9,1.5,2.9c0.4,1,0.9,2,1.2,3 c0.4,1,0.7,2.1,1,3.1c0.6,2.1,1.1,4.2,1.5,6.3c0.4,2.1,0.6,4.3,0.9,6.3l-1.7-1.1c0.6-0.2,1.2-0.3,1.8-0.6 c0.6-0.2,1.2-0.5,1.7-0.7c0.6-0.3,1.1-0.6,1.7-0.9c0.5-0.3,1.1-0.7,1.6-1.1c2-1.6,3.8-3.5,5.3-5.6c1.5-2.1,2.8-4.4,4-6.8 c0.6-1.2,1.1-2.4,1.6-3.7l1.6-3.8L134,63l1.4,1.2c1.3,1.1,2.5,2.1,3.7,3.3c1.2,1.1,2.4,2.2,3.6,3.4c1.2,1.2,2.3,2.3,3.5,3.5 c1.1,1.2,2.2,2.4,3.3,3.7c1.1,1.2,2.1,2.5,3.2,3.8c1,1.3,2,2.6,3,4c1,1.3,1.9,2.7,2.8,4.1c0.9,1.4,1.8,2.8,2.6,4.2 c0.8,1.4,1.6,2.9,2.4,4.3c0.8,1.5,1.5,3,2.2,4.5c1.4,3,2.7,6.1,3.8,9.2c2.3,6.2,4,12.6,5.3,19.1l-2.6-0.3 c3.3-7.4,5.7-15.3,6.7-23.3c0.9-8,0.4-16.2-1.7-24c-2.1-7.8-5.7-15.2-10.3-21.9c-1.2-1.7-2.4-3.3-3.6-4.9 c-1.3-1.5-2.5-3.2-3.9-4.7l-4-4.7L151.3,42.9z"/><mask maskUnits="userSpaceOnUse" x="117.8" y="10.7" width="32.6" height="55.8" id="SVGID_9_"><g filter="url(#Adobe_OpacityMaskFilter_2_)"><path fill="#FFFFFF" d="M118.4,43.3C123.3,32.3,142,7.1,149,9.5c7,2.4-3.5,39.8-7,46.1C142,55.7,129,45.2,118.4,43.3z"/></g></mask><g mask="url(#SVGID_9_)"><path fill="#E6EFFC" d="M118,53.6c-0.2,12,13.1,13,14.8,10.8c8.7-10.9,19.3-50.3,15.2-52.2c-3.3-1.5-18.1,17.8-27.9,33.5"/><path fill="#9CBDDB" d="M118,53.6c0,0,0.1,0.5,0.3,1.3c0.2,0.9,0.6,2.1,1.3,3.5c0.7,1.4,1.9,2.8,3.7,3.9 c1.8,1.1,4.2,1.8,6.7,1.7c0.6,0,1.2-0.2,1.6-0.3c0.1,0,0.2-0.1,0.2-0.1c0,0,0,0.1,0,0l0.2-0.2c0.2-0.3,0.4-0.6,0.6-0.9 c0.8-1.2,1.6-2.5,2.4-4c1.5-2.8,2.8-6,4.1-9.3c2.5-6.6,4.8-13.8,6.5-21.2c0.9-3.7,1.6-7.4,1.9-11c0.1-0.9,0.1-1.8,0-2.6 c0-0.4-0.1-0.8-0.2-1c0-0.1-0.1-0.2-0.1-0.1c0,0,0.1,0.1,0.2,0.1c0,0,0.2,0.1,0.1,0l0,0l-0.1,0c0,0,0.1,0,0.1,0 c0.1,0-0.3,0.1-0.5,0.2c-0.3,0.2-0.6,0.4-1,0.6c-0.7,0.5-1.3,1.1-1.9,1.6c-2.5,2.4-4.7,5-6.8,7.5c-2.1,2.5-3.9,4.9-5.6,7.2 c-3.4,4.5-6.1,8.4-7.9,11.2c-1.8,2.8-2.8,4.4-2.8,4.4l-1.9-1.2c0,0,1-1.6,2.8-4.4c1.9-2.8,4.5-6.8,7.8-11.4 c1.7-2.3,3.5-4.8,5.6-7.4c2.1-2.6,4.3-5.3,6.9-7.8c0.7-0.6,1.4-1.3,2.2-1.9c0.4-0.3,0.8-0.6,1.3-0.9c0.5-0.2,1-0.6,2.1-0.5 c0.2,0,0.4,0.1,0.5,0.1l0.1,0l0,0c-0.1,0,0.2,0.1,0.2,0.1c0.3,0.1,0.5,0.3,0.7,0.5c0.3,0.4,0.5,0.8,0.6,1.1 c0.2,0.6,0.3,1.2,0.3,1.7c0.1,1,0,2,0,3c-0.3,3.9-1.1,7.6-2,11.4c-0.9,3.7-1.9,7.4-3,11c-1.1,3.6-2.3,7.1-3.6,10.5 c-1.3,3.4-2.7,6.5-4.3,9.5c-0.8,1.5-1.6,2.9-2.5,4.2c-0.2,0.3-0.5,0.7-0.7,1l-0.2,0.2c0,0.1-0.2,0.3-0.4,0.4 c-0.3,0.2-0.5,0.4-0.8,0.5c-1,0.4-1.8,0.5-2.6,0.6c-3.2,0.1-6-0.9-8.1-2.4c-2.1-1.5-3.4-3.5-3.9-5.2c-0.5-1.7-0.5-3.1-0.4-4 c0-0.5,0.1-0.8,0.1-1C118,53.7,118,53.6,118,53.6z"/><path fill="none" stroke="#9CBDDB" stroke-width="2.0516" d="M138.8,19.3c-0.4,5.1,3,10.6,7.9,11"/><path fill="none" stroke="#9CBDDB" stroke-width="2.0516" d="M132.6,27.5c-0.4,5.1,3.3,12.9,10.2,14.4"/></g><path fill="#2864BC" d="M142,55.7c0,0-0.4-0.2-1-0.6c-0.3-0.2-0.7-0.4-1.1-0.7c-0.4-0.3-1-0.5-1.5-0.8c-0.5-0.3-1.1-0.6-1.7-1 c-0.6-0.3-1.3-0.7-2-1.1c-1.4-0.8-2.8-1.5-4.3-2.3c-0.7-0.4-1.5-0.8-2.2-1.1c-0.7-0.4-1.4-0.8-2.1-1.1c-0.7-0.3-1.4-0.7-2-1 c-0.6-0.3-1.2-0.6-1.8-0.9c-0.6-0.3-1.1-0.5-1.5-0.7c-0.5-0.2-0.9-0.3-1.2-0.5c-0.7-0.3-1.1-0.5-1.1-0.5s0.4,0,1.2,0.1 c0.4,0.1,0.8,0.1,1.3,0.2c0.5,0.1,1.1,0.3,1.7,0.4c0.6,0.2,1.3,0.4,2,0.6c0.7,0.3,1.4,0.5,2.1,0.8c0.7,0.3,1.5,0.6,2.2,1 c0.7,0.4,1.5,0.7,2.3,1.1c0.7,0.4,1.5,0.8,2.2,1.2c0.7,0.4,1.4,0.9,2.1,1.3c0.7,0.4,1.3,0.9,1.9,1.3c0.6,0.4,1.1,0.9,1.6,1.3 c0.5,0.4,1,0.7,1.3,1.1c0.4,0.4,0.7,0.7,0.9,0.9C141.7,55.3,142,55.7,142,55.7z"/><path fill="#E6EFFC" d="M64.9,58.1C67,24.5,48.7,10.8,43.7,17.4c-17.3,23-27.5,57.8-1.9,77.9C41.8,95.3,49.4,70.7,64.9,58.1z"/><path fill="#C3CFE0" d="M43.6,73.7c-1.4-11.2-1-35.1,3-40.6c3.9-5.6,7-5.4,8.5,4.3c0.5,3.8,1.8,13.3,1.8,19.3 C52.3,58.4,46.1,67.6,43.6,73.7z"/><path fill="#9CBDDB" d="M42,95.2c0,0-0.5-0.3-1.4-0.8c-0.9-0.5-2.2-1.4-3.7-2.6c-1.5-1.2-3.3-2.8-5-5c-1.7-2.2-3.3-4.9-4.5-8 c-1.3-3.1-2.3-6.7-2.8-10.5c-0.5-3.8-0.5-7.9-0.1-12.1c0.8-8.3,3.4-16.9,7.5-24.9c2-4,4.4-7.8,7.3-11.1c0.7-0.8,1.5-1.6,2.4-2.4 c0.9-0.7,1.8-1.4,3.2-1.9l0.2-0.1l0.3-0.1l0.4-0.1c0.2-0.1,0.6-0.1,0.9-0.1c0.3,0,0.7,0,1,0c0.3,0,0.6,0,0.9,0.1 c1.2,0.2,2.4,0.6,3.4,1.1c2,1.1,3.6,2.6,4.9,4.3c1.3,1.6,2.3,3.4,3.2,5.1c1.8,3.5,2.8,7,3.7,10.2c0.8,3.2,1.4,6.2,1.7,8.9 c0.3,2.7,0.3,5,0.3,7c-0.1,1.9-0.2,3.4-0.4,4.5c-0.2,1-0.3,1.6-0.3,1.6s-0.1-0.5-0.3-1.6c-0.2-1-0.5-2.5-0.7-4.4 c-0.3-1.9-0.6-4.1-1-6.7C62.4,43,62,40.1,61.2,37c-0.8-3.1-1.9-6.4-3.5-9.6c-0.8-1.6-1.8-3.2-2.9-4.6c-1.1-1.4-2.5-2.7-4.1-3.6 c-0.8-0.4-1.6-0.7-2.5-0.8c-0.2,0-0.4,0-0.6-0.1c-0.2,0-0.4,0-0.6,0c-0.2,0-0.4,0-0.6,0.1l-0.4,0.1l-0.1,0l0,0c0,0-0.1,0,0,0 l-0.1,0c-0.7,0.2-1.5,0.8-2.2,1.4c-0.7,0.6-1.5,1.3-2.1,2.1c-2.7,3.1-5,6.8-6.9,10.5c-3.9,7.6-6.4,16-7.2,23.9 c-0.4,4-0.4,7.8,0.1,11.4c0.5,3.6,1.3,6.9,2.5,9.9c1.2,2.9,2.7,5.4,4.1,7.6c1.4,2.1,2.8,3.9,4,5.4c1.2,1.4,2.3,2.5,3,3.2 C41.6,94.7,42,95.2,42,95.2z"/><path fill="#9CBDDB" d="M43.7,73.8c0,0-0.3-0.9-0.7-2.4c-0.2-0.8-0.4-1.7-0.7-2.8c-0.2-1.1-0.4-2.3-0.6-3.6 c-0.2-1.3-0.3-2.8-0.4-4.3c-0.1-1.5-0.1-3.2-0.1-4.9c0-0.8,0.1-1.7,0.1-2.6c0-0.9,0.1-1.7,0.2-2.6c0.1-0.9,0.2-1.8,0.3-2.7 c0.1-0.9,0.2-1.8,0.4-2.7c0.1-0.9,0.3-1.8,0.5-2.7c0.2-0.9,0.4-1.8,0.6-2.6c0.4-1.7,1-3.4,1.5-5c0.3-0.8,0.6-1.6,0.9-2.4 c0.3-0.8,0.7-1.6,1.2-2.3c0.5-0.7,1.2-1.4,2.1-1.8c0.9-0.4,2.1-0.4,2.9,0.1c0.8,0.5,1.2,1.1,1.5,1.7c0.3,0.6,0.5,1.2,0.7,1.7 c0.3,1.1,0.5,2,0.6,2.8c0.1,0.8,0.2,1.4,0.2,1.8c0,0.4,0,0.6,0,0.6s-0.1-0.2-0.2-0.6c-0.1-0.4-0.3-1-0.5-1.7 c-0.2-0.7-0.5-1.6-1-2.6c-0.5-0.9-1.1-2-2.1-2.4c-0.5-0.2-0.9-0.1-1.4,0.1c-0.5,0.3-0.9,0.7-1.3,1.3c-0.4,0.6-0.7,1.2-1,1.9 c-0.3,0.7-0.6,1.5-0.8,2.3c-0.5,1.6-1,3.2-1.4,4.9c-0.2,0.8-0.4,1.7-0.6,2.6c-0.2,0.9-0.4,1.7-0.5,2.6c-0.2,0.9-0.3,1.7-0.4,2.6 c-0.1,0.9-0.3,1.7-0.4,2.6c-0.1,0.9-0.2,1.7-0.3,2.6c-0.1,0.8-0.1,1.7-0.2,2.5c-0.1,1.6-0.2,3.2-0.2,4.8c0,0.8,0,1.5,0,2.2 c0,0.7,0,1.4,0,2.1c0,1.3,0.1,2.5,0.1,3.6c0.1,1.1,0.1,2,0.2,2.8C43.6,72.9,43.7,73.8,43.7,73.8z"/></g></g><path d="M176,3c11.6,0,21,9.4,21,21v152c0,11.6-9.4,21-21,21H24c-11.6,0-21-9.4-21-21V24C3,12.4,12.4,3,24,3H176 M176,0H24 C10.7,0,0,10.7,0,24v152c0,13.3,10.7,24,24,24h152c13.3,0,24-10.7,24-24V24C200,10.7,189.3,0,176,0L176,0z"/></svg>
