<svg version="1.1" xmlns="http://www.w3.org/2000/svg" x="0px" y="0px" width="655.7px" height="400px" viewBox="0 0 655.7 400" enable-background="new 0 0 655.7 400" xml:space="preserve"><path fill="#AE85C1" d="M339,219.9c-2.2,23.7,10.1,18.7,30.1,20.4l1.7-21.7L339,219.9z"/><path fill="#273771" d="M507,143c34.9,7.9,44.4,41.3,39.9,67c-8.7,49.1-70.4,107-158.1,134.9c41.6,17.5,86.7,31.7,131.3,45.3 c20.2-12.9,40.8-27.9,61.5-43.2c-12.1,18.8-30,33.5-47.2,46c10.7,2.2,21.3,4,31.8,4.7c83-80.9,116.3-201.4,57.6-253.4 c-26.4-23.4-64.6-40.2-121.5-19.7L507,143z"/><path fill="#E6458B" d="M505.2,126.1c109.5-0.5,143.6,60.5,116.5,119.6c-17.3,37.9-81.2,89.3-149.8,128.6L409,352.8 c65.4-16.1,314.5-173.9,98.7-216.8L505.2,126.1z"/><path fill="#622E86" d="M508.7,137.7c93.4,23.5,89.4,76.7,54.2,114.3c-49.6,53.1-129.3,80.9-154.2,86.8l-17.4,5.3l21.2,9.8 c61.4-19.7,125.7-48.9,166.9-89.1c46.6-45.5,41.5-119.5-71.6-131.1L508.7,137.7z"/><path fill="none" stroke="#132042" stroke-width="4.5099" stroke-miterlimit="10" d="M507,143c34.9,7.9,44.4,41.3,39.9,67 c-8.7,49.1-70.4,107-158.1,134.9c41.6,17.5,86.7,31.7,131.3,45.3c20.2-12.9,40.8-27.9,61.5-43.2c-12.1,18.8-30,33.5-47.2,46 c10.7,2.2,21.3,4,31.8,4.7c83-80.9,116.3-201.4,57.6-253.4c-26.4-23.4-64.6-40.2-121.5-19.7L507,143z"/><path fill="none" stroke="#132042" stroke-width="1.1275" d="M537.4,160.1c58,42.5,10.4,114.8-47.1,132.3"/><path fill="none" stroke="#132042" stroke-width="1.1275" d="M297.6,86c26.4,11.8,75,49.5,83.6,78.3"/><path fill="none" stroke="#132042" stroke-width="1.1275" d="M504.4,385.1c57.1-26.9,118.8-78.7,133.4-131.3 c17.5-62.6-18.4-134.9-127.9-131"/><path fill="#273771" d="M379.7,77.2c34.2,12.2,42.5,36.1,55,58.1c-35,24.1-63,34-87.7,37.6c-2.3-22.2-5.1-44.2-29.5-55.9 c9.5,19.6,10.2,37.8,6.2,55.3l-33-10.6c2.2-15,4.6-30.2-0.3-43.1l1.4-33.8C320.8,83.8,354,70.4,379.7,77.2z M235.8,38.8 c-73-14.2-84-30.4-137.5-36.6C43.4-0.6-1.3,86.8,2.8,137.9l31.6-11.3c-4-20.9-4.5-41.9,6.8-63.2c-2.9,20-1.7,39.9,3,59.9 c53.7-7.2,108.7,3.1,164.7,28c-3-27.7-13.8-69.7,16.7-89.8L235.8,38.8z"/><path fill="#D4A4E8" d="M258.6,14.4c-13.5,11-23.6,28.7-33.3,46.8c-25.2,18.6-22.1,53.7-17.2,89.9c-38.2-13.3-74.6-29.2-121.5-30.2 c-2.5,21.6-1.4,43.4,4.9,65.4c-11.1,5.9-7.7,25.4-7.2,42.2c-9.6,3.6-18.7,10.3-26.4,26.9C58,266,47,278.1,60.4,287 c67.6,0,135.3-7.2,203.2-21.7c11.9-14.1,22.1-29.9,31.7-46.2c25.4,0.2,50.8,1.4,76.3-1.3l-0.7,24.6c5.4,7.6,49,8.6,75.5,4.7 c11.1-15.9,28-18.9,48.3-14.2c10.4,0.6,17-1.7,11.8-13.2L493,204.8c27.6-19.4,22.8-75.3-12.4-113.9c-35.8-27.4-58.8-15.1-81.2-4.3 c13.2,13.6,27.8,28.7,35.7,49.8c-44.3,28.2-65.3,31.9-88.6,38c-3.3-19.8-0.3-40.5-28.6-56.7c9.9,21.6,9.1,38.5,6.5,54.4l-34.7-11.2 c2.4-14.2,8.1-29,0.4-41C289.9,79.9,292.2,38.6,258.6,14.4z"/><path d="M118.9,144.2c-10.8,10.8-19.4,14.4-28,14.6c2.4,11.9,5.3,19.7,8.2,23.7l8.7-0.6c2.9-5,5.1-15.3,6-30.6 c1.1,14.3-0.6,24.9-3.4,31.2l-13.9,1.9c-2.9-4.8-5.2-13.3-6-25.6c-1.2,0-2.5,0-3.7-0.1l-0.1-2.5c10.4-3.2,20.7-7,30-16.2 c0.7-0.7,1.2-1.6,0.7-4.4c-0.8-4-1.5-7.1-3.4-11.9c4.3,3.3,6.3,9.2,6.9,14.6C121.1,141.9,120.8,142.3,118.9,144.2z"/><path d="M146.1,184.7c0.8-7.9,1.8-15.8,7.6-24.4c-4.1,9.5-4.7,16-5,25.1L146.1,184.7z M215.1,209.2c5.2-5.6,9.4-12.2,10.6-19.5 c-4.4,11.5-17.2,23.8-27.9,28.5l6.2,0.9c3.1-2.3,6.2-4.9,9.2-7.8c3.4,5.7,8.2,7.9,12.8,6.9C220.7,216.4,217.4,213.3,215.1,209.2z"/><path fill="#A66EBE" d="M84.6,122.9c-2,20.7-0.8,42.8,5.8,63.6l2.2-1.8C87,165.6,85.5,144,88.9,123L84.6,122.9z"/><path fill="#622E86" d="M309.8,85.6c42.8,20.4,64.4,37.3,80.4,74.8l18.8-9.6c-13.3-36.9-51.6-52-89.2-67.6L309.8,85.6z"/><path d="M221.2,200c5.5,4.2,9.6,6.2,18.3,5.7c-5,2.8-11.9,3.2-19.5-3.5L221.2,200z"/><path fill="#E6458B" d="M157,131.8c-3.4-31.9-1.9-72.7,50.8-98.2l-10.5-3.2c-58.2,20.8-70.5,56.3-78.2,93.3L157,131.8z"/><path fill="none" stroke="#132042" stroke-width="1.1275" d="M116.1,4.7C81.3,27.2,55.4,58.7,59.6,120.5"/><path fill="none" stroke="#132042" stroke-width="1.1275" d="M71.5,120.5C72,67,96.1,35.4,124.1,7.3"/><path fill="#A66EBE" d="M276.6,245.5c-0.3,0.5-0.6,0.9-0.9,1.4c-2.2,3.2-4.3,6.1-6.2,8.5c-2,2.5-3.9,4.6-5.5,6.1 c-1.6,1.5-2.9,2.3-3.5,2.4c-48.4,12.6-123.3,18.1-185.7,21.9c-6.5,0.4-11-0.1-13.9-1c-2.9-1-4.1-2.3-4.8-4 c-1.4-3.4,0.1-9.9,2.1-17.3c2.7-9.9,5.1-15.8,8-19.7c3-3.9,6.5-6.2,12.2-8.9c31.3-14.9,77.5-15.4,115.7-12.7c0.6,0,1.2,0.1,1.8,0.1 c6.6,0.5,39.8,2.4,47.3,3c-1.9-2.1-7.1-3.6-13.3-4.7c4.1-2.8,8.6-6.3,13.1-10.4c6.1-5.7,29.3-28,33.2-44.1 c-13.5,18.3-24.2,30-35.6,40.3c-6.2,5.6-12.2,10-17.3,13.3l0,0c-11.7-1.4-24.4-1.7-27-1.9c-0.7-0.1-1.3-0.1-2-0.2 c-38.4-2.8-85.1-2.4-117.8,13.3c-5.9,2.8-10.3,5.5-13.8,10.2c-3.5,4.7-6.1,11.1-8.8,21.3c-2,7.4-4.3,14.3-1.9,20.2 c1.2,2.9,3.8,5.3,7.6,6.6c3.8,1.3,8.8,1.7,15.6,1.3c62.5-3.8,137.4-9.2,186.6-22c1.9-0.5,3.6-1.8,5.4-3.5c1.8-1.7,3.8-3.9,5.9-6.6 c2.2-2.7,4.4-5.9,6.8-9.3c0.3-0.4,0.5-0.8,0.8-1.2c5.9-8.9,25.7-41.4,26.3-57C297.4,211.7,287.4,229.2,276.6,245.5z"/><polygon fill="#D4A4E8" points="118.9,216.4 120.5,226.2 192.3,223.7 188.1,214.5"/><path fill="#A66EBE" d="M113.2,180c-8.8,0.5-16,1-21.6,4.2c-5.6,3.1-9.1,8.9-10.4,18.3c-1.2,8.9-0.5,19.2,1.3,27.4l4.4-1 c-1.7-7.6-2.3-17.6-1.2-25.8c1.1-8.6,3.8-12.5,8.1-14.9c4.3-2.4,10.9-3.1,19.7-3.6c28.4-1.6,62.8,7.9,86.6,54.2 c2.4,4.6,3.4,8.3,3.4,11.3c0,3-0.8,5.2-2.3,7c-3.1,3.7-9.5,6.1-17.5,7c-16,1.8-37.7-2.2-47.6-6.1c-5.1-2-7.3-4.9-8.8-8.8 s-2-8.9-3-14.3c-0.1-0.4-0.1-0.8-0.2-1.2c-2-7.3-3.5-13.9-4.6-23.9c-3,7.4-0.4,21.8,0.1,24.5c0.1,0.5,0.2,0.9,0.3,1.5 c0.9,5.1,1.4,10.3,3.2,15.1c1.8,4.7,5.2,9,11.4,11.4c10.9,4.3,32.6,8.3,49.7,6.4c8.6-0.9,16.2-3.3,20.5-8.6c2.2-2.7,3.4-6.1,3.3-10 c-0.1-3.9-1.3-8.3-3.9-13.3C179.5,189,142.8,178.3,113.2,180z"/><path fill="none" stroke="#A66EBE" stroke-width="4.5099" d="M372.3,218.4c-28.1,1.6-54,1.2-77.5,0.3"/><path fill="#A66EBE" d="M337.3,220c-1.3,6.8-1.1,11.9,1.1,15.8c2.2,3.9,6.3,5.8,11.3,6.2c7,0.6,13.9,1.1,20.8,1.5l-1-4.6 c-6.4-0.4-12.9-0.9-19.4-1.4c-4.2-0.3-6.5-1.6-7.8-4c-1.3-2.4-1.7-6.5-0.5-12.8L337.3,220z"/><path fill="#A66EBE" d="M495.6,205.5c4.3,3.6,8.5,8,12.1,13.8c1.3,2.1,2.2,4.1,2.6,6.1c0.4,2,0.2,4-0.8,5.7c-1,1.7-2.8,2.9-5,3.4 c-2.1,0.6-4.7,0.7-7.8,0.4c-13.3-1.4-31.8-3-41.1,4.6c-1.5,1.3-2.4,2.5-3.2,3.8c-0.8,1.3-1.6,2.9-3.1,4.3c-3,2.8-8,4.3-19.5,4.2 c-16.4-0.1-33.1-1.1-50-2.6c-5-0.4-9.2-2.4-11.3-6.2c-2.2-3.9-2.4-9-1.1-15.8c5-26.1,17.6-41.6,32.4-47.1c3.7-1.4,7.5-2.1,11.3-2.3 c2.3-0.1,4.7,0.1,7,0.5c-5.8-14.2,6.8-46.8,37.2-58.1c-28,18.3-38.7,45.1-28.8,60.1c5,1.8,11.2,5.5,15.3,13.5 c-10.7-7.6-16.6-10.1-23.6-10.9c-0.3,0-0.5-0.1-0.8-0.1c-5.4-0.9-10.9-0.3-16.1,1.6c-12.9,4.8-24.7,18.7-29.5,43.8 c-1.2,6.3-0.8,10.4,0.5,12.8c1.3,2.4,3.6,3.6,7.8,4c16.8,1.4,33.5,2.5,49.7,2.5c11,0.1,14.6-1.4,16.4-3.1c0.9-0.8,1.5-1.9,2.4-3.3 c0.9-1.4,2.1-3.2,4.2-4.9c11.7-9.5,31.1-6.9,44.4-5.6c2.7,0.3,4.8,0.2,6.2-0.2c1.4-0.4,1.9-0.9,2.3-1.4c0.3-0.5,0.5-1.3,0.2-2.5 c-0.2-1.2-0.9-2.8-2-4.6c-3.7-5.9-8.3-10.4-12.9-14c-5.6,2-12.9,2.7-22.5,1c22-2.4,28-6.7,34.2-17c1.4-2.3,2.8-6.1,3.7-9.9 c3.8-16.5,1-43.4-7.8-61.6c-8.5-17.5-20.2-32-36.2-38.7c-16-6.7-36.7-6-63.6,7.8l-2.1-4c17.3-8.9,32.5-12.6,45.8-12.4 c7.9,0.1,15.1,1.7,21.7,4.5c17.4,7.3,29.8,22.8,38.5,40.9c9.4,19.4,12.2,46.6,8.1,64.5c-1,4.3-2.5,8-4.3,11.3 C504.2,198.1,500.8,202.5,495.6,205.5z"/><path fill="#A66EBE" d="M265.5,58.2c1.4,23.4-1.2,45.8-6.6,65.7C267,112.2,272.7,82.2,265.5,58.2z"/><path fill="#D4A4E8" d="M56.2,42.6c20.2-2.8,46.5,19.8,69.7,29.8l-16.1,38.1C91.8,87.9,52.5,65,56.2,42.6z"/><path fill="none" stroke="#A66EBE" stroke-width="4.5099" d="M126.2,73C108.1,63.8,90.3,53.3,71,44.7c-15-6.7-22.5-1.8-10.4,14.8 c14.6,19.9,33,35,50.6,51.7"/><path fill="#622E86" d="M191.4,29.2c-68.4,20.4-77.6,56.3-85.7,92.5l16.8,2.5c7.8-40.3,29.4-78,80.8-91.7L191.4,29.2z"/><path fill="none" stroke="#132042" stroke-width="4.5099" stroke-miterlimit="15" d="M236.1,38.4C176,27.5,162.7,16.3,119.9,4.9 c-36.4-9.7-66.2,8.7-87.7,38.6c-19.6,27.1-29,56.1-29.8,95.2c9.8-4.5,21.5-9.8,32.2-12.4C31,106.7,30.7,76.3,43.8,57 c-6.7,18.4-3.9,49.2-0.6,66.4c62.1-9.1,113.1,6.6,165.6,28.7c-7.6-37.6-7.4-74.6,18.1-92.9"/><path fill="none" stroke="#A66EBE" stroke-width="1.1275" d="M68.4,69.4C81,70.5,85.8,64,84,51.2"/><path fill="none" stroke="#A66EBE" stroke-width="1.1275" d="M84.8,85.6c16,1.6,24.2-6.4,20-23.3"/><path fill="none" stroke="#132042" stroke-width="1.1275" d="M211.4,33.8c-23.9,31.9-27,80.8-24.6,109.5"/><path fill="#E6458B" d="M329.7,82c53.3,18.4,71,37.8,91.9,61.1l-13.5,7.9c-16.8-32.3-45.4-49.8-92.2-66.8L329.7,82z"/><path fill="none" stroke="#132042" stroke-width="4.5099" stroke-miterlimit="15" d="M289.2,86c32-2.6,31.3-4.3,64.3-10.4 c15.8-2.9,36,2.7,50.7,15.7c15.3,13.6,22.4,26.2,30.5,44.2c-21.6,13.9-52.6,35.3-88.8,37.9c1.4-33.2-12.3-47.6-30.3-57.6 c10.6,21.4,14,38.8,8.7,56.4c-12.8-3.6-25.4-6.9-34.2-10.6c5.2-21.8,4.5-35.4-1.1-45.8"/><path d="M74,151.9c5.1,5.1,10.5,8.3,16.8,8.4l0.4,3.1C85.1,162.6,78.6,160.3,74,151.9z M93.6,173.9l-1-3c-6.2,1.2-13.2,1.5-20-3.1 C78.2,176.3,87.5,174.4,93.6,173.9z M95.4,180.3l-1.1-3.3c-3.9,2.9-7.8,4.2-15,3.4C85.6,183.8,90.9,182.6,95.4,180.3z"/><path d="M162,135.1c-2.2,3.4-4.9,8.1-6.3,12.4c-1.4,4.1,0.1,6.9,2.7,9.1c22.8,19.2,50.1,29,70.4,31.2c5.1,0.6,12.1,3.9-0.1,3.6 c-17-0.4-49-9.8-74-31.6c-3.6-3.1-7.4-5.8-3.4-13.1C154.6,140.4,158.8,136.4,162,135.1z"/><path fill="#FFFFFF" d="M468.3,161.4l1.8-0.8l-1.3,3.3l1.2,3.6l-1.7-1.3l-0.4,7.1l-0.7-7.1l-1.8,1.6l1.4-3.9l-1.8-4.2l2.3,2l0.4-6.9 L468.3,161.4z M475.2,184.3l-1.3,4.7l-2.4-1.1l1.6,2.6l-2,2.9l2.2-1.3l0,4.5l1.2-4.6l1.8,0.5l-1-2.2l1.9-2.5l-2.1,0.9L475.2,184.3z M492.7,168.3l-1.6,6.7l-2.3-1.2l1.5,3.4l-2.3,4.3l2.4-2.2l-0.3,6.7l1.6-6.9l1.9,0.5l-0.9-2.8l2.1-3.8l-2.2,1.4L492.7,168.3z M478.5,117.5l0.6,3.7l-2.6-1.2l2.5,2.3l-0.8,2.2l1.6-0.9l1.7,3.8l-0.7-3.8l1.8,0.6l-1.6-1.8l0.7-1.8l-1.6,0.4L478.5,117.5z M459,115.8l0.7,3.8l-2.8-1.2l2.7,2.3l-0.8,2.1l1.7-0.8l1.9,3.9l-0.8-3.8l2,0.6l-1.8-1.8l0.8-1.9l-1.8,0.5L459,115.8z M479,152.1 l-7.5,2.4l7.2,1.1l-0.5,17.1l2.8-15.9l6.8,16.8l-3.9-16.5l7.3-3.1l-8.1-4l1.1-13.7l-3.4,12.2l-7.1-10.6L479,152.1z"/><path fill="#E6458B" d="M490.8,167.2l-5.5-13.7l2.2-14.6l-4.6,4.4c-4.2-8.2-8.7-16.3-13.5-24.2c2.7,8.6,5.4,17.1,7.1,25.8l-10.9-6.8 c4,5.6,8.2,11.2,11.7,16.9l-5.5,16.5l7.5-8.8c0.9,9.5,0.1,18.8,0.4,28.2c1.4-9.6,3-19.1,4.1-29L490.8,167.2z"/><path fill="none" stroke="#132042" stroke-width="1.1275" d="M292.2,106.9c24,24.2,23.5,42.7,21.4,61.4"/><path fill="#A66EBE" d="M221.4,80.4c11.1-39.3,35.3-63.3,37.5-63.3c4.1,0,22,19.3,27.8,56.1c4.8,30.5-0.4,63.4-21,89.4 c27.2-19.4,31.9-59.4,26.7-91.7c-6.3-39.1-26.9-60-33.1-60C254.7,10.9,222.2,40.5,221.4,80.4z"/></svg>
