<svg version="1.1" xmlns="http://www.w3.org/2000/svg" xmlns:xlink="http://www.w3.org/1999/xlink" x="0px" y="0px" width="446px" height="400px" viewBox="0 0 446 400" enable-background="new 0 0 446 400" xml:space="preserve"><path fill="#273771" d="M331,197.9c126.4-35.5,152.3,97.5,55.2,199.2l-23.5-2.9c14.8-8,24.2-22.1,34.4-33.3 c-14.6,10.5-29.7,23.5-47.3,31.8l-102.2-25.9c65.6-15.4,176-110.3,87-153.7L331,197.9z"/><path fill="#622E86" d="M333,203.1l-0.1,2.6c104.6,16.8,43.4,133.8-82.1,160.6l3.8,1.8l26,4.8C369.1,354.6,490.2,225.3,333,203.1z" /><path fill="#E6458B" d="M332.4,201.8c83.3-15.4,161,76.7-18.3,181.5L265,370.5c188.5-61.1,165.6-161.5,68.1-165.4L332.4,201.8z"/><path fill="none" stroke="#132042" stroke-width="4.4688" stroke-miterlimit="13.1" d="M332.6,198.1 c121.5-35.3,149.8,97.8,52.7,199.5l-23.1-3c13-9.8,22.9-21,33.2-32.2c-14.6,10.5-27.7,22.3-45.4,30.5l-103.1-26.7 c65.6-15.4,177.9-109.9,88.9-152.9L332.6,198.1z"/><path fill="none" stroke="#132042" stroke-width="1.2637" d="M331.4,198.2c119-20.6,148,117.1,7.9,192.6"/><path fill="none" stroke="#132042" stroke-width="1.2637" d="M323,325c63.8-29.1,65.6-83.8,24.7-106"/><path fill="#D4A4E8" d="M159.4,171.3c-0.1,22.4,3.8,43.7,12.8,63.4l80.6,57.9l40.1,0.4l8.6-9.8l17.2-3c7,0,13.8,2.7,21.3-2.6 c-1.2-7.1-6.4-12.1-10.6-17.8c6.9-3.9,11.1-13.5,13.8-25.9c0.2-16.6-5.3-29.8-11.4-42.7c-4-11.3-15-16.4-23.3-23.9l-24.3-4.2 l-28.3,12.8L211.5,135L159.4,171.3z"/><path fill="#FFFFFF" d="M323.4,211.9l2,10.8l5.3,1l-5.1,2l1.7,14.4l-3.6-11.9l-2.7,11.3l0.4-12.8l-3.5-1l3.2-2.5l-4.2-11.1l5.7,8.6 L323.4,211.9z M312.8,225.4l-0.3,3.9l-2.6-1.4l2.1,3.1l-1,2.6l1.8-0.8l0.9,4.6l0.3-4.4l1.9,0.9l-1.7-2.7l1.6-2.3l-2,0.4L312.8,225.4 z M306.6,196.2l0.7,2.6l-2.6-1l2.7,2.1l-0.3,1.6l1.2-0.6l2.3,3.2l-1-3l2.1,0.7l-2.2-1.8l0.8-1.4l-1.7,0.4L306.6,196.2z M321.4,195.5 l0.8,3.7l-2.7-0.9l2.8,2.5l-0.4,2l1.5-0.5l1.9,3.8l-0.8-3.8l2.1,1l-2.3-2.5l0.9-1.9l-1.9,0.3L321.4,195.5z M331.9,234.5l-0.7,5 l-2.1-1.8l1.6,4.1l-1,2.8l1.6-0.5l0.8,6.2l0.6-5.7l1.4,1l-1-3.2l1.3-2.8l-1.9,0.1L331.9,234.5z M317.7,245l-0.2,4l-2-0.9l1.6,2.7 l-0.9,2.4l1.6-0.7l0.7,4.6l0.3-4.4l1.6,0.8l-1.3-2.5l1.3-2.4l-1.7,0.8L317.7,245z"/><path fill="#EA428B" d="M314.3,198.5c3.5,5.6,6.8,11.3,9.4,17.9l4.7-3.8l-1.9,11.6l4.6,10.3l-5.9-3c-0.3,7.6-1.9,14.5-3.1,22.2 c0.2-7.6,0.8-14.4,0.1-22l-5.5,5.5l3.4-12.4l-9.4-13l9.2,5.5C318.5,210.8,316.2,204.5,314.3,198.5z"/><path fill="none" stroke="#A66EBE" stroke-width="4.4688" d="M160.2,169.4c0.1,14.7-1.2,46.6,16.4,71.4"/><path fill="#A66EBE" d="M310.3,262.5c6.9-0.1,19.4-1.1,24.8-10.9c9.6-17.3,5.3-35.2-2-52.6c-6.9-16.4-18.2-26.3-33-30.8 c-19.6-5.9-31.3,3.7-43.7,10.9l-1.7-4.5c13.4-6.3,22.6-16.8,46.7-10.4c16.2,4.3,30,17.9,36.3,34.2c5.7,15.1,12.3,35.4,1.2,55 C333.1,263.9,318.4,265,310.3,262.5z"/><path fill="#D4A4E8" d="M251.4,240.8l-30.1-5.2c0.5,9.3-0.5,18.6-3.1,27.9c-4-5.2-8.9-10-14-14.6c-9.4-7.6-18.7-12.9-36.9-13.7 l0-0.1c-8.3-0.8-16.1-1-22,1.6c0.1-0.2,0.1-0.4,0.2-0.6c-0.7,0.5-1.4,1-2,1.5c-1.5,0.9-2.9,2.1-4.1,3.6c-0.4,0.9-0.7,1.8-1,2.7 c-4.7,8.8-3,20.3,0.2,31.5c0,0-6.9,9.5-10.2,16c-3.2,5.5-4.9,11.4-4.7,17.2l0.4,0.6c3.8,10,11.9,9.6,19.5,10.4 c13.7,1.2,24.9-1,34.3-5.6c-0.9-0.8,24.2-7,27.1-5.2c0.7,0.4,31.1,4,31.1,4c8-0.4,13.7-8.8,16-15.2l2-38.1L251.4,240.8z"/><path fill="#A66EBE" d="M330.5,259.8l-4.1,2.1c4.6,5,11.1,9.6,10.9,14c-0.1,2.2-9.6,1.9-14.4,2c-12.2,0.3-19.4,1.6-21.8,3.2 c-1.5,1-6,8.8-9.3,9.2c-11.8,1.5-33.3,0.1-37.3-0.2c1.7-11.7,1.5-26.4-0.6-40.8c17.7-9.4,27.8-5.7,38.2,3.6c-3.6-5.2-7.6-10-13.7-12 c-5.7-22.2,16.3-41.7,28.1-43.8c-16.5-1.1-38,22.1-33.3,42.7c-5.2-0.4-11.7,0.9-20.1,4.6c-0.6-3.1-1.2-6.2-1.9-9.1 c0.4,24.4,4.1,66.8-9.6,73.9c-10,5.2-16.8-3.2-42.9-1.6c-26.2,1.6-21.2,11.2-51.6,10.2c-12.7-0.4-25.2-5.4-20.3-16.5 c8.3-19,17.3-30.5,35.8-34.2c0.2,8.9,2.1,19.3,3.6,21.2c4,5.4,19.5,11.9,34,12.1c18.1,0.3,34.6-6.5,29.5-19.8 c-2.5-6.4-5.5-12-8.7-16.8c2.2-10.9,1.9-21.6,0.7-32.3c-1.3,9.5-2.1,19.8-4.6,26.9c-6.4-7.9-13.3-13.3-19.1-16.5 c-23.5-13.1-50.5-11-56.9-4.7c-10.2,10.2-8.3,24.7-4.4,38.9c-5.8,6-10.7,14.1-14.4,24.5c-5.1,14.4,9.3,20.5,24.1,21 c31,1.1,26.7-7,51.5-10c24.2-3,29.6,7.5,46,0.7c4.8-2,8.1-8.7,10-18c13.1,0.7,26.2,1.4,39.2,0.4c4-0.4,7.6-8.3,8.6-9.4 c1.4-1.5,7.5-2.3,11.7-2.5c9.6-1.4,27,0.6,28.2-4.5C343,271.7,335.8,265.6,330.5,259.8z M143.5,240.8c6.3-6,33.6-6.6,53.4,5.7 c11.2,6.9,21.3,18.2,28.4,34.7c3.8,8.8-7.5,15.6-25.5,14.8c-11.1-0.5-25.4-4.5-29.3-9.9c-5.8-8-6.3-29.9-7.1-29.4 c-0.5,1.6-0.8,3.8-0.9,6.2c-8.4,1.4-15.8,4.6-22.2,9.9C136.9,260.9,136.4,247.5,143.5,240.8z"/><path fill-rule="evenodd" clip-rule="evenodd" fill="#FFFFFF" d="M178.2,121.4c2,17-10.5,31-27.9,31.3 c-17.4,0.2-33.1-13.4-35.1-30.4c-2-17,10.5-31,27.9-31.3C160.5,90.7,176.2,104.3,178.2,121.4z M77.5,88.1 c-7.3,0.9-12.2,15.4-10.9,32.5c1.3,17.1,8.3,30.2,15.6,29.3c7.3-0.9,12.2-15.4,10.9-32.5C91.7,100.4,84.8,87.3,77.5,88.1z"/><linearGradient id="SVGID_1_" gradientUnits="userSpaceOnUse" x1="85.0574" y1="92.1692" x2="85.0574" y2="145.4529"><stop offset="0.1327" style="stop-color:#210045"/><stop offset="1" style="stop-color:#64128D"/></linearGradient><path fill-rule="evenodd" clip-rule="evenodd" fill="url(#SVGID_1_)" d="M71.2,115.7c-0.2,14.6,5.9,27.9,13.6,29.6 c7.7,1.7,14-8.7,14.2-23.3c0.2-14.6-5.9-27.9-13.6-29.6C77.7,90.6,71.4,101.1,71.2,115.7z"/><g><defs><path id="SVGID_2_" d="M71.2,115.7c-0.2,14.6,5.9,27.9,13.6,29.6c7.7,1.7,14-8.7,14.2-23.3c0.2-14.6-5.9-27.9-13.6-29.6 C77.7,90.6,71.4,101.1,71.2,115.7z"/></defs><clipPath id="SVGID_3_"><use xlink:href="#SVGID_2_" overflow="visible"/></clipPath><polygon clip-path="url(#SVGID_3_)" fill="#CCAED7" points="76.5,139.7 85.3,125.3 74.1,135.3"/><polygon clip-path="url(#SVGID_3_)" fill="#8C4FAB" points="72.2,131.6 85.3,125.3 73.9,136"/></g><path fill-rule="evenodd" clip-rule="evenodd" d="M74.2,114.3C74.1,125.9,78,137,83,139.1c5,2.1,9-5.5,9.1-17.1 c0.1-11.6-3.8-22.7-8.8-24.8C78.4,95.1,74.3,102.8,74.2,114.3z"/><path fill-rule="evenodd" clip-rule="evenodd" fill="#FFFFFF" d="M90.9,106.5c1.7,6.2,0.6,12.1-2.4,13.2c-3.1,1-6.9-3.2-8.7-9.4 c-1.7-6.2-0.6-12.1,2.4-13.2C85.3,96.1,89.1,100.3,90.9,106.5z M81.4,127.1c0.3,1.5,1.3,2.7,2.2,2.5c1-0.1,1.6-1.4,1.3-3 c-0.3-1.5-1.3-2.7-2.2-2.5C81.8,124.3,81.2,125.6,81.4,127.1z"/><linearGradient id="SVGID_4_" gradientUnits="userSpaceOnUse" x1="123.5958" y1="96.0328" x2="123.5958" y2="148.5448"><stop offset="0.1327" style="stop-color:#210045"/><stop offset="1" style="stop-color:#64128D"/></linearGradient><path fill-rule="evenodd" clip-rule="evenodd" fill="url(#SVGID_4_)" d="M139.8,121.4c-1.9,14.5-10.6,26.6-19.5,27.1 c-8.9,0.5-14.7-10.9-12.8-25.4C109.3,108.7,118,96.5,127,96C135.9,95.6,141.6,106.9,139.8,121.4z"/><g><defs><path id="SVGID_5_" d="M139.8,121.4c-1.9,14.5-10.6,26.6-19.5,27.1c-8.9,0.5-14.7-10.9-12.8-25.4C109.3,108.7,118,96.5,127,96 C135.9,95.6,141.6,106.9,139.8,121.4z"/></defs><clipPath id="SVGID_6_"><use xlink:href="#SVGID_5_" overflow="visible"/></clipPath><polygon clip-path="url(#SVGID_6_)" fill="#CCAED7" points="131.9,141.9 122.4,128.7 137.8,136.6"/><polygon clip-path="url(#SVGID_6_)" fill="#8C4FAB" points="139.9,128.7 122.3,128.7 137.4,137.9"/></g><path fill-rule="evenodd" clip-rule="evenodd" d="M132.2,118.4c-1.5,11.5-7.6,21.8-13.5,23.1c-5.9,1.3-9.5-7-7.9-18.4 c1.5-11.5,7.6-21.8,13.5-23.1C130.2,98.7,133.7,106.9,132.2,118.4z"/><path fill-rule="evenodd" clip-rule="evenodd" fill="#FFFFFF" d="M134.2,113.6c0,6.5-2.9,11.8-6.6,11.9c-3.7,0.1-6.7-5.1-6.8-11.6 c0-6.5,2.9-11.8,6.6-11.9C131.1,102,134.2,107.1,134.2,113.6z M118.9,126.9c-1.4,0.3-2.2,1.7-1.9,3.3c0.3,1.5,1.7,2.5,3,2.3 c1.4-0.3,2.2-1.7,1.9-3.3C121.6,127.7,120.2,126.7,118.9,126.9z"/><path fill="#FFFFFF" stroke="#B0D8E7" stroke-width="1.6758" d="M106.9,174.9c-1.2,3.9-8,5.3-15.2,3.1c-7.2-2.2-12.1-7.1-11-11 c1.2-3.9,8-5.3,15.2-3.1C103.2,166,108.1,171,106.9,174.9z"/><path fill="#B0D8E7" d="M91.5,173c3.4-0.6,6.2-1.4,9.8-3.1l0.2,1.3C97.8,172.3,94.5,173.1,91.5,173z"/><path fill="#D4A4E8" d="M118.5,101.5c7.1,3,14.3,5.7,22.3,7.5c10.2,2.4,19.6,2.4,29.1,2.4c0.4,13.1-2.9,25.3-14.7,35.3 c-16.6-6.3-31.6-6.4-46.2-4.9c-1.5-6.8-0.7-14,0.6-21.2C111.5,112.6,114.8,106.8,118.5,101.5z M92.5,24.4L70.5,74l-5.4,38.4 l2.5,10.6c-0.7-6.7-1-13.6-1-19.7c5.7-1.5,10.8-5.5,15.9-9.2c2.9,6,7.7,46.7-9.6,50.5c-0.2-0.4-0.4-0.8-0.6-1.2l0.4,1.7l-9.9,3.9 l0.6,7.3l8.7,12.7l5.7,1.4l10.5-1.8l8.5-0.8l4,1.5l3,4.6l-1.3,1.5l-19.4,1.1l13.6,6.3l17.6,2.6l21.5-3.2l23.8-7 c23.9-11.1,40.3-28.4,60.4-42.6c13.2-40.6-16.6-65.2-25.4-97.6L92.5,24.4z"/><path fill="none" stroke="#A66EBE" stroke-width="2.793" d="M71.5,72.8c-6.3,17.9-8.8,50.8,2.2,72.8"/><path opacity="0.7" fill="#CFEFEB" d="M82.4,136.2c-4.6-2.1-6.8,2.6-10.4,4.9c-3.4,2.2,0.2,4.7,2.2,4.1 C77.3,143.1,80.5,141.1,82.4,136.2z"/><path fill="#A66EBE" d="M82.5,135.6c-2.9,10.8-7.3,10.7-13.6,12.8c-4,1.3-4.7,4.6,0,12.3c5.8,9.6,11.9,8.9,24.8,5.9 c7.4-1.7,12.6,4.3,12.4,9.6c-5.3,0.2-12.8,0.5-16.8,0.7c9.5,4.3,19.6,5.6,29.8,5.2c16.8-0.8,34.5-5.9,48.6-10.7 c-9.2,6.4-29,13.1-48.6,14c-14,0.6-27.8-1.8-39.1-10.2c9-0.9,16.4-1.2,22.2-1.2c-0.2-2.8-3.9-5.4-10-4c-10,2.2-18.6,5.7-27.1-7.9 c-6.8-11-2.4-16.3,4.4-17.4C77.4,143.3,79,140.3,82.5,135.6L82.5,135.6z"/><path d="M88.8,89.6c-1,1.6-2.3,3.2-3.9,4.7c2.9,12.7,1.6,23.7-0.5,34.5c0.1-11.2,1.5-23.1-1.7-32.4c-4.6,4-10.4,7.5-14.5,8.5 c-4.6,1.2-11.1-4.2-11.9-8.9c2.1,2.2,5.9,6.1,10,5.5c7.3-1.1,18.4-11.5,18.9-13.7c0.8-3.5-2.1-9.5-3.5-13.6 C84.8,76.5,90.7,86.4,88.8,89.6z M54.8,106.2c2,3.4,5.4,6,12.8,4.6l0-3.5C61.8,109.4,58.3,107.5,54.8,106.2z M55.7,115.6 c2,2.6,7.5,3.3,12-0.3l-0.2-3.5C64.8,115.9,59.8,116.6,55.7,115.6z"/><path d="M185.3,102.9c-7.9,16.2-44.5,10-65.8,0.4c-8.1,9.5-10.5,25.3-9.4,38.6l-1.4,0.2c-1.8-17.5,1.1-30.8,8.4-39.9 c-4.6-2.2-8.2-4.6-10.5-6.9c-2.2-2.2-0.1-10.1,5.6-16.3c-0.8,4.4-3.8,12.3-1.8,14.2C123.7,105.3,167.6,117.2,185.3,102.9z M169.9,114l-0.2,3.8c5.2,0,15-0.9,16.2-5.7C180.9,115.5,172.4,114.5,169.9,114z M182.7,122.5c-2.1,4.5-11.6,1.3-13.6,0l0.4-3.1 C172.5,121.8,178,123.5,182.7,122.5z M177.2,133.5c-1.1-1.3-4.3-2.9-10.7-1.8l1-2.6C169.5,128.9,176.7,129.7,177.2,133.5z M174.3,143.4c-2.6-3.9-6.2-5.1-11.7-4.8l1.4-2.1C168.6,136.3,173.8,138.6,174.3,143.4z M160.4,141.5c2.6,1.5,6.6,4.5,4.4,9.9 c0.2-3.6-2.2-6.9-6-8.1L160.4,141.5z"/><path opacity="0.7" fill="#CFEFEB" d="M108.6,140.1c0.2-2.2,2-3.7,4.8-2.8c2.8,0.9,5.6,0.6,8.3,0.3c2.3-0.3,6.8-3.6,11.7,0.2 c3,2.3,6.7,0,10.1,1.3c11.5,4.5,13.8,2.8,16.6,7.8c0.8,3.6,3.1,15.5-0.5,17.5c-5.3,3,0.5-16.2-0.1-17.3c-3.7-0.1-15.5-3.5-15.5-3.5 l-9.5-2.3l-13.5-0.5l-12.4,1C108.7,141.9,108.5,141,108.6,140.1z"/><path opacity="0.5" fill="#FFFFFF" d="M158.8,158.5c-0.2,1.5-0.1,5.5-0.4,5.1C157.2,161.7,158.3,158.5,158.8,158.5z"/><path fill="#A66EBE" d="M111,145.8c7-0.7,8.6,2.4,14,3.7C119.9,151,119.6,147.7,111,145.8z M104.6,142.6c0.4,0.7,14-2.1,28.5-0.3 c13.6,1.7,21.3,7.4,26.3,5.1c1-0.5-3-1.1-7.8-2.6c-5-1.5-11.5-3.7-18-4.5C125.9,139.3,103.4,140.6,104.6,142.6z"/><path fill="#A66EBE" d="M77.6,157c4.2,0.3,5.3-0.7,6.3-3.7C84.9,157,83.4,160.7,77.6,157z"/><path fill="#273771" d="M223.2,81.7c6.4,19,6.9,41.7,19.1,63.3c21.9,31.8,12.8,54.5,10.7,66.7c-9.6,14.2-10.5,20-23,27.8 c-18.1-8.7-35.2-30.6-45.6-49.2c10.7-6.1,27.8-21.3,35-40.5c-11.1,8.4-19,17.6-37.8,18l-1.6-25c52.1-13.6,35.9-26.4,38.4-50.5 L223.2,81.7z"/><path fill="#622E86" d="M241.2,142.8c-5.6,20.2,2.9,34.4-39.1,74.1l7.6,8.4c36.3-29.2,39.5-52.4,35.6-79.8L241.2,142.8z"/><path fill="#E6458B" d="M216.9,230.5l-7.5-5.5c37.1-39.6,35.3-61.9,36-77.1c5.1,3.3,3,5.7,4.9,8.5 C247.7,187.3,238,207.4,216.9,230.5z"/><path fill="none" stroke="#132042" stroke-width="1.6862" d="M229.6,108.8c-8.2,26.1-13.1,47.5-47.2,51.5"/><path fill="none" stroke="#132042" stroke-width="1.6862" d="M236.4,130.9c-5.3,29.1-11.6,56.1-39.1,80.2"/><path fill="none" stroke="#132042" stroke-width="4.4688" stroke-miterlimit="15" d="M222.9,81.7c3.3,21.3,11.5,50,20.8,63.5 c25.1,36.6,10.8,76.9-13.9,95.2c-18.1-8.7-39.2-34.6-44.6-51.4c10.8-4.8,34.2-21.3,37.3-42.8c-6,9.2-26.5,25-41.3,22.5 c-0.6-6.5-1-18.3-0.9-26.7c47.2-6.1,38.3-33,36.9-50.5L222.9,81.7z"/><path fill="#273771" d="M192.6,23.8C149.7,27,92.7-14.4,48.9,10C18.1,28.4,3,64.2,2.4,76.6L27.1,75c4.3-13.4,7.2-25.7,14.5-37.8 c-3.2,13.9-4.3,26.4-4.4,38.1c52.8-3,81.4,11.6,126.6,24.8c-7.1-20.6,2.1-45.5,21.7-60.5L192.6,23.8z"/><path fill="none" stroke="#132042" stroke-width="1.6032" d="M91.7,3.3c0,0-44.3,25.8-41.7,72.3"/><path fill="none" stroke="#132042" stroke-width="1.6032" d="M61.8,74.4c0,0,8.8-47.3,39.7-71.3"/><path fill="none" stroke="#132042" stroke-width="1.6032" d="M148.7,93.2c-6.1-19.9-1.8-45.1,19.5-72.1"/><path fill="#E6458B" d="M164.5,21.9c-15.9,5.4-39,32.4-32.5,63.1l-31.1-5.9c4.5-27.2,20.2-48.6,57.1-59.3L164.5,21.9z"/><path fill="#D4A4E8" d="M89.3,64.6C79.2,47.4,69.7,43.7,59.1,13.1c5.8-6.3,26.5,11.7,46.5,28.5L89.3,64.6z"/><path fill="#A66EBE" d="M87.8,67.2c-13.4-20.2-36.6-50-29.2-56.5c9.3-8.2,36.1,18.6,49.3,28.4l-3.4,3.4 C92.3,32.1,66.8,9.3,61.6,13.7C57.9,16.9,79.1,47.7,91,63.5L87.8,67.2z"/><path fill="#A66EBE" d="M73.9,16.2l-1.3,0.6c1,2.1,2.3,6.5,2.1,9.9c-0.1,1.7-0.5,3.2-1.4,4.2c-0.9,1-2.3,1.7-4.7,1.7l0,1.5 c2.7,0,4.6-0.8,5.8-2.2c1.2-1.4,1.7-3.2,1.8-5.1C76.3,23,75,18.5,73.9,16.2z"/><path fill="#A66EBE" d="M89.2,27.6l-1.4,0.4c1.6,6.4,1.7,12.3,0.5,16.3c-0.6,2-1.6,3.6-2.9,4.5c-1.3,1-3,1.5-5.1,1.3l-0.1,1.5 c2.4,0.2,4.5-0.4,6.1-1.6c1.6-1.2,2.7-3.1,3.4-5.3C91,40.3,90.8,34.2,89.2,27.6z"/><path fill="#622E86" d="M84.6,77.2c4.3-28.2,30.6-52.2,71.1-58l4.3,1c-23.1,10.3-48.5,24.3-55.7,59.3L84.6,77.2z"/><path fill="none" stroke="#132042" stroke-width="4.4688" stroke-miterlimit="7.3" d="M194.8,23.7C151.9,26.9,92.7-14.4,48.9,10 C18.1,28.4,3,64.2,2.4,76.6L27.1,75c4.3-13.4,7.2-25.7,14.5-37.8c-3.2,13.9-4.3,26.4-4.4,38.1c52.8-3,91.2,9.8,126.2,24.6 c-7.1-20.6,3.3-52.5,23.9-60.5L194.8,23.7z"/><path fill="#D4A4E8" d="M230,43.6c-1.8-12.3-2.7-24.8-12.3-32.9c0.3-0.2,0.5-0.3,0.8-0.5l-3.3-1.4c-1.1-0.8-2.4-1.5-3.7-2.1 c-0.2,0.1-0.3,0.2-0.5,0.3l-0.7-0.3c-1.2,0.9-2.6,2.1-4.1,3.7c-8.3,5.9-16.3,13-21.3,32.2c-0.2,0.4-0.3,0.7-0.5,1.1 c0.1-0.1,0.2-0.2,0.3-0.3c-0.6,2.4-1.2,4.9-1.7,7.7c2.4-2.1,12.8,23.8,28.1,52.5C222.2,91.8,235.3,73.1,230,43.6z"/><path fill="#A66EBE" d="M214,35.8c4.2,16.9,1.2,31.4-7.4,43.9C211.6,67.2,214.3,52.9,214,35.8z"/><path fill="#A66EBE" d="M182.8,48.6c0.2-1.8,2.1-21.7,21.2-40.4c15.8-15.5,29.9,17.8,29.8,49.7c-0.1,30.9-19.3,45.3-22.9,45.9 c9.8-11.2,16.9-19.2,18.4-45.1c1.3-21.8-10.1-58.4-21.5-48.2C195.8,21.2,188,36,182.8,48.6z"/></svg>
