<svg xmlns="http://www.w3.org/2000/svg" viewBox="0 0 16 64"><path fill="#FFDE15" d="M0 48h16v16H0z"/><path d="M3.5 51.2v9.7c0 .4.4.6.7.4l8-4.8c.3-.2.3-.6 0-.8l-8-4.8c-.3-.3-.7-.1-.7.3z"/><linearGradient id="a" x1="8" x2="8" y1="26.373" y2="37.627" gradientUnits="userSpaceOnUse"><stop offset="0" stop-color="#e52d27"/><stop offset="1" stop-color="#bf171d"/></linearGradient><path fill="url(#a)" d="M15.8 28.8s-.2-1.1-.6-1.6c-.6-.6-1.3-.6-1.6-.7-2.2-.1-5.6-.1-5.6-.1s-3.4 0-5.6.2c-.3 0-1 0-1.6.7-.5.5-.6 1.6-.6 1.6S0 30.1 0 31.4v1.2c0 1.3.2 2.6.2 2.6s.2 1.1.6 1.6c.6.6 1.4.6 1.8.7 1.2.1 5.4.1 5.4.1s3.4 0 5.6-.2c.3 0 1 0 1.6-.7.5-.5.6-1.6.6-1.6s.2-1.3.2-2.6v-1.2c0-1.2-.2-2.5-.2-2.5z"/><path fill="#FFF" d="M6.3 34.1l4.4-2.3-4.4-2.2z"/><path fill="#420000" fill-rule="evenodd" d="M6.3 29.6l3.8 2.5.6-.3z" clip-rule="evenodd" opacity=".12"/><g><path fill="#0066DC" d="M0 0h16v16H0z"/><path fill="#FFF" d="M13.8 2.3l-2.5.5v3.6c-.5-.7-1.3-1-2.3-1-1.1 0-2 .4-2.8 1.2-.9.8-1.4 1.8-1.4 3 0 1.3.5 2.4 1.5 3.3.7.7 1.6 1 2.6 1s1.7-.3 2.5-1v.9h2.4V2.3zm-4.3 9.4c-1.3 0-2.2-.9-2.2-2.1 0-1.1.9-2.1 2.1-2.1 1.2 0 2 .9 2 2.1 0 1.2-.9 2.1-1.9 2.1z"/></g></svg>