<svg version="1.1" xmlns="http://www.w3.org/2000/svg" x="0px" y="0px" width="16px" height="40px"><linearGradient id="G" gradientUnits="userSpaceOnUse" x1="8" y1="26.3733" x2="8" y2="37.6267"><stop offset="0" style="stop-color:#E52D27"/><stop offset="1" style="stop-color:#BF171D"/></linearGradient><path d="M15.8,28.8c0,0-0.2-1.1-0.6-1.6c-0.6-0.6-1.3-0.6-1.6-0.7C11.4,26.4,8,26.4,8,26.4h0 c0,0-3.4,0-5.6,0.2c-0.3,0-1,0-1.6,0.7c-0.5,0.5-0.6,1.6-0.6,1.6S0,30.1,0,31.4v1.2c0,1.3,0.2,2.6,0.2,2.6s0.2,1.1,0.6,1.6 c0.6,0.6,1.4,0.6,1.8,0.7C3.8,37.6,8,37.6,8,37.6s3.4,0,5.6-0.2c0.3,0,1,0,1.6-0.7c0.5-0.5,0.6-1.6,0.6-1.6s0.2-1.3,0.2-2.6v-1.2 C16,30.1,15.8,28.8,15.8,28.8z" fill="url(#G)"/><polygon points="6.3,34.1 10.7,31.8 6.3,29.6" fill="#FFF"/><polygon style="opacity:#420000;fill:#420000" points="6.3,29.6 10.1,32.1 10.7,31.8"/><rect width="16" height="16" fill="#0066DC"/><path d="M13.8,2.3l-2.5,0.5v3.6C10.8,5.7,10,5.4,9,5.4c-1.1,0-2,0.4-2.8,1.2C5.3,7.4,4.8,8.4,4.8,9.6 c0,1.3,0.5,2.4,1.5,3.3c0.7,0.7,1.6,1,2.6,1c1,0,1.7-0.3,2.5-1v0.9h2.4V2.3z M9.5,11.7c-1.3,0-2.2-0.9-2.2-2.1 c0-1.1,0.9-2.1,2.1-2.1c1.2,0,2,0.9,2,2.1C11.4,10.8,10.5,11.7,9.5,11.7z" fill="#FFF"/></svg>
