<svg version="1.1" xmlns="http://www.w3.org/2000/svg" x="0px" y="0px" viewBox="-357 161 245 240" enable-background="new -357 161 245 240" xml:space="preserve"><path fill="#7289DA" d="M-145.3,217.1c-29.2-21.9-57-21.3-57-21.3l-2.8,3.2c34.5,10.5,50.5,25.8,50.5,25.8 c-21.1-11.6-41.8-17.2-61-19.5c-14.6-1.6-28.6-1.2-41,0.4c-1.2,0-2.2,0.2-3.4,0.4c-7.1,0.6-24.3,3.2-46,12.8c-7.5,3.4-12,5.9-12,5.9 s16.8-16,53.3-26.6l-2-2.4c0,0-27.8-0.6-57,21.3c0,0-29.2,52.9-29.2,118.2c0,0,17,29.4,61.8,30.8c0,0,7.5-9.1,13.6-16.8 c-25.8-7.7-35.5-23.9-35.5-23.9s2,1.4,5.7,3.4c0.2,0.2,0.4,0.4,0.8,0.6c0.6,0.4,1.2,0.6,1.8,1c5.1,2.8,10.1,5.1,14.8,6.9 c8.3,3.2,18.2,6.5,29.8,8.7c15.2,2.8,33.1,3.9,52.5,0.2c9.5-1.6,19.3-4.5,29.4-8.7c7.1-2.6,15-6.5,23.3-12c0,0-10.1,16.6-36.7,24.1 c6.1,7.7,13.4,16.4,13.4,16.4c44.8-1.4,62-30.8,62-30.8C-116.1,270.1-145.3,217.1-145.3,217.1z M-272.4,316.5 c-11.4,0-20.7-10.1-20.7-22.5c0-12.4,9.1-22.5,20.7-22.5c11.6,0,20.9,10.1,20.7,22.5C-251.7,306.3-260.9,316.5-272.4,316.5z M-198.4,316.5c-11.4,0-20.7-10.1-20.7-22.5c0-12.4,9.1-22.5,20.7-22.5c11.6,0,20.7,10.1,20.7,22.5 C-177.7,306.3-186.9,316.5-198.4,316.5z"/></svg>
